<?xml version="1.0" encoding="UTF-8"?>
<svg id="Layer_2" xmlns="http://www.w3.org/2000/svg" viewBox="0 0 119 119">
  <defs>
    <style>
      .cls-1 {
        stroke: #fd75ea;
      }

      .cls-1, .cls-2, .cls-3 {
        fill: none;
      }

      .cls-1, .cls-3 {
        stroke-miterlimit: 10;
        stroke-width: 4px;
      }

      .cls-4 {
        fill: #6e12cf;
      }

      .cls-5 {
        fill: #0088d6;
      }

      .cls-3 {
        stroke: #7224c9;
      }
    </style>
  </defs>
  <g id="feutre_emojis">
    <circle class="cls-1" cx="59.5" cy="59.5" r="57.5"/>
    <path class="cls-3" d="M23.5,59.5c-8.53-5.41-10.25-16.12-6-22,4.53-6.28,16.34-7.74,24,0"/>
    <path class="cls-3" d="M93.34,60.52c8.53-5.41,10.25-16.12,6-22-4.53-6.28-16.34-7.74-24,0"/>
    <circle class="cls-5" cx="37" cy="53" r="8.5"/>
    <circle class="cls-5" cx="80" cy="51" r="8.5"/>
    <g>
      <rect class="cls-2" x="5.32" y="77.08" width="50.92" height="25.9" transform="translate(-64.17 96.29) rotate(-74.9)"/>
      <polygon class="cls-4" points="44.07 90.48 40.74 77.97 37.41 65.45 28.24 74.59 19.06 83.74 25.43 85.45 22.59 95.99 34.86 99.3 37.7 88.77 44.07 90.48"/>
    </g>
    <g>
      <rect class="cls-2" x="71.66" y="65.04" width="25.9" height="50.92" transform="translate(-20.66 25.17) rotate(-15.1)"/>
      <polygon class="cls-4" points="71.32 90.95 74.65 78.44 77.97 65.92 87.15 75.06 96.32 84.2 89.95 85.92 92.79 96.45 80.52 99.77 77.68 89.23 71.32 90.95"/>
    </g>
  </g>
</svg>