<?xml version="1.0" encoding="UTF-8"?>
<svg id="Layer_2" xmlns="http://www.w3.org/2000/svg" viewBox="0 0 119 119">
  <defs>
    <style>
      .cls-1 {
        fill: #d0034f;
      }

      .cls-2 {
        fill: #0c0c0c;
      }

      .cls-3 {
        fill: #009155;
      }

      .cls-4 {
        fill: none;
        stroke: #202020;
        stroke-miterlimit: 10;
        stroke-width: 4px;
      }
    </style>
  </defs>
  <g id="feutre_emojis">
    <circle class="cls-4" cx="59.5" cy="59.5" r="57.5"/>
    <ellipse class="cls-1" cx="40.5" cy="52" rx="15" ry="22.5"/>
    <ellipse class="cls-1" cx="86.5" cy="54" rx="15" ry="22.5"/>
    <polygon class="cls-3" points="40.5 25.55 54 17.5 49.43 28.72 67.5 31.9 49.43 35.08 54 46.3 40.5 38.25 27 46.3 31.57 35.08 13.5 31.9 31.57 28.72 27 17.5 40.5 25.55"/>
    <polygon class="cls-3" points="85.54 31.72 99.04 23.67 94.47 34.9 112.54 38.07 94.47 41.25 99.04 52.48 85.54 44.43 72.04 52.48 76.61 41.25 58.54 38.07 76.61 34.9 72.04 23.67 85.54 31.72"/>
    <ellipse class="cls-2" cx="43.5" cy="46" rx="2" ry="3.5"/>
    <ellipse class="cls-2" cx="35.5" cy="50" rx="2" ry="3.5"/>
    <ellipse class="cls-2" cx="33.5" cy="61" rx="2" ry="3.5"/>
    <ellipse class="cls-2" cx="48.5" cy="56" rx="2" ry="3.5"/>
    <ellipse class="cls-2" cx="43.5" cy="65" rx="2" ry="3.5"/>
    <ellipse class="cls-2" cx="75.5" cy="57" rx="2" ry="3.5"/>
    <ellipse class="cls-2" cx="83.5" cy="51" rx="2" ry="3.5"/>
    <ellipse class="cls-2" cx="81.5" cy="66" rx="2" ry="3.5"/>
    <ellipse class="cls-2" cx="92.5" cy="55" rx="2" ry="3.5"/>
    <ellipse class="cls-2" cx="92.5" cy="66" rx="2" ry="3.5"/>
    <rect class="cls-2" x="54.5" y="87.5" width="13" height="10"/>
  </g>
</svg>