<?xml version="1.0" encoding="UTF-8"?>
<svg id="Layer_2" xmlns="http://www.w3.org/2000/svg" viewBox="0 0 119.5 119.5">
  <defs>
    <style>
      .cls-1 {
        stroke: #e02c83;
        stroke-width: 4px;
      }

      .cls-1, .cls-2, .cls-3 {
        fill: none;
        stroke-miterlimit: 10;
      }

      .cls-4 {
        fill: #fff;
      }

      .cls-5 {
        fill: #f45def;
      }

      .cls-2 {
        stroke: #f45def;
        stroke-width: 7px;
      }

      .cls-6 {
        fill: #f94396;
      }

      .cls-3 {
        stroke: #3f2625;
        stroke-width: 5px;
      }

      .cls-7 {
        fill: #ff713a;
      }
    </style>
  </defs>
  <g id="feutre_emojis">
    <circle class="cls-6" cx="58.5" cy="60" r="57.5"/>
    <path class="cls-4" d="M98,80.5c0-11.88,8.28-21.81,19.39-24.36-1.93-30.01-26.87-53.76-57.37-53.76S2.52,28.13,2.52,59.88c0,2.26.15,4.49.4,6.68,15.67.99,28.08,14.01,28.08,29.93,0,4.11-.83,8.02-2.32,11.58,9.02,5.88,19.78,9.3,31.34,9.3,17.69,0,33.51-7.99,44.05-20.56-3.78-4.38-6.07-10.08-6.07-16.32Z"/>
    <path class="cls-3" d="M30.5,49c-4.32,2.47-6.7,7.27-6,12,.79,5.33,5.35,9.56,11,10"/>
    <path class="cls-3" d="M24.5,46c-.9.31-5.56,1.99-8,7-2.83,5.81-.33,11.29,0,12"/>
    <path class="cls-3" d="M87.5,54c3.9-.72,7.58,1.02,9,4,1.28,2.7.23,5.43,0,6"/>
    <path class="cls-3" d="M93.5,49c.52-.15,3.79-1,7,1,3.28,2.05,3.91,5.48,4,6"/>
    <circle class="cls-1" cx="60" cy="59.5" r="57.5"/>
    <circle class="cls-7" cx="31.5" cy="42" r="10.5"/>
    <circle class="cls-7" cx="86.5" cy="48" r="8.5"/>
    <path class="cls-3" d="M23,32.5c1.35-.5,6.75-2.35,13,0,5.5,2.07,5.42,8.28,10,9,3.3.52,7.16-1.72,9-5,1.72-3.05,1.19-6.11,1-7"/>
    <path class="cls-3" d="M41.5,34c.51-.2,3.67-1.49,5-5,1.56-4.12-.77-7.67-1-8"/>
    <path class="cls-3" d="M31.5,30c3.28-.47,5.75-3.02,6-6,.2-2.32-.98-4.61-3-6"/>
    <path class="cls-3" d="M78.5,41c2.64-1.57,6.42-3.2,10-2,3.5,1.18,4.39,4.25,7,4,2.57-.25,5.32-3.59,5-7-.2-2.09-1.48-3.49-2-4"/>
    <path class="cls-3" d="M88.5,38c.28-1.07.73-3.32,0-6-.51-1.86-1.38-3.2-2-4"/>
    <path class="cls-3" d="M81.5,38c.22-1.43.39-3.52,0-6-.42-2.64-1.3-4.68-2-6"/>
    <circle class="cls-1" cx="59.5" cy="60" r="57.5"/>
    <path class="cls-5" d="M64.94,78.32c7.62,0,14.7,1.5,20.58,4.07-.24-9.05-4.48-16.26-9.7-16.26-3.52,0-6.6,3.3-8.3,8.23-1.55-5.82-4.9-9.86-8.8-9.86-5.19,0-9.42,7.15-9.69,16.15,4.82-1.5,10.21-2.34,15.91-2.34Z"/>
    <path class="cls-2" d="M35.01,86.27c6.48-2.58,17.08-5.81,30.32-5.44,7.79.21,14.4,1.61,19.44,3.11"/>
    <path class="cls-2" d="M74.66,92.49c-.96.02-2.36.17-3.89.78-4.8,1.92-4.89,6.08-8.55,7.77-3.4,1.57-8.67.49-11.66-3.11-2.73-3.29.96-7.73-1.55-10.88-1.57-1.97-4.39-2.3-6.22-2.33"/>
  </g>
</svg>