<?xml version="1.0" encoding="UTF-8"?>
<svg id="Layer_2" xmlns="http://www.w3.org/2000/svg" viewBox="0 0 119 119">
  <defs>
    <style>
      .cls-1 {
        stroke-width: 6px;
      }

      .cls-1, .cls-2 {
        stroke: #ff8555;
      }

      .cls-1, .cls-2, .cls-3, .cls-4 {
        fill: none;
        stroke-miterlimit: 10;
      }

      .cls-2, .cls-3 {
        stroke-width: 5px;
      }

      .cls-3 {
        stroke: #e83695;
      }

      .cls-5 {
        fill: #02a2e4;
      }

      .cls-4 {
        stroke: #cd6bff;
        stroke-width: 4px;
      }
    </style>
  </defs>
  <g id="feutre_emojis">
    <circle class="cls-4" cx="59.5" cy="59.5" r="57.5"/>
    <ellipse class="cls-5" cx="76" cy="46" rx="8.5" ry="9.5"/>
    <ellipse class="cls-5" cx="41" cy="43" rx="8.5" ry="9.5"/>
    <line class="cls-3" x1="72.5" y1="31.5" x2="72.5" y2="23.5"/>
    <line class="cls-3" x1="79" y1="33" x2="84" y2="26"/>
    <line class="cls-3" x1="89" y1="36" x2="101" y2="29"/>
    <line class="cls-3" x1="88" y1="51" x2="102" y2="59"/>
    <line class="cls-3" x1="83" y1="55" x2="84" y2="65"/>
    <line class="cls-3" x1="32" y1="56" x2="24" y2="62"/>
    <line class="cls-3" x1="28" y1="51" x2="13" y2="51"/>
    <line class="cls-3" x1="51" y1="29" x2="59" y2="21"/>
    <path class="cls-3" d="M42,28c-.59-.4-4.35-3.02-5-8-.54-4.2,1.49-7.28,2-8"/>
    <path class="cls-3" d="M31,33c-3.63.16-6.87-1.91-8-5-1.29-3.52.77-6.67,1-7"/>
    <line class="cls-1" x1="21" y1="77" x2="98" y2="79"/>
    <line class="cls-1" x1="59" y1="78" x2="60" y2="96"/>
    <line class="cls-1" x1="24" y1="71" x2="19" y2="86"/>
    <line class="cls-2" x1="98" y1="70" x2="100" y2="86"/>
    <polyline class="cls-1" points="42.95 78 42.95 95.27 77 96 77 78"/>
  </g>
</svg>