<?xml version="1.0" encoding="UTF-8"?>
<svg id="Layer_2" xmlns="http://www.w3.org/2000/svg" viewBox="0 0 119 119">
  <defs>
    <style>
      .cls-1 {
        stroke: #182dcd;
        stroke-width: 6px;
      }

      .cls-1, .cls-2, .cls-3, .cls-4 {
        fill: none;
        stroke-miterlimit: 10;
      }

      .cls-2 {
        stroke: #8a42d9;
      }

      .cls-2, .cls-3, .cls-4 {
        stroke-width: 4px;
      }

      .cls-5 {
        fill: #182dcd;
      }

      .cls-3 {
        stroke: #09c8f4;
      }

      .cls-4 {
        stroke: #1b29c0;
      }
    </style>
  </defs>
  <g id="feutre_emojis">
    <circle class="cls-2" cx="59.5" cy="59.5" r="57.5"/>
    <path class="cls-3" d="M45.5,45.5c.82-.67,7.88-6.58,7-15-.4-3.83-2.51-8.96-5-9-4.57-.08-8.75,17.09-9,17-.22-.08,6.13-12.61,2-17-2.19-2.33-7.3-2.33-10,0-5.32,4.59-.62,17.64-2,18-1.38.36-4.6-13.11-8-13-2.45.08-4.42,7.22-6,17"/>
    <path class="cls-3" d="M74.5,46.5c-5.45-3.43-8.14-9.06-7-14,.7-3.03,3.13-6.97,6-7,5.28-.05,9.75,13.12,10,13,.26-.13-7.9-12.81-4-18,1.37-1.83,4.03-2.45,6-2,3.63.83,6.53,5.66,6,12"/>
    <path class="cls-3" d="M18.5,71.5c2.4,2.04,5.24,3.91,7,3,2.36-1.22,1.53-6.74,3-7,1.38-.25,2.25,4.62,5,5,1.95.27,4.26-1.8,5-4,1.1-3.28-1.29-6.87-1-7,.32-.15,1.64,4.92,5,6,2.54.82,6.55-.54,8-4,1.15-2.74.35-5.99-2-8"/>
    <path class="cls-3" d="M74.5,55.5c-.49.06-3.78.54-5,3-1.69,3.42,1.74,8.43,5,9,4.1.71,8.39-5.54,9-5,.51.46-3.58,4.02-3,8,.5,3.42,4.37,6.61,7,6,3.24-.75,4.24-7.2,5-7,.75.19-1.57,6,1,9,1.91,2.23,6.07,2.38,9,1,3.98-1.88,4.84-6.19,5-7,.67-3.38-.54-6.09-1-7"/>
    <path class="cls-4" d="M16.5,62.5c-4.45-5.96-2.38-14.11,3-17,4.8-2.57,11.75-.69,15,5"/>
    <path class="cls-4" d="M103.67,55.82c4.45-5.96,2.38-14.11-3-17-4.8-2.57-11.75-.69-15,5"/>
    <circle class="cls-5" cx="92.5" cy="43.5" r="6"/>
    <circle class="cls-5" cx="22.5" cy="51.5" r="6"/>
    <line class="cls-1" x1="29.5" y1="83.5" x2="59.5" y2="98.5"/>
  </g>
</svg>