<?xml version="1.0" encoding="UTF-8"?>
<svg id="Layer_2" xmlns="http://www.w3.org/2000/svg" viewBox="0 0 119 119">
  <defs>
    <style>
      .cls-1 {
        fill: #fff;
      }

      .cls-2 {
        fill: #6814c2;
        stroke: #6814c2;
        stroke-miterlimit: 10;
        stroke-width: 4px;
      }

      .cls-3 {
        fill: #192ccb;
      }
    </style>
  </defs>
  <g id="feutre_emojis">
    <circle class="cls-2" cx="59.5" cy="59.5" r="57.5"/>
    <path class="cls-1" d="M115.24,48c-1.27-6-3.49-11.65-6.47-16.79l-7.76,7.76-16.97-16.97,8.62-8.62c-5.83-4.21-12.46-7.36-19.65-9.16v12.78h-24V3.38c-7.24,1.27-14.02,3.88-20.05,7.59l8.02,8.02-16.97,16.97-8.45-8.45c-4.17,6.09-7.2,13.01-8.79,20.48h15.24v24H2.76c1.38,6.49,3.85,12.57,7.21,18.05l9.7-9.7,16.97,16.97-10.13,10.13c6.09,4.17,13.01,7.2,20.48,8.79v-19.24h24v19.24c7.07-1.5,13.65-4.3,19.49-8.14l-11.78-11.78,16.97-16.97,11.7,11.7c3.69-5.74,6.39-12.16,7.85-19.05h-14.24v-24h14.24Z"/>
    <rect class="cls-3" x="70" y="42" width="14" height="14"/>
    <rect class="cls-3" x="32" y="42" width="14" height="14"/>
    <rect class="cls-3" x="49" y="76" width="21" height="6"/>
  </g>
</svg>