<?xml version="1.0" encoding="UTF-8"?>
<svg id="Layer_2" xmlns="http://www.w3.org/2000/svg" viewBox="0 0 119 122.39">
  <defs>
    <style>
      .cls-1 {
        stroke: #6f2ac7;
      }

      .cls-1, .cls-2, .cls-3 {
        stroke-width: 4px;
      }

      .cls-1, .cls-2, .cls-3, .cls-4 {
        fill: none;
        stroke-miterlimit: 10;
      }

      .cls-2 {
        stroke: #f7ee4f;
      }

      .cls-5 {
        fill: #191919;
      }

      .cls-3 {
        stroke: #1ec7f5;
      }

      .cls-4 {
        stroke: #f259cf;
        stroke-width: 6px;
      }
    </style>
  </defs>
  <g id="feutre_emojis">
    <polyline class="cls-3" points="16.5 26.89 16.5 49.12 38.5 13.89 34.16 49.12 54.24 9.82 51.5 44.89 70.5 12.89 62.5 46.89 84.5 17.89 78.5 46.89 94.5 22.89 92.5 47.89 106.3 29.47"/>
    <polyline class="cls-2" points="9.5 82.89 26.5 61.89 18 92.87 55.5 59.89 36.5 98.89 74.5 63.89 61.4 89.8 102.12 55.59 89.5 80.89 115.5 57.89"/>
    <polygon class="cls-5" points="111.06 41.23 56.76 44.41 56.83 44.46 3.4 50.23 2 56.61 30.5 70.89 57.17 44.69 87.75 66.08 113.5 47.29 111.06 41.23"/>
    <circle class="cls-1" cx="59.5" cy="62.89" r="57.5"/>
    <line class="cls-4" x1="66.5" y1="99.89" x2="85.5" y2="88.89"/>
  </g>
</svg>