<?xml version="1.0" encoding="UTF-8"?>
<svg id="Layer_2" xmlns="http://www.w3.org/2000/svg" viewBox="0 0 119 119">
  <defs>
    <style>
      .cls-1 {
        stroke: #04bdf6;
      }

      .cls-1, .cls-2, .cls-3, .cls-4 {
        fill: none;
        stroke-miterlimit: 10;
      }

      .cls-1, .cls-2, .cls-4 {
        stroke-width: 4px;
      }

      .cls-2 {
        stroke: #12c2e8;
      }

      .cls-3 {
        stroke: #1b1715;
        stroke-width: 5px;
      }

      .cls-4 {
        stroke: #99e57d;
      }
    </style>
  </defs>
  <g id="feutre_emojis">
    <circle class="cls-4" cx="59.5" cy="59.5" r="57.5"/>
    <path class="cls-1" d="M73.5,9.5s-7-1-9,4,9,7.21,9,7.21c0,0-5,6.79-1,9.79s13-5,13-5c0,0,0,5,6,5s12-5,12-5"/>
    <path class="cls-1" d="M35.5,13.5s3-3,8-1,1,10,1,10c0,0,7-2,10,1s4,11-4,11-34-10-34-10"/>
    <path class="cls-1" d="M5.5,58.5s1-4,8-4,8,8,8,8c0,0,12-5,17-2s6,8,2,12-16-2-16-2c0,0-10,9-15,4"/>
    <path class="cls-3" d="M17.5,45.5s10,1,17,8c0,0,7-10,13-11"/>
    <path class="cls-3" d="M71.69,45.61s10,1,17,8c0,0,7-10,13-11"/>
    <path class="cls-3" d="M90.28,89.92s-19.89,2-33.5,9.69c0,0-14.46-9.29-26.48-9.68"/>
    <path class="cls-2" d="M112.82,54.5s-4.03-5.5-8.43-1-4.39,8.5-4.39,8.5c0,0-13,1-14,7s7,7,16,2c2,7,12,1,12,1"/>
  </g>
</svg>