<?xml version="1.0" encoding="UTF-8"?>
<svg id="Layer_2" xmlns="http://www.w3.org/2000/svg" viewBox="0 0 119 119">
  <defs>
    <style>
      .cls-1 {
        fill: #80e95c;
      }

      .cls-2 {
        fill: #392825;
      }

      .cls-3 {
        fill: #00a976;
      }

      .cls-3, .cls-4 {
        stroke: #00a976;
        stroke-miterlimit: 10;
        stroke-width: 4px;
      }

      .cls-4 {
        fill: none;
      }
    </style>
  </defs>
  <g id="feutre_emojis">
    <circle class="cls-3" cx="59.5" cy="59.5" r="57.5"/>
    <ellipse class="cls-1" cx="35.42" cy="46.23" rx="15.34" ry="30.16" transform="translate(-22.31 38.59) rotate(-45)"/>
    <ellipse class="cls-1" cx="83.65" cy="45.73" rx="30.16" ry="15.34" transform="translate(-7.84 72.54) rotate(-45)"/>
    <line class="cls-4" x1="14.5" y1="24.5" x2="57.5" y2="68.5"/>
    <line class="cls-4" x1="45.5" y1="55.5" x2="22.5" y2="56.5"/>
    <line class="cls-4" x1="50.5" y1="32.5" x2="45.5" y2="55.5"/>
    <line class="cls-4" x1="36.5" y1="22.5" x2="35.5" y2="45.5"/>
    <line class="cls-4" x1="6.5" y1="43.5" x2="35.5" y2="45.5"/>
    <line class="cls-4" x1="104.5" y1="24.5" x2="55.5" y2="73.5"/>
    <line class="cls-4" x1="61.5" y1="32.5" x2="69.5" y2="59.5"/>
    <line class="cls-4" x1="75.5" y1="25.5" x2="81.5" y2="47.5"/>
    <line class="cls-4" x1="100.5" y1="67.5" x2="69.5" y2="59.5"/>
    <line class="cls-4" x1="108.5" y1="55.5" x2="81.5" y2="47.5"/>
    <line class="cls-4" x1="88.5" y1="18.5" x2="91.5" y2="39.5"/>
    <line class="cls-4" x1="110.5" y1="47.5" x2="89.5" y2="38.5"/>
    <line class="cls-4" x1="26.5" y1="18.5" x2="26.5" y2="36.5"/>
    <line class="cls-4" x1="7.5" y1="35.5" x2="26.5" y2="36.5"/>
    <rect class="cls-2" x="37.5" y="90.5" width="42" height="12"/>
  </g>
</svg>