<?xml version="1.0" encoding="UTF-8"?>
<svg id="Layer_2" xmlns="http://www.w3.org/2000/svg" viewBox="0 0 119 119">
  <defs>
    <style>
      .cls-1 {
        fill: #fff;
      }

      .cls-2 {
        fill: #f5592c;
        stroke: #f5592c;
        stroke-miterlimit: 10;
        stroke-width: 4px;
      }

      .cls-3 {
        fill: #f9e515;
      }

      .cls-4 {
        fill: #070707;
      }
    </style>
  </defs>
  <g id="feutre_emojis">
    <circle class="cls-2" cx="59.5" cy="59.5" r="57.5"/>
    <path class="cls-1" d="M16.5,46.5c.75-6.88,7.73-12.23,14-13,6.95-.85,10.83,4.2,14,2,3.33-2.31-.38-8.28,3-14,3.68-6.23,13.28-7.96,20-7,8.13,1.16,18.22,6.74,17.13,16.22-.2,1.75-1.34,4.84-.44,6.48,1.3,2.37,5.49-1.75,6.73-2.5,2.28-1.39,4.84-2.48,7.57-2.2,5.84.61,10.63,7.09,12,13,1.88,8.09-1.79,16.12-9.34,19.56-.66.3-1.34.58-1.88,1.06-1.98,1.77.27,3.14,1.74,3.96,2.09,1.17,4.12,2.37,5.47,4.42,2.82,4.24,2.62,11.19-1,16-4.25,5.64-11.9,6.62-17,5-7.15-2.27-6-10-12-9-2.87.48-1,4.77-.71,6.28.87,4.45-1.8,9.08-5.24,11.74-2.22,1.71-5.13,2.44-7.76,1.23-1.82-.83-3.26-2.33-4.43-3.95-2.86-3.98-5-8.42-7.29-12.75-.49-.92-1.04-1.9-1.97-2.36-.98-.48-2.19-.26-3.16.25s-1.78,1.27-2.65,1.94c-5.3,4.1-12.86,3.18-16.8-2.37-2.16-3.03-2.4-6.92-1.68-10.47.76-3.72,2.88-6.45,4.86-9.58.47-.74.91-1.55.91-2.42.01-2.07-2.58-2.45-4.09-2.93-1.82-.58-3.53-1.35-5-2.59-3.21-2.7-5.49-7.45-5-12Z"/>
    <circle class="cls-3" cx="63" cy="61" r="18.5"/>
    <circle class="cls-4" cx="42" cy="35" r="5.5"/>
    <circle class="cls-4" cx="83" cy="37" r="5.5"/>
  </g>
</svg>