<?xml version="1.0" encoding="UTF-8"?>
<svg id="Layer_2" xmlns="http://www.w3.org/2000/svg" viewBox="0 0 119 119">
  <defs>
    <style>
      .cls-1 {
        fill: #c108ad;
      }

      .cls-2 {
        fill: #f7d70a;
      }

      .cls-3 {
        fill: #f13498;
        stroke: #f13498;
        stroke-miterlimit: 10;
        stroke-width: 4px;
      }

      .cls-4 {
        fill: #e5095c;
      }

      .cls-5 {
        fill: #ff784a;
      }
    </style>
  </defs>
  <g id="feutre_emojis">
    <circle class="cls-3" cx="59.5" cy="59.5" r="57.5"/>
    <path class="cls-5" d="M59.5,55.5c21.74,0,41.81-3.6,58.02-9.67C111.29,19.55,87.68,0,59.5,0S7.71,19.55,1.48,45.83c16.21,6.08,36.29,9.67,58.02,9.67Z"/>
    <path class="cls-2" d="M58.98,85.97c-19.2,0-37.5-1.19-54.22-3.33,8.98,21.36,30.1,36.36,54.73,36.36s45.84-15.07,54.79-36.5c-17,2.23-35.69,3.47-55.3,3.47Z"/>
    <ellipse class="cls-1" cx="91.56" cy="52.89" rx="24.93" ry="14.47" transform="translate(-11.78 30.49) rotate(-17.78)"/>
    <ellipse cx="96.49" cy="51.62" rx="13.68" ry="9.12" transform="translate(-11.15 31.93) rotate(-17.78)"/>
    <ellipse class="cls-1" cx="29.5" cy="56.86" rx="14.47" ry="24.93" transform="translate(-33.65 67.59) rotate(-72.22)"/>
    <ellipse cx="24.57" cy="55.59" rx="9.12" ry="13.68" transform="translate(-35.87 62.01) rotate(-72.22)"/>
    <rect class="cls-4" x="39.5" y="90.5" width="54" height="16" rx="8" ry="8"/>
  </g>
</svg>