<?xml version="1.0" encoding="UTF-8"?>
<svg id="Layer_2" xmlns="http://www.w3.org/2000/svg" viewBox="0 0 119 119">
  <defs>
    <style>
      .cls-1 {
        fill: #09afe8;
      }

      .cls-2 {
        stroke: #8a42d9;
      }

      .cls-2, .cls-3, .cls-4 {
        fill: none;
        stroke-miterlimit: 10;
      }

      .cls-2, .cls-4 {
        stroke-width: 4px;
      }

      .cls-3 {
        stroke: #2531d1;
        stroke-width: 6px;
      }

      .cls-5 {
        fill: #8a42d9;
      }

      .cls-4 {
        stroke: #1525cf;
      }
    </style>
  </defs>
  <g id="feutre_emojis">
    <line class="cls-2" x1="18.5" y1="38.5" x2="48.5" y2="39.5"/>
    <line class="cls-2" x1="69.5" y1="43.5" x2="102.5" y2="43.5"/>
    <circle class="cls-5" cx="30.5" cy="43.5" r="6"/>
    <circle class="cls-5" cx="84.5" cy="47.5" r="6"/>
    <path class="cls-2" d="M13.5,52.5c3.78-1.64,10.03-3.8,18-4,6.28-.16,11.46.94,15,2"/>
    <path class="cls-2" d="M70.09,56.42c3.78-1.64,10.03-3.8,18-4,6.28-.16,11.46.94,15,2"/>
    <line class="cls-3" x1="5.5" y1="78.5" x2="113.5" y2="79.5"/>
    <path class="cls-1" d="M19.9,17.81l10.6,12.34,14-18.66,17.7,18.66,16.3-17.19,12,23.32,11.36-15.67S85.12,2.5,67.31,2s-35.02,5.13-47.41,15.81Z"/>
    <circle class="cls-4" cx="59.5" cy="59.5" r="57.5"/>
  </g>
</svg>