<?xml version="1.0" encoding="UTF-8"?>
<svg id="Layer_2" xmlns="http://www.w3.org/2000/svg" viewBox="0 0 119 119">
  <defs>
    <style>
      .cls-1 {
        stroke: #66ea4c;
        stroke-width: 6px;
      }

      .cls-1, .cls-2 {
        fill: none;
        stroke-miterlimit: 10;
      }

      .cls-2 {
        stroke: #ff5cc2;
        stroke-width: 4px;
      }

      .cls-3 {
        fill: #e4065a;
      }
    </style>
  </defs>
  <g id="feutre_emojis">
    <circle class="cls-2" cx="59.5" cy="59.5" r="57.5"/>
    <path class="cls-3" d="M33.5,33.5c-2-2-4-3-7-2,2-2,6-3,9-4,1-1,0-3-1-5,4,1,8,3,11,6,1-3,1-6,1-9,0,6,3,9,8,6-1,6-7,8-9,12-1,1,3,4,6,4-7,2-13,0-20,0-2,0-4,3-5,6,1-5,1-11,7-14h0Z"/>
    <path class="cls-3" d="M77.29,18.55c-6.03,6.76-8.25,10.92-13.79,11.81,2.75.7,5.18,1.08,7.41,1.27-.61,1.55-1.4,2.84-2.49,3.99,3.32.48,6.11.57,8.72.64-.08,2.42-.61,5.04-2.14,8.24,6.03-.74,9.91-3.41,14.1-5.45,2.22,3.32,4.38,7.68,6.41,11.93v-24.74c-6.35-1.9-10.8-1.68-14.72-1.17-1.62-2.03-2.75-4.01-3.5-6.51Z"/>
    <path class="cls-1" d="M17.5,57.5c-3.25,6.69-2.42,14.3,2,19,5.57,5.93,16.27,6.62,20,2,2.83-3.51,2.07-10.6-1-12-2.14-.98-5.46.78-7,3-3.39,4.9-1.15,14.34,5,18,4.72,2.81,10.72,1.59,14.5-.5,6.49-3.59,5.66-9.3,11-11,4.59-1.46,11.07.89,14,6,2.58,4.51,2.85,11.96-2,15-4.44,2.78-11.38.76-13-3-1.88-4.37,3.3-11.41,9-13,6.3-1.76,9.37,4.19,17,3,4.83-.76,10.73-4.26,12-10,1.03-4.67-.91-11.21-6-13-4.15-1.46-9.89.41-11,4-1.23,3.96,3.45,9.14,8,10,6.51,1.22,12.64-6.43,15-12,2.54-5.99,1.56-11.61,1-14"/>
  </g>
</svg>