<?xml version="1.0" encoding="UTF-8"?>
<svg id="Layer_2" xmlns="http://www.w3.org/2000/svg" viewBox="0 0 119 119">
  <defs>
    <style>
      .cls-1 {
        fill: #ff693e;
      }

      .cls-2 {
        stroke: #6ad945;
        stroke-width: 6px;
      }

      .cls-2, .cls-3, .cls-4, .cls-5 {
        fill: none;
        stroke-miterlimit: 10;
      }

      .cls-3 {
        stroke: #77f160;
        stroke-width: 4px;
      }

      .cls-4 {
        stroke: #ff693e;
      }

      .cls-4, .cls-5 {
        stroke-width: 5px;
      }

      .cls-5 {
        stroke: #f7f120;
      }
    </style>
  </defs>
  <g id="feutre_emojis">
    <circle class="cls-3" cx="59.5" cy="59.5" r="57.5"/>
    <polyline class="cls-5" points="39.5 10.5 25.5 30.5 52.5 35.5"/>
    <polyline class="cls-5" points="66.17 9.5 55.51 24.74 76.08 28.55"/>
    <circle class="cls-1" cx="33" cy="51.75" r="7.25"/>
    <path class="cls-4" d="M16.5,47.5c.39.83,4.43,9.17,14,11,10.38,1.99,17.57-5.54,18-6"/>
    <circle class="cls-1" cx="87" cy="51.4" r="7.25"/>
    <path class="cls-4" d="M103.5,47.15c-.39.83-4.43,9.17-14,11-10.38,1.99-17.57-5.54-18-6"/>
    <polyline class="cls-5" points="17.19 72.59 35.51 75.82 23.66 93.06"/>
    <path class="cls-2" d="M75,86c-3.91-.97-11.69-2.29-20,1-3.34,1.32-10.47,4.86-10,8,.51,3.41,9.72,4.84,15,5,9.49.29,17.18-3.16,22-6"/>
  </g>
</svg>