<?xml version="1.0" encoding="UTF-8"?>
<svg id="Layer_2" xmlns="http://www.w3.org/2000/svg" viewBox="0 0 119 119">
  <defs>
    <style>
      .cls-1 {
        stroke: #008d48;
        stroke-width: 6px;
      }

      .cls-1, .cls-2 {
        fill: none;
        stroke-miterlimit: 10;
      }

      .cls-3 {
        fill: #dc0553;
      }

      .cls-4 {
        fill: #008d48;
      }

      .cls-2 {
        stroke: #8be865;
        stroke-width: 4px;
      }

      .cls-5 {
        fill: #8be865;
      }
    </style>
  </defs>
  <g id="feutre_emojis">
    <path class="cls-1" d="M39.93,86.86c1.44,4.63,5.29,8.11,10,9,6.91,1.31,11.71-3.68,12-4"/>
    <circle class="cls-4" cx="38.43" cy="28.36" r="8.5"/>
    <circle class="cls-4" cx="95.43" cy="39.36" r="7.5"/>
    <ellipse class="cls-3" cx="39.13" cy="54.64" rx="13.3" ry="10.55" transform="translate(-14.22 13.77) rotate(-16.94)"/>
    <circle class="cls-3" cx="86.93" cy="64.86" r="10"/>
    <path class="cls-5" d="M60.93,3.36C29.17,3.36,3.43,29.11,3.43,60.86s25.74,57.5,57.5,57.5,57.5-25.74,57.5-57.5S92.68,3.36,60.93,3.36ZM103.84,85.8c-.15.19-.31.37-.48.55-3.72,3.89-9.89,3.38-15.26,3.75-8.04.55-15.81,3.75-22.24,8.63-3.32,2.52-6.39,5.53-10.27,7.05-4.71,1.84-10.26,1.16-14.57-1.48s-7.38-7.14-8.59-12.06c-1.09-4.41-1.04-9.64-4.53-12.55-3.02-2.53-7.58-2.23-10.88-4.37-3.11-2.01-4.59-6-4.23-9.69s2.33-7.07,4.84-9.79c2.31-2.51,5.24-4.75,6.12-8.05.83-3.09-.36-6.32-.81-9.49-1.35-9.68,5.27-19.49,14.67-22.03,4.84-1.3,10.08-.76,14.73,1.12,4.79,1.95,8.97,5.26,13.86,6.95,5.67,1.96,10.85.95,16.5-.28,8.14-1.76,17.59,2.13,22.79,8.52,1.59,1.95,2.75,4.32,2.92,6.83.28,4.12-2.13,7.37-3.46,11.05-1.46,4.02-2.34,8.28-1.88,12.58.44,4.03,2.01,7.86,2.71,11.85.66,3.75.41,7.99-1.95,10.91Z"/>
    <circle class="cls-2" cx="59.5" cy="59.5" r="57.5"/>
  </g>
</svg>