<?xml version="1.0" encoding="UTF-8"?>
<svg id="Layer_2" xmlns="http://www.w3.org/2000/svg" viewBox="0 0 119 119">
  <defs>
    <style>
      .cls-1 {
        stroke: #000;
      }

      .cls-1, .cls-2, .cls-3, .cls-4, .cls-5, .cls-6 {
        fill: none;
        stroke-miterlimit: 10;
      }

      .cls-2 {
        stroke: #5509b7;
      }

      .cls-2, .cls-3, .cls-4, .cls-5 {
        stroke-width: 5px;
      }

      .cls-7 {
        fill: #5509b7;
      }

      .cls-3 {
        stroke: #14a7f1;
      }

      .cls-4 {
        stroke: #ff53d1;
      }

      .cls-5 {
        stroke: #c229ba;
      }

      .cls-6 {
        stroke: #0b0b0b;
        stroke-width: 4px;
      }
    </style>
  </defs>
  <g id="feutre_emojis">
    <circle class="cls-1" cx="59.5" cy="59.5" r="57.5"/>
    <circle class="cls-6" cx="59.5" cy="59.5" r="57.5"/>
    <path class="cls-2" d="M13.5,40.5c.85,1.4,6.13,9.75,17,12,10.61,2.2,18.62-3.06,20-4"/>
    <circle class="cls-7" cx="27.5" cy="54.5" r="7"/>
    <path class="cls-2" d="M104.5,40.5c-.85,1.4-6.13,9.75-17,12-10.61,2.2-18.62-3.06-20-4"/>
    <circle class="cls-7" cx="90.5" cy="54.5" r="7"/>
    <path class="cls-3" d="M30.5,24.5c-.22.79-1.76,6.65,2,12,4.24,6.04,11.42,6.01,12,6"/>
    <path class="cls-3" d="M90.84,22.35c.22.79,1.76,6.65-2,12-4.24,6.04-11.42,6.01-12,6"/>
    <polyline class="cls-4" points="10.99 59.5 18 76 26 70 36 83"/>
    <polyline class="cls-4" points="105.53 60.75 98.52 77.25 90.52 71.25 80.52 84.25"/>
    <polyline class="cls-5" points="43 93 57 105 71.76 93"/>
  </g>
</svg>