<?xml version="1.0" encoding="UTF-8"?>
<svg id="Layer_2" xmlns="http://www.w3.org/2000/svg" viewBox="0 0 119 119">
  <defs>
    <style>
      .cls-1, .cls-2 {
        stroke-width: 6px;
      }

      .cls-1, .cls-2, .cls-3 {
        fill: none;
        stroke-miterlimit: 10;
      }

      .cls-1, .cls-3 {
        stroke: #ff794f;
      }

      .cls-4 {
        fill: #0b9de8;
      }

      .cls-2 {
        stroke: #74ec5e;
      }

      .cls-3 {
        stroke-width: 4px;
      }
    </style>
  </defs>
  <g id="feutre_emojis">
    <path class="cls-1" d="M108.49,87.6c-10.43-8.58-26.7-14.1-44.99-14.1-21.42,0-40.06,7.57-49.8,18.75,10.5,13.82,27.11,22.75,45.8,22.75,20.72,0,38.87-10.96,48.99-27.4Z"/>
    <circle class="cls-3" cx="59.5" cy="59.5" r="57.5"/>
    <line class="cls-1" x1="75.5" y1="73.5" x2="80.5" y2="112.5"/>
    <line class="cls-1" x1="54.5" y1="74.5" x2="59.5" y2="117.5"/>
    <line class="cls-1" x1="34.5" y1="78.5" x2="37.5" y2="112.5"/>
    <path class="cls-2" d="M66.76,53.5s14.74,5,21.19,6,13.55,1,16.34-3c2.79-4,2.21-8-2.72-12s-14.89-4-14.89-4c0,0,6.83-1,9.83-3s7-9,4-12-3-4-13-4-32,19-32,19c0,0-16-10-28-12s-13.8,5.17-13.8,5.17c0,0-2.15,8.83,5.83,10.83l7.98,2s-16,0-17,9,6,11,10,11,30.17-13,30.17-13"/>
    <circle class="cls-4" cx="26.5" cy="38.5" r="5"/>
    <circle class="cls-4" cx="91.5" cy="30.5" r="5"/>
    <circle class="cls-4" cx="20.5" cy="56.5" r="5"/>
    <circle class="cls-4" cx="95.5" cy="51.5" r="5"/>
  </g>
</svg>