<?xml version="1.0" encoding="UTF-8"?>
<svg id="Layer_2" xmlns="http://www.w3.org/2000/svg" viewBox="0 0 115 115">
  <defs>
    <style>
      .cls-1 {
        fill: #dc4bbc;
      }

      .cls-2 {
        fill: #692e50;
      }

      .cls-3 {
        stroke: #692e50;
        stroke-width: 6px;
      }

      .cls-3, .cls-4 {
        fill: none;
        stroke-miterlimit: 10;
      }

      .cls-5 {
        fill: #64c0cf;
      }

      .cls-4 {
        stroke: #8d9efc;
        stroke-width: 4px;
      }
    </style>
  </defs>
  <g id="Layer_1-2" data-name="Layer_1">
    <g>
      <circle class="cls-1" cx="57.5" cy="57.5" r="57.5"/>
      <line class="cls-3" x1="5.07" y1="76.11" x2="109.07" y2="77.11"/>
      <path class="cls-5" d="M57.5,0C40.22,0,24.72,7.64,14.18,19.71l-.34,1.23,10.6,12.34,14-18.66,17.7,18.66,16.3-17.19,12,23.32,11.36-15.67,3.57-5.62C88.9,6.97,74.02,0,57.5,0Z"/>
      <circle class="cls-2" cx="29.57" cy="46.61" r="6.5"/>
      <circle class="cls-2" cx="83.57" cy="46.61" r="6.5"/>
      <path class="cls-4" d="M11.5,55.5c3.78-1.64,10.03-3.8,18-4,6.28-.16,11.46.94,15,2"/>
      <path class="cls-4" d="M68.09,57.42c3.78-1.64,10.03-3.8,18-4,6.28-.16,11.46.94,15,2"/>
      <line class="cls-4" x1="16.5" y1="39.5" x2="46.5" y2="40.5"/>
      <line class="cls-4" x1="67.5" y1="41.5" x2="100.5" y2="41.5"/>
    </g>
  </g>
</svg>