<?xml version="1.0" encoding="UTF-8"?>
<svg id="Layer_2" xmlns="http://www.w3.org/2000/svg" viewBox="0 0 115 115">
  <defs>
    <style>
      .cls-1 {
        fill: #488b76;
      }

      .cls-2 {
        fill: #64c0cf;
      }

      .cls-3 {
        stroke: #e89f3c;
      }

      .cls-3, .cls-4 {
        fill: none;
        stroke-miterlimit: 10;
        stroke-width: 4px;
      }

      .cls-4 {
        stroke: #e26748;
      }
    </style>
  </defs>
  <g id="Layer_1-2" data-name="Layer_1">
    <g>
      <circle class="cls-1" cx="57.5" cy="57.5" r="57.5"/>
      <path class="cls-3" d="M13.5,27.5c.83-5.54,7.21-14.31,13.08-9.13,2.65,2.67,2.78,7.15,5.25,9.85,2.42,3.16,8.22,3.01,9.43-1.16.92-3.52-.63-7.72-.63-11.33-.1-2.8.09-5.75,1.32-8.13,2.09-4.91,11.15-5.48,12.55.25.58,2.84-1.06,6.15-1.51,9.17-1.04,5.13.83,11.26,5.69,13.75,5.51,2.44,6-2.85,5.46-6.93-.3-4.54.35-9.36,3.01-13.09,2.61-3.89,7.57-3.77,9.63.58,1.16,2.27,1.58,4.95,1.58,7.48.04,3.67-1.36,7.28-.74,10.99.44,3.45,3.46,7.77,7.36,6.23,3.45-1.56,5.07-6.01,5.24-9.66.16-2.32-.69-5.02-.28-7.02.3-2.1,2.62-2.75,4.57-2.84"/>
      <path class="cls-4" d="M25.5,87.5c-4.57-7.99,1.83-17.55,11.03-14.36,2.54.94,4.31,3.03,3.93,5.85-1.27,5.41-1.95,10.98,4.14,13.85,6.53,2.54,10.87-5.62,11.1-11.16.18-2.52-.08-5.2.94-7.51,1.08-2.54,3.72-4.8,6.71-4.76,3.09.13,5.43,2.73,6.76,5.32,1.51,2.93,1.28,6.26,2.4,9.23,1.17,3.95,5.84,8.28,9.71,4.76,6.63-5.41,2-13.63,7.13-19.08,5.57-5.88,11.91.8,12.18,7.53.2,2.87-.61,5.93-2.01,8.33"/>
      <circle class="cls-2" cx="43.53" cy="46.23" r="6.5"/>
      <circle class="cls-2" cx="74.53" cy="46.23" r="6.5"/>
    </g>
  </g>
</svg>