<?xml version="1.0" encoding="UTF-8"?>
<svg id="Layer_2" xmlns="http://www.w3.org/2000/svg" viewBox="0 0 115 115">
  <defs>
    <style>
      .cls-1 {
        fill: #d3d5ee;
      }

      .cls-2 {
        fill: none;
        stroke: #e47d9f;
        stroke-miterlimit: 10;
        stroke-width: 4px;
      }

      .cls-3 {
        fill: #8d9efc;
      }

      .cls-4 {
        fill: #692e50;
      }

      .cls-5 {
        fill: #64c0cf;
      }
    </style>
  </defs>
  <g id="Layer_1-2" data-name="Layer_1">
    <g>
      <circle class="cls-1" cx="57.5" cy="57.5" r="57.5"/>
      <polyline class="cls-2" points="36.78 4.85 30.5 31.5 36 36.5 45.5 34.5 43.5 46.5 47.5 55.5"/>
      <polyline class="cls-2" points="55.59 1 53.5 9.5 58 13.56 49.5 20.5 56.5 23.78 43.5 26.5 45.5 34.5"/>
      <path class="cls-2" d="M76.5,25.5l9,6,9.57-10.5s11.83,12.5,14.13,26.5"/>
      <polyline class="cls-2" points="25.5 42.5 28.33 53.5 19.5 54.5 22.5 68.5 13.86 68.5 8.37 84.68"/>
      <circle class="cls-3" cx="72.02" cy="74.27" r="32.5"/>
      <circle class="cls-5" cx="60.02" cy="71.27" r="6.5"/>
      <circle class="cls-4" cx="81.02" cy="71.27" r="6.5"/>
    </g>
  </g>
</svg>