<?xml version="1.0" encoding="UTF-8"?>
<svg id="Layer_2" xmlns="http://www.w3.org/2000/svg" viewBox="0 0 115 115">
  <defs>
    <style>
      .cls-1 {
        fill: #dc4bbc;
      }

      .cls-2 {
        fill: #8d9efc;
      }

      .cls-3 {
        fill: none;
        stroke: #488b76;
        stroke-miterlimit: 10;
        stroke-width: 4px;
      }

      .cls-4 {
        fill: #64c0cf;
      }

      .cls-5 {
        fill: #aba09b;
      }
    </style>
  </defs>
  <g id="Layer_1-2" data-name="Layer_1">
    <g>
      <circle class="cls-5" cx="57.5" cy="57.5" r="57.5"/>
      <path class="cls-3" d="M38.23,34.5c7.07,8.65,9.76,18.15,6.01,21.22-1.72,1.41-4.49,1.22-7.66-.22-3.77-1.71-8.11-5.18-11.95-9.88-4.14-5.06-6.78-10.41-7.5-14.59-.51-2.97-.07-5.35,1.49-6.63,3.76-3.07,12.54,1.45,19.61,10.09Z"/>
      <ellipse class="cls-3" cx="82.48" cy="38.46" rx="8.79" ry="20.23" transform="translate(17.42 102.09) rotate(-69.36)"/>
      <path class="cls-4" d="M75.68,85.18c-4.18,7.02-13.26,9.31-20.28,5.13s-9.31-13.26-5.13-20.28c2.04-3.42,5.24-5.7,8.79-6.68-5.64.68-10.92,3.86-14.05,9.12-5.37,9.01-2.42,20.68,6.59,26.05,9.01,5.37,20.68,2.42,26.05-6.59,4.47-7.5,3.16-16.82-2.59-22.84,3.26,4.63,3.71,10.92.62,16.09Z"/>
      <path class="cls-2" d="M48,28.06c0-8.56-3.5-12.06-12.06-12.06,8.56,0,12.06-3.5,12.06-12.06,0,8.56,3.5,12.06,12.06,12.06-8.56,0-12.06,3.5-12.06,12.06Z"/>
      <path class="cls-2" d="M20.56,84.82c0-10.77-4.41-15.18-15.18-15.18,10.77,0,15.18-4.41,15.18-15.18,0,10.77,4.41,15.18,15.18,15.18-10.77,0-15.18,4.41-15.18,15.18Z"/>
      <circle class="cls-1" cx="35.53" cy="34.73" r="6.5"/>
      <circle class="cls-1" cx="83.53" cy="34.73" r="6.5"/>
    </g>
  </g>
</svg>