<?xml version="1.0" encoding="UTF-8"?>
<svg id="Layer_2" xmlns="http://www.w3.org/2000/svg" viewBox="0 0 116.09 116.14">
  <defs>
    <style>
      .cls-1 {
        fill: #488b76;
      }

      .cls-2 {
        fill: #dc4bbc;
      }

      .cls-3 {
        fill: #e26748;
      }

      .cls-4 {
        fill: #8d9efc;
      }

      .cls-5 {
        stroke: #8d9efc;
        stroke-width: 8px;
      }

      .cls-5, .cls-6 {
        fill: none;
        stroke-miterlimit: 10;
      }

      .cls-6 {
        stroke: #692e50;
        stroke-width: 6px;
      }
    </style>
  </defs>
  <g id="Layer_1-2" data-name="Layer_1">
    <g>
      <circle class="cls-2" cx="58.06" cy="58.12" r="58.03"/>
      <path class="cls-3" d="M96.41,78.88c0-11.99,8.36-22.02,19.58-24.6C114.03,23.98,88.85,0,58.06,0S0,25.99,0,58.06c0,2.28.15,4.53.4,6.75,15.82,1,28.35,14.15,28.35,30.22,0,4.15-.83,8.1-2.34,11.69,9.1,5.93,19.97,9.39,31.65,9.39,17.86,0,33.83-8.07,44.48-20.76-3.82-4.42-6.13-10.18-6.13-16.48Z"/>
      <path class="cls-6" d="M29.54,46.62c-4.32,2.47-6.7,7.27-6,12,.79,5.33,5.35,9.56,11,10"/>
      <path class="cls-6" d="M23.54,43.62c-.9.31-5.56,1.99-8,7-2.83,5.81-.33,11.29,0,12"/>
      <path class="cls-6" d="M86.54,47.62c3.9-.72,7.58,1.02,9,4,1.28,2.7.23,5.43,0,6"/>
      <path class="cls-6" d="M92.54,42.62c.52-.15,3.79-1,7,1,3.28,2.05,3.91,5.48,4,6"/>
      <path class="cls-6" d="M22.04,33.12c1.35-.5,6.75-2.35,13,0,5.5,2.07,5.42,8.28,10,9,3.3.52,7.16-1.72,9-5,1.72-3.05,1.19-6.11,1-7"/>
      <path class="cls-6" d="M40.54,34.62c.51-.2,3.67-1.49,5-5,1.56-4.12-.77-7.67-1-8"/>
      <path class="cls-6" d="M30.54,30.62c3.28-.47,5.75-3.02,6-6,.2-2.32-.98-4.61-3-6"/>
      <path class="cls-6" d="M77.54,34.62c2.64-1.57,6.42-3.2,10-2,3.5,1.18,4.39,4.25,7,4,2.57-.25,5.32-3.59,5-7-.2-2.09-1.48-3.49-2-4"/>
      <path class="cls-6" d="M87.54,31.62c.28-1.07.73-3.32,0-6-.51-1.86-1.38-3.2-2-4"/>
      <path class="cls-6" d="M80.54,31.62c.22-1.43.39-3.52,0-6-.42-2.64-1.3-4.68-2-6"/>
      <path class="cls-4" d="M63.98,75.93c7.62,0,14.7,1.5,20.58,4.07-.24-9.05-4.48-16.26-9.7-16.26-3.52,0-6.6,3.3-8.3,8.23-1.55-5.82-4.9-9.86-8.8-9.86-5.19,0-9.42,7.15-9.69,16.15,4.82-1.5,10.21-2.34,15.91-2.34Z"/>
      <path class="cls-5" d="M34.05,83.89c6.48-2.58,17.08-5.81,30.32-5.44,7.79.21,14.4,1.61,19.44,3.11"/>
      <path class="cls-5" d="M73.7,89.11c-.96.02-2.36.17-3.89.78-4.8,1.92-4.89,6.08-8.55,7.77-3.4,1.57-8.67.49-11.66-3.11-2.73-3.29.96-7.73-1.55-10.88-1.57-1.97-4.39-2.3-6.22-2.33"/>
      <circle class="cls-1" cx="85.06" cy="40.85" r="6.5"/>
      <circle class="cls-1" cx="29.06" cy="40.85" r="6.5"/>
    </g>
  </g>
</svg>