<?xml version="1.0" encoding="UTF-8"?>
<svg id="Layer_2" xmlns="http://www.w3.org/2000/svg" viewBox="0 0 115 115">
  <defs>
    <style>
      .cls-1 {
        fill: none;
        stroke: #7c7b7f;
        stroke-miterlimit: 10;
        stroke-width: 3px;
      }

      .cls-2 {
        fill: #dc4bbc;
      }

      .cls-3 {
        fill: #e26748;
      }

      .cls-4 {
        fill: #8d9efc;
      }
    </style>
  </defs>
  <g id="Layer_1-2" data-name="Layer_1">
    <g>
      <circle class="cls-4" cx="57.5" cy="57.5" r="57.5"/>
      <path class="cls-2" d="M56,69.01c.19.07.37.17.54.26,2.62,1.42,5.23,2.89,7.62,4.65,2.62,1.93,5.23,4.32,6.82,7.2.65,1.18,1.07,2.52.96,3.87-.18,2.26-1.87,4.19-3.89,5.21-2.64,1.33-5.94,1.57-8.8.99-.58-.12-1.15-.28-1.7-.5-.71-.28-1.27-.75-2.08-.62-.51.08-.99.32-1.46.54-1.78.85-3.64,1.63-5.56,2.08s-4.24.94-6.28.38c-.73-.2-1.44-.55-1.93-1.12-1.04-1.21-1.01-3.13-.82-4.62.22-1.71.83-3.36,1.62-4.89,2.69-5.21,7.3-9.42,12.23-12.49.42-.26.84-.5,1.28-.74.27-.15.56-.29.87-.3.2,0,.4.03.59.11Z"/>
      <path class="cls-1" d="M37.87,30.87c-5.61-5.61-14.69-5.61-20.3,0-4.48,4.48-4.48,11.75,0,16.24,3.59,3.59,9.4,3.59,12.99,0,2.87-2.87,2.87-7.52,0-10.39-2.3-2.3-6.02-2.3-8.31,0-1.84,1.84-1.84,4.81,0,6.65,1.47,1.47,3.85,1.47,5.32,0"/>
      <path class="cls-1" d="M72.97,34.46c2.77-7.43,11.03-11.21,18.46-8.44,5.94,2.21,8.97,8.82,6.76,14.77-1.77,4.75-7.06,7.17-11.81,5.4-3.8-1.42-5.74-5.65-4.32-9.45,1.13-3.04,4.52-4.59,7.56-3.46,2.43.91,3.67,3.61,2.77,6.05-.72,1.95-2.89,2.94-4.84,2.21"/>
      <circle class="cls-3" cx="40.28" cy="31.23" r="6.5"/>
      <circle class="cls-3" cx="74.28" cy="31.23" r="6.5"/>
    </g>
  </g>
</svg>