<?xml version="1.0" encoding="UTF-8"?>
<svg id="Layer_2" xmlns="http://www.w3.org/2000/svg" viewBox="0 0 115 115">
  <defs>
    <style>
      .cls-1 {
        fill: #e26748;
      }

      .cls-2 {
        fill: #64c0cf;
      }

      .cls-3 {
        stroke: #dc4bbc;
        stroke-width: 7px;
      }

      .cls-3, .cls-4 {
        fill: none;
        stroke-miterlimit: 10;
      }

      .cls-4 {
        stroke: #e26748;
        stroke-width: 4px;
      }
    </style>
  </defs>
  <g id="Layer_1-2" data-name="Layer_1">
    <g>
      <circle class="cls-2" cx="57.5" cy="57.5" r="57.5"/>
      <path class="cls-3" d="M24.29,25.44c-.54,10.39,1.8,13.8,4,15,4.89,2.67,11.92-3.93,16-1,2.63,1.89,2.46,6.61,2,10"/>
      <path class="cls-3" d="M69.29,21.44c-1.04,14.28,1.3,18.83,4,20,4.79,2.07,11.15-6.35,17-4,3.75,1.5,5.29,6.62,6,11"/>
      <path class="cls-4" d="M14.72,45.25c1.58,6.98,4.4,9.56,6.58,10.66,4.25,2.15,8.22-.26,12.14,2.35,2.92,1.94,3.97,5.42,4.42,7.77"/>
      <path class="cls-4" d="M59.77,47c1.58,6.98,4.4,9.56,6.58,10.66,4.25,2.15,8.22-.26,12.14,2.35,2.92,1.94,3.97,5.42,4.42,7.77"/>
      <circle class="cls-1" cx="65.97" cy="63.27" r="6.5"/>
      <circle class="cls-1" cx="18.97" cy="63.27" r="6.5"/>
    </g>
  </g>
</svg>