<?xml version="1.0" encoding="UTF-8"?>
<svg id="Layer_2" xmlns="http://www.w3.org/2000/svg" viewBox="0 0 115 115">
  <defs>
    <style>
      .cls-1 {
        fill: #8d9efc;
      }

      .cls-2 {
        fill: #692e50;
      }

      .cls-3 {
        fill: none;
        stroke: #e89f3c;
        stroke-miterlimit: 10;
        stroke-width: 4px;
      }
    </style>
  </defs>
  <g id="Layer_1-2" data-name="Layer_1">
    <g>
      <circle class="cls-1" cx="57.5" cy="57.5" r="57.5"/>
      <path class="cls-3" d="M41.5,80.5c2.53,6.67,8.95,11.07,16,11,7.31-.07,13.81-4.94,16-12"/>
      <path class="cls-3" d="M44.25,21.79c-6.5-2.93-14.16-1.5-19.09,3.54-5.11,5.22-6.28,13.26-2.83,19.8"/>
      <path class="cls-3" d="M96.73,47.21c2.93-6.5,1.5-14.16-3.54-19.09-5.22-5.11-13.26-6.28-19.8-2.83"/>
      <path class="cls-3" d="M22,87c1.7,2.2,13.47,16.96,34,18,17.48.89,29.38-8.77,32-11"/>
      <path class="cls-3" d="M58.24,7.85c-2.76-.36-21.52-2.47-36.77,11.31-12.98,11.73-14.58,26.98-14.85,30.41"/>
      <path class="cls-3" d="M110.11,60.08c.36-2.76,2.47-21.52-11.31-36.77-11.73-12.98-26.98-14.58-30.41-14.85"/>
      <circle class="cls-2" cx="36.68" cy="38.33" r="6.5"/>
      <circle class="cls-2" cx="81.68" cy="38.33" r="6.5"/>
    </g>
  </g>
</svg>