<?xml version="1.0" encoding="UTF-8"?>
<svg id="Layer_2" xmlns="http://www.w3.org/2000/svg" viewBox="0 0 115 115">
  <defs>
    <style>
      .cls-1 {
        fill: #dc4bbc;
      }

      .cls-2 {
        fill: #692e50;
      }

      .cls-3 {
        stroke: #64c0cf;
      }

      .cls-3, .cls-4, .cls-5, .cls-6 {
        fill: none;
        stroke-miterlimit: 10;
        stroke-width: 4px;
      }

      .cls-4 {
        stroke: #e89f3c;
      }

      .cls-5 {
        stroke: #692e50;
      }

      .cls-6 {
        stroke: #e26748;
      }
    </style>
  </defs>
  <g id="Layer_1-2" data-name="Layer_1">
    <g>
      <circle class="cls-1" cx="57.5" cy="57.5" r="57.5"/>
      <path class="cls-5" d="M12.64,38.32c.85,1.4,6.09,9.77,16.95,12.07,10.6,2.24,18.63-2.98,20.02-3.92"/>
      <path class="cls-5" d="M103.64,38.68c-.86,1.4-6.17,9.72-17.05,11.93-10.62,2.16-18.6-3.13-19.98-4.08"/>
      <path class="cls-3" d="M29.71,21.31c-.22.79-1.78,6.64,1.95,12.01,4.22,6.06,11.39,6.06,11.98,6.05"/>
      <path class="cls-3" d="M90.04,21.56c.22.79,1.73,6.65-2.05,11.99-4.26,6.03-11.44,5.97-12.02,5.95"/>
      <polyline class="cls-4" points="10.05 57.94 16.99 74.46 25.02 68.5 34.96 81.54"/>
      <polyline class="cls-4" points="104.58 58.32 97.51 74.79 89.53 68.76 79.48 81.71"/>
      <polyline class="cls-6" points="42.99 90.94 56.94 103 71.74 91.06"/>
      <circle class="cls-2" cx="30.6" cy="55.63" r="6.5"/>
      <circle class="cls-2" cx="87.59" cy="55.85" r="6.5"/>
    </g>
  </g>
</svg>