<?xml version="1.0" encoding="UTF-8"?>
<svg id="Layer_2" xmlns="http://www.w3.org/2000/svg" viewBox="0 0 115 115">
  <defs>
    <style>
      .cls-1 {
        fill: #488b76;
      }

      .cls-2 {
        fill: #8d9efc;
      }

      .cls-3 {
        fill: #692e50;
      }

      .cls-4 {
        fill: none;
        stroke: #692e50;
        stroke-miterlimit: 10;
        stroke-width: 4px;
      }
    </style>
  </defs>
  <g id="Layer_1-2" data-name="Layer_1">
    <g>
      <circle class="cls-1" cx="57.5" cy="57.5" r="57.5"/>
      <path class="cls-4" d="M64.5,29.5c-.02-.77-.04-6.88,5-11,4.21-3.44,9.02-3.09,10-3"/>
      <path class="cls-4" d="M9,44c.16-.32,2.26-4.39,7-5,4.7-.61,7.75,2.72,8,3"/>
      <line class="cls-4" x1="38" y1="84" x2="94" y2="95"/>
      <circle class="cls-2" cx="38.25" cy="24.25" r="2.25"/>
      <circle class="cls-2" cx="31.63" cy="28.14" r="2.25"/>
      <circle class="cls-2" cx="20.63" cy="29.14" r="2.25"/>
      <circle class="cls-2" cx="54.63" cy="11.14" r="2.25"/>
      <circle class="cls-2" cx="41.63" cy="37.14" r="2.25"/>
      <circle class="cls-2" cx="58.63" cy="29.14" r="2.25"/>
      <circle class="cls-2" cx="56.63" cy="47.14" r="2.25"/>
      <circle class="cls-2" cx="68.63" cy="39.14" r="2.25"/>
      <circle class="cls-2" cx="12.63" cy="51.56" r="2.25"/>
      <circle class="cls-2" cx="39.63" cy="54.56" r="2.25"/>
      <circle class="cls-2" cx="36.63" cy="66.56" r="2.25"/>
      <circle class="cls-2" cx="20.63" cy="81.56" r="2.25"/>
      <circle class="cls-2" cx="27.63" cy="84.9" r="2.25"/>
      <circle class="cls-2" cx="59.63" cy="64.9" r="2.25"/>
      <circle class="cls-2" cx="67.63" cy="60.9" r="2.25"/>
      <circle class="cls-2" cx="70.63" cy="56.9" r="2.25"/>
      <circle class="cls-2" cx="66.63" cy="75.9" r="2.25"/>
      <circle class="cls-2" cx="89.63" cy="76.9" r="2.25"/>
      <circle class="cls-2" cx="91.84" cy="66.9" r="2.25"/>
      <circle class="cls-2" cx="94.84" cy="55.9" r="2.25"/>
      <circle class="cls-2" cx="103.84" cy="48.9" r="2.25"/>
      <circle class="cls-2" cx="101.84" cy="33.9" r="2.25"/>
      <circle class="cls-2" cx="90.84" cy="23.9" r="2.25"/>
      <circle class="cls-3" cx="20.53" cy="62.73" r="6.5"/>
      <circle class="cls-3" cx="87.53" cy="40.73" r="6.5"/>
    </g>
  </g>
</svg>