<?xml version="1.0" encoding="UTF-8"?>
<svg id="Layer_2" xmlns="http://www.w3.org/2000/svg" viewBox="0 0 115 115">
  <defs>
    <style>
      .cls-1 {
        fill: #488b76;
      }

      .cls-2 {
        fill: #e26748;
      }

      .cls-3 {
        fill: #8d9efc;
      }

      .cls-4 {
        fill: #64c0cf;
      }
    </style>
  </defs>
  <g id="Layer_1-2" data-name="Layer_1">
    <g>
      <circle class="cls-4" cx="57.5" cy="57.5" r="57.5"/>
      <g>
        <path class="cls-1" d="M57.5,45.48l37.27-31.74C84.74,5.18,71.73,0,57.5,0c-15.73,0-29.97,6.32-40.35,16.55l40.35,28.93Z"/>
        <path class="cls-1" d="M104.82,90.16c6.41-9.28,10.18-20.52,10.18-32.66,0-4.31-.49-8.51-1.39-12.55l-36.11,24.55,27.32,20.66Z"/>
        <path class="cls-1" d="M19.76,100.86l27.74-25.36L.12,53.89c-.07,1.19-.12,2.4-.12,3.61,0,17.31,7.66,32.82,19.76,43.36Z"/>
        <path class="cls-1" d="M62.5,90.5l-23.07,21.59c5.69,1.88,11.76,2.91,18.07,2.91,11.95,0,23.04-3.65,32.24-9.88l-27.24-14.62Z"/>
      </g>
      <rect class="cls-3" x="41.5" y="83.5" width="43" height="6"/>
      <circle class="cls-2" cx="58.28" cy="59.23" r="6.5"/>
    </g>
  </g>
</svg>