<?xml version="1.0" encoding="UTF-8"?>
<svg id="Layer_2" xmlns="http://www.w3.org/2000/svg" viewBox="0 0 115 115">
  <defs>
    <style>
      .cls-1 {
        fill: #dc4bbc;
      }

      .cls-2 {
        fill: #e26748;
      }

      .cls-3 {
        fill: none;
        stroke: #64c0cf;
        stroke-miterlimit: 10;
        stroke-width: 4px;
      }

      .cls-4 {
        fill: #e47d9f;
      }
    </style>
  </defs>
  <g id="Layer_1-2" data-name="Layer_1">
    <g>
      <circle class="cls-4" cx="57.5" cy="57.5" r="57.5"/>
      <path class="cls-3" d="M22.5,14.5c-5.63,7.33-15.65,25.5,1.63,22.54,3.24-.77,2.77-2.98.27-4.96-6.88-5.25-12.76,5.09-11.89,11.24,1.74,11.06,15.42,16.54,20.51,4.97.91-2.15,1.33-4.05.5-5.52-1.96-2.42-5.82-1.15-7.27,1.27-3.45,5.01-1.48,11.06,3.46,14.13,11.77,8.22,22.73-5.52,20.87-18.04-.95-5.56-4.77-11.9-10.41-13.42-2.12-.5-5,.27-6.25,2.18-1.63,2.76,1.09,6.12,3.51,7.65,6.07,3.66,12.88-1.75,15.4-7.25,3.44-7.81-1.38-19.46-9.82-17.83-2.29.33-4.95,2.18-4.6,4.45.4,3.34,3.83,6.32,6.9,7.47,7.39,2.62,17.48-3.9,18.16-10.8.12-2.17-.74-5.48-3.12-6.04-1.96-.33-4.12,1.57-5.07,3.3-3.22,6.1,6.56,9.75,11.69,11.01,4.21,1.14,5.46,7.38,3.67,11.29-1.27,3.05-5.03,5.51-8.08,5.9-1.88.24-3.23-.09-3.47-1.71-.25-1.58.63-4.06,2.25-5.75,2.96-3.1,7.45-2.38,10.69-.34,7.52,4.64,3.4,16.91-3.85,21.86-3.78,2.87-14.65,5.11-11.78-2.95,1.62-3.96,8-2.34,9.39,1.08.94,2.37-.58,4.73-.65,7.18-.32,5.22,4.92,10.27,10.31,8.85,2.44-.66,4.53-2.49,5.88-4.56,4.66-6.75-3.73-9.38-8.07-5.35-6.45,6.37-.47,16.01,7.89,15.23,5.68-.62,8.99-7.49,8.41-12.51-.53-5.16-6.38-6.95-7.16-12.16-1.28-5.9.49-13.79,6.29-13.67,4.51.16,3.7,5.66.69,7.25-2.05,1.02-4.5.05-6.34-1.19-5.25-3.12-6.46-12.19-1.61-15.69,1.81-1.26,5.26-2.03,6.9-.18,1.25,1.53.54,4.77-1.49,5.19-5.57.56-11.98-7.04-5.53-11.74,7.55-5.3,12.59,6.07,12.59,11.99.12,4.33-.97,7.8,2.07,11.07,1.6,1.67,4.37,3.64,6.66,2.38,3.56-2.67,1.71-9.02-3.31-7.99-6.62.79-5.97,12.07-1.27,14.88,5.35,2.39,10.52-2.81,12.48-7.72"/>
      <circle class="cls-1" cx="54.5" cy="82.5" r="8"/>
      <circle class="cls-2" cx="15.68" cy="63.83" r="6.5"/>
      <circle class="cls-2" cx="102.68" cy="63.83" r="6.5"/>
    </g>
  </g>
</svg>