<?xml version="1.0" encoding="UTF-8"?>
<svg id="Layer_2" xmlns="http://www.w3.org/2000/svg" viewBox="0 0 115 115">
  <defs>
    <style>
      .cls-1 {
        fill: #e89f3c;
      }

      .cls-2 {
        fill: #dc4bbc;
      }

      .cls-3 {
        fill: none;
        stroke: #488b76;
        stroke-miterlimit: 10;
        stroke-width: 4px;
      }
    </style>
  </defs>
  <g id="Layer_1-2" data-name="Layer_1">
    <g>
      <circle class="cls-2" cx="57.5" cy="57.5" r="57.5"/>
      <path class="cls-3" d="M15.5,55.5c-3.25,6.69-2.42,14.3,2,19,5.57,5.93,16.27,6.62,20,2,2.83-3.51,2.07-10.6-1-12-2.14-.98-5.46.78-7,3-3.39,4.9-1.15,14.34,5,18,4.72,2.81,10.72,1.59,14.5-.5,6.49-3.59,5.66-9.3,11-11,4.59-1.46,11.07.89,14,6,2.58,4.51,2.85,11.96-2,15-4.44,2.78-11.38.76-13-3-1.88-4.37,3.3-11.41,9-13,6.3-1.76,9.37,4.19,17,3,4.83-.76,10.73-4.26,12-10,1.03-4.67-.91-11.21-6-13-4.15-1.46-9.89.41-11,4-1.23,3.96,3.45,9.14,8,10,6.51,1.22,12.64-6.43,15-12,2.54-5.99,1.56-11.61,1-14"/>
      <circle class="cls-1" cx="31.53" cy="31.23" r="6.5"/>
      <circle class="cls-1" cx="85.53" cy="31.23" r="6.5"/>
    </g>
  </g>
</svg>