<?xml version="1.0" encoding="UTF-8"?>
<svg id="Layer_2" xmlns="http://www.w3.org/2000/svg" viewBox="0 0 115 115">
  <defs>
    <style>
      .cls-1 {
        fill: #dc4bbc;
      }

      .cls-2 {
        fill: #d3d5ee;
      }

      .cls-3 {
        fill: #8d9efc;
      }

      .cls-4 {
        fill: #64c0cf;
      }

      .cls-5 {
        fill: #aba09b;
      }
    </style>
  </defs>
  <g id="Layer_1-2" data-name="Layer_1">
    <g>
      <circle class="cls-4" cx="57.5" cy="57.5" r="57.5"/>
      <path class="cls-5" d="M77,39s-22-22-14-26,14,26,14,26Z"/>
      <path class="cls-5" d="M52.78,13.11c-8-4-14,26-14,26,0,0,22-22,14-26"/>
      <path class="cls-5" d="M87.64,41.59s6.09-20.42,12.72-14.33c6.63,6.09-12.72,14.33-12.72,14.33Z"/>
      <path class="cls-5" d="M29.02,39.31s-6.09-20.42-12.72-14.33c-6.63,6.09,12.72,14.33,12.72,14.33Z"/>
      <path class="cls-5" d="M23.92,48.6s-21.28-1.2-17.8,7.1c3.48,8.3,17.8-7.1,17.8-7.1Z"/>
      <path class="cls-5" d="M94.56,52.5s21.28-1.2,17.8,7.1c-3.48,8.3-17.8-7.1-17.8-7.1Z"/>
      <path class="cls-5" d="M75.74,57.5s-18.99,9.68-11.8,15.09c7.19,5.42,11.8-15.09,11.8-15.09Z"/>
      <path class="cls-5" d="M35.72,57.55s18.99,9.68,11.8,15.09c-7.19,5.42-11.8-15.09-11.8-15.09Z"/>
      <ellipse class="cls-3" cx="57.5" cy="100" rx="7" ry="4.5"/>
      <path class="cls-2" d="M81.85,58.96c-8.55,4.23-9.39,18.2-4.24,25.71,4.89,8.2,17.8,6.02,21.12-3.12,1.22-3.33,1.05-6.98.12-10.44-1.77-7.42-8.85-15.94-16.85-12.22l-.15.07Z"/>
      <path class="cls-2" d="M24.98,56.59c8.25-.1,10.15,11.93,8.25,18.6-1.36,7.25-9.02,16.79-16.33,9.9-4.35-3.86-5.07-12.53-2.41-18.28,1.82-4.48,5.78-9.7,10.35-10.21h.14Z"/>
      <circle class="cls-1" cx="82.68" cy="48.33" r="6.5"/>
      <circle class="cls-1" cx="32.68" cy="48.33" r="6.5"/>
    </g>
  </g>
</svg>