<?xml version="1.0" encoding="UTF-8"?>
<svg id="Layer_2" xmlns="http://www.w3.org/2000/svg" viewBox="0 0 119 119">
  <defs>
    <style>
      .cls-1 {
        fill: #e89f3c;
      }

      .cls-2 {
        fill: #dc4bbc;
      }

      .cls-3 {
        fill: #e26748;
      }

      .cls-4 {
        fill: #692e50;
      }

      .cls-5 {
        fill: #e47d9f;
      }

      .cls-6 {
        fill: #64c0cf;
      }
    </style>
  </defs>
  <g id="Layer_1-2" data-name="Layer_1">
    <g>
      <circle class="cls-3" cx="59.5" cy="59.5" r="59.5"/>
      <path class="cls-1" d="M59.5,55.5c21.74,0,41.81-3.6,58.02-9.67C111.29,19.55,87.68,0,59.5,0S7.71,19.55,1.48,45.83c16.21,6.08,36.29,9.67,58.02,9.67Z"/>
      <path class="cls-5" d="M59.1,85.97c-19.2,0-37.5-1.19-54.22-3.33,8.98,21.36,30.1,36.36,54.73,36.36s45.84-15.07,54.79-36.5c-17,2.23-35.69,3.47-55.3,3.47Z"/>
      <ellipse class="cls-6" cx="91.68" cy="54.88" rx="24.93" ry="14.47" transform="translate(-12.38 30.62) rotate(-17.78)"/>
      <ellipse class="cls-6" cx="29.62" cy="54.88" rx="14.47" ry="24.93" transform="translate(-31.68 66.32) rotate(-72.22)"/>
      <rect class="cls-2" x="39.62" y="90.5" width="54" height="16" rx="8" ry="8"/>
      <circle class="cls-4" cx="15.43" cy="53.65" r="6.5"/>
      <circle class="cls-4" cx="103.64" cy="53.65" r="6.5"/>
    </g>
  </g>
</svg>