<?xml version="1.0" encoding="UTF-8"?>
<svg id="Layer_2" xmlns="http://www.w3.org/2000/svg" viewBox="0 0 115 115.52">
  <defs>
    <style>
      .cls-1 {
        fill: #e89f3c;
      }

      .cls-2 {
        fill: #dc4bbc;
      }

      .cls-3 {
        fill: #8d9efc;
      }

      .cls-4 {
        fill: #692e50;
      }

      .cls-5 {
        fill: none;
        stroke: #8d9efc;
        stroke-miterlimit: 10;
        stroke-width: 4px;
      }
    </style>
  </defs>
  <g id="Layer_1-2" data-name="Layer_1">
    <g>
      <circle class="cls-1" cx="57.5" cy="58.02" r="57.5"/>
      <path class="cls-5" d="M24.85,64.38c-1.34,1.19-2.93.1-3.56-2.42-.79-3.15-.07-6.91,1.6-8.39,2.09-1.85,4.58-.16,5.57,3.77,1.23,4.92.11,10.79-2.51,13.11-3.27,2.9-7.16.25-8.7-5.9-1.92-7.69-.17-16.86,3.92-20.48,5.11-4.52,11.19-.4,13.59,9.22,3,12.02.26,26.34-6.12,32-7.98,7.07-17.49.62-21.24-14.4-3.76-15.05-3.06-34.9,9.56-50C31.6,3.38,52.52,2.15,55.5,2.02c1.71-.07,27.27-.73,44.12,20,12.24,15.05,14.87,35.22,9.56,50-.74,2.05-6.12,17.03-14.54,17.27-2.94.08-5.16-1.66-6.71-2.87-8.8-6.89-9.98-21.59-6.12-32,.66-1.77,4.05-10.9,9.3-11.05,1.88-.05,3.3,1.06,4.29,1.84,5.63,4.41,6.39,13.82,3.92,20.48-.42,1.14-2.59,6.98-5.95,7.07-1.2.03-2.11-.68-2.75-1.17-3.61-2.82-4.09-8.84-2.51-13.11.27-.73,1.66-4.47,3.81-4.53.77-.02,1.35.43,1.76.75,2.31,1.81,2.62,5.66,1.6,8.39-.2.53-1.06,2.87-2.44,2.9-.45,0-.84-.23-1.12-.48"/>
      <ellipse class="cls-2" cx="57.39" cy="91.34" rx="7.74" ry="5.16"/>
      <path class="cls-3" d="M57.25,16.02s-8.81-8.4-29.75-2.8c0,0,18.73-11.2,27.54-11.2s37.46,11.2,37.46,11.2c0,0-26.44-5.6-35.25,2.8Z"/>
      <circle class="cls-4" cx="34" cy="29.52" r="6.5"/>
      <circle class="cls-4" cx="81" cy="29.52" r="6.5"/>
      <path class="cls-3" d="M100.5,25.02s-11.68-15.02-30.34-13.51c-18.66,1.51,4.34-4.49,4.34-4.49l14.87,5.38,11.13,12.62h0"/>
      <path class="cls-3" d="M14.5,27.02s12-17,30-16,9-5,9-5l-16.62,2.17-10.21,4.09-12.17,14.74Z"/>
    </g>
  </g>
</svg>