<?xml version="1.0" encoding="UTF-8"?>
<svg id="Layer_2" xmlns="http://www.w3.org/2000/svg" viewBox="0 0 119 119">
  <defs>
    <style>
      .cls-1 {
        fill: none;
        stroke: #8d9efc;
        stroke-miterlimit: 10;
        stroke-width: 5px;
      }

      .cls-2 {
        fill: #d3d5ee;
      }

      .cls-3 {
        fill: #692e50;
      }

      .cls-4 {
        fill: #64c0cf;
      }
    </style>
  </defs>
  <g id="Layer_1-2" data-name="Layer_1">
    <g>
      <circle class="cls-2" cx="59.5" cy="59.5" r="59.5"/>
      <path class="cls-4" d="M86.92,67.26c0-17.34,8.06-32.79,20.63-42.84C96.72,9.62,79.24,0,59.5,0S22.28,9.62,11.45,24.42c12.57,10.05,20.63,25.5,20.63,42.84,0,13.63-4.98,26.09-13.21,35.68,10.64,9.95,24.92,16.06,40.64,16.06s30-6.1,40.64-16.06c-8.23-9.59-13.21-22.05-13.21-35.68Z"/>
      <line class="cls-1" x1="13.85" y1="40" x2="31.85" y2="35"/>
      <line class="cls-1" x1="22.35" y1="53.5" x2="38.35" y2="49.5"/>
      <line class="cls-1" x1="24.35" y1="71.5" x2="40.35" y2="74.5"/>
      <line class="cls-1" x1="22.35" y1="86.5" x2="39.35" y2="90.5"/>
      <line class="cls-1" x1="85.35" y1="32.5" x2="101.35" y2="42.5"/>
      <line class="cls-1" x1="76.35" y1="47.5" x2="95.35" y2="51.5"/>
      <line class="cls-1" x1="76.35" y1="71.5" x2="93.35" y2="67.5"/>
      <line class="cls-1" x1="78.35" y1="90.5" x2="96.35" y2="84.5"/>
      <circle class="cls-3" cx="15.87" cy="60.23" r="6.5"/>
      <circle class="cls-3" cx="102.87" cy="60.23" r="6.5"/>
    </g>
  </g>
</svg>