<?xml version="1.0" encoding="UTF-8"?>
<svg id="Layer_2" xmlns="http://www.w3.org/2000/svg" viewBox="0 0 115 115">
  <defs>
    <style>
      .cls-1 {
        fill: #8d9efc;
      }

      .cls-2 {
        fill: #692e50;
      }

      .cls-3 {
        fill: #e47d9f;
      }
    </style>
  </defs>
  <g id="Layer_1-2" data-name="Layer_1">
    <g>
      <circle class="cls-1" cx="57.5" cy="57.5" r="57.5"/>
      <path class="cls-3" d="M114.32,48.64c.06-.34-.02-.69-.1-1.03-2.45-10.26-6.17-19.52-13.14-27.61-6.39-7.42-14.66-13.16-23.86-16.52-6.31-2.3-13.01-3.47-19.72-3.47C33.36,0,12.71,14.88,4.19,35.96c-1.25,14.62,4.84,28.24,6.31,31.54,1.46,3.26,5.51,12.33,10,12,5.55-.41,6.81-14.79,12-15,2.65-.11,3.91,1.99,5.02,3.96,1.63,2.87,3.25,5.74,4.88,8.62.48.84,1,1.73,1.87,2.14,3.93,1.85,6.27-5.22,6.82-7.82.66-3.1.85-6.34,2.1-9.25,1.62-3.76,5.57-5.07,8.61-1.88,4.49,4.71,2.65,17.65,11.65,17.33,2.26-.08,4.41-1.27,5.89-2.97,1.48-1.71,2.34-3.9,2.69-6.13.36-2.33.13-5.2,1.85-7.04,1.61-1.72,4.33-1.98,6.52-1.52,1.94.41,3.74,1.66,4.54,3.47,1.38,3.16.57,6.43,3.98,8.56,1.14.71,2.57,1.09,3.85.68,1.98-.64,2.99-2.94,2.93-5.02-.06-2.08-.91-4.04-1.51-6.03-.6-1.99-.93-4.23.02-6.09,1.68-3.3,6.21-3.66,9.25-5.77.34-.23.67-.51.8-.9.02-.06.03-.12.04-.17Z"/>
      <circle class="cls-2" cx="89" cy="86.5" r="6.5"/>
      <circle class="cls-2" cx="29" cy="86.5" r="6.5"/>
    </g>
  </g>
</svg>