<?xml version="1.0" encoding="UTF-8"?>
<svg id="Layer_2" xmlns="http://www.w3.org/2000/svg" viewBox="0 0 115 115">
  <defs>
    <style>
      .cls-1 {
        fill: none;
        stroke: #692e50;
        stroke-miterlimit: 10;
        stroke-width: 3px;
      }

      .cls-2 {
        fill: #d3d5ee;
      }

      .cls-3 {
        fill: #692e50;
      }

      .cls-4 {
        fill: #64c0cf;
      }
    </style>
  </defs>
  <g id="Layer_1-2" data-name="Layer_1">
    <g>
      <circle class="cls-2" cx="57.5" cy="57.5" r="57.5"/>
      <path class="cls-4" d="M57,114.99c.17,0,.33.01.5.01,31.76,0,57.5-25.74,57.5-57.5S89.26,0,57.5,0c-.17,0-.33.01-.5.01v114.97Z"/>
      <path class="cls-4" d="M18.21,49.71c5.63-.12,8.21,7.77,7.58,12.93-.43,5.49-2.85,11.49-7.38,14.77-4.37,3.11-9.18,1.14-11.41-3.94-3.8-8.29,1.81-22.39,11.08-23.76h.14Z"/>
      <path class="cls-1" d="M34,72c1.99,3.55,5.45,8.32,11,10,7.65,2.32,12.94-3.14,20-1,3.47,1.05,8.12,4.16,12,14"/>
      <circle class="cls-3" cx="39.18" cy="42.83" r="6.5"/>
      <circle class="cls-3" cx="79.18" cy="42.83" r="6.5"/>
    </g>
  </g>
</svg>