<?xml version="1.0" encoding="UTF-8"?>
<svg id="Layer_2" xmlns="http://www.w3.org/2000/svg" viewBox="0 0 115 115">
  <defs>
    <style>
      .cls-1 {
        fill: #e89f3c;
      }

      .cls-2 {
        fill: #e26748;
      }

      .cls-3 {
        fill: none;
        stroke: #8d9efc;
        stroke-miterlimit: 10;
        stroke-width: 6px;
      }

      .cls-4 {
        fill: #692e50;
      }
    </style>
  </defs>
  <g id="Layer_1-2" data-name="Layer_1">
    <g>
      <circle class="cls-2" cx="57.5" cy="57.5" r="57.5"/>
      <path class="cls-3" d="M23.5,72.5s-3,21,15,21,19-21,19-21c0,0,1.13,21,17.06,21s19.4-21,19.4-21"/>
      <path class="cls-1" d="M97.67,54.98l-2.9-1.89-2.7,2.18c-1.61,1.3-3.94-.22-3.4-2.22l.9-3.35-2.9-1.89c-1.73-1.13-1.01-3.82,1.06-3.92l3.46-.18.9-3.35c.54-2,3.32-2.14,4.06-.21l1.24,3.24,3.46-.18c2.07-.11,3.06,2.49,1.45,3.79l-2.7,2.18,1.24,3.24c.74,1.93-1.43,3.68-3.16,2.55Z"/>
      <path class="cls-1" d="M28.31,54.98l-2.9-1.89-2.7,2.18c-1.61,1.3-3.94-.22-3.4-2.22l.9-3.35-2.9-1.89c-1.73-1.13-1.01-3.82,1.06-3.92l3.46-.18.9-3.35c.54-2,3.32-2.14,4.06-.21l1.24,3.24,3.46-.18c2.07-.11,3.06,2.49,1.45,3.79l-2.7,2.18,1.24,3.24c.74,1.93-1.43,3.68-3.16,2.55Z"/>
      <circle class="cls-4" cx="83.68" cy="28.83" r="6.5"/>
      <circle class="cls-4" cx="35.68" cy="28.83" r="6.5"/>
    </g>
  </g>
</svg>