<?xml version="1.0" encoding="UTF-8"?>
<svg id="Layer_2" xmlns="http://www.w3.org/2000/svg" viewBox="0 0 115 115">
  <defs>
    <style>
      .cls-1 {
        fill: #e89f3c;
      }

      .cls-2 {
        fill: #d3d5ee;
      }

      .cls-3 {
        fill: #e26748;
      }

      .cls-4 {
        fill: #692e50;
      }
    </style>
  </defs>
  <g id="Layer_1-2" data-name="Layer_1">
    <g>
      <circle class="cls-3" cx="57.5" cy="57.5" r="57.5"/>
      <path class="cls-2" d="M72.03,15.77c1.35,2.81,2.1,6.12,4.02,8.58,5.37,6.51,15-1.84,23.76,6.14,3.97,3.42,5.6,9.14,3.98,14.13-1.05,3.71-4.05,7.14-4.82,10.34-1.33,4.62,2.6,8.34,4.36,12.28,4.91,10.2-2.7,20.92-13.74,20.88-4.35.19-9.66-1.62-13.09,1.9-2.54,2.52-3.47,7.83-5.87,11.37-6.49,10.61-21.43,9.59-26.81-1.59-3.81-8.09-3.62-13.65-14.6-12.22-8.16,1.15-16.96-3.41-18.15-12.08-.96-5.19,1.93-9.89,4.56-14.07,2.73-4.19.71-8.01-1.93-11.64-5.62-7.08-2.77-18.22,5.58-21.88,4.37-2.24,9.46-.81,14.05-.73,4.05.13,6.68-2.68,8.19-6.13,2.19-4.93,4.7-10.49,9.36-13.25,7.8-4.95,17.77-.4,21.08,7.8l.08.17Z"/>
      <circle class="cls-1" cx="57.5" cy="57.5" r="18.5"/>
      <circle class="cls-4" cx="80.78" cy="20.98" r="6.5"/>
      <circle class="cls-4" cx="34.78" cy="20.98" r="6.5"/>
    </g>
  </g>
</svg>