<?xml version="1.0" encoding="UTF-8"?>
<svg id="Layer_2" xmlns="http://www.w3.org/2000/svg" viewBox="0 0 115 115">
  <defs>
    <style>
      .cls-1 {
        fill: #488b76;
      }

      .cls-2 {
        fill: none;
        stroke: #e47d9f;
        stroke-miterlimit: 10;
        stroke-width: 4px;
      }

      .cls-3 {
        fill: #64c0cf;
      }

      .cls-4 {
        fill: #aba09b;
      }
    </style>
  </defs>
  <g id="Layer_1-2" data-name="Layer_1">
    <g>
      <circle class="cls-4" cx="57.5" cy="57.5" r="57.5"/>
      <path class="cls-3" d="M96.08,63.6c17.19-5.33-11.02-32.18-11.02-32.18,0,0-6.17,37.51,11.02,32.18"/>
      <path class="cls-3" d="M13.72,81.82c-17.19-5.33,11.02-32.18,11.02-32.18,0,0,6.17,37.51-11.02,32.18"/>
      <path class="cls-2" d="M38.5,55.5c.19,9.62,1.19,19.38,3.87,28.65,1.46,5.06,4.72,16.15,11.41,16.32,6.07.15,10.56-9,12.8-13.56,3.63-7.4,6.09-15.39,7.92-23.4"/>
      <circle class="cls-1" cx="32.53" cy="26.23" r="6.5"/>
      <circle class="cls-1" cx="82.53" cy="26.23" r="6.5"/>
    </g>
  </g>
</svg>