<?xml version="1.0" encoding="UTF-8"?>
<svg id="Layer_2" xmlns="http://www.w3.org/2000/svg" viewBox="0 0 115 115">
  <defs>
    <style>
      .cls-1 {
        fill: #d3d5ee;
      }

      .cls-2 {
        stroke: #8d9efc;
        stroke-width: 6px;
      }

      .cls-2, .cls-3, .cls-4 {
        fill: none;
        stroke-miterlimit: 10;
      }

      .cls-5 {
        fill: #64c0cf;
      }

      .cls-3 {
        stroke: #692e50;
        stroke-width: 4px;
      }

      .cls-4 {
        stroke: #e47d9f;
        stroke-width: 3px;
      }
    </style>
  </defs>
  <g id="Layer_1-2" data-name="Layer_1">
    <g>
      <circle class="cls-5" cx="57.5" cy="57.5" r="57.5"/>
      <g>
        <path class="cls-1" d="M95.5,69.5c.15,17.14-16.33,32.34-36.5,33-20.17-.66-36.65-15.86-36.5-33,0-16.96,15.28-42.5,36.5-42.99,21.22.49,36.5,26.02,36.5,42.99Z"/>
        <path class="cls-2" d="M95.5,69.5c.15,17.14-16.33,32.34-36.5,33-20.17-.66-36.65-15.86-36.5-33,0-16.96,15.28-42.5,36.5-42.99,21.22.49,36.5,26.02,36.5,42.99Z"/>
      </g>
      <path class="cls-3" d="M72,15c2.92-2.22,6.82-2.61,10-1,3.59,1.82,5.64,5.87,5,10"/>
      <path class="cls-3" d="M46.83,16.35c-2.92-2.22-6.82-2.61-10-1-3.59,1.82-5.64,5.87-5,10"/>
      <line class="cls-4" x1="25.13" y1="43.84" x2="11.83" y2="41.71"/>
      <line class="cls-4" x1="20.13" y1="55.84" x2="6.83" y2="53.71"/>
      <line class="cls-4" x1="17.13" y1="69.84" x2="3.83" y2="67.71"/>
      <line class="cls-4" x1="94.78" y1="38.31" x2="106.71" y2="35.47"/>
      <line class="cls-4" x1="98.48" y1="49.41" x2="110.42" y2="46.57"/>
      <line class="cls-4" x1="100.29" y1="62.53" x2="112.22" y2="59.69"/>
    </g>
  </g>
</svg>