<?xml version="1.0" encoding="UTF-8"?>
<svg id="Layer_2" xmlns="http://www.w3.org/2000/svg" viewBox="0 0 119 119">
  <defs>
    <style>
      .cls-1, .cls-2 {
        fill: #64c0cf;
      }

      .cls-1, .cls-2, .cls-3 {
        stroke-width: 6px;
      }

      .cls-1, .cls-2, .cls-3, .cls-4 {
        stroke-miterlimit: 10;
      }

      .cls-1, .cls-3 {
        stroke: #f665fa;
      }

      .cls-2 {
        stroke: #e89f3c;
      }

      .cls-3 {
        fill: none;
      }

      .cls-5 {
        fill: #8d9efc;
      }

      .cls-4 {
        fill: #e47d9f;
        stroke: #e47d9f;
        stroke-width: 4px;
      }
    </style>
  </defs>
  <g id="Layer_1-2" data-name="Layer_1">
    <g>
      <circle class="cls-4" cx="59.5" cy="59.5" r="57.5"/>
      <path class="cls-1" d="M108.49,87.6c-10.43-8.58-26.7-14.1-44.99-14.1-21.42,0-40.06,7.57-49.8,18.75,10.5,13.82,27.11,22.75,45.8,22.75,20.72,0,38.87-10.96,48.99-27.4Z"/>
      <line class="cls-3" x1="75.5" y1="73.5" x2="80.5" y2="112.5"/>
      <line class="cls-3" x1="54.5" y1="74.5" x2="59.5" y2="117.5"/>
      <line class="cls-3" x1="34.5" y1="78.5" x2="37.5" y2="112.5"/>
      <path class="cls-2" d="M49.93,52.86s-27.13,10.85-31.12,10.52c-3.99-.32-10.8-2.88-9.08-11.77,1.72-8.89,17.67-7.6,17.67-7.6l-7.79-2.64c-7.79-2.64-4.93-11.26-4.93-11.26,0,0,2.38-7,14.18-4.04,11.8,2.96,26.94,14.22,26.94,14.22,0,0,23.46-17.16,33.43-16.36,9.97.81,9.89,1.8,12.64,5.04,2.75,3.23-1.8,9.89-4.95,11.64-3.15,1.75-10.04,2.2-10.04,2.2,0,0,9.92.8,14.52,5.19,4.6,4.39,4.85,8.42,1.75,12.18-3.1,3.76-10.18,3.19-16.53,1.67-6.35-1.52-20.64-7.69-20.64-7.69l-7.99-3.66-8.05,2.36Z"/>
      <circle class="cls-5" cx="96.53" cy="54.23" r="6.5"/>
      <circle class="cls-5" cx="18.53" cy="54.23" r="6.5"/>
      <circle class="cls-5" cx="93.53" cy="32.73" r="6.5"/>
      <circle class="cls-5" cx="22.53" cy="32.73" r="6.5"/>
    </g>
  </g>
</svg>