<?xml version="1.0" encoding="UTF-8"?>
<svg id="Layer_2" xmlns="http://www.w3.org/2000/svg" viewBox="0 0 116.04 116.03">
  <defs>
    <style>
      .cls-1 {
        fill: #488b76;
      }

      .cls-2 {
        fill: #dc4bbc;
      }

      .cls-3 {
        fill: #d3d5ee;
      }

      .cls-4 {
        fill: #e47d9f;
      }
    </style>
  </defs>
  <g id="Layer_1-2" data-name="Layer_1">
    <g>
      <circle class="cls-4" cx="58.02" cy="58.02" r="58.02"/>
      <path class="cls-2" d="M103.94,31.28c-3.61,2.46-1.66,7.03-5.04,12.11-3.29,4.93-10.87,9.21-18.16,7.06-7.63-2.25-12.93-10.96-11.1-18.16,1.58-6.2,8.13-10.11,13.12-11.1,4.17-.83,6.15.6,8.07-1.01,2.34-1.95,1.64-5.91.98-9.32C82.29,4.03,70.63,0,58.03,0s-23.51,3.77-32.85,10.2c-.44,3.69-2.62,9.75.46,12.33,1.92,1.61,3.9.18,8.07,1.01,4.99.99,11.54,4.9,13.12,11.1,1.83,7.21-3.47,15.91-11.1,18.16-7.29,2.15-14.87-2.13-18.16-7.06-3.39-5.07-1.44-9.64-5.04-12.11-2.14-1.46-4.66-1.11-6.88-.54C2.04,40.64.02,49.09.02,58.02.02,90.06,25.99,116.03,58.03,116.03s58.01-25.97,58.01-58.01c0-10.01-2.54-19.43-7-27.64-1.73-.26-3.52-.18-5.11.91Z"/>
      <path class="cls-3" d="M95.02,74.65c4.74,5.01-9.11,22.85-34,22.92-24.89-.07-38.74-17.92-34-22.92,4.37-5.36,18.8-1.58,34-2,15.2.42,29.63-3.36,34,2Z"/>
      <circle class="cls-1" cx="92.54" cy="33.5" r="6.5"/>
      <circle class="cls-1" cx="28.54" cy="33.5" r="6.5"/>
    </g>
  </g>
</svg>