<?xml version="1.0" encoding="UTF-8"?>
<svg id="Layer_2" xmlns="http://www.w3.org/2000/svg" viewBox="0 0 119 119">
  <defs>
    <style>
      .cls-1 {
        fill: #692e50;
      }

      .cls-2 {
        fill: #64c0cf;
      }

      .cls-3 {
        fill: #aba09b;
      }
    </style>
  </defs>
  <g id="Layer_1-2" data-name="Layer_1">
    <g>
      <circle class="cls-3" cx="59.5" cy="59.5" r="59.5"/>
      <path class="cls-2" d="M117.8,47.26c-1.32-6.22-3.62-12.07-6.71-17.41l-8.05,8.05-17.59-17.59,8.93-8.93c-6.04-4.37-12.92-7.63-20.37-9.5v13.24h-24.88V1c-7.51,1.32-14.53,4.03-20.79,7.87l8.32,8.32-17.59,17.59-8.76-8.76c-4.33,6.31-7.47,13.49-9.11,21.23h15.8v24.88H1.2c1.43,6.73,3.99,13.04,7.48,18.72l10.06-10.06,17.59,17.59-10.5,10.5c6.31,4.33,13.49,7.47,21.23,9.11v-19.94h24.88v19.94c7.33-1.56,14.15-4.46,20.21-8.43l-12.21-12.21,17.59-17.59,12.13,12.13c3.82-5.95,6.63-12.61,8.14-19.75h-14.76v-24.88h14.76Z"/>
      <rect class="cls-1" x="49.16" y="76" width="21" height="6"/>
      <circle class="cls-1" cx="76.18" cy="48.73" r="6.5"/>
      <circle class="cls-1" cx="41.18" cy="48.73" r="6.5"/>
    </g>
  </g>
</svg>