<?xml version="1.0" encoding="UTF-8"?>
<svg id="Layer_2" xmlns="http://www.w3.org/2000/svg" viewBox="0 0 115 115">
  <defs>
    <style>
      .cls-1 {
        fill: #e89f3c;
      }

      .cls-2 {
        fill: #dc4bbc;
      }

      .cls-3 {
        fill: #e26748;
      }

      .cls-4 {
        fill: #8d9efc;
      }

      .cls-5 {
        fill: #e47d9f;
      }
    </style>
  </defs>
  <g id="Layer_1-2" data-name="Layer_1">
    <g>
      <circle class="cls-2" cx="57.5" cy="57.5" r="57.5"/>
      <path class="cls-4" d="M41.7,83.97c14,13.38,28.74,0,28.74,0-14-13.37-28.74,0-28.74,0Z"/>
      <path class="cls-5" d="M76.5,85.47c11.18,10.68,22.95,0,22.95,0-11.18-10.68-22.95,0-22.95,0Z"/>
      <path class="cls-5" d="M14.28,85.47c11.18,10.68,22.95,0,22.95,0-11.18-10.68-22.95,0-22.95,0Z"/>
      <path class="cls-5" d="M80.76,11.99c-10.68,11.18,0,22.95,0,22.95,10.68-11.18,0-22.95,0-22.95Z"/>
      <path class="cls-5" d="M35.76,11.99c-10.68,11.18,0,22.95,0,22.95,10.68-11.18,0-22.95,0-22.95Z"/>
      <path class="cls-2" d="M89.64,59.36c.35,15.45,16.23,16.23,16.23,16.23-.35-15.45-16.23-16.23-16.23-16.23Z"/>
      <path class="cls-2" d="M25.87,59.36c-15.45.35-16.23,16.23-16.23,16.23,15.45-.35,16.23-16.23,16.23-16.23Z"/>
      <path class="cls-2" d="M9.39,30.17c.23,9.98,10.47,10.47,10.47,10.47-.23-9.98-10.47-10.47-10.47-10.47Z"/>
      <path class="cls-2" d="M103.99,30.17c-9.98.23-10.47,10.47-10.47,10.47,9.98-.23,10.47-10.47,10.47-10.47Z"/>
      <circle class="cls-3" cx="83" cy="69" r="3.5"/>
      <circle class="cls-3" cx="31" cy="69" r="3.5"/>
      <circle class="cls-3" cx="18" cy="22" r="3.5"/>
      <circle class="cls-3" cx="95" cy="22" r="3.5"/>
      <circle class="cls-5" cx="77.68" cy="48.83" r="6.5"/>
      <circle class="cls-5" cx="34.68" cy="48.83" r="6.5"/>
      <circle class="cls-1" cx="77.68" cy="48.83" r="6.5"/>
      <circle class="cls-1" cx="34.68" cy="48.83" r="6.5"/>
    </g>
  </g>
</svg>