<?xml version="1.0" encoding="UTF-8"?>
<svg id="Layer_2" xmlns="http://www.w3.org/2000/svg" viewBox="0 0 115 115">
  <defs>
    <style>
      .cls-1 {
        fill: #488b76;
      }

      .cls-2 {
        fill: #8d9efc;
      }

      .cls-3 {
        stroke: #64c0cf;
      }

      .cls-3, .cls-4 {
        fill: none;
        stroke-miterlimit: 10;
        stroke-width: 4px;
      }

      .cls-4 {
        stroke: #e89f3c;
      }
    </style>
  </defs>
  <g id="Layer_1-2" data-name="Layer_1">
    <g>
      <circle class="cls-2" cx="57.5" cy="57.5" r="57.5"/>
      <path class="cls-3" d="M57.5,5.5c-4.65.32-9.72.74-12.9,3.9-1.24,1.3-2.01,2.82-1.48,4.4.45,1.18,1.69,1.76,2.91,1.99,5.74,1.07,21.09-3.94,26.45,3.38.6,1.15.2,2.43-.71,3.29-7.14,5.49-20.44,1.8-29.71,1.74-4.87-.11-10.31-.49-14.55,1.5-6.36,3.79-1.18,9.5,5.43,9.13,5.38-.09,10.65-1.73,16.01-2.14,6.06-.6,11.61-.1,17.9-.5,15.96-1.17,23.96-5.07,36.65,7.32"/>
      <path class="cls-3" d="M40.5,83.5c13.88-5.49,29.4-9.44,36.68-1.73,2.11,2.5,3.56,7.81.74,10.4-6.35,4.43-18.19-5.07-24.65.65-2.29,2.2-2.55,6.33,0,7.82,4.24,1.99,9.6-1.08,13.98.09,4.75.72,5.85,7.65,1.7,9.69-2.01.98-4.33.47-6.45.09"/>
      <path class="cls-4" d="M33.5,57.5c1.98,4.37,6.34,7.14,11,7,5.15-.15,9.69-3.82,11-9"/>
      <path class="cls-4" d="M63.59,57.16c1.98,4.37,6.34,7.14,11,7,5.15-.15,9.69-3.82,11-9"/>
      <circle class="cls-1" cx="74.53" cy="52.23" r="6.5"/>
      <circle class="cls-1" cx="43.53" cy="52.23" r="6.5"/>
    </g>
  </g>
</svg>