<?xml version="1.0" encoding="UTF-8"?>
<svg id="Layer_2" xmlns="http://www.w3.org/2000/svg" viewBox="0 0 115 115">
  <defs>
    <style>
      .cls-1, .cls-2, .cls-3 {
        fill: none;
      }

      .cls-4 {
        fill: #dc4bbc;
      }

      .cls-5 {
        fill: #d3d5ee;
      }

      .cls-6 {
        fill: #e26748;
      }

      .cls-2 {
        stroke: #e47d9f;
      }

      .cls-2, .cls-3 {
        stroke-miterlimit: 10;
        stroke-width: 4px;
      }

      .cls-7 {
        fill: #692e50;
      }

      .cls-3 {
        stroke: #dc4bbc;
      }
    </style>
  </defs>
  <g id="Layer_1-2" data-name="Layer_1">
    <g>
      <circle class="cls-5" cx="57.5" cy="57.5" r="57.5"/>
      <path class="cls-2" d="M41.35,103.5s16,11,30-3"/>
      <line class="cls-3" x1="22.14" y1="22.5" x2="15.35" y2="38.5"/>
      <line class="cls-3" x1="26.55" y1="26.95" x2="19.77" y2="42.95"/>
      <line class="cls-3" x1="31.55" y1="28.95" x2="24.77" y2="44.95"/>
      <line class="cls-3" x1="36.55" y1="30.95" x2="29.77" y2="46.95"/>
      <line class="cls-3" x1="13.6" y1="58.06" x2="31.35" y2="95.5"/>
      <line class="cls-3" x1="20.07" y1="56.78" x2="35.73" y2="89.84"/>
      <line class="cls-3" x1="29.16" y1="59.31" x2="40.7" y2="83.64"/>
      <line class="cls-3" x1="32.55" y1="51.9" x2="43.18" y2="74.33"/>
      <line class="cls-3" x1="38.57" y1="52.28" x2="46.18" y2="68.33"/>
      <ellipse class="cls-6" cx="27.35" cy="48.5" rx="19" ry="15"/>
      <line class="cls-3" x1="91.56" y1="21.5" x2="98.35" y2="37.5"/>
      <line class="cls-3" x1="87.15" y1="25.95" x2="93.94" y2="41.95"/>
      <line class="cls-3" x1="82.15" y1="27.95" x2="88.94" y2="43.95"/>
      <line class="cls-3" x1="77.15" y1="29.95" x2="83.94" y2="45.95"/>
      <line class="cls-3" x1="100.1" y1="57.06" x2="82.35" y2="94.5"/>
      <line class="cls-3" x1="93.63" y1="55.78" x2="77.97" y2="88.84"/>
      <line class="cls-3" x1="85.54" y1="58.31" x2="74.01" y2="82.64"/>
      <line class="cls-3" x1="81.16" y1="50.9" x2="70.52" y2="73.33"/>
      <line class="cls-3" x1="75.13" y1="51.28" x2="67.52" y2="67.33"/>
      <ellipse class="cls-6" cx="86.35" cy="47.5" rx="19" ry="15"/>
      <circle class="cls-7" cx="35.53" cy="21.33" r="6.5"/>
      <circle class="cls-7" cx="76.53" cy="21.33" r="6.5"/>
      <g>
        <path class="cls-1" d="M57.5,0C38.94,0,22.44,8.81,11.93,22.46c1.54-1.58,3.18-2.94,4.91-4.01-6.19,9.66-10.01,22.95-10.01,37.63,0,16.68,4.94,31.58,12.68,41.37-3.56-1.55-6.81-4.2-9.61-7.7,10.34,15.24,27.81,25.25,47.61,25.25,31.76,0,57.5-25.74,57.5-57.5S89.26,0,57.5,0Z"/>
        <path class="cls-4" d="M19.5,97.45c-7.74-9.8-12.68-24.69-12.68-41.37,0-14.68,3.83-27.97,10.01-37.63-1.74,1.07-3.37,2.43-4.91,4.01C4.45,32.16,0,44.31,0,57.5c0,11.95,3.65,23.05,9.89,32.25,2.8,3.5,6.06,6.15,9.61,7.7Z"/>
      </g>
      <g>
        <path class="cls-1" d="M98.01,96.5c6.19-9.66,10.01-22.95,10.01-37.63,0-16.68-4.94-31.58-12.68-41.37,3.87,1.69,7.38,4.68,10.34,8.64C95.43,10.41,77.68,0,57.5,0,25.74,0,0,25.74,0,57.5s25.74,57.5,57.5,57.5c19.1,0,36.02-9.32,46.48-23.66-1.83,2.08-3.82,3.84-5.96,5.16Z"/>
        <path class="cls-1" d="M115,57.5c0-.08,0-.15,0-.23,0,.1,0,.2,0,.3,0-.02,0-.05,0-.07Z"/>
        <path class="cls-1" d="M114.91,54.39c0,.16.01.33.02.5,0-.17-.01-.33-.02-.5Z"/>
        <path class="cls-4" d="M95.35,17.5c7.74,9.8,12.68,24.69,12.68,41.37,0,14.68-3.83,27.97-10.01,37.63,2.14-1.32,4.13-3.08,5.96-5.16,6.91-9.48,11-21.14,11.02-33.77,0-.1,0-.2,0-.3,0-.8-.02-1.59-.06-2.38,0-.17-.01-.33-.02-.5-.55-10.39-3.87-20.04-9.23-28.25-2.95-3.97-6.47-6.96-10.34-8.64Z"/>
      </g>
    </g>
  </g>
</svg>