<?xml version="1.0" encoding="UTF-8"?>
<svg id="Layer_2" xmlns="http://www.w3.org/2000/svg" viewBox="0 0 115 115">
  <defs>
    <style>
      .cls-1 {
        fill: #e89f3c;
      }

      .cls-2 {
        fill: #e26748;
      }

      .cls-3 {
        fill: #692e50;
      }

      .cls-4 {
        fill: none;
        stroke: #8d9efc;
        stroke-miterlimit: 10;
        stroke-width: 4px;
      }
    </style>
  </defs>
  <g id="Layer_1-2" data-name="Layer_1">
    <g>
      <circle class="cls-3" cx="57.5" cy="57.5" r="57.5"/>
      <path class="cls-1" d="M108.5,29.32c-21.82,11.06-23.03,13.77-2.49,29.69-24.48-11.99-27.19-10.77-31.39,9.99-1.8-20.76-4.51-21.98-21.04-16.03,12.59-9.88,11.38-12.59-2.09-19.68,13.46,1.09,14.68-1.63,9.38-13.71,9.23,8.16,11.95,6.94,14.66-5.57,3.29,12.51,6,13.72,16.61,1.41-6.68,16.25-5.46,18.96,16.36,13.9Z"/>
      <path class="cls-1" d="M57.75,40.92c-17.61,7.17-18.59,9.36-4.78,23.06-16.98-10.54-19.16-9.56-24.45,9.71.46-19.28-1.73-20.25-18.97-12.91,14.08-10.51,13.11-12.69-2.93-18.56,16.03,1.04,17.01-1.15,8.48-14.4,11.69,10.09,13.88,9.11,14.88-6.33,3.82,15.44,6.01,16.42,16.4,3.96-7.23,15.62-6.25,17.81,11.36,15.46Z"/>
      <path class="cls-4" d="M43.37,86.23c1.77,3.21,5.18,5.15,8.73,4.97,4.02-.2,7.53-3.08,8.63-7.11"/>
      <path class="cls-4" d="M43.37,86.23c1.77,3.21,5.18,5.15,8.73,4.97,4.02-.2,7.53-3.08,8.63-7.11"/>
      <circle class="cls-2" cx="93" cy="63" r="3.5"/>
      <circle class="cls-2" cx="65" cy="14" r="3.5"/>
      <circle class="cls-2" cx="19" cy="66" r="3.5"/>
      <circle class="cls-2" cx="23" cy="25" r="3.5"/>
    </g>
  </g>
</svg>