<?xml version="1.0" encoding="UTF-8"?>
<svg id="Layer_2" xmlns="http://www.w3.org/2000/svg" viewBox="0 0 115 115.01">
  <defs>
    <style>
      .cls-1 {
        fill: #e89f3c;
      }

      .cls-2 {
        fill: #e26748;
      }

      .cls-3 {
        fill: #aba09b;
      }

      .cls-4 {
        stroke: #692e50;
      }

      .cls-4, .cls-5 {
        fill: none;
        stroke-miterlimit: 10;
        stroke-width: 4px;
      }

      .cls-5 {
        stroke: #8d9efc;
      }
    </style>
  </defs>
  <g id="Layer_1-2" data-name="Layer_1">
    <g>
      <path class="cls-3" d="M115,57.51c0,31.76-25.74,57.5-57.5,57.5S0,89.26,0,57.51c0-14.04,5.45-25.08,8.78-30.5.78-1.27,1.44-2.24,1.89-2.86C21.32,9.31,39.15-.29,57.5,0c27.91.46,57.5,23.82,57.5,57.5Z"/>
      <path class="cls-1" d="M95.72,16.34s-.46,12.93-18.44,30.78c0,0,0,0,0,0-2.78,2.4-4.69,5.83-5.08,9.78-.79,8.16,5.18,15.41,13.33,16.21,7.65.74,14.51-4.46,15.98-11.84h0s4.18-3.9-5.8-44.94Z"/>
      <path class="cls-1" d="M18.34,16.34s.46,12.93,18.44,30.78c0,0,0,0,0,0,2.78,2.4,4.69,5.83,5.08,9.78.79,8.16-5.18,15.41-13.33,16.21-7.65.74-14.51-4.46-15.98-11.84h0s-4.18-3.9,5.8-44.94Z"/>
      <path class="cls-4" d="M39.5,98.51s15-7,34-1"/>
      <path class="cls-5" d="M29.41,8.81c-1.48,5.55-2.26,11.8-.83,17.44,1.3,5.15,6.09,8.99,11.32,9.49,1.88.18,3.83-.06,5.52-.92s3.07-2.38,3.56-4.2c.51-1.92-.01-4.05-1.24-5.61-1.49-1.89-4.03-3.09-6.45-2.9"/>
      <path class="cls-5" d="M82.72,7.13c-.64,5.7-2.18,11.81-5.56,16.55-3.08,4.32-8.94,6.16-13.99,4.73-1.82-.52-3.55-1.45-4.8-2.87-1.26-1.41-2-3.33-1.79-5.21.22-1.97,1.48-3.76,3.19-4.77,2.07-1.22,4.88-1.42,7.06-.36"/>
      <circle class="cls-2" cx="86.68" cy="59.84" r="6.5"/>
      <circle class="cls-2" cx="26.68" cy="59.84" r="6.5"/>
    </g>
  </g>
</svg>