<?xml version="1.0" encoding="UTF-8"?>
<svg id="Layer_2" xmlns="http://www.w3.org/2000/svg" viewBox="0 0 115 115">
  <defs>
    <style>
      .cls-1 {
        stroke: #d3d5ee;
      }

      .cls-1, .cls-2, .cls-3, .cls-4 {
        fill: none;
        stroke-miterlimit: 10;
        stroke-width: 4px;
      }

      .cls-2 {
        stroke: #488b76;
      }

      .cls-5 {
        fill: #692e50;
      }

      .cls-3 {
        stroke: #e26748;
      }

      .cls-4 {
        stroke: #8d9efc;
      }
    </style>
  </defs>
  <g id="Layer_1-2" data-name="Layer_1">
    <g>
      <circle class="cls-5" cx="57.5" cy="57.5" r="57.5"/>
      <path class="cls-3" d="M24.5,35.5c-.63-.45-2.25-1.72-3-4-1.17-3.55.73-6.58,1-7"/>
      <path class="cls-3" d="M32.5,28.5c-.27-.96-.77-3.25,0-6,.75-2.65,2.28-4.31,3-5"/>
      <path class="cls-3" d="M38.5,31.5c.22-.89.74-2.45,2-4,1.45-1.78,3.13-2.63,4-3"/>
      <path class="cls-3" d="M21.5,42.5c-1.05-.39-2.4-.78-4-1-2-.27-3.72-.17-5,0"/>
      <path class="cls-3" d="M26.95,46.29c.29-.71.88-1.88,2-3,.54-.54,1.53-1.4,3-2"/>
      <path class="cls-3" d="M76.5,32.5c-.02-.4-.28-4.64-4-7-3.17-2.01-6.47-1.15-7-1"/>
      <path class="cls-3" d="M80.5,30.5c.04-1,.26-3.5,2-6,1.77-2.54,4.08-3.62,5-4"/>
      <path class="cls-3" d="M86.5,32.5c.23-.72,1.41-4.08,5-6,3.15-1.68,6.16-1.17,7-1"/>
      <path class="cls-3" d="M92.5,37.5c.1-.42.53-1.92,2-3,1.24-.91,2.53-.99,3-1"/>
      <path class="cls-3" d="M65.5,31.5c-.71-.58-2.06-1.52-4-2-2.23-.56-4.09-.23-5,0"/>
      <path class="cls-3" d="M86.5,41.5c.28.83,1.28,3.46,4,5,1.13.64,2.21.89,3,1"/>
      <path class="cls-3" d="M64.5,44.5c-.72.15-3.13.74-5,3-1.69,2.03-1.94,4.22-2,5"/>
      <path class="cls-2" d="M32.13,66.73c-.4.62-1.65,2.76-1.34,5.68.28,2.63,1.67,4.34,2.19,4.92"/>
      <path class="cls-2" d="M37.5,59.5c-1.35,2.39-1.37,5.2,0,7,1.94,2.55,6.66,3.05,10,0"/>
      <path class="cls-2" d="M39.5,41.5c.24,1.18.91,3.67,3,6,2.64,2.95,5.87,3.77,7,4"/>
      <path class="cls-2" d="M15.5,52.5c-1.04-.65-2.74-1.54-5-2-2.58-.52-4.73-.26-6,0"/>
      <path class="cls-2" d="M20.5,62.5c-.68-.94-2.26-2.86-5-4-4.25-1.77-8.13-.35-9,0"/>
      <path class="cls-2" d="M28.5,58.5c-.19-.45-1.25-3.07,0-6,1.16-2.71,3.49-3.78,4-4"/>
      <path class="cls-2" d="M17.5,68.5c-.65-.22-2.68-.83-5,0-1.53.54-2.51,1.47-3,2"/>
      <path class="cls-2" d="M23.5,70.5c-1.86-.46-3.6.56-4,2-.28,1.02.13,2.19,1,3"/>
      <path class="cls-2" d="M80.5,53.5c-.15.72-.74,3.13-3,5-2.51,2.08-5.33,2.03-6,2"/>
      <path class="cls-2" d="M84.5,54.5c.1.4.7,2.72,3,4,2.87,1.6,5.79.11,6,0"/>
      <path class="cls-2" d="M93.5,53.5c1.32-.42,3.01-.83,5-1,1.51-.13,2.86-.1,4,0"/>
      <path class="cls-2" d="M96.5,62.5c-.18.56-.6,2.14,0,4,.52,1.63,1.54,2.61,2,3"/>
      <path class="cls-2" d="M81.5,62.5c-1.35,2.39-1.37,5.2,0,7,1.94,2.55,6.66,3.05,10,0"/>
      <path class="cls-2" d="M79.5,42.5c-.4.1-2.72.7-4,3-1.6,2.87-.11,5.79,0,6"/>
      <path class="cls-2" d="M100.5,40.5c1.13-.22,2.91-.42,5,0,1.22.24,2.23.63,3,1"/>
      <path class="cls-3" d="M40.5,35.5c.2.25,1.64,1.99,4,2,1.52,0,2.61-.71,3-1"/>
      <path class="cls-3" d="M71.5,37.5c-1.67-.44-3.69-.83-6-1-1.86-.14-3.54-.11-5,0"/>
      <path class="cls-3" d="M37.5,45.5c-.41.48-2.36,2.83-2,6,.38,3.35,3.19,6.23,7,7"/>
      <path class="cls-4" d="M52.62,87.94c1.77,3.21,5.18,5.15,8.73,4.97,4.02-.2,7.53-3.08,8.63-7.11"/>
      <path class="cls-1" d="M29.24,35.31c-.63-.45-2.25-1.72-3-4-1.17-3.55.73-6.58,1-7"/>
      <path class="cls-1" d="M23.16,37.82c-1.05-.39-2.4-.78-4-1-2-.27-3.72-.17-5,0"/>
      <path class="cls-1" d="M37.45,24.35c.22-.89.74-2.45,2-4,1.45-1.78,3.13-2.63,4-3"/>
      <path class="cls-1" d="M43.56,29.79c.2.25,1.64,1.99,4,2,1.52,0,2.61-.71,3-1"/>
      <path class="cls-1" d="M77.58,23.67c.22-.89.74-2.45,2-4,1.45-1.78,3.13-2.63,4-3"/>
      <path class="cls-1" d="M90.69,39.11c.2.25,1.64,1.99,4,2,1.52,0,2.61-.71,3-1"/>
      <path class="cls-1" d="M69.58,46.67c.22-.89.74-2.45,2-4,1.45-1.78,3.13-2.63,4-3"/>
    </g>
  </g>
</svg>