<?xml version="1.0" encoding="UTF-8"?>
<svg id="Layer_2" xmlns="http://www.w3.org/2000/svg" viewBox="0 0 115 115">
  <defs>
    <style>
      .cls-1 {
        fill: #8d9efc;
      }

      .cls-2 {
        fill: #692e50;
      }

      .cls-3 {
        fill: none;
        stroke: #64c0cf;
        stroke-miterlimit: 10;
        stroke-width: 4px;
      }
    </style>
  </defs>
  <g id="Layer_1-2" data-name="Layer_1">
    <g>
      <circle class="cls-1" cx="57.5" cy="57.5" r="57.5"/>
      <path class="cls-3" d="M43.5,41.5c.82-.67,7.88-6.58,7-15-.4-3.83-2.51-8.96-5-9-4.57-.08-8.75,17.09-9,17-.22-.08,6.13-12.61,2-17-2.19-2.33-7.3-2.33-10,0-5.32,4.59-.62,17.64-2,18-1.38.36-4.6-13.11-8-13-2.45.08-4.42,7.22-6,17"/>
      <path class="cls-3" d="M72.5,44.5c-5.45-3.43-8.14-9.06-7-14,.7-3.03,3.13-6.97,6-7,5.28-.05,9.75,13.12,10,13,.26-.13-7.9-12.81-4-18,1.37-1.83,4.03-2.45,6-2,3.63.83,6.53,5.66,6,12"/>
      <path class="cls-3" d="M16.5,69.5c2.4,2.04,5.24,3.91,7,3,2.36-1.22,1.53-6.74,3-7,1.38-.25,2.25,4.62,5,5,1.95.27,4.26-1.8,5-4,1.1-3.28-1.29-6.87-1-7,.32-.15,1.64,4.92,5,6,2.54.82,6.55-.54,8-4,1.15-2.74.35-5.99-2-8"/>
      <path class="cls-3" d="M72.5,53.5c-.49.06-3.78.54-5,3-1.69,3.42,1.74,8.43,5,9,4.1.71,8.39-5.54,9-5,.51.46-3.58,4.02-3,8,.5,3.42,4.37,6.61,7,6,3.24-.75,4.24-7.2,5-7,.75.19-1.57,6,1,9,1.91,2.23,6.07,2.38,9,1,3.98-1.88,4.84-6.19,5-7,.67-3.38-.54-6.09-1-7"/>
      <line class="cls-3" x1="27.5" y1="81.5" x2="57.5" y2="96.5"/>
      <circle class="cls-2" cx="89.53" cy="45.73" r="6.5"/>
      <circle class="cls-2" cx="26.53" cy="45.73" r="6.5"/>
    </g>
  </g>
</svg>