<?xml version="1.0" encoding="UTF-8"?>
<svg id="Layer_2" xmlns="http://www.w3.org/2000/svg" viewBox="0 0 115 115">
  <defs>
    <style>
      .cls-1 {
        fill: #e26748;
      }

      .cls-2 {
        fill: #692e50;
      }

      .cls-3 {
        fill: #e47d9f;
      }

      .cls-4 {
        fill: #aba09b;
      }
    </style>
  </defs>
  <g id="Layer_1-2" data-name="Layer_1">
    <g>
      <circle class="cls-4" cx="57.5" cy="57.5" r="57.5"/>
      <path class="cls-3" d="M34.39,82.38c4.75-.34,7.07-6.15,10.87-8.46,2.64-1.76,5.87-1.35,9.24-1.25,3.07.19,6.14.37,9.15.95,4.67.82,8.24,4.36,13.24,5.61,7.01,1.67,14.72-.95,19.77-5.98,6.36-6.33,6.81-15.59,6.29-24.57-.43-5.12-.66-11.42-4.33-15.26-3.74-3.4-9.05-.51-13.5-.64-4.03.15-8.37-.88-12.64-2.25-6.26-2.22-12.96-2.6-18.38,1.28-2.32,1.37-4.96,2.93-7.65,2.86-4.45-.13-8.75-2.79-12.91-4.3-5.92-2.19-11.85.36-15.98,5.24-5.3,6.45-9.79,14.37-9.52,22.91.12,4.26,1.62,8.98,5.19,11.48,3.66,2.61,8.57,2.78,12.13,5.58,3.33,2.38,5.38,6.46,8.89,6.77h.12Z"/>
      <ellipse class="cls-1" cx="60" cy="97" rx="12.5" ry="4.5"/>
      <circle class="cls-2" cx="84.28" cy="24.73" r="6.5"/>
      <circle class="cls-2" cx="46.28" cy="24.73" r="6.5"/>
    </g>
  </g>
</svg>