<?xml version="1.0" encoding="UTF-8"?>
<svg id="Layer_2" xmlns="http://www.w3.org/2000/svg" viewBox="0 0 115 115">
  <defs>
    <style>
      .cls-1 {
        fill: #2d25a7;
      }

      .cls-2 {
        stroke: #8d9efc;
        stroke-width: 8px;
      }

      .cls-2, .cls-3 {
        fill: none;
        stroke-miterlimit: 10;
      }

      .cls-3 {
        stroke: #f45b49;
        stroke-width: 3px;
      }

      .cls-4 {
        fill: #e92047;
      }
    </style>
  </defs>
  <g id="stylo_emojis">
    <g>
      <circle class="cls-1" cx="57.5" cy="57.5" r="57.5"/>
      <path class="cls-2" d="M16.5,37.5c2.17,8.09,9.18,13.76,17,14,6.41.19,12.53-3.29,16-9"/>
      <path class="cls-2" d="M72.9,40.69c2.17,8.09,9.18,13.76,17,14,6.41.19,12.53-3.29,16-9"/>
      <path class="cls-3" d="M96.88,27.67c-2.32-4.94-7.47-7.77-12.52-7.02-4.13.62-7.66,3.56-9.22,7.62"/>
      <path class="cls-3" d="M43.54,26.65c-1.53-5.24-6.19-8.83-11.29-8.86-4.18-.03-8.11,2.33-10.29,6.11"/>
      <path class="cls-3" d="M46.29,93.75c2.32,4.94,7.47,7.77,12.52,7.02,4.13-.62,7.66-3.56,9.22-7.62"/>
      <path class="cls-4" d="M83,81l9-15s6-10,11-6.8c5,3.2,0,9.8,0,9.8,0,0,6-2,9,2,0,0,3,6-4,8s-25,2-25,2Z"/>
      <path class="cls-4" d="M36.32,76.25l-17.44-1.38s-11.63-.92-10.99-6.82c.64-5.9,8.77-4.36,8.77-4.36,0,0-4.46-4.48-2.22-8.95,0,0,4.04-5.36,8.94.02s12.93,21.49,12.93,21.49Z"/>
    </g>
  </g>
</svg>