<?xml version="1.0" encoding="UTF-8"?>
<svg id="Layer_2" xmlns="http://www.w3.org/2000/svg" viewBox="0 0 115 115">
  <defs>
    <style>
      .cls-1 {
        fill: #ffbd6e;
      }

      .cls-2 {
        fill: #ff7dd7;
      }

      .cls-3 {
        fill: #f45b49;
      }

      .cls-4 {
        fill: #ff5793;
      }

      .cls-5 {
        fill: #e92047;
      }
    </style>
  </defs>
  <g id="stylo_emojis">
    <g>
      <circle class="cls-4" cx="57.5" cy="57.5" r="57.5"/>
      <path class="cls-1" d="M18.5,47.56c14,13.37,28.74,0,28.74,0-14-13.37-28.74,0-28.74,0Z"/>
      <path class="cls-1" d="M67.7,46.97c14,13.37,28.74,0,28.74,0-14-13.37-28.74,0-28.74,0Z"/>
      <path class="cls-5" d="M41.7,83.97c14,13.37,28.74,0,28.74,0-14-13.37-28.74,0-28.74,0Z"/>
      <path class="cls-2" d="M76.5,83.97c11.18,10.68,22.95,0,22.95,0-11.18-10.68-22.95,0-22.95,0Z"/>
      <path class="cls-2" d="M14.28,86.97c11.18,10.68,22.95,0,22.95,0-11.18-10.68-22.95,0-22.95,0Z"/>
      <path class="cls-2" d="M80.76,11.49c-10.68,11.18,0,22.95,0,22.95,10.68-11.18,0-22.95,0-22.95Z"/>
      <path class="cls-2" d="M35.76,12.49c-10.68,11.18,0,22.95,0,22.95,10.68-11.18,0-22.95,0-22.95Z"/>
      <path class="cls-2" d="M89.64,57.86c.35,15.45,16.23,16.23,16.23,16.23-.35-15.45-16.23-16.23-16.23-16.23Z"/>
      <path class="cls-2" d="M25.87,60.86c-15.45.35-16.23,16.23-16.23,16.23,15.45-.35,16.23-16.23,16.23-16.23Z"/>
      <path class="cls-2" d="M9.39,30.61c.23,9.98,10.47,10.47,10.47,10.47-.23-9.98-10.47-10.47-10.47-10.47Z"/>
      <path class="cls-2" d="M103.99,29.73c-9.98.23-10.47,10.47-10.47,10.47,9.98-.23,10.47-10.47,10.47-10.47Z"/>
      <circle class="cls-3" cx="83" cy="67" r="3.5"/>
      <circle class="cls-3" cx="31" cy="71" r="3.5"/>
      <circle class="cls-3" cx="18" cy="23" r="3.5"/>
      <circle class="cls-3" cx="95" cy="21" r="3.5"/>
    </g>
  </g>
</svg>