<?xml version="1.0" encoding="UTF-8"?>
<svg id="Layer_2" xmlns="http://www.w3.org/2000/svg" viewBox="0 0 115 115">
  <defs>
    <style>
      .cls-1 {
        fill: #ff8e50;
      }

      .cls-2 {
        fill: none;
        stroke: #ffbd6e;
        stroke-miterlimit: 10;
        stroke-width: 4px;
      }

      .cls-3 {
        fill: #18d4e8;
      }

      .cls-4 {
        fill: #61d9d8;
      }

      .cls-5 {
        fill: #4420a1;
      }
    </style>
  </defs>
  <g id="all">
    <g>
      <circle class="cls-4" cx="57.5" cy="57.5" r="57.5"/>
      <circle class="cls-3" cx="51.5" cy="47.5" r="46"/>
      <path class="cls-1" d="M107.5,82.76l-6-10.42s3-10.6,3-14.85l7,13.11-3,13.89-1-1.74h0Z"/>
      <path class="cls-1" d="M81.78,107.5l-12.28-13.21s10.24-5.66,12.28-7.55l2.05-1.89,13.03,14.23-14.43,8.41"/>
      <path class="cls-1" d="M38.44,108.11l-3.8-9.42h19.3l6.06,12.92-21.02-1.89-.55-1.61Z"/>
      <line class="cls-2" x1="90.78" y1="78.73" x2="100.78" y2="88.73"/>
      <line class="cls-2" x1="99.78" y1="38.73" x2="112.78" y2="58.73"/>
      <line class="cls-2" x1="20.78" y1="86.73" x2="32.78" y2="107.73"/>
      <line class="cls-2" x1="60.78" y1="96.73" x2="71.78" y2="108.73"/>
      <circle class="cls-5" cx="44.28" cy="20.23" r="6.5"/>
      <circle class="cls-5" cx="67.28" cy="31.23" r="6.5"/>
    </g>
  </g>
</svg>