<?xml version="1.0" encoding="UTF-8"?>
<svg id="Layer_2" xmlns="http://www.w3.org/2000/svg" viewBox="0 0 118 118">
  <defs>
    <style>
      .cls-1 {
        stroke: #fb6152;
      }

      .cls-1, .cls-2 {
        stroke-width: 4px;
      }

      .cls-1, .cls-2, .cls-3 {
        fill: none;
        stroke-miterlimit: 10;
      }

      .cls-2 {
        stroke: #f33c83;
      }

      .cls-3 {
        stroke: #ff7f6d;
        stroke-width: 3px;
      }

      .cls-4 {
        fill: #9a0c32;
      }
    </style>
  </defs>
  <g id="stylo_emojis">
    <circle class="cls-3" cx="59" cy="59" r="57.5"/>
    <circle class="cls-4" cx="26.75" cy="43.75" r="6.75"/>
    <circle class="cls-4" cx="89.09" cy="43.62" r="6.75"/>
    <line class="cls-1" x1="45" y1="21" x2="74" y2="21"/>
    <line class="cls-1" x1="47" y1="62" x2="47" y2="76"/>
    <line class="cls-1" x1="35" y1="62" x2="35" y2="76"/>
    <line class="cls-1" x1="24" y1="61" x2="24" y2="76"/>
    <line class="cls-1" x1="12" y1="64" x2="12" y2="79"/>
    <line class="cls-1" x1="59" y1="62" x2="59" y2="77"/>
    <line class="cls-1" x1="71" y1="62" x2="71" y2="78"/>
    <line class="cls-1" x1="82" y1="64" x2="82" y2="79"/>
    <line class="cls-1" x1="93" y1="65" x2="93" y2="80"/>
    <line class="cls-1" x1="105" y1="66" x2="104" y2="81"/>
    <line class="cls-2" x1="17" y1="70" x2="17" y2="88"/>
    <line class="cls-2" x1="28.5" y1="71.5" x2="28.5" y2="89.5"/>
    <line class="cls-2" x1="41.5" y1="71.5" x2="41.5" y2="88.5"/>
    <line class="cls-2" x1="53" y1="69" x2="53" y2="88"/>
    <line class="cls-2" x1="66" y1="70" x2="66" y2="86"/>
    <line class="cls-2" x1="76" y1="69" x2="76" y2="86"/>
    <line class="cls-2" x1="87" y1="70" x2="87" y2="87"/>
    <line class="cls-2" x1="99" y1="72" x2="99" y2="87"/>
    <line class="cls-2" x1="37" y1="98" x2="82" y2="98"/>
  </g>
</svg>