<?xml version="1.0" encoding="UTF-8"?>
<svg id="Layer_2" xmlns="http://www.w3.org/2000/svg" viewBox="0 0 115 115">
  <defs>
    <style>
      .cls-1 {
        fill: #079e8b;
      }

      .cls-2 {
        stroke: #232321;
        stroke-width: 3px;
      }

      .cls-2, .cls-3 {
        fill: none;
        stroke-miterlimit: 10;
      }

      .cls-4 {
        fill: #232321;
      }

      .cls-3 {
        stroke: #4420a1;
        stroke-width: 4px;
      }

      .cls-5 {
        fill: #e92047;
      }
    </style>
  </defs>
  <g id="all">
    <g>
      <circle class="cls-1" cx="57.5" cy="57.5" r="57.5"/>
      <polyline class="cls-3" points="20 42 17 34 33 46 27 26 38 43 38 23.37 43 47 44 29 48.56 47"/>
      <polyline class="cls-3" points="62.5 44.5 68.5 31.5 73.5 42.5 72.41 25.37 76.24 37.19 84.5 27.5 78.5 42.5 95.5 31.5 86.5 43.5 102.8 37.19"/>
      <line class="cls-2" x1="43.14" y1="50.07" x2="9.14" y2="50.07"/>
      <path class="cls-5" d="M72.62,84.09c0-7.26-4.7-13.15-10.5-13.15-4.79,0-8.83,4.03-10.09,9.52-1.25-5.49-5.29-9.52-10.09-9.52-5.8,0-10.5,5.86-10.5,13.09,0,4.28,1.66,8.07,4.21,10.46.02.02.04.04.06.05.23.21.46.41.7.6.14.11.28.22.43.32.06.04.11.08.17.12,3.36,2.37,8.79,3.91,14.93,3.91,5.09,0,9.69-1.06,13.04-2.77,4.41-1.56,7.65-6.62,7.65-12.64Z"/>
      <circle class="cls-4" cx="98.68" cy="48.83" r="6.5"/>
      <rect class="cls-1" x="70.18" y="43.33" width="18" height="12"/>
      <line class="cls-2" x1="99.2" y1="44.07" x2="65.2" y2="44.07"/>
      <rect class="cls-1" x="37.18" y="52.33" width="12" height="12"/>
      <circle class="cls-4" cx="41.68" cy="54.83" r="6.5"/>
    </g>
  </g>
</svg>