<?xml version="1.0" encoding="UTF-8"?>
<svg id="Layer_2" xmlns="http://www.w3.org/2000/svg" viewBox="0 0 115 115.03">
  <defs>
    <style>
      .cls-1 {
        fill: #ffbd6e;
      }

      .cls-2 {
        fill: #8d9efc;
      }

      .cls-3 {
        fill: #5d72f8;
      }

      .cls-4 {
        fill: #61d9d8;
      }
    </style>
  </defs>
  <g id="extras">
    <g>
      <circle class="cls-4" cx="57.5" cy="57.53" r="57.5"/>
      <path class="cls-1" d="M71.85,19.18c-28.68,1.96-29.16-3.47-19.02-19.18C23.35,2.48.2,27.17.2,57.28c0,5.5.79,10.81,2.23,15.85,8.03-11.9,13.44-11.08,24.25,13.74-2.77-35.17,1.44-39.37,41.15-22.74-32.74-26.15-29.97-31.47,4.01-44.95Z"/>
      <path class="cls-2" d="M45.65,47.44c-1.26,8.14-8.28,14.38-16.78,14.38-6.34,0-11.85-3.47-14.78-8.62-.13.86-.22,1.72-.22,2.62,0,9.39,7.61,17,17,17s17-7.61,17-17c0-3.05-.81-5.91-2.22-8.38Z"/>
      <path class="cls-2" d="M72.46,45.16c1.26,8.14,8.28,14.38,16.78,14.38,6.34,0,11.85-3.47,14.78-8.62.13.86.22,1.72.22,2.62,0,9.39-7.61,17-17,17-9.39,0-17-7.61-17-17,0-3.05.81-5.91,2.22-8.38Z"/>
      <circle class="cls-3" cx="39.21" cy="47.65" r="6.5"/>
      <circle class="cls-3" cx="78.21" cy="44.65" r="6.5"/>
    </g>
  </g>
</svg>