<?xml version="1.0" encoding="UTF-8"?>
<svg id="Layer_2" xmlns="http://www.w3.org/2000/svg" viewBox="0 0 115 128.6">
  <defs>
    <style>
      .cls-1 {
        fill: #079e8b;
      }

      .cls-2 {
        stroke: #61d9d8;
        stroke-width: 5px;
      }

      .cls-2, .cls-3, .cls-4, .cls-5 {
        fill: none;
      }

      .cls-2, .cls-4, .cls-5 {
        stroke-miterlimit: 10;
      }

      .cls-6 {
        fill: #ff7dd7;
      }

      .cls-4 {
        stroke: #ff7dd7;
        stroke-width: 7px;
      }

      .cls-5 {
        stroke: #38f2a9;
        stroke-width: 6px;
      }
    </style>
  </defs>
  <g id="feutre_emojis">
    <circle class="cls-1" cx="57.5" cy="57.5" r="57.5"/>
    <rect class="cls-3" x="-2.11" y="87.7" width="50.92" height="25.9" transform="translate(-79.91 96.97) rotate(-74.9)"/>
    <line class="cls-2" x1="7.5" y1="33.5" x2="52.5" y2="27.5"/>
    <polyline class="cls-2" points="38.8 18 52.5 27.5 41 40"/>
    <line class="cls-2" x1="99.95" y1="18.7" x2="65.01" y2="25.37"/>
    <polyline class="cls-2" points="71.68 12.74 65.01 25.37 77.78 33.94"/>
    <line class="cls-4" x1="39" y1="88" x2="84" y2="88"/>
    <polygon class="cls-6" points="42.49 74.54 42.49 102 21 87.24 42.49 74.54"/>
    <polygon class="cls-6" points="78.5 101.44 78.5 73.98 99.99 88.75 78.5 101.44"/>
    <line class="cls-5" x1="18.5" y1="42.5" x2="50" y2="67"/>
    <line class="cls-5" x1="75.47" y1="40.57" x2="105" y2="63"/>
    <line class="cls-5" x1="97.32" y1="37.57" x2="75" y2="66"/>
    <line class="cls-5" x1="40.32" y1="39.57" x2="16" y2="71"/>
    <line class="cls-5" x1="15.67" y1="53.69" x2="46.78" y2="49.44"/>
    <line class="cls-5" x1="71.67" y1="51.69" x2="102.78" y2="47.44"/>
    <polyline class="cls-5" points="71.39 57.5 72.33 69.12 84 65.01"/>
    <polyline class="cls-5" points="110.12 56.5 107 65 93.61 65"/>
    <polyline class="cls-5" points="54.8 57.5 52.5 68.24 38 66"/>
    <polyline class="cls-5" points="13.27 61.5 15.82 72.7 26.88 69.12"/>
    <line class="cls-5" x1="28.57" y1="35.99" x2="32.81" y2="67.1"/>
    <line class="cls-5" x1="85.57" y1="33.99" x2="89.81" y2="65.1"/>
  </g>
</svg>