<?xml version="1.0" encoding="UTF-8"?>
<svg id="Layer_2" xmlns="http://www.w3.org/2000/svg" viewBox="0 0 115 115">
  <defs>
    <style>
      .cls-1 {
        fill: #ffbd6e;
      }

      .cls-2 {
        stroke: #2d25a7;
        stroke-width: 4px;
      }

      .cls-2, .cls-3 {
        fill: none;
        stroke-miterlimit: 10;
      }

      .cls-3 {
        stroke: #ff7dd7;
        stroke-width: 7px;
      }

      .cls-4 {
        fill: #38f2a9;
      }
    </style>
  </defs>
  <g id="stylo_emojis">
    <g>
      <circle class="cls-4" cx="57.5" cy="57.5" r="57.5"/>
      <path class="cls-3" d="M22.5,19.5c15.34-8.38,20.89-8.09,23-6,4.35,4.3-5.57,16.49,0,25,4.61,7.04,14.57,3.52,18,10,4.42,8.35-9.14,19.87-5,26,4.02,5.94,18.98-1.6,25,5,4.31,4.72,1.69,14.12-1,21"/>
      <path class="cls-3" d="M57,6c5.04-.02,10.33.74,12,4,2.92,5.72-7.38,15.09-5,18,2.83,3.46,18.95-7.89,24-3,2.56,2.48.04,6.94,3,10,2.95,3.05,8.83,2.11,13,1"/>
      <ellipse class="cls-1" cx="84.25" cy="45.75" rx="11.75" ry="5.25"/>
      <ellipse class="cls-1" cx="25.52" cy="48.61" rx="11.75" ry="5.25"/>
      <path class="cls-2" d="M27.5,87.5s5,6,18,5"/>
    </g>
  </g>
</svg>