<?xml version="1.0" encoding="UTF-8"?>
<svg id="Layer_2" xmlns="http://www.w3.org/2000/svg" viewBox="0 0 118 118">
  <defs>
    <style>
      .cls-1 {
        fill: #1ad9f0;
      }

      .cls-2 {
        stroke: #7c7b7f;
      }

      .cls-2, .cls-3, .cls-4 {
        fill: none;
        stroke-miterlimit: 10;
      }

      .cls-2, .cls-4 {
        stroke-width: 3px;
      }

      .cls-3 {
        stroke: #f24fd2;
        stroke-width: 4px;
      }

      .cls-5 {
        fill: #f58bf6;
      }

      .cls-4 {
        stroke: #60dcdb;
      }
    </style>
  </defs>
  <g id="stylo_emojis">
    <circle class="cls-2" cx="59" cy="59" r="57.5"/>
    <ellipse class="cls-1" cx="72" cy="30.5" rx="8" ry="19.5"/>
    <ellipse class="cls-1" cx="43" cy="28.5" rx="8" ry="19.5"/>
    <circle class="cls-5" cx="34" cy="54" r="8"/>
    <circle class="cls-5" cx="86" cy="54" r="8"/>
    <ellipse class="cls-3" cx="59" cy="83" rx="13" ry="8"/>
    <line class="cls-4" x1="17" y1="26" x2="33" y2="43"/>
    <line class="cls-4" x1="12.5" y1="35.5" x2="26" y2="48"/>
    <line class="cls-4" x1="10.62" y1="48" x2="22.5" y2="55.5"/>
    <line class="cls-4" x1="97.5" y1="24.5" x2="86.96" y2="43"/>
    <line class="cls-4" x1="103.81" y1="35.5" x2="94" y2="45"/>
    <line class="cls-4" x1="107.38" y1="50" x2="97.5" y2="55.5"/>
    <line class="cls-4" x1="78" y1="77.68" x2="98.9" y2="81.51"/>
    <line class="cls-4" x1="78" y1="85.6" x2="94" y2="94.02"/>
    <line class="cls-4" x1="73.68" y1="91" x2="86" y2="101.17"/>
    <line class="cls-4" x1="43" y1="91.98" x2="35" y2="104.74"/>
    <line class="cls-4" x1="26" y1="99.38" x2="37.5" y2="88.5"/>
    <line class="cls-4" x1="31.75" y1="83" x2="17" y2="91"/>
  </g>
</svg>