<?xml version="1.0" encoding="UTF-8"?>
<svg id="Layer_2" xmlns="http://www.w3.org/2000/svg" viewBox="0 0 115 115">
  <defs>
    <style>
      .cls-1 {
        fill: #ffbd6e;
      }

      .cls-2 {
        stroke: #ff8e50;
      }

      .cls-2, .cls-3 {
        fill: none;
        stroke-miterlimit: 10;
        stroke-width: 3px;
      }

      .cls-3 {
        stroke: #8d9efc;
      }

      .cls-4 {
        fill: #5d72f8;
      }

      .cls-5 {
        fill: #f45b49;
      }
    </style>
  </defs>
  <g id="stylo_emojis">
    <g>
      <circle class="cls-1" cx="57.5" cy="57.5" r="57.5"/>
      <path class="cls-2" d="M28,21s-10,11-2,18,16-5,16-5l12,13"/>
      <path class="cls-2" d="M92.63,21.03s10,11,2,18c-8,7-16-5-16-5l-12,13"/>
      <path class="cls-2" d="M72,62s20.91,7.06,37.46-14.97"/>
      <path class="cls-2" d="M51.6,61.83s-20.91,7.06-37.46-14.97"/>
      <path class="cls-3" d="M41.19,91.79s-22.07-.47-30.14-26.81"/>
      <path class="cls-3" d="M75.85,90.69s22.07-.47,30.14-26.81"/>
      <circle class="cls-5" cx="56" cy="102" r="5.5"/>
      <circle class="cls-4" cx="34" cy="74" r="5.5"/>
      <circle class="cls-4" cx="78" cy="75" r="5.5"/>
    </g>
  </g>
</svg>