<?xml version="1.0" encoding="UTF-8"?>
<svg id="Layer_2" xmlns="http://www.w3.org/2000/svg" viewBox="0 0 118 118">
  <defs>
    <style>
      .cls-1 {
        stroke: #19248b;
      }

      .cls-1, .cls-2 {
        fill: none;
        stroke-miterlimit: 10;
        stroke-width: 3px;
      }

      .cls-3 {
        fill: #2be1fd;
      }

      .cls-4 {
        fill: #25e4f9;
      }

      .cls-2 {
        stroke: #36219f;
      }

      .cls-5 {
        fill: #19248b;
      }
    </style>
  </defs>
  <g id="stylo_emojis">
    <path class="cls-3" d="M60,115.99c.17,0,.33.01.5.01,31.76,0,57.5-25.74,57.5-57.5S92.26,1,60.5,1c-.17,0-.33.01-.5.01v114.97Z"/>
    <circle class="cls-2" cx="59" cy="59" r="57.5"/>
    <path class="cls-4" d="M21.72,51.51c2.63-1.16,3.79-1.13,4.58-.61,1.51.99,1.59,3.71,1.12,8.8-.98,10.68-1.47,16.01-4.14,18.06-3.64,2.8-10.13,2.85-13.53-1.06-3.97-4.57-1.38-11.84-.75-13.61,2.53-7.09,8.63-9.78,12.7-11.58Z"/>
    <circle class="cls-5" cx="33.5" cy="42.5" r="6.5"/>
    <circle class="cls-5" cx="84.5" cy="50.5" r="6.5"/>
    <path class="cls-1" d="M37,73c1.99,3.55,5.45,8.32,11,10,7.65,2.32,12.94-3.14,20-1,3.47,1.05,8.12,4.16,12,14"/>
  </g>
</svg>