<?xml version="1.0" encoding="UTF-8"?>
<svg id="Layer_2" xmlns="http://www.w3.org/2000/svg" viewBox="0 0 115 115">
  <defs>
    <style>
      .cls-1 {
        stroke: #4420a1;
      }

      .cls-1, .cls-2, .cls-3, .cls-4 {
        fill: none;
        stroke-miterlimit: 10;
        stroke-width: 5px;
      }

      .cls-2 {
        stroke: #ff7dd7;
      }

      .cls-3 {
        stroke: #18d4e8;
      }

      .cls-5 {
        fill: #ff5793;
      }

      .cls-6 {
        fill: #4420a1;
      }

      .cls-4 {
        stroke: #e92047;
      }
    </style>
  </defs>
  <g id="feutre_emojis">
    <g>
      <circle class="cls-5" cx="57.5" cy="57.5" r="57.5"/>
      <path class="cls-1" d="M11.5,38.5c.85,1.4,6.13,9.75,17,12,10.61,2.2,18.62-3.06,20-4"/>
      <circle class="cls-6" cx="25.5" cy="52.5" r="7"/>
      <path class="cls-1" d="M102.5,38.5c-.85,1.4-6.13,9.75-17,12-10.61,2.2-18.62-3.06-20-4"/>
      <circle class="cls-6" cx="88.5" cy="52.5" r="7"/>
      <path class="cls-3" d="M28.5,22.5c-.22.79-1.76,6.65,2,12,4.24,6.04,11.42,6.01,12,6"/>
      <path class="cls-3" d="M88.84,20.35c.22.79,1.76,6.65-2,12-4.24,6.04-11.42,6.01-12,6"/>
      <polyline class="cls-2" points="8.99 57.5 16 74 24 68 34 81"/>
      <polyline class="cls-2" points="103.53 58.75 96.52 75.25 88.52 69.25 78.52 82.25"/>
      <polyline class="cls-4" points="41 91 55 103 69.76 91"/>
    </g>
  </g>
</svg>