<?xml version="1.0" encoding="UTF-8"?>
<svg id="Layer_2" xmlns="http://www.w3.org/2000/svg" viewBox="0 0 115 115">
  <defs>
    <style>
      .cls-1 {
        fill: #079e8b;
      }

      .cls-2 {
        fill: #ff7dd7;
      }

      .cls-3 {
        stroke: #61d9d8;
        stroke-width: 3px;
      }

      .cls-3, .cls-4 {
        fill: none;
        stroke-miterlimit: 10;
      }

      .cls-4 {
        stroke: #ff5793;
        stroke-width: 4px;
      }

      .cls-5 {
        fill: #e92047;
      }
    </style>
  </defs>
  <g id="all">
    <g>
      <circle class="cls-1" cx="57.5" cy="57.5" r="57.5"/>
      <rect class="cls-2" x="10.5" y="48.5" width="35" height="13" rx="6.5" ry="6.5"/>
      <rect class="cls-2" x="71.5" y="46.5" width="35" height="13" rx="6.5" ry="6.5" transform="translate(178 106) rotate(-180)"/>
      <path class="cls-4" d="M21.5,85.5c5.93,3.57,20.71,11.4,41,11,18.55-.36,32.05-7.41,38-11"/>
      <line class="cls-3" x1="14.5" y1="28.5" x2="14.5" y2="42.5"/>
      <line class="cls-3" x1="22" y1="20" x2="22" y2="44"/>
      <line class="cls-3" x1="32" y1="15" x2="32" y2="42"/>
      <line class="cls-3" x1="42" y1="15" x2="42" y2="42"/>
      <polyline class="cls-3" points="53 8 53.71 28.5 71.5 40.8"/>
      <polyline class="cls-3" points="67 12 65 25 79 38"/>
      <polyline class="cls-3" points="75 10 71.5 23.95 86.27 38"/>
      <polyline class="cls-3" points="86 15 83.59 28.5 97.42 38"/>
      <circle class="cls-5" cx="38.68" cy="54.83" r="6.5"/>
      <circle class="cls-5" cx="77.68" cy="52.83" r="6.5"/>
    </g>
  </g>
</svg>