<?xml version="1.0" encoding="UTF-8"?>
<svg id="Layer_2" xmlns="http://www.w3.org/2000/svg" viewBox="0 0 118 118">
  <defs>
    <style>
      .cls-1 {
        stroke: #ff71fd;
        stroke-width: 8px;
      }

      .cls-1, .cls-2, .cls-3 {
        fill: none;
        stroke-miterlimit: 10;
      }

      .cls-2 {
        stroke: #f93155;
      }

      .cls-2, .cls-3 {
        stroke-width: 3px;
      }

      .cls-4 {
        fill: #c10641;
      }

      .cls-3 {
        stroke: #d84766;
      }
    </style>
  </defs>
  <g id="stylo_emojis">
    <circle class="cls-2" cx="59" cy="59" r="57.5"/>
    <path class="cls-1" d="M18,39c2.17,8.09,9.18,13.76,17,14,6.41.19,12.53-3.29,16-9"/>
    <path class="cls-1" d="M74.4,42.19c2.17,8.09,9.18,13.76,17,14,6.41.19,12.53-3.29,16-9"/>
    <path class="cls-3" d="M98.38,31.17c-2.32-4.94-7.47-7.77-12.52-7.02-4.13.62-7.66,3.56-9.22,7.62"/>
    <path class="cls-3" d="M45.04,33.15c-1.53-5.24-6.19-8.83-11.29-8.86-4.18-.03-8.11,2.33-10.29,6.11"/>
    <path class="cls-3" d="M47.79,95.25c2.32,4.94,7.47,7.77,12.52,7.02,4.13-.62,7.66-3.56,9.22-7.62"/>
    <path class="cls-4" d="M84.5,82.5l9-15s6-10,11-6.8c5,3.2,0,9.8,0,9.8,0,0,6-2,9,2,0,0,3,6-4,8s-25,2-25,2Z"/>
    <path class="cls-4" d="M37.82,77.75l-17.44-1.38s-11.63-.92-10.99-6.82c.64-5.9,8.77-4.36,8.77-4.36,0,0-4.46-4.48-2.22-8.95,0,0,4.04-5.36,8.94.02s12.93,21.49,12.93,21.49Z"/>
  </g>
</svg>