<?xml version="1.0" encoding="UTF-8"?>
<svg id="Layer_2" xmlns="http://www.w3.org/2000/svg" viewBox="0 0 115 115">
  <defs>
    <style>
      .cls-1 {
        stroke: #61d9d8;
        stroke-width: 9px;
      }

      .cls-1, .cls-2, .cls-3 {
        fill: none;
        stroke-miterlimit: 10;
      }

      .cls-2 {
        stroke: #e92047;
      }

      .cls-2, .cls-3 {
        stroke-width: 4px;
      }

      .cls-3 {
        stroke: #ff7dd7;
      }

      .cls-4 {
        fill: #38f2a9;
      }

      .cls-5 {
        fill: #c2f4d1;
      }

      .cls-6 {
        fill: #e92047;
      }
    </style>
  </defs>
  <g id="all">
    <g>
      <circle class="cls-5" cx="57.5" cy="57.5" r="57.5"/>
      <path class="cls-4" d="M52,.5c-11.87,0-21.5,9.63-21.5,21.5s9.63,21.5,21.5,21.5c.06,0,.11,0,.17,0-8.78-.09-15.87-7.23-15.87-16.04s7.18-16.04,16.04-16.04,16.04,7.18,16.04,16.04c0,8.02-5.89,14.67-13.58,15.85,10.55-1.37,18.7-10.39,18.7-21.31,0-11.87-9.63-21.5-21.5-21.5Z"/>
      <path class="cls-2" d="M10.5,39.5s0,10,9,10,12,5,12,12"/>
      <path class="cls-2" d="M87.5,38.5s0,10-9,10c-9,0-12,5-12,12"/>
      <line class="cls-3" x1="36.5" y1="93.5" x2="73.5" y2="91.18"/>
      <path class="cls-1" d="M5.67,51.5s-5.17,16,9.83,28"/>
      <path class="cls-1" d="M99.8,35.5s7.2,22.29-13.7,39.01"/>
      <circle class="cls-6" cx="26.68" cy="61.83" r="6.5"/>
      <circle class="cls-6" cx="70.68" cy="59.83" r="6.5"/>
    </g>
  </g>
</svg>