<?xml version="1.0" encoding="UTF-8"?>
<svg id="Layer_2" xmlns="http://www.w3.org/2000/svg" viewBox="0 0 119 119">
  <defs>
    <style>
      .cls-1 {
        stroke: #099976;
      }

      .cls-1, .cls-2, .cls-3 {
        fill: none;
        stroke-miterlimit: 10;
      }

      .cls-1, .cls-3 {
        stroke-width: 5px;
      }

      .cls-2 {
        stroke: #2337c2;
        stroke-width: 4px;
      }

      .cls-4 {
        fill: #b813a7;
      }

      .cls-3 {
        stroke: #36ce3e;
      }
    </style>
  </defs>
  <g id="feutre_emojis">
    <circle class="cls-4" cx="79.25" cy="45.25" r="6.75"/>
    <circle class="cls-4" cx="35.46" cy="47.65" r="6.75"/>
    <path class="cls-3" d="M38.5,6.5c-5.24,2.43-8.52,7.02-8,11,.89,6.81,12.73,10.5,17,7,2.38-1.96,3.04-6.69,1-9-2.43-2.75-8.34-1.68-11,1-3.63,3.66-2.93,12.03,3,20"/>
    <path class="cls-3" d="M73.64,4.04c5.24,2.43,8.52,7.02,8,11-.89,6.81-12.73,10.5-17,7-2.38-1.96-3.04-6.69-1-9,2.43-2.75,8.34-1.68,11,1,3.63,3.66,2.93,12.03-3,20"/>
    <line class="cls-1" x1="67" y1="41" x2="92" y2="33"/>
    <line class="cls-1" x1="22.98" y1="39.49" x2="49.13" y2="41.8"/>
    <path class="cls-1" d="M19,56c2.08-.94,7.3-2.98,14-2,7.64,1.12,12.43,5.45,14,7"/>
    <path class="cls-1" d="M71,56c1.62-1.31,5.8-4.34,12-5,7.02-.75,12.25,1.99,14,3"/>
    <path class="cls-1" d="M29.5,66.5c1.05,1.05,5.79,6.05,6,14,.2,7.7-3.99,12.83-5,14"/>
    <path class="cls-1" d="M77,67c-.66,1.13-4.12,7.32-2,15,1.84,6.68,6.7,10.13,8,11"/>
    <path class="cls-1" d="M38,80c4.82-.68,10.55-1.15,17-1,6.91.16,12.98.99,18,2"/>
    <circle class="cls-2" cx="59.5" cy="59.5" r="57.5"/>
  </g>
</svg>