<?xml version="1.0" encoding="UTF-8"?>
<svg id="Layer_2" xmlns="http://www.w3.org/2000/svg" viewBox="0 0 119 119">
  <defs>
    <style>
      .cls-1 {
        fill: #d9126d;
      }

      .cls-2 {
        stroke: #3e4be6;
        stroke-width: 5px;
      }

      .cls-2, .cls-3, .cls-4 {
        fill: none;
        stroke-miterlimit: 10;
      }

      .cls-3 {
        stroke: #faf041;
        stroke-width: 6px;
      }

      .cls-4 {
        stroke: #2a39cd;
        stroke-width: 4px;
      }
    </style>
  </defs>
  <g id="feutre_emojis">
    <circle class="cls-4" cx="59.5" cy="59.5" r="57.5"/>
    <line class="cls-2" x1="21.73" y1="32.42" x2="48.73" y2="57.42"/>
    <line class="cls-2" x1="22.73" y1="58.42" x2="47.73" y2="31.42"/>
    <line class="cls-2" x1="72.66" y1="29.28" x2="99.66" y2="54.28"/>
    <line class="cls-2" x1="73.66" y1="55.28" x2="98.66" y2="28.28"/>
    <line class="cls-3" x1="33" y1="28" x2="30" y2="14"/>
    <line class="cls-3" x1="44.5" y1="23.5" x2="46.5" y2="12.5"/>
    <line class="cls-3" x1="20.5" y1="45.5" x2="8.5" y2="45.5"/>
    <line class="cls-3" x1="16.5" y1="58.5" x2="7.5" y2="61.5"/>
    <line class="cls-3" x1="86.5" y1="54.5" x2="86.5" y2="66.5"/>
    <line class="cls-3" x1="99.5" y1="42.5" x2="108.5" y2="47.5"/>
    <line class="cls-3" x1="86.5" y1="26.5" x2="89.5" y2="16.5"/>
    <line class="cls-3" x1="79.5" y1="25.5" x2="78.5" y2="13.5"/>
    <path class="cls-1" d="M86.5,90.5v-8h-10.05c-.45-5.05-4.29-9-8.95-9s-8.5,3.95-8.95,9h-.09c-.45-5.05-4.29-9-8.95-9s-8.5,3.95-8.95,9h-8.05v8h9.48c-.3.8-.48,1.64-.48,2.5,0,5.8,7.16,10.5,16,10.5s16-4.7,16-10.5c0-.62-.1-1.22-.25-1.81.24-.22.46-.45.68-.69h12.58Z"/>
  </g>
</svg>