<?xml version="1.0" encoding="UTF-8"?>
<svg id="Layer_2" xmlns="http://www.w3.org/2000/svg" viewBox="0 0 115 115">
  <defs>
    <style>
      .cls-1 {
        fill: #ffbd6e;
      }

      .cls-2 {
        fill: #ff7dd7;
      }

      .cls-3 {
        fill: #2d25a7;
      }

      .cls-4 {
        fill: #f45b49;
      }

      .cls-5 {
        fill: #e3fffe;
      }
    </style>
  </defs>
  <g id="aquarelle_emojis">
    <g>
      <circle class="cls-5" cx="57.5" cy="57.5" r="57.5"/>
      <ellipse class="cls-1" cx="58" cy="58.5" rx="55.5" ry="54"/>
      <ellipse class="cls-3" cx="85" cy="25" rx="6.5" ry="8.5" transform="translate(23.23 88.52) rotate(-62.19)"/>
      <ellipse class="cls-3" cx="45.48" cy="23.1" rx="8.5" ry="6.5" transform="translate(-5.45 25.83) rotate(-30)"/>
      <path class="cls-2" d="M34.23,79.22c9.72-2.3,7.27-12.72,12.27-13.72s5,2,7,4,7,0,8-3,4.62,1,6.81,4.5c2.19,3.5,18.21,6.5,25.7,0s8.49-6.5,8.49-16.5.3-33.8-11.35-23.9-9.65-3.1-16.65-1.1-7,1-12-3-8,8-13,9-10-2-12-6-5,3-8,0-3-4-9,2-16,17-12,29,11,7,17,7,1.46,13.45,8.73,11.72Z"/>
      <ellipse class="cls-4" cx="60" cy="97" rx="12.5" ry="4.5"/>
    </g>
  </g>
</svg>