<?xml version="1.0" encoding="UTF-8"?>
<svg id="Layer_2" xmlns="http://www.w3.org/2000/svg" viewBox="0 0 115 115">
  <defs>
    <style>
      .cls-1 {
        fill: none;
        stroke: #e92047;
        stroke-miterlimit: 10;
        stroke-width: 4px;
      }

      .cls-2 {
        fill: #ff8e50;
      }

      .cls-3 {
        fill: #18d4e8;
      }

      .cls-4 {
        fill: #ff7dd7;
      }

      .cls-5 {
        fill: #38f2a9;
      }

      .cls-6 {
        fill: #e92047;
      }
    </style>
  </defs>
  <g id="all">
    <g>
      <circle class="cls-4" cx="57.5" cy="57.5" r="57.5"/>
      <rect class="cls-2" x="13.86" y="37.91" width="31" height="10" transform="translate(-5.86 4.66) rotate(-8.26)"/>
      <rect class="cls-2" x="67.14" y="30.09" width="31" height="10" transform="translate(-4.18 12.24) rotate(-8.26)"/>
      <line class="cls-1" x1="17.69" y1="67" x2="45" y2="81"/>
      <line class="cls-1" x1="10.85" y1="72.39" x2="38.15" y2="86.39"/>
      <line class="cls-1" x1="16.5" y1="88.05" x2="30.5" y2="60.74"/>
      <line class="cls-1" x1="26.5" y1="90.05" x2="40.5" y2="62.74"/>
      <line class="cls-1" x1="82.27" y1="55" x2="109.58" y2="69"/>
      <line class="cls-1" x1="75.42" y1="60.39" x2="102.73" y2="74.39"/>
      <line class="cls-1" x1="81.08" y1="76.05" x2="95.08" y2="48.74"/>
      <line class="cls-1" x1="91.08" y1="78.05" x2="105.08" y2="50.74"/>
      <rect class="cls-6" x="50.3" y="77.09" width="22.2" height="14.5" transform="translate(-11.48 9.7) rotate(-8.26)"/>
      <circle class="cls-5" cx="30.18" cy="47.33" r="6.5"/>
      <circle class="cls-3" cx="83.18" cy="39.33" r="6.5"/>
    </g>
  </g>
</svg>