<?xml version="1.0" encoding="UTF-8"?>
<svg id="Layer_2" xmlns="http://www.w3.org/2000/svg" viewBox="0 0 115 115">
  <defs>
    <style>
      .cls-1 {
        fill: #18d4e8;
      }

      .cls-2 {
        fill: #ff7dd7;
      }

      .cls-3 {
        fill: #2d25a7;
      }

      .cls-4 {
        fill: #232321;
      }

      .cls-5 {
        fill: #e3fffe;
      }
    </style>
  </defs>
  <g id="all">
    <g>
      <circle class="cls-3" cx="57.5" cy="57.5" r="57.5"/>
      <circle class="cls-4" cx="57.5" cy="69.5" r="8"/>
      <path class="cls-2" d="M26.55,74.69c3.86,3.92,9.66,6.93,16.72,7.69,4.37.36,6.83,3.34,3.57,7.62h0c-3.21,4.3-11.48,6.37-16.22,4.11-7.52-3.25-13.24-8.4-16.74-14.12-2.2-3.74.25-6.72,3.57-7.62h0c3.4-.92,6.62-.12,9.1,2.31Z"/>
      <path class="cls-2" d="M43.13,7.49c8.23,1.77,15.13,5.78,20.08,10.9,3.17,3.36,1.83,7.04-1.28,8.46h0c-3.17,1.46-6.6,1.07-9.27-1.03-4.26-3.42-10.18-5.82-17.07-6.04-4.24-.1-7.53-2.33-5.98-6.31h0c1.49-3.99,8.27-7.23,13.53-5.97Z"/>
      <path class="cls-1" d="M61.68,84.59c7.14.76,13.51-1.19,18.15-4.42,2.95-1.98,6.61-2.43,9.92-1.28,2.35.88,4.96,1.41,7.75,1.47,3.81-.04,6.15,2.72,3.51,7.21-4.22,6.83-10.86,12.77-19.33,16.41-5.35,2.53-14.43.67-18.11-3.58-2.7-2.88-4.95-6.04-6.73-9.34-2.41-4.78.46-7.06,4.85-6.47Z"/>
      <circle class="cls-1" cx="31.68" cy="41.83" r="6.5"/>
      <circle class="cls-5" cx="80.68" cy="41.83" r="6.5"/>
    </g>
  </g>
</svg>