<?xml version="1.0" encoding="UTF-8"?>
<svg id="Layer_2" xmlns="http://www.w3.org/2000/svg" viewBox="0 0 119.25 119.25">
  <defs>
    <style>
      .cls-1 {
        fill: #079e8b;
      }

      .cls-2 {
        fill: none;
        stroke: #ff5793;
        stroke-miterlimit: 10;
        stroke-width: 6px;
      }

      .cls-3 {
        fill: #38f2a9;
      }

      .cls-4 {
        fill: #e3fffe;
      }

      .cls-5 {
        fill: #e92047;
      }
    </style>
  </defs>
  <g id="feutre_emojis">
    <g>
      <circle class="cls-4" cx="59.95" cy="59.89" r="57.5"/>
      <path class="cls-2" d="M40.38,87.25c1.44,4.63,5.29,8.11,10,9,6.91,1.31,11.71-3.68,12-4"/>
      <circle class="cls-1" cx="38.88" cy="28.75" r="8.5"/>
      <circle class="cls-1" cx="95.88" cy="39.75" r="7.5"/>
      <ellipse class="cls-5" cx="39.58" cy="55.03" rx="13.3" ry="10.55" transform="translate(-14.31 13.91) rotate(-16.94)"/>
      <circle class="cls-5" cx="87.38" cy="65.25" r="10"/>
      <path class="cls-3" d="M59.62,0C26.7,0,0,26.69,0,59.62s26.7,59.62,59.62,59.62,59.62-26.7,59.62-59.62S92.55,0,59.62,0ZM104.12,85.48c-.16.2-.32.39-.5.57-3.86,4.03-10.26,3.51-15.82,3.89-8.34.57-16.4,3.89-23.06,8.95-3.44,2.61-6.62,5.74-10.65,7.31-4.89,1.91-10.64,1.21-15.11-1.54-4.47-2.75-7.65-7.41-8.91-12.5-1.13-4.57-1.08-9.99-4.69-13.01-3.13-2.62-7.86-2.31-11.29-4.53-3.23-2.09-4.76-6.22-4.38-10.05.38-3.83,2.41-7.33,5.02-10.16,2.4-2.6,5.43-4.93,6.34-8.35.86-3.21-.38-6.55-.84-9.84-1.4-10.04,5.46-20.21,15.21-22.84,5.02-1.35,10.46-.79,15.27,1.16,4.97,2.02,9.3,5.45,14.37,7.2,5.88,2.03,11.25.98,17.11-.29,8.44-1.83,18.24,2.21,23.64,8.83,1.65,2.02,2.85,4.48,3.03,7.09.29,4.27-2.21,7.64-3.59,11.46-1.51,4.17-2.43,8.59-1.95,13.04.45,4.18,2.08,8.15,2.81,12.29.69,3.89.42,8.28-2.02,11.32Z"/>
    </g>
  </g>
</svg>