<?xml version="1.0" encoding="UTF-8"?>
<svg id="Layer_2" xmlns="http://www.w3.org/2000/svg" viewBox="0 0 119 119">
  <defs>
    <style>
      .cls-1 {
        fill: #f23b90;
      }

      .cls-2 {
        fill: #6ce942;
      }

      .cls-3 {
        fill: none;
        stroke: #7402b0;
        stroke-width: 6px;
      }

      .cls-3, .cls-4 {
        stroke-miterlimit: 10;
      }

      .cls-5 {
        fill: #fa6235;
      }

      .cls-6 {
        fill: #0eace6;
      }

      .cls-4 {
        fill: #fbef59;
        stroke: #fbef59;
        stroke-width: 4px;
      }
    </style>
  </defs>
  <g id="feutre_emojis">
    <circle class="cls-4" cx="59.5" cy="59.5" r="57.5"/>
    <polygon class="cls-6" points="85.54 63.62 102.39 44.17 116.04 64.33 101.43 85.55 85.54 63.62"/>
    <polygon class="cls-6" points="3.5 67.58 19.08 46.5 32.5 67.58 19.08 90.5 3.5 67.58"/>
    <path class="cls-1" d="M84.54,105.08c-15.3,5.76-32.29,5.76-47.58,0-16.72-6.32-21.69-22.77-15.17-27.52.63-.58,1.27-1.15,1.9-1.73,6.43-4.93,16.56-3.18,24.51-.51,8.07,3.04,17.03,3.04,25.09,0,7.95-2.66,18.08-4.42,24.51.51.63.58,1.27,1.15,1.9,1.73,6.52,4.75,1.55,21.2-15.17,27.52Z"/>
    <path class="cls-3" d="M30.5,80.5c1.38,2,10.65,14.99,28,17,19.74,2.29,32.75-11.61,34-13"/>
    <polygon class="cls-5" points="17.5 48.1 30.93 27.5 42.5 48.1 30.93 70.5 17.5 48.1"/>
    <polygon class="cls-5" points="75.36 50.1 92.09 28.5 106.5 50.1 92.09 73.59 75.36 50.1"/>
    <polygon class="cls-2" points="40.5 9.5 63.5 42.5 87 11.63 40.5 9.5"/>
  </g>
</svg>