<?xml version="1.0" encoding="UTF-8"?>
<svg id="Layer_2" xmlns="http://www.w3.org/2000/svg" viewBox="0 0 118 118">
  <defs>
    <style>
      .cls-1 {
        stroke: #55eeb5;
      }

      .cls-1, .cls-2 {
        stroke-width: 5px;
      }

      .cls-1, .cls-2, .cls-3, .cls-4, .cls-5 {
        fill: none;
        stroke-miterlimit: 10;
      }

      .cls-6 {
        fill: #b40741;
      }

      .cls-2 {
        stroke: #b80045;
      }

      .cls-3 {
        stroke: #3920b9;
      }

      .cls-3, .cls-4, .cls-5 {
        stroke-width: 3px;
      }

      .cls-4 {
        stroke: #432eb0;
      }

      .cls-5 {
        stroke: #3e1c8d;
      }
    </style>
  </defs>
  <g id="stylo_emojis">
    <polygon class="cls-6" points="18 59 51 54 45 45 5 47 18 59 18 59"/>
    <polygon class="cls-6" points="70 55 98 52 104 37 72.53 43.95 69 54 70 55"/>
    <circle class="cls-3" cx="59" cy="59" r="57.5"/>
    <polyline class="cls-5" points="18.91 59 5.5 46.5 44.5 44.5 52.5 53.5"/>
    <polyline class="cls-5" points="97.23 51.89 104.77 36.71 72.23 44.01 68.16 54.55"/>
    <line class="cls-2" x1="6.5" y1="39.5" x2="43.5" y2="35.5"/>
    <line class="cls-2" x1="68.22" y1="33.19" x2="105.22" y2="29.19"/>
    <line class="cls-1" x1="12.99" y1="28.53" x2="28" y2="28"/>
    <line class="cls-1" x1="79.22" y1="22.46" x2="94.23" y2="21.93"/>
    <line class="cls-1" x1="13.22" y1="71.46" x2="28.23" y2="70.93"/>
    <line class="cls-1" x1="89.22" y1="63.46" x2="104.23" y2="62.93"/>
    <line class="cls-1" x1="48.22" y1="85.46" x2="73" y2="85"/>
    <line class="cls-4" x1="16.5" y1="94.5" x2="106.5" y2="87.5"/>
  </g>
</svg>