<?xml version="1.0" encoding="UTF-8"?>
<svg id="Layer_2" xmlns="http://www.w3.org/2000/svg" viewBox="0 0 115 115">
  <defs>
    <style>
      .cls-1 {
        stroke: #ffbd6e;
      }

      .cls-1, .cls-2, .cls-3 {
        fill: none;
        stroke-miterlimit: 10;
        stroke-width: 4px;
      }

      .cls-4 {
        fill: #d0bdff;
      }

      .cls-2 {
        stroke: #079e8b;
      }

      .cls-3 {
        stroke: #ff5793;
      }
    </style>
  </defs>
  <g id="feutre_emojis">
    <g>
      <circle class="cls-4" cx="57.5" cy="57.5" r="57.5"/>
      <path class="cls-2" d="M22.5,21.5c-1.6,2.15-2.01,4.85-1,7,1.54,3.27,5.91,4.29,9,3,3.46-1.44,5.42-5.8,4-10"/>
      <path class="cls-2" d="M79.91,24.46c-1.6,2.15-2.01,4.85-1,7,1.54,3.27,5.91,4.29,9,3,3.46-1.44,5.42-5.8,4-10"/>
      <line class="cls-1" x1="10.5" y1="43.5" x2="27.5" y2="64.5"/>
      <line class="cls-1" x1="34.5" y1="48.5" x2="8.5" y2="57.5"/>
      <line class="cls-1" x1="88.5" y1="41.5" x2="102.5" y2="68.5"/>
      <line class="cls-1" x1="81.5" y1="59.5" x2="108.5" y2="50.5"/>
      <path class="cls-3" d="M37.5,84.5c-3.02-14.34,2.95-26.73,12-30,6.32-2.28,13.65.05,18,4,8.89,8.07,9.11,26.35-2,44"/>
    </g>
  </g>
</svg>