<?xml version="1.0" encoding="UTF-8"?>
<svg id="Layer_2" xmlns="http://www.w3.org/2000/svg" viewBox="0 0 119 119">
  <defs>
    <style>
      .cls-1 {
        stroke: #ef62f0;
      }

      .cls-1, .cls-2, .cls-3 {
        stroke-miterlimit: 10;
      }

      .cls-1, .cls-3 {
        fill: none;
        stroke-width: 6px;
      }

      .cls-2 {
        fill: #15bff5;
        stroke: #15bff5;
        stroke-width: 4px;
      }

      .cls-4 {
        fill: #fff;
      }

      .cls-5 {
        fill: #2023cc;
      }

      .cls-3 {
        stroke: #fb50bb;
      }
    </style>
  </defs>
  <g id="feutre_emojis">
    <circle class="cls-2" cx="59.5" cy="59.5" r="57.5"/>
    <ellipse class="cls-4" cx="43.65" cy="35.03" rx="21" ry="8.23" transform="translate(-3.04 65.89) rotate(-72.22)"/>
    <ellipse class="cls-5" cx="44.5" cy="26" rx="12.5" ry="6" transform="translate(1.17 53.9) rotate(-63.07)"/>
    <ellipse class="cls-4" cx="81.69" cy="41.06" rx="17.26" ry="6.77" transform="translate(17.64 106.31) rotate(-72.22)"/>
    <ellipse class="cls-5" cx="80.44" cy="46.05" rx="12.5" ry="6" transform="translate(12.02 108.58) rotate(-72.22)"/>
    <ellipse class="cls-3" cx="17.28" cy="57.84" rx="7.39" ry="11.97" transform="translate(-14.32 6.4) rotate(-14.93)"/>
    <ellipse class="cls-3" cx="97.65" cy="72.16" rx="11.97" ry="7.39" transform="translate(-13.73 120.51) rotate(-59.93)"/>
    <g>
      <path class="cls-4" d="M66.69,81.47c4.79,4.25-2.21,17.71-18.19,17.89-15.98-.18-22.98-13.64-18.19-17.89,4.54-4.47,12.31-4.72,18.19-5.11,5.88.4,13.65.64,18.19,5.11Z"/>
      <path class="cls-1" d="M66.69,81.47c4.79,4.25-2.21,17.71-18.19,17.89-15.98-.18-22.98-13.64-18.19-17.89,4.54-4.47,12.31-4.72,18.19-5.11,5.88.4,13.65.64,18.19,5.11Z"/>
    </g>
  </g>
</svg>