<?xml version="1.0" encoding="UTF-8"?>
<svg id="Layer_2" xmlns="http://www.w3.org/2000/svg" viewBox="0 0 119 119">
  <defs>
    <style>
      .cls-1 {
        fill: none;
      }

      .cls-1, .cls-2 {
        stroke: #34e852;
        stroke-miterlimit: 10;
        stroke-width: 4px;
      }

      .cls-3 {
        fill: #b0b0aa;
      }

      .cls-2 {
        fill: #fff;
      }

      .cls-4 {
        fill: #aed351;
      }

      .cls-5 {
        fill: #9ee351;
      }
    </style>
  </defs>
  <g id="aquarelle_emojis">
    <circle class="cls-2" cx="59.5" cy="59.5" r="57.5"/>
    <path class="cls-4" d="M116.93,62.18c.04-.89.07-1.78.07-2.68,0-31.76-25.74-57.5-57.5-57.5S2,27.74,2,59.5c0,2.8.21,5.55.6,8.25l114.33-5.57Z"/>
    <ellipse class="cls-5" cx="81" cy="42.5" rx="19.5" ry="9"/>
    <ellipse class="cls-5" cx="37" cy="44.5" rx="19.5" ry="9"/>
    <ellipse class="cls-3" cx="82" cy="42.35" rx="10.5" ry="4.85"/>
    <ellipse class="cls-3" cx="36.27" cy="46.76" rx="10.5" ry="4.85"/>
    <line class="cls-1" x1="49.77" y1="65.45" x2="53" y2="116.64"/>
    <line class="cls-1" x1="71.98" y1="64.37" x2="76.3" y2="114.51"/>
    <line class="cls-1" x1="95.82" y1="63.21" x2="96.3" y2="103.68"/>
    <line class="cls-1" x1="1.5" y1="68.29" x2="117" y2="62.97"/>
    <line class="cls-1" x1="28.81" y1="67.31" x2="29.3" y2="107.78"/>
  </g>
</svg>