<?xml version="1.0" encoding="UTF-8"?>
<svg id="Layer_2" xmlns="http://www.w3.org/2000/svg" viewBox="0 0 119 119">
  <defs>
    <style>
      .cls-1 {
        fill: none;
        stroke: #ee43b0;
        stroke-miterlimit: 10;
        stroke-width: 4px;
      }

      .cls-2 {
        fill: #e90c5b;
      }

      .cls-3 {
        fill: #151515;
      }

      .cls-4 {
        fill: #c81cb8;
      }
    </style>
  </defs>
  <g id="feutre_emojis">
    <path class="cls-4" d="M22.1,18.24c1.19-.55,2.43-.7,3.47.03,1.43,1.01,1.48,3.21.68,4.76s-2.23,2.68-3.43,3.95c-3.1,3.26-4.89,8.32-2.85,12.33,1.56,3.07,5.07,4.83,8.52,4.98s6.81-1.1,9.82-2.79c4.15-2.33,8.17-5.46,13.19-4.46,4.63.92,8.59,4.47,10.52,8.71,2.79,6.13,2.27,13.72-.34,19.81-3.53,8.22-10.93,15.49-19.45,18.29-3.55,1.17-7.78-.17-11.09,1.66-1.94,1.07-3.09,3.21-3.5,5.39-1.35,7.18,2.68,18.7,10.42,21.1C16.32,105.24,1.1,83.58,1,61c-.07-15.59,7.19-30.52,18.57-41.01.73-.67,1.61-1.33,2.53-1.75Z"/>
    <ellipse class="cls-3" cx="30" cy="33.5" rx="5.5" ry="7"/>
    <ellipse class="cls-3" cx="79" cy="23.5" rx="5.5" ry="7"/>
    <path class="cls-4" d="M86.5,10.5c-2.94,1.74-2.34,7.6.25,9.34.94.63,2.08.87,3.08,1.39,3.26,1.67,4.39,6.1,2.47,9.17-3.4,5.43-11.04,3.82-16.27,5.25-2.53.69-4.97,2.05-6.46,4.21-1.5,2.17-1.9,4.93-1.9,7.57-.02,14.17,11.69,28.49,26.9,25.48,1.68-.33,3.43-.86,5.05-.33,5.2,1.73,4.87,11.25,7.71,15.14.43.58.92,1.18,1.62,1.39,1.54.46,2.86-1.16,3.59-2.6,5.06-9.98,6.19-22,4.96-33.01-.23-2.05-2.6-20.87-17-35-1.78-1.75-10.35-10.16-14-8Z"/>
    <circle class="cls-1" cx="59.5" cy="59.5" r="57.5"/>
    <path class="cls-2" d="M72.5,103.66c-16,4.06-36-.28-38-12.09,0-2.63,4-4.61,8-4.61,10-.02,19-1.32,29-2.62,8-.64,18-.64,23,4.45,0,7.64-12,12.84-22,14.87h0Z"/>
  </g>
</svg>