<?xml version="1.0" encoding="UTF-8"?>
<svg id="Layer_2" xmlns="http://www.w3.org/2000/svg" viewBox="0 0 115 115">
  <defs>
    <style>
      .cls-1 {
        fill: #2d25a7;
      }

      .cls-2 {
        fill: none;
        stroke: #f45b49;
        stroke-miterlimit: 10;
        stroke-width: 4px;
      }

      .cls-3 {
        fill: #8d9efc;
      }

      .cls-4 {
        fill: #e92047;
      }
    </style>
  </defs>
  <g id="all">
    <g>
      <circle class="cls-1" cx="57.5" cy="57.5" r="57.5"/>
      <path class="cls-2" d="M88.57,41.94c2.82-4.67,2.31-10.53-1.11-14.31-2.81-3.1-7.21-4.39-11.46-3.44"/>
      <path class="cls-2" d="M48.87,25.98c-4.46-3.15-10.33-3.07-14.35.07-3.29,2.57-4.91,6.87-4.27,11.17"/>
      <path class="cls-2" d="M46.29,93.75c2.32,4.94,7.47,7.77,12.52,7.02,4.13-.62,7.66-3.56,9.22-7.62"/>
      <path class="cls-4" d="M82,81l9-15s6-10,11-6.8c5,3.2,0,9.8,0,9.8,0,0,6-2,9,2,0,0,3,6-4,8s-25,2-25,2Z"/>
      <path class="cls-4" d="M36.32,76.25l-17.44-1.38s-11.63-.92-10.99-6.82c.64-5.9,8.77-4.36,8.77-4.36,0,0-4.46-4.48-2.22-8.95,0,0,4.04-5.36,8.94.02s12.93,21.49,12.93,21.49Z"/>
      <circle class="cls-3" cx="34.18" cy="37.33" r="6.5"/>
      <circle class="cls-3" cx="85.18" cy="39.33" r="6.5"/>
    </g>
  </g>
</svg>