<?xml version="1.0" encoding="UTF-8"?>
<svg id="Layer_2" xmlns="http://www.w3.org/2000/svg" viewBox="0 0 118 119">
  <defs>
    <style>
      .cls-1 {
        fill: #ff8e50;
      }

      .cls-2 {
        fill: #ffbd6e;
      }

      .cls-3 {
        fill: #ff7dd7;
      }

      .cls-4 {
        fill: #232321;
      }

      .cls-5 {
        fill: #ff5793;
      }

      .cls-6 {
        fill: #e92047;
      }
    </style>
  </defs>
  <g id="all">
    <g>
      <circle class="cls-5" cx="59" cy="59.5" r="59"/>
      <path class="cls-1" d="M59,55.5c21.74,0,41.81-3.6,58.02-9.67C110.79,19.55,87.18,0,59,0S7.21,19.55.98,45.83c16.21,6.08,36.29,9.67,58.02,9.67Z"/>
      <path class="cls-2" d="M58.48,85.97c-19.2,0-37.5-1.19-54.22-3.33,8.98,21.36,30.1,36.36,54.73,36.36s45.84-15.07,54.79-36.5c-17,2.23-35.69,3.47-55.3,3.47Z"/>
      <ellipse class="cls-3" cx="91.06" cy="52.89" rx="24.93" ry="14.47" transform="translate(-11.8 30.33) rotate(-17.78)"/>
      <ellipse class="cls-3" cx="29" cy="56.86" rx="14.47" ry="24.93" transform="translate(-34 67.11) rotate(-72.22)"/>
      <rect class="cls-6" x="39" y="90.5" width="54" height="16" rx="8" ry="8"/>
      <circle class="cls-4" cx="14.81" cy="55.57" r="6.5"/>
      <circle class="cls-4" cx="103.03" cy="51.73" r="6.5"/>
    </g>
  </g>
</svg>