<?xml version="1.0" encoding="UTF-8"?>
<svg id="Layer_2" xmlns="http://www.w3.org/2000/svg" viewBox="0 0 118 118">
  <defs>
    <style>
      .cls-1 {
        stroke: #80e4e0;
      }

      .cls-1, .cls-2 {
        fill: none;
        stroke-miterlimit: 10;
        stroke-width: 3px;
      }

      .cls-3 {
        fill: #ed5438;
      }

      .cls-2 {
        stroke: #80ddde;
      }

      .cls-4 {
        fill: #19d8ec;
      }
    </style>
  </defs>
  <g id="stylo_emojis">
    <circle class="cls-2" cx="59" cy="59" r="57.5"/>
    <path class="cls-1" d="M25,14c-6.98,9.44-9.88,17.76-7,21,2.61,2.93,10.31,2.12,11,0,.53-1.65-2.85-5.04-6-5-4.45.06-8.78,7.01-8,13,.87,6.68,8.16,12.63,14,11,5.44-1.52,8.83-9.41,7-12-.83-1.18-2.77-1.29-4-1-3.38.8-5.35,5.54-5,9,.59,5.79,7.93,10.7,14,10,8.32-.96,13.65-12.37,12-21-1.23-6.44-6.72-13.22-12-13-2,.08-4.38,1.18-5,3-.96,2.81,2.41,6.99,6,8,5.31,1.49,12.22-3.66,14-10,1.83-6.51-1.64-14.64-7-16-3.04-.77-7.13.53-8,3-1.08,3.06,2.89,7.6,7,9,7.44,2.52,17.63-4.49,18-11,.14-2.45-1.07-5.52-3-6-2.47-.61-6.2,3.03-6,6,.25,3.72,6.71,6.93,11,8,1.41.35,2.07.34,3,1,2.84,2.01,3.88,7.22,2,11-2.4,4.83-9.3,6.74-11,5-1.39-1.43.02-6.06,3-8,3.82-2.48,9.72-.24,12,3,4,5.69-.35,16.04-7,20-3.49,2.08-9.17,3.32-11,1-1.22-1.54-.72-4.65,1-6,2.25-1.76,6.45-.39,8,2,2.06,3.18-1.7,6.36,0,11,1.16,3.16,4.49,5.97,8,6,5.59.05,10.34-6.94,9-10-.8-1.84-3.87-2.42-6-2-3.95.77-6.37,5.29-6,9,.5,5.08,6.23,8.76,11,8,5.77-.92,8.81-8.13,8-13-.83-4.99-5.3-5.1-7-11-1.59-5.51.26-12.5,4-14,1.69-.68,4.07-.36,5,1,1.17,1.71-.05,4.92-2,6-2.89,1.61-7.95-1.17-10-5-2.13-3.97-1.39-9.74,2-12,2.12-1.41,5.74-1.77,7,0,1.03,1.44.46,4.24-1,5-2.47,1.29-9.29-2.26-9-7,.19-3.09,3.36-6.05,7-6,4.03.05,6.27,5.35,7,7,3.28,7.45-.75,12.34,3,17,1.71,2.12,4.95,4.1,7,3,1.96-1.05,2.83-4.93,1-7-1.76-1.99-5.27-1.44-7,0-3.56,2.97-2.42,12.15,2,14,3.46,1.44,9.49-1.37,12-8"/>
    <circle class="cls-3" cx="12" cy="66" r="8"/>
    <circle class="cls-3" cx="104" cy="61" r="8"/>
    <circle class="cls-4" cx="56" cy="84" r="8"/>
  </g>
</svg>