<?xml version="1.0" encoding="UTF-8"?>
<svg id="Layer_2" xmlns="http://www.w3.org/2000/svg" viewBox="0 0 118 118">
  <defs>
    <style>
      .cls-1 {
        fill: #2f2193;
      }

      .cls-2 {
        stroke: #8696f5;
      }

      .cls-2, .cls-3, .cls-4 {
        fill: none;
        stroke-miterlimit: 10;
        stroke-width: 3px;
      }

      .cls-3 {
        stroke: #2f2193;
      }

      .cls-4 {
        stroke: #dc3567;
      }
    </style>
  </defs>
  <g id="stylo_emojis">
    <circle class="cls-2" cx="59" cy="59" r="57.5"/>
    <path class="cls-4" d="M53.46,19.47c.69-2.09,1.48-4.67.18-6.69-1.17-1.81-3.84-2.29-5.75-1.29-4.49,2.37-3.3,8.6-.46,11.8,3.61,4.08,10.14,5.29,14.72,2.09,4.76-3.33,6.65-11.47,12.86-12.61,2.13-.39,4.48.43,5.77,2.17s1.33,4.35-.04,6.03c-2.19,2.7-6,1.43-8.25-.47"/>
    <circle class="cls-1" cx="33" cy="44" r="9"/>
    <circle class="cls-1" cx="91" cy="47" r="9"/>
    <path class="cls-3" d="M26,47c1.23,2,8.12,12.81,20,14,7.57.76,13.75-2.73,16-4,10.47-5.92,11.05-14.09,20-17,4.64-1.51,9.05-.8,12,0"/>
    <path class="cls-4" d="M31.23,82.87c1.23,2,8.12,12.81,20,14,7.57.76,13.75-2.73,16-4,10.47-5.92,11.05-14.09,20-17,4.64-1.51,9.05-.8,12,0"/>
  </g>
</svg>