<?xml version="1.0" encoding="UTF-8"?>
<svg id="Layer_2" xmlns="http://www.w3.org/2000/svg" viewBox="0 0 118 118">
  <defs>
    <style>
      .cls-1 {
        stroke: #3f2ec8;
      }

      .cls-1, .cls-2, .cls-3, .cls-4 {
        fill: none;
        stroke-miterlimit: 10;
        stroke-width: 3px;
      }

      .cls-2 {
        stroke: #cd3361;
      }

      .cls-3 {
        stroke: #997eff;
      }

      .cls-4 {
        stroke: #60d8ce;
      }
    </style>
  </defs>
  <g id="stylo_emojis">
    <circle class="cls-2" cx="59" cy="59" r="57.5"/>
    <ellipse class="cls-3" cx="91" cy="42.75" rx="11.23" ry="4.75"/>
    <ellipse class="cls-3" cx="29.77" cy="45.49" rx="11.23" ry="4.75"/>
    <path class="cls-1" d="M74.5,81.49c0,2.62-7.6,4.75-16.98,4.75s-16.77-1.36-16.52-3.03,7.86-3.8,16.98-4.75,16.52.41,16.52,3.03Z"/>
    <line class="cls-4" x1="33.5" y1="15.5" x2="33.5" y2="28.77"/>
    <line class="cls-4" x1="41.43" y1="15.6" x2="41.43" y2="28.87"/>
    <line class="cls-4" x1="49.43" y1="11" x2="49.43" y2="28.87"/>
    <line class="cls-4" x1="60.43" y1="9" x2="60.43" y2="28.87"/>
    <line class="cls-4" x1="71.43" y1="10" x2="71.43" y2="27.87"/>
    <line class="cls-4" x1="81.43" y1="15.6" x2="81.43" y2="28.87"/>
    <line class="cls-4" x1="93.43" y1="16.6" x2="93.43" y2="29.87"/>
    <line class="cls-4" x1="46.43" y1="94.6" x2="46.43" y2="107.87"/>
    <line class="cls-4" x1="57.43" y1="94.6" x2="57.43" y2="107.87"/>
    <line class="cls-4" x1="72.43" y1="94.6" x2="72.43" y2="107.87"/>
    <line class="cls-4" x1="21.06" y1="55.23" x2="7.79" y2="55.23"/>
    <line class="cls-4" x1="22.06" y1="65.23" x2="8.79" y2="65.23"/>
    <line class="cls-4" x1="112.06" y1="53.23" x2="98.79" y2="53.23"/>
    <line class="cls-4" x1="112.06" y1="60.23" x2="98.79" y2="60.23"/>
    <line class="cls-4" x1="109.06" y1="72.23" x2="95.79" y2="72.23"/>
    <line class="cls-4" x1="23.06" y1="77.23" x2="9.79" y2="77.23"/>
  </g>
</svg>