<?xml version="1.0" encoding="UTF-8"?>
<svg id="Layer_2" xmlns="http://www.w3.org/2000/svg" viewBox="0 0 115.05 115">
  <defs>
    <style>
      .cls-1 {
        fill: #ff7dd7;
      }

      .cls-2 {
        stroke: #5d72f8;
        stroke-width: 7px;
      }

      .cls-2, .cls-3 {
        fill: none;
        stroke-miterlimit: 10;
      }

      .cls-4 {
        fill: #4420a1;
      }

      .cls-3 {
        stroke: #e92047;
        stroke-width: 5px;
      }
    </style>
  </defs>
  <g id="all">
    <g>
      <circle class="cls-4" cx="57.55" cy="57.5" r="57.5"/>
      <path class="cls-2" d="M2.55,49.5c1.52,1.62,9.41,9.7,22,10,15.78.38,25.12-11.81,26-13"/>
      <path class="cls-2" d="M62.78,45.73c1.52,1.62,9.41,9.7,22,10,15.78.38,25.12-11.81,26-13"/>
      <line class="cls-2" x1="10.05" y1="74" x2="17.05" y2="60"/>
      <line class="cls-2" x1="26.05" y1="77" x2="25.05" y2="61"/>
      <line class="cls-2" x1="45.05" y1="75" x2="36.05" y2="57"/>
      <line class="cls-2" x1="62.05" y1="66" x2="76.05" y2="56"/>
      <line class="cls-2" x1="81.05" y1="77" x2="88.05" y2="57"/>
      <line class="cls-2" x1="103.05" y1="74" x2="97.05" y2="54"/>
      <ellipse class="cls-1" cx="57.89" cy="98.75" rx="8.17" ry="5.25"/>
      <path class="cls-3" d="M4.55,46.15c1.39,1.19,8.63,7.12,20.17,7.34,14.47.28,23.02-8.67,23.83-9.55"/>
      <path class="cls-3" d="M64.87,42.34c1.39,1.19,8.63,7.12,20.17,7.34,14.47.28,23.02-8.67,23.83-9.55"/>
    </g>
  </g>
</svg>