<?xml version="1.0" encoding="UTF-8"?>
<svg id="Layer_2" xmlns="http://www.w3.org/2000/svg" viewBox="0 0 115 115">
  <defs>
    <style>
      .cls-1 {
        fill: #18d4e8;
      }

      .cls-2 {
        fill: #d0bdff;
      }

      .cls-3 {
        fill: #2d25a7;
      }

      .cls-4 {
        fill: none;
        stroke: #4420a1;
        stroke-miterlimit: 10;
        stroke-width: 6px;
      }
    </style>
  </defs>
  <g id="feutre_emojis">
    <g>
      <circle class="cls-2" cx="57.5" cy="57.5" r="57.5"/>
      <polygon class="cls-3" points="79.44 13.5 77.5 43.5 100.5 34.77 79.44 13.5"/>
      <path class="cls-1" d="M96.08,63.6c17.19-5.33-11.02-32.18-11.02-32.18,0,0-6.17,37.51,11.02,32.18"/>
      <polygon class="cls-3" points="36.36 14.72 38.3 44.72 15.3 36 36.36 14.72"/>
      <path class="cls-1" d="M19.72,64.82c-17.19-5.33,11.02-32.18,11.02-32.18,0,0,6.17,37.51-11.02,32.18"/>
      <path class="cls-4" d="M38.5,55.5c.19,9.62,1.19,19.38,3.87,28.65,1.46,5.06,4.72,16.15,11.41,16.32,6.07.15,10.56-9,12.8-13.56,3.63-7.4,6.09-15.39,7.92-23.4"/>
    </g>
  </g>
</svg>