<?xml version="1.0" encoding="UTF-8"?>
<svg id="Layer_2" xmlns="http://www.w3.org/2000/svg" viewBox="0 0 118 118">
  <defs>
    <style>
      .cls-1 {
        fill: #f1694a;
      }

      .cls-2 {
        fill: #f4ddc8;
      }

      .cls-3 {
        stroke: #f1694a;
      }

      .cls-3, .cls-4, .cls-5 {
        fill: none;
        stroke-miterlimit: 10;
        stroke-width: 3px;
      }

      .cls-4 {
        stroke: #f1855c;
      }

      .cls-5 {
        stroke: #2f2193;
      }

      .cls-6 {
        fill: #5de7fb;
      }
    </style>
  </defs>
  <g id="stylo_emojis">
    <circle class="cls-4" cx="59" cy="59" r="57.5"/>
    <circle class="cls-2" cx="88.5" cy="34.5" r="11.5"/>
    <circle class="cls-1" cx="90.23" cy="33.79" r="6.79"/>
    <circle class="cls-2" cx="30.23" cy="29.09" r="11.5"/>
    <circle class="cls-1" cx="31.97" cy="28.38" r="6.79"/>
    <g>
      <path class="cls-6" d="M72.99,102.92c-10.22,2.08-20.77,2.08-30.99,0-13.72-2.81-20.19-14.64-15.75-21.34h0c4.41-6.8,13.74-8.75,21.58-7.31,6.37,1.3,12.95,1.3,19.33,0,7.83-1.45,17.17.5,21.58,7.31h0c4.45,6.7-2.03,18.53-15.75,21.34Z"/>
      <path class="cls-5" d="M72.99,102.92c-10.22,2.08-20.77,2.08-30.99,0-13.72-2.81-20.19-14.64-15.75-21.34h0c4.41-6.8,13.74-8.75,21.58-7.31,6.37,1.3,12.95,1.3,19.33,0,7.83-1.45,17.17.5,21.58,7.31h0c4.45,6.7-2.03,18.53-15.75,21.34Z"/>
    </g>
    <path class="cls-3" d="M37,45c3.87,8.84-.16,19.13-9,23-7.07,3.09-15.31-.13-18.4-7.2-2.47-5.66.1-12.25,5.76-14.72,4.52-1.98,9.8.08,11.78,4.61,1.58,3.62-.07,7.84-3.69,9.42-2.9,1.27-6.27-.05-7.54-2.95-1.01-2.32.04-5.02,2.36-6.03,1.85-.81,4.01.03,4.82,1.89.65,1.48-.03,3.21-1.51,3.86-1.19.52-2.57-.02-3.09-1.21"/>
    <path class="cls-3" d="M109.98,49.82c3.87,8.84-.16,19.13-9,23-7.07,3.09-15.31-.13-18.4-7.2-2.47-5.66.1-12.25,5.76-14.72,4.52-1.98,9.8.08,11.78,4.61,1.58,3.62-.07,7.84-3.69,9.42-2.9,1.27-6.27-.05-7.54-2.95-1.01-2.32.04-5.02,2.36-6.03,1.85-.81,4.01.03,4.82,1.89.65,1.48-.03,3.21-1.51,3.86-1.19.52-2.57-.02-3.09-1.21"/>
  </g>
</svg>