<?xml version="1.0" encoding="UTF-8"?>
<svg id="Layer_2" xmlns="http://www.w3.org/2000/svg" viewBox="0 0 117.62 115">
  <defs>
    <style>
      .cls-1 {
        fill: #ffbd6e;
      }

      .cls-2 {
        fill: #18d4e8;
      }

      .cls-3 {
        fill: #ff7dd7;
      }

      .cls-4 {
        fill: none;
        stroke: #f45b49;
        stroke-miterlimit: 10;
        stroke-width: 3px;
      }
    </style>
  </defs>
  <g id="stylo_emojis">
    <g>
      <circle class="cls-1" cx="60.12" cy="57.5" r="57.5"/>
      <path class="cls-2" d="M61.25,82.92c-17.24,2.5-34.46-6.33-48.4-22.65,11.42,27.83,32.05,45.69,52.72,42.69,22.47-3.26,37.89-30.14,38.92-63.89-8.24,24.13-23.65,41.01-43.24,43.86Z"/>
      <ellipse class="cls-3" cx="45.12" cy="48" rx="6" ry="11.5"/>
      <ellipse class="cls-3" cx="64.12" cy="24" rx="6" ry="11.5"/>
      <line class="cls-4" x1="50.12" y1="4.5" x2="43.12" y2="26.5"/>
      <line class="cls-4" x1="74.2" y1="4.31" x2="84.8" y2="24.82"/>
      <line class="cls-4" x1="36.96" y1="8.63" x2="26.12" y2="39.5"/>
      <line class="cls-4" x1=".71" y1="52.71" x2="27.12" y2="38.5"/>
      <line class="cls-4" x1="99.12" y1="32.5" x2="86.38" y2="5.88"/>
      <line class="cls-4" x1="98.12" y1="31.5" x2="115.12" y2="42.5"/>
      <line class="cls-4" x1="26.53" y1="10.83" x2="18.39" y2="32.43"/>
      <line class="cls-4" x1="5.12" y1="41.5" x2="19.12" y2="31.5"/>
    </g>
  </g>
</svg>