<?xml version="1.0" encoding="UTF-8"?>
<svg id="Layer_2" xmlns="http://www.w3.org/2000/svg" viewBox="0 0 115 115">
  <defs>
    <style>
      .cls-1 {
        fill: #ff8e50;
        stroke: #f45b49;
        stroke-miterlimit: 10;
        stroke-width: 4px;
      }

      .cls-2 {
        fill: #7c7b7f;
      }

      .cls-3 {
        fill: #f45b49;
      }

      .cls-4 {
        fill: #ff5793;
      }

      .cls-5 {
        fill: #e92047;
      }
    </style>
  </defs>
  <g id="stylo_emojis">
    <g>
      <circle class="cls-4" cx="57.5" cy="57.5" r="57.5"/>
      <path class="cls-2" d="M84.18,29.3c-11.56,0-21.58,5.27-26.5,12.96-4.92-7.69-14.94-12.96-26.5-12.96C14.75,29.3,1.43,39.94,1.43,53.05s13.32,23.75,29.75,23.75c11.56,0,21.58-5.27,26.5-12.96,4.92,7.69,14.94,12.96,26.5,12.96,16.43,0,29.75-10.63,29.75-23.75s-13.32-23.75-29.75-23.75Z"/>
      <ellipse class="cls-1" cx="30.92" cy="53.5" rx="24.92" ry="8.5"/>
      <ellipse class="cls-1" cx="87.58" cy="53.5" rx="24.92" ry="8.5"/>
      <path class="cls-3" d="M90.25,53.5c-4.28,0-7.75,3.47-7.75,7.75,0,.11.01.21.02.32,2.51.28,5.19.43,7.98.43,2.6,0,5.11-.13,7.48-.37,0-.13.02-.25.02-.38,0-4.28-3.47-7.75-7.75-7.75Z"/>
      <path class="cls-3" d="M27.05,52.8c-4.28,0-7.75,3.47-7.75,7.75,0,.11.01.21.02.32,2.51.28,5.19.43,7.98.43,2.6,0,5.11-.13,7.48-.37,0-.13.02-.25.02-.38,0-4.28-3.47-7.75-7.75-7.75Z"/>
      <rect class="cls-5" x="52" y="89" width="16.5" height="9.5" rx="4.75" ry="4.75"/>
    </g>
  </g>
</svg>