<?xml version="1.0" encoding="UTF-8"?>
<svg id="Layer_2" xmlns="http://www.w3.org/2000/svg" viewBox="0 0 115 115">
  <defs>
    <style>
      .cls-1 {
        fill: #079e8b;
      }

      .cls-2 {
        stroke: #4420a1;
        stroke-width: 2px;
      }

      .cls-2, .cls-3 {
        fill: none;
        stroke-miterlimit: 10;
      }

      .cls-3 {
        stroke: #232321;
        stroke-width: 3px;
      }

      .cls-4 {
        fill: #232321;
      }

      .cls-5 {
        fill: #e92047;
      }
    </style>
  </defs>
  <g id="stylo_emojis">
    <g>
      <circle class="cls-1" cx="57.5" cy="57.5" r="57.5"/>
      <polyline class="cls-2" points="18 38 15 30 31 42 25 22 36 39 36 19.37 41 43 42 25 46.56 43"/>
      <polyline class="cls-2" points="65.5 38.5 71.5 25.5 76.5 36.5 75.41 19.37 79.24 31.19 87.5 21.5 81.5 36.5 98.5 25.5 89.5 37.5 105.8 31.19"/>
      <path class="cls-4" d="M28.17,50.99c-.01.19-.03.38-.03.58,0,4.14,3.36,7.5,7.5,7.5s7.5-3.36,7.5-7.5c0-.19-.01-.39-.03-.58h-14.94Z"/>
      <line class="cls-3" x1="43.14" y1="50.07" x2="9.14" y2="50.07"/>
      <path class="cls-4" d="M84.23,44.99c-.01.19-.03.38-.03.58,0,4.14,3.36,7.5,7.5,7.5s7.5-3.36,7.5-7.5c0-.19-.01-.39-.03-.58h-14.94Z"/>
      <line class="cls-3" x1="99.2" y1="44.07" x2="65.2" y2="44.07"/>
      <path class="cls-5" d="M72.62,84.09c0-7.26-4.7-13.15-10.5-13.15-4.79,0-8.83,4.03-10.09,9.52-1.25-5.49-5.29-9.52-10.09-9.52-5.8,0-10.5,5.86-10.5,13.09,0,4.28,1.66,8.07,4.21,10.46.02.02.04.04.06.05.23.21.46.41.7.6.14.11.28.22.43.32.06.04.11.08.17.12,3.36,2.37,8.79,3.91,14.93,3.91,5.09,0,9.69-1.06,13.04-2.77,4.41-1.56,7.65-6.62,7.65-12.64Z"/>
    </g>
  </g>
</svg>