<?xml version="1.0" encoding="UTF-8"?>
<svg id="Layer_2" xmlns="http://www.w3.org/2000/svg" viewBox="0 0 115 115">
  <defs>
    <style>
      .cls-1 {
        fill: #8bc8f6;
      }

      .cls-2 {
        fill: #a2ee5e;
      }

      .cls-3 {
        fill: #172a99;
      }
    </style>
  </defs>
  <g id="aquarelle_emojis">
    <circle class="cls-2" cx="57.5" cy="57.5" r="57.5"/>
    <path class="cls-1" d="M99.5,86.5c-14.91,0-27-12.09-27-27s12.09-27,27-27c3.85,0,7.51.81,10.82,2.26C101.51,14.32,81.18,0,57.5,0S12.69,14.9,4.17,36c4.54-3.45,10.19-5.5,16.33-5.5,14.91,0,27,12.09,27,27s-12.09,27-27,27c-6.14,0-11.79-2.05-16.33-5.5,8.52,21.1,29.18,36,53.33,36,21.73,0,40.64-12.06,50.42-29.85-2.65.87-5.48,1.35-8.42,1.35Z"/>
    <circle class="cls-3" cx="15.5" cy="63.5" r="8"/>
    <circle class="cls-3" cx="103.5" cy="63.5" r="8"/>
    <ellipse class="cls-3" cx="61" cy="97.5" rx="17.5" ry="5" transform="translate(-15.98 12.05) rotate(-9.98)"/>
  </g>
</svg>