<?xml version="1.0" encoding="UTF-8"?>
<svg id="Layer_2" xmlns="http://www.w3.org/2000/svg" viewBox="0 0 119 119">
  <defs>
    <style>
      .cls-1 {
        stroke: #00ae81;
        stroke-width: 5px;
      }

      .cls-1, .cls-2, .cls-3 {
        fill: none;
        stroke-miterlimit: 10;
      }

      .cls-4 {
        fill: #0d0d0d;
      }

      .cls-2 {
        stroke: #fbf046;
      }

      .cls-2, .cls-3 {
        stroke-width: 4px;
      }

      .cls-3 {
        stroke: #fff651;
      }
    </style>
  </defs>
  <g id="feutre_emojis">
    <circle class="cls-3" cx="59.5" cy="59.5" r="57.5"/>
    <path class="cls-2" d="M15.5,27.5c.28-4.03,2.93-7.84,6.37-9.87,1.21-.72,2.6-1.25,3.99-1.07,1.71.22,3.14,1.5,3.99,3,1.91,3.39,1.49,7.67,5.02,10.11,1.37.95,3.13,1.34,4.78,1.05,5.1-.9,4.53-5.29,3.62-9.25-.68-2.94-.91-5.98-.68-8.98.17-2.33.7-4.78,2.34-6.45,1.9-1.93,4.93-2.34,7.58-1.8,1.81.36,3.71,1.27,4.39,2.99.59,1.47.13,3.14-.43,4.62-1.5,4.03-2.78,8.13-1.36,12.39,1.04,3.13,3.42,5.85,6.49,7.07,1.4.55,3.19.72,4.22-.38,1.2-1.28.76-3.44.49-4.99-.84-4.81-.35-9.96,2.06-14.21,1.27-2.23,3.47-4.34,6.01-4.05,5.72.66,6.65,9.49,5.94,13.76-.36,2.17-1.16,4.28-1.17,6.48-.02,2.12.93,4.62,2.21,6.3,1.15,1.5,3.07,2.57,4.92,2.15,1.2-.27,2.19-1.12,2.99-2.06,3-3.48,4-8.58,2.55-12.94-.4-1.19-.96-2.53-.38-3.65.88-1.69,3.49-1.43,5.07-1.21"/>
    <path class="cls-1" d="M27.5,89.5c-3.02-4.11-2.11-9.98,2-13,4.76-3.49,11.37-1.18,13,2,1.68,3.28-2.56,6.29-1,11,1.09,3.31,4.64,6.22,8,6,4.28-.28,7.11-5.59,8-9,1.16-4.45-.81-6.29,1-10,.25-.51,2.36-4.69,6-5,3.61-.31,6.7,3.37,8,6,1.73,3.51.2,5.02,2,9,.48,1.06,2.61,5.79,6,6,3.06.19,5.81-3.38,7-6,2.2-4.83-.39-7.44,2-12,.3-.57,2.5-4.78,6-5,3.75-.24,7.04,4.24,8,8,1.29,5.03-1.47,9.22-2,10"/>
    <circle class="cls-4" cx="19.5" cy="46.5" r="7"/>
    <circle class="cls-4" cx="102.5" cy="41.5" r="7"/>
  </g>
</svg>