<?xml version="1.0" encoding="UTF-8"?>
<svg id="Layer_2" xmlns="http://www.w3.org/2000/svg" viewBox="0 0 119 119">
  <defs>
    <style>
      .cls-1 {
        stroke: #f771fb;
      }

      .cls-1, .cls-2, .cls-3 {
        fill: none;
        stroke-miterlimit: 10;
      }

      .cls-1, .cls-3 {
        stroke-width: 5px;
      }

      .cls-2 {
        stroke: #9f55ee;
        stroke-width: 4px;
      }

      .cls-4 {
        fill: #b81aa9;
      }

      .cls-3 {
        stroke: #de0161;
      }
    </style>
  </defs>
  <g id="feutre_emojis">
    <circle class="cls-2" cx="59.5" cy="59.5" r="57.5"/>
    <path class="cls-1" d="M47.5,21.5c.79-5.06,4.25-9.29,9-11,6.83-2.45,12.56,1.67,13,2"/>
    <path class="cls-1" d="M95,45c.27-2.4.98-6.04,3-10,1.6-3.15,3.51-5.45,5-7"/>
    <circle class="cls-4" cx="88.75" cy="27.25" r="5.25"/>
    <circle class="cls-4" cx="64.86" cy="27.46" r="5.25"/>
    <path class="cls-3" d="M26.5,23.5s15.22,26.08,33.11,32.04,47.89-1.04,47.89-1.04c0,0-2,35-33,46s-51-11-56-26,0-35,8-51Z"/>
    <path class="cls-3" d="M23,55c2.84,4.13,13.87,19.14,35,25,20.56,5.7,37.31-.95,42-3"/>
    <path class="cls-3" d="M50,60c.21,2.01.56,7.91-3,14-3.99,6.82-10.22,9.35-12,10"/>
    <path class="cls-3" d="M74,65c.4,2.16,1.56,9.97-3,18-3.93,6.93-9.84,10-12,11"/>
  </g>
</svg>