<?xml version="1.0" encoding="UTF-8"?>
<svg id="Layer_2" xmlns="http://www.w3.org/2000/svg" viewBox="0 0 114 114">
  <defs>
    <style>
      .cls-1 {
        fill: #5d72f8;
      }

      .cls-2 {
        fill: #61d9d8;
      }

      .cls-3 {
        fill: #151515;
      }

      .cls-4 {
        fill: #e92047;
      }
    </style>
  </defs>
  <g id="feutre_emojis">
    <g>
      <circle class="cls-2" cx="57" cy="57" r="57"/>
      <path class="cls-1" d="M18.62,14.91c1.02-.54,2.09-.69,2.98.03,1.23.99,1.27,3.17.58,4.71s-1.91,2.65-2.95,3.9c-2.67,3.22-4.2,8.22-2.45,12.18,1.34,3.04,4.36,4.77,7.32,4.92s5.85-1.09,8.43-2.75c3.56-2.3,7.01-5.39,11.32-4.41,3.98.91,7.38,4.41,9.04,8.61,2.39,6.05,1.95,13.56-.29,19.58-3.03,8.12-9.38,15.31-16.7,18.07-3.05,1.15-6.68-.17-9.52,1.64-1.66,1.06-2.66,3.17-3.01,5.32-1.16,7.1,2.3,18.48,8.95,20.85C13.66,100.88.59,79.48.5,57.16c-.06-15.4,6.17-30.16,15.95-40.52.62-.66,1.38-1.31,2.17-1.73Z"/>
      <ellipse class="cls-3" cx="26" cy="29" rx="5.5" ry="7"/>
      <ellipse class="cls-3" cx="76" cy="22" rx="5.5" ry="7"/>
      <path class="cls-1" d="M83.47,8.31c-2.8,1.69-2.24,7.38.24,9.07.9.61,1.98.85,2.94,1.35,3.12,1.62,4.19,5.93,2.36,8.9-3.25,5.28-10.54,3.71-15.53,5.1-2.42.67-4.75,1.99-6.17,4.09-1.43,2.11-1.81,4.78-1.82,7.35-.02,13.76,11.16,27.67,25.68,24.75,1.6-.32,3.27-.84,4.82-.32,4.96,1.68,4.65,10.93,7.36,14.7.41.57.88,1.14,1.54,1.35,1.47.45,2.73-1.13,3.43-2.52,4.83-9.69,5.91-21.37,4.73-32.05-.22-1.99-2.48-20.26-16.23-33.99-1.7-1.7-9.88-9.87-13.36-7.77Z"/>
      <path class="cls-4" d="M69.5,102.16c-16,4.06-36-.28-38-12.09,0-2.63,4-4.61,8-4.61,10-.02,19-1.32,29-2.62,8-.64,18-.64,23,4.45,0,7.64-12,12.84-22,14.87h0Z"/>
    </g>
  </g>
</svg>