<?xml version="1.0" encoding="UTF-8"?>
<svg id="Layer_2" xmlns="http://www.w3.org/2000/svg" viewBox="0 0 115 115">
  <defs>
    <style>
      .cls-1 {
        fill: #956cbc;
      }

      .cls-2 {
        fill: #ba8bdd;
      }

      .cls-3 {
        fill: #ff2449;
      }

      .cls-4 {
        fill: #fca342;
      }
    </style>
  </defs>
  <g id="aquarelle_emojis">
    <circle class="cls-2" cx="57.5" cy="57.5" r="57.5"/>
    <polygon class="cls-4" points="23.5 42.5 18.5 37.5 29.31 37.5 37.5 25.5 39.5 38.5 48.5 43.5 38.5 45.5 37.5 58.5 29.5 48.5 19.5 49.5 23.5 42.5"/>
    <polygon class="cls-4" points="66.5 43.5 76.5 46.5 71.5 57.5 82.5 52.5 90 61.59 90 48.99 99.5 44.5 90 41.16 92.5 28.5 81.5 40.5 66.5 43.5"/>
    <path class="cls-1" d="M24.5,79.5s-13-8-12-14,6-1.36,6-1.36c0,0,6-8.64,7-.64s-1,16-1,16Z"/>
    <path class="cls-1" d="M83.39,85.38s-3.54-14.85,1.41-18.38c4.95-3.54,5.21,3.28,5.21,3.28,0,0,10.35-1.87,5.4,4.5-4.95,6.36-12.02,10.61-12.02,10.61Z"/>
    <polygon class="cls-3" points="43.1 79.5 53.5 59.5 63.5 80.5 56.5 102.5 43.1 79.5"/>
  </g>
</svg>