<?xml version="1.0" encoding="UTF-8"?>
<svg id="Layer_2" xmlns="http://www.w3.org/2000/svg" viewBox="0 0 119.37 119.5">
  <defs>
    <style>
      .cls-1 {
        fill: none;
      }

      .cls-1, .cls-2 {
        stroke: #38f2a9;
        stroke-miterlimit: 10;
        stroke-width: 4px;
      }

      .cls-3 {
        fill: #d0bdff;
      }

      .cls-4 {
        fill: #5d72f8;
      }

      .cls-5 {
        fill: #61d9d8;
      }

      .cls-2 {
        fill: #fff;
      }
    </style>
  </defs>
  <g id="aquarelle_emojis">
    <g>
      <circle class="cls-2" cx="59.69" cy="60" r="57.5"/>
      <path class="cls-5" d="M119.3,62.47c.04-.92.07-1.85.07-2.78C119.37,26.72,92.65,0,59.69,0S0,26.72,0,59.69c0,2.91.22,5.76.62,8.56l118.68-5.78Z"/>
      <ellipse class="cls-3" cx="81.19" cy="43" rx="19.5" ry="9"/>
      <ellipse class="cls-3" cx="37.19" cy="45" rx="19.5" ry="9"/>
      <ellipse class="cls-4" cx="82.19" cy="42.85" rx="10.5" ry="4.85"/>
      <ellipse class="cls-4" cx="36.45" cy="47.26" rx="10.5" ry="4.85"/>
      <line class="cls-1" x1="49.95" y1="65.95" x2="53.19" y2="117.14"/>
      <line class="cls-1" x1="72.17" y1="64.87" x2="76.48" y2="115.01"/>
      <line class="cls-1" x1="96" y1="63.71" x2="96.49" y2="104.18"/>
      <line class="cls-1" x1="1.69" y1="68.79" x2="117.19" y2="63.47"/>
      <line class="cls-1" x1="29" y1="67.81" x2="29.48" y2="108.28"/>
    </g>
  </g>
</svg>