<?xml version="1.0" encoding="UTF-8"?>
<svg id="Layer_2" xmlns="http://www.w3.org/2000/svg" viewBox="0 0 118 118">
  <defs>
    <style>
      .cls-1 {
        fill: #3b148f;
      }

      .cls-2 {
        stroke: #7ce1e1;
      }

      .cls-2, .cls-3 {
        fill: none;
        stroke-miterlimit: 10;
        stroke-width: 3px;
      }

      .cls-4 {
        fill: #25e4f9;
      }

      .cls-3 {
        stroke: #65d6d7;
      }
    </style>
  </defs>
  <g id="stylo_emojis">
    <circle class="cls-3" cx="59" cy="59" r="57.5"/>
    <path class="cls-2" d="M77.5,40.5s-22-22-14-26,14,26,14,26Z"/>
    <path class="cls-2" d="M53.28,14.61c-8-4-14,26-14,26,0,0,22-22,14-26"/>
    <path class="cls-2" d="M88.14,43.09s6.09-20.42,12.72-14.33-12.72,14.33-12.72,14.33Z"/>
    <path class="cls-2" d="M29.52,40.81s-6.09-20.42-12.72-14.33c-6.63,6.09,12.72,14.33,12.72,14.33Z"/>
    <path class="cls-2" d="M24.42,50.1s-21.28-1.2-17.8,7.1c3.48,8.3,17.8-7.1,17.8-7.1Z"/>
    <path class="cls-2" d="M95.06,54s21.28-1.2,17.8,7.1-17.8-7.1-17.8-7.1Z"/>
    <path class="cls-2" d="M76.24,59s-18.99,9.68-11.8,15.09c7.19,5.42,11.8-15.09,11.8-15.09Z"/>
    <path class="cls-2" d="M36.22,59.05s18.99,9.68,11.8,15.09-11.8-15.09-11.8-15.09Z"/>
    <circle class="cls-1" cx="34.25" cy="50.25" r="6.25"/>
    <circle class="cls-1" cx="84.23" cy="51.91" r="6.25"/>
    <ellipse class="cls-1" cx="57" cy="101.5" rx="7" ry="4.5"/>
    <path class="cls-4" d="M82,60c-2.53,1.12-3.49,4.18-5,9-1.63,5.19-3,9.57-1,14,2.3,5.09,8.77,9.59,15,8,7.18-1.84,10-10.76,9-17-1.54-9.58-12.65-16.38-18-14Z"/>
    <path class="cls-4" d="M26,59c2.8-1.41,4.08-1.47,5-1,1.75.9,2.08,3.7,2,9-.16,11.11-.24,16.67-3,19-3.77,3.19-10.91,3.77-15,0-4.78-4.4-2.54-12.13-2-14,2.18-7.53,8.66-10.81,13-13Z"/>
  </g>
</svg>