<?xml version="1.0" encoding="UTF-8"?>
<svg id="Layer_2" xmlns="http://www.w3.org/2000/svg" viewBox="0 0 115 115">
  <defs>
    <style>
      .cls-1 {
        fill: #fff;
      }

      .cls-2 {
        fill: #8ecee6;
      }

      .cls-3 {
        fill: #f9f15d;
      }

      .cls-4 {
        fill: #fca72b;
      }

      .cls-5 {
        fill: none;
        stroke: #c8c3b1;
        stroke-miterlimit: 10;
        stroke-width: 3px;
      }
    </style>
  </defs>
  <g id="aquarelle_emojis">
    <circle class="cls-3" cx="57.5" cy="57.5" r="57.5"/>
    <path class="cls-1" d="M34.5,24.5s-13.49,23.58-2.74,22.29,22.67-2.74,29.21-1.02,17.54,6.72,24.54,4.72,17.1-7.72,2.05-6.36-9.05-15.64-5.05-17.64,5-9-2-6-8.1,6.78-21.3,6.64-24.7-2.64-24.7-2.64Z"/>
    <path class="cls-5" d="M28.5,72.5s17.53,15,43.77,15"/>
    <path class="cls-2" d="M37,25s11.15,2,10.07,5-9.07,11-12.07,12-2,4,5,2,13.75-5.26,23.37-1.63,17.63,5.63,22.63,3.63,2-2-4-2-17.09-5-8.54-14,2.03-6-2.21-5-14.48,3.43-20.86,1.71-13.38-1.71-13.38-1.71Z"/>
    <path class="cls-4" d="M24,42s10,0,16-5,10.65-8.67-2.18-11.84-18.82,2.84-18.82,7.84,0,7,5,9Z"/>
    <path class="cls-4" d="M75.77,27.42s10.73-2.92,15.73,1.08,5,4,1,8-9.99,8.84-15.99,6.42-9.46-8.57-.74-15.5Z"/>
  </g>
</svg>