<?xml version="1.0" encoding="UTF-8"?>
<svg id="Layer_2" xmlns="http://www.w3.org/2000/svg" viewBox="0 0 115 115">
  <defs>
    <style>
      .cls-1 {
        fill: none;
        stroke: #7c7b7f;
        stroke-miterlimit: 10;
        stroke-width: 3px;
      }

      .cls-2 {
        fill: #d0bdff;
      }

      .cls-3 {
        fill: #8d9efc;
      }

      .cls-4 {
        fill: #ff5793;
      }
    </style>
  </defs>
  <g id="aquarelle_emojis">
    <g>
      <circle class="cls-2" cx="57.5" cy="57.5" r="57.5"/>
      <ellipse class="cls-3" cx="58.67" cy="59.24" rx="52.06" ry="53.74"/>
      <path class="cls-4" d="M55,69s21.5,11.34,14.75,18.67c-6.75,7.33-14.75,2.3-14.75,2.3,0,0-19.6,9.33-16.3-3.32s16.3-17.65,16.3-17.65Z"/>
      <path class="cls-1" d="M47.87,43.87c-5.61-5.61-14.69-5.61-20.3,0-4.48,4.48-4.48,11.75,0,16.24,3.59,3.59,9.4,3.59,12.99,0,2.87-2.87,2.87-7.52,0-10.39-2.3-2.3-6.02-2.3-8.31,0-1.84,1.84-1.84,4.81,0,6.65,1.47,1.47,3.85,1.47,5.32,0"/>
      <path class="cls-1" d="M67.5,43.91c5.61-5.61,14.69-5.61,20.3,0,4.48,4.48,4.48,11.75,0,16.24-3.59,3.59-9.4,3.59-12.99,0-2.87-2.87-2.87-7.52,0-10.39,2.3-2.3,6.02-2.3,8.31,0,1.84,1.84,1.84,4.81,0,6.65-1.47,1.47-3.85,1.47-5.32,0"/>
    </g>
  </g>
</svg>