<?xml version="1.0" encoding="UTF-8"?>
<svg id="Layer_2" xmlns="http://www.w3.org/2000/svg" viewBox="0 0 115 115">
  <defs>
    <style>
      .cls-1, .cls-2 {
        fill: none;
      }

      .cls-3 {
        fill: #232321;
      }

      .cls-2 {
        stroke: #232321;
        stroke-miterlimit: 10;
        stroke-width: 4px;
      }

      .cls-4 {
        fill: #e3fffe;
      }

      .cls-5 {
        fill: #e92047;
      }
    </style>
  </defs>
  <g id="all">
    <g>
      <circle class="cls-4" cx="57.5" cy="57.5" r="57.5"/>
      <circle class="cls-5" cx="74.24" cy="100" r="8"/>
      <circle class="cls-5" cx="40.24" cy="26" r="8"/>
      <path class="cls-2" d="M19.24,62c.72,2.73,2.85,9.31,9,15,6.75,6.23,14.26,7.63,17,8"/>
      <circle class="cls-4" cx="58.42" cy="26.33" r="6.5"/>
      <circle class="cls-3" cx="81.42" cy="84.33" r="6.5"/>
      <g>
        <path class="cls-1" d="M106.28,87.34c-.35-.09,2.94-7.65,0-15.22-3.13-8.06-11.56-11.62-13.32-12.37-5.67-2.4-10.63-2.19-16.17-1.9-11.2.59-13.09,3.73-19.98,3.8-9.97.1-19.58-6.35-24.73-13.32-8.57-11.58-8.15-29.04,1.49-43.12C13.76,14.3,0,34.29,0,57.5c0,31.76,25.74,57.5,57.5,57.5,21.07,0,39.48-11.34,49.5-28.24-.34.41-.6.62-.72.58Z"/>
        <path class="cls-3" d="M32.08,48.34c5.16,6.96,14.76,13.42,24.73,13.32,6.88-.07,8.78-3.22,19.98-3.8,5.54-.29,10.5-.5,16.17,1.9,1.75.74,10.19,4.31,13.32,12.37,2.94,7.57-.35,15.13,0,15.22.12.03.38-.17.72-.58,5.08-8.57,8-18.57,8-29.26C115,25.74,89.26,0,57.5,0c-8.54,0-16.64,1.88-23.93,5.22-9.64,14.08-10.06,31.55-1.49,43.12Z"/>
      </g>
      <circle class="cls-4" cx="46.16" cy="23.04" r="6.5"/>
    </g>
  </g>
</svg>