<?xml version="1.0" encoding="UTF-8"?>
<svg id="Layer_2" xmlns="http://www.w3.org/2000/svg" viewBox="0 0 118 118">
  <defs>
    <style>
      .cls-1 {
        stroke: #e92047;
      }

      .cls-1, .cls-2 {
        fill: none;
        stroke-miterlimit: 10;
        stroke-width: 4px;
      }

      .cls-3 {
        fill: #232321;
      }

      .cls-4 {
        fill: #61d9d8;
      }

      .cls-2 {
        stroke: #232321;
      }

      .cls-5 {
        fill: #e3fffe;
      }
    </style>
  </defs>
  <g id="stylo_emojis">
    <g>
      <circle class="cls-4" cx="59" cy="59" r="59"/>
      <path class="cls-5" d="M113.83,59.03c-19.33,9.49-41.3,4.34-49.08-11.49-7.13-14.52.16-32.97,16.31-43.26-6.82-2.75-14.26-4.28-22.07-4.28-11.47,0-22.16,3.28-31.21,8.94,18.32,9.79,27.01,29.67,19.44,45.09-7.46,15.2-27.99,20.54-46.72,12.56,3.73,28.99,28.49,51.41,58.5,51.41,32.58,0,59-26.42,59-59,0-.75-.03-1.5-.06-2.25-1.31.81-2.68,1.58-4.11,2.28Z"/>
      <ellipse class="cls-3" cx="78.04" cy="43.29" rx="4.96" ry="6.79"/>
      <ellipse class="cls-3" cx="37.96" cy="44.27" rx="4.96" ry="6.79"/>
      <line class="cls-2" x1="34" y1="86" x2="92" y2="86"/>
      <polyline class="cls-1" points="62 86 73.08 98.69 71.89 106"/>
      <line class="cls-1" x1="81" y1="101" x2="73.08" y2="98.69"/>
    </g>
  </g>
</svg>