<?xml version="1.0" encoding="UTF-8"?>
<svg id="Layer_2" xmlns="http://www.w3.org/2000/svg" viewBox="0 0 119 119">
  <defs>
    <style>
      .cls-1 {
        stroke: #fd8b53;
      }

      .cls-1, .cls-2 {
        stroke-width: 5px;
      }

      .cls-1, .cls-2, .cls-3 {
        fill: none;
        stroke-miterlimit: 10;
      }

      .cls-2 {
        stroke: #1f32c4;
      }

      .cls-4 {
        fill: #1f32c4;
      }

      .cls-3 {
        stroke: #ff8652;
        stroke-width: 4px;
      }
    </style>
  </defs>
  <g id="feutre_emojis">
    <circle class="cls-3" cx="59.5" cy="59.5" r="57.5"/>
    <line class="cls-1" x1="48" y1="32" x2="49" y2="15"/>
    <line class="cls-1" x1="67" y1="33" x2="72" y2="17"/>
    <line class="cls-1" x1="85" y1="38" x2="96" y2="31"/>
    <line class="cls-1" x1="94" y1="55" x2="108" y2="53"/>
    <line class="cls-1" x1="89" y1="72" x2="105" y2="79"/>
    <line class="cls-1" x1="84" y1="85" x2="92" y2="98"/>
    <line class="cls-1" x1="68" y1="93" x2="70" y2="105"/>
    <line class="cls-1" x1="51" y1="95" x2="44" y2="108"/>
    <line class="cls-1" x1="40" y1="88" x2="27" y2="94"/>
    <line class="cls-1" x1="29" y1="73" x2="16" y2="75"/>
    <line class="cls-1" x1="26" y1="55" x2="13" y2="54"/>
    <line class="cls-1" x1="37" y1="40" x2="26" y2="28"/>
    <line class="cls-2" x1="53" y1="79" x2="72" y2="79"/>
    <circle class="cls-4" cx="50.75" cy="52.75" r="3.75"/>
    <circle class="cls-4" cx="70.16" cy="53.18" r="3.75"/>
  </g>
</svg>