<?xml version="1.0" encoding="UTF-8"?>
<svg id="Layer_2" xmlns="http://www.w3.org/2000/svg" viewBox="0 0 115 116.45">
  <defs>
    <style>
      .cls-1 {
        fill: #18d4e8;
      }

      .cls-2 {
        fill: #ff7dd7;
      }

      .cls-3, .cls-4 {
        fill: none;
      }

      .cls-5 {
        fill: #4420a1;
      }

      .cls-4 {
        stroke: #4420a1;
        stroke-miterlimit: 10;
        stroke-width: 4px;
      }
    </style>
  </defs>
  <g id="feutre_emojis">
    <g>
      <circle class="cls-2" cx="57.5" cy="57.5" r="57.5"/>
      <path class="cls-4" d="M21.5,57.5c-8.53-5.41-10.25-16.12-6-22,4.53-6.28,16.34-7.74,24,0"/>
      <path class="cls-4" d="M91.34,58.52c8.53-5.41,10.25-16.12,6-22-4.53-6.28-16.34-7.74-24,0"/>
      <circle class="cls-1" cx="35" cy="51" r="8.5"/>
      <circle class="cls-1" cx="78" cy="49" r="8.5"/>
      <g>
        <rect class="cls-3" x="3.32" y="75.08" width="50.92" height="25.9" transform="translate(-63.71 92.88) rotate(-74.9)"/>
        <polygon class="cls-5" points="42.07 88.48 38.74 75.97 35.41 63.45 26.24 72.59 17.06 81.74 23.43 83.45 20.59 93.99 32.86 97.3 35.7 86.77 42.07 88.48"/>
      </g>
      <g>
        <rect class="cls-3" x="69.66" y="63.04" width="25.9" height="50.92" transform="translate(-20.2 24.58) rotate(-15.1)"/>
        <polygon class="cls-5" points="69.32 88.95 72.65 76.44 75.97 63.92 85.15 73.06 94.32 82.2 87.95 83.92 90.79 94.45 78.52 97.77 75.68 87.23 69.32 88.95"/>
      </g>
    </g>
  </g>
</svg>