<?xml version="1.0" encoding="UTF-8"?>
<svg id="Layer_2" xmlns="http://www.w3.org/2000/svg" viewBox="0 0 118 118">
  <defs>
    <style>
      .cls-1 {
        stroke: #ce0033;
      }

      .cls-1, .cls-2, .cls-3 {
        fill: none;
        stroke-miterlimit: 10;
        stroke-width: 3px;
      }

      .cls-2 {
        stroke: #a80e3f;
      }

      .cls-3 {
        stroke: #e02e6e;
      }

      .cls-4 {
        fill: #f16ff5;
      }
    </style>
  </defs>
  <g id="stylo_emojis">
    <circle class="cls-1" cx="59" cy="59" r="57.5"/>
    <path class="cls-3" d="M21.5,17.5c-2.49,9.17-1.95,11.52-1,12,2.92,1.47,12.06-13.76,16-12,3.21,1.43-.03,12.83,3,14,3.18,1.23,9.77-10.14,12-9,2.07,1.05-2.53,11.35,1,14,1.31.99,3.33.59,5,0"/>
    <path class="cls-3" d="M69.5,37.5c1.03-8.26,2.35-14.97,4-15,2.04-.04,3.65,10.18,5,10,1.57-.21-.21-14.03,3-15,2.95-.89,7.75,9.81,10,9,1.63-.59.88-6.84,0-12"/>
    <path class="cls-3" d="M8.5,56.5c1.77-1.66,4.42-3.79,6-3,3.2,1.59-.87,13.69,2,15,2.84,1.29,9-9.51,13-8,2.86,1.08,2.46,7.64,5,8,1.15.16,2.27-1.03,3-2"/>
    <path class="cls-3" d="M82.5,62.5c.84-3.52,2.1-6.77,4-7,2.67-.32,4.78,5.52,7,5,2.36-.56,1.84-7.59,4-8,1.99-.38,3.75,5.3,6,5,2.48-.33,2.46-7.54,5-8,1.41-.25,3.13,1.68,5,5"/>
    <circle class="cls-4" cx="91.25" cy="40.25" r="7.25"/>
    <circle class="cls-4" cx="31.47" cy="47.79" r="7.25"/>
    <path class="cls-2" d="M35,91c4.01-13.08,8.56-16.41,12-17,6.23-1.07,10.26,6.56,17,5,6.33-1.47,6.85-9.14,12-10,3.24-.54,8.27,1.61,16,14"/>
  </g>
</svg>