<?xml version="1.0" encoding="UTF-8"?>
<svg id="Layer_2" xmlns="http://www.w3.org/2000/svg" viewBox="0 0 115 115">
  <defs>
    <style>
      .cls-1 {
        fill: #18d4e8;
      }

      .cls-2 {
        stroke: #61d9d8;
      }

      .cls-2, .cls-3 {
        fill: none;
        stroke-miterlimit: 10;
        stroke-width: 4px;
      }

      .cls-3 {
        stroke: #232321;
      }

      .cls-4 {
        fill: #4420a1;
      }

      .cls-5 {
        fill: #e92047;
      }
    </style>
  </defs>
  <g id="all">
    <g>
      <circle class="cls-4" cx="57.5" cy="57.5" r="57.5"/>
      <polyline class="cls-3" points="10.03 57.5 28 21 28 40.82 42 25 36 56 55 29 51 54 72 29 71 52 85 28 97 46 96 29 108.07 39.25"/>
      <polyline class="cls-2" points="37.61 7 34.8 16.28 49 5 47.05 21 61.1 7 57.5 22.5 73 10 67 25.5 80 14 86.37 21 86 13"/>
      <path class="cls-1" d="M79.83,94.56l-51.08,3.13c-4.96.38-9.29-3.3-9.68-8.26h0c-.39-4.97,3.31-9.08,8.26-9.14l51.08.21c4.96.1,9.29,3.22,9.68,6.95h0c.39,3.71-3.31,6.88-8.26,7.1Z"/>
      <circle class="cls-5" cx="85.68" cy="50.83" r="6.5"/>
      <circle class="cls-5" cx="24.68" cy="53.83" r="6.5"/>
    </g>
  </g>
</svg>