<?xml version="1.0" encoding="UTF-8"?>
<svg id="Layer_2" xmlns="http://www.w3.org/2000/svg" viewBox="0 0 115 115">
  <defs>
    <style>
      .cls-1 {
        fill: #e3fffe;
      }

      .cls-1, .cls-2 {
        stroke: #61d9d8;
      }

      .cls-1, .cls-2, .cls-3 {
        stroke-miterlimit: 10;
        stroke-width: 3px;
      }

      .cls-4 {
        fill: #ff8e50;
      }

      .cls-2 {
        fill: #fff;
      }

      .cls-5 {
        fill: #18d4e8;
      }

      .cls-6 {
        fill: #ff5793;
      }

      .cls-3 {
        fill: none;
        stroke: #e92047;
      }

      .cls-7 {
        fill: #e92047;
      }
    </style>
  </defs>
  <g id="stylo_emojis">
    <g>
      <circle class="cls-4" cx="57.5" cy="57.5" r="57.5"/>
      <ellipse class="cls-5" cx="31.18" cy="31.31" rx="13.75" ry="17.5" transform="translate(-10.9 44.79) rotate(-62.88)"/>
      <ellipse class="cls-5" cx="84" cy="29.75" rx="17.5" ry="13.75" transform="translate(-5.08 27.23) rotate(-17.88)"/>
      <ellipse class="cls-1" cx="86.5" cy="37" rx="8" ry="6.5" transform="translate(-5.07 15.39) rotate(-9.88)"/>
      <ellipse class="cls-1" cx="29.18" cy="38.31" rx="6.5" ry="8" transform="translate(-11.6 63.92) rotate(-84.83)"/>
      <line class="cls-2" x1="67" y1="18" x2="70.85" y2="22.27"/>
      <line class="cls-2" x1="77" y1="11" x2="79.17" y2="16.87"/>
      <line class="cls-2" x1="86.99" y1="11" x2="86.99" y2="15.61"/>
      <line class="cls-2" x1="45.12" y1="16.87" x2="42.11" y2="22.27"/>
      <line class="cls-2" x1="38" y1="10" x2="35.01" y2="18"/>
      <line class="cls-2" x1="28.01" y1="11" x2="27.5" y2="16.71"/>
      <path class="cls-3" d="M83,50s15,6,23-8"/>
      <path class="cls-3" d="M12.95,42.68s6.36,14.85,21.92,10.61"/>
      <path class="cls-3" d="M93,58s10,0,16-8"/>
      <path class="cls-3" d="M10.23,51.96s5.91,8.07,15.91,8.18"/>
      <path class="cls-6" d="M79.68,74.07c0-9.15-4.7-16.57-10.5-16.57-4.79,0-8.83,5.07-10.09,12-1.25-6.92-5.29-12-10.09-12-5.8,0-10.5,7.39-10.5,16.5,0,5.4,1.66,10.18,4.21,13.19.02.02.04.04.06.07.23.27.46.52.7.75.14.14.28.27.43.41.06.05.11.1.17.15,3.36,2.99,8.79,4.94,14.93,4.94,5.09,0,9.69-1.33,13.04-3.49,4.41-1.96,7.65-8.35,7.65-15.94Z"/>
      <ellipse class="cls-7" cx="59" cy="77" rx="14.5" ry="5.5"/>
    </g>
  </g>
</svg>