<?xml version="1.0" encoding="UTF-8"?>
<svg id="Layer_2" xmlns="http://www.w3.org/2000/svg" viewBox="0 0 115 115">
  <defs>
    <style>
      .cls-1 {
        fill: none;
      }

      .cls-1, .cls-2 {
        stroke: #4420a1;
        stroke-miterlimit: 10;
        stroke-width: 5px;
      }

      .cls-2 {
        fill: #e3fffe;
      }

      .cls-3 {
        fill: #079e8b;
      }

      .cls-4 {
        fill: #38f2a9;
      }

      .cls-5 {
        fill: #c2f4d1;
      }
    </style>
  </defs>
  <g id="feutre_emojis">
    <g>
      <circle class="cls-3" cx="57.5" cy="57.5" r="57.5"/>
      <path class="cls-5" d="M35.59,49.97c-.03-.33-.07-.66-.14-.99-.93-4.32-5.18-7.07-9.5-6.14s-7.07,5.18-6.14,9.5c.86,3.99,4.55,6.63,8.51,6.28v.07s19.57-4.21,19.57-4.21l-1.47-6.84-10.82,2.33Z"/>
      <path class="cls-5" d="M78.81,39.96c-.1-.31-.2-.63-.26-.97-.87-4.33,1.94-8.55,6.28-9.41s8.55,1.94,9.41,6.28c.8,4-1.54,7.89-5.31,9.15v.07s-19.6,3.92-19.6,3.92l-1.37-6.86,10.85-2.17Z"/>
      <rect class="cls-4" x="19.44" y="18.72" width="61.9" height="15" transform="translate(-3.5 8.25) rotate(-9.05)"/>
      <polygon class="cls-2" points="43.5 70.5 81.5 64.5 89.5 90.5 31.5 95.5 43.5 70.5"/>
      <line class="cls-1" x1="54" y1="69" x2="50" y2="94"/>
      <line class="cls-1" x1="70" y1="66" x2="68" y2="93"/>
      <line class="cls-1" x1="38" y1="83" x2="86" y2="78"/>
    </g>
  </g>
</svg>