<?xml version="1.0" encoding="UTF-8"?>
<svg id="Layer_2" xmlns="http://www.w3.org/2000/svg" viewBox="0 0 118 118">
  <defs>
    <style>
      .cls-1 {
        fill: #ca054b;
      }

      .cls-2 {
        stroke: #ca054b;
      }

      .cls-2, .cls-3, .cls-4, .cls-5 {
        fill: none;
        stroke-miterlimit: 10;
      }

      .cls-2, .cls-3, .cls-5 {
        stroke-width: 3px;
      }

      .cls-3 {
        stroke: #9d083a;
      }

      .cls-4 {
        stroke: #f880f9;
        stroke-width: 7px;
      }

      .cls-5 {
        stroke: #3929a6;
      }
    </style>
  </defs>
  <g id="stylo_emojis">
    <circle class="cls-3" cx="59" cy="59" r="57.5"/>
    <path class="cls-4" d="M28.5,17.5c-.54,10.39,1.8,13.8,4,15,4.89,2.67,11.92-3.93,16-1,2.63,1.89,2.46,6.61,2,10"/>
    <path class="cls-4" d="M73.5,13.5c-1.04,14.28,1.3,18.83,4,20,4.79,2.07,11.15-6.35,17-4,3.75,1.5,5.29,6.62,6,11"/>
    <circle class="cls-1" cx="22.5" cy="55.25" r="6.75"/>
    <circle class="cls-1" cx="68.55" cy="57.09" r="6.75"/>
    <path class="cls-2" d="M18.93,37.31c1.58,6.98,4.4,9.56,6.58,10.66,4.25,2.15,8.22-.26,12.14,2.35,2.92,1.94,3.97,5.42,4.42,7.77"/>
    <path class="cls-2" d="M63.98,39.06c1.58,6.98,4.4,9.56,6.58,10.66,4.25,2.15,8.22-.26,12.14,2.35,2.92,1.94,3.97,5.42,4.42,7.77"/>
    <path class="cls-5" d="M33,85c6.28,9.28,13.25,11.18,18.24,11.32,9.76.28,16.96-6.02,26.24-4.84,6.89.88,10.58,5.33,12.52,8.51"/>
  </g>
</svg>