<?xml version="1.0" encoding="UTF-8"?>
<svg id="Layer_2" xmlns="http://www.w3.org/2000/svg" viewBox="0 0 115 115">
  <defs>
    <style>
      .cls-1 {
        stroke: #e92047;
      }

      .cls-1, .cls-2 {
        stroke-width: 4px;
      }

      .cls-1, .cls-2, .cls-3 {
        fill: none;
        stroke-miterlimit: 10;
      }

      .cls-4 {
        fill: #18d4e8;
      }

      .cls-2 {
        stroke: #2d25a7;
      }

      .cls-3 {
        stroke: #ff7dd7;
        stroke-width: 7px;
      }

      .cls-5 {
        fill: #e92047;
      }
    </style>
  </defs>
  <g id="all">
    <g>
      <circle class="cls-4" cx="57.5" cy="57.5" r="57.5"/>
      <path class="cls-3" d="M27,16c-.54,10.39,1.8,13.8,4,15,4.89,2.67,11.92-3.93,16-1,2.63,1.89,2.46,6.61,2,10"/>
      <path class="cls-3" d="M72,12c-1.04,14.28,1.3,18.83,4,20,4.79,2.07,11.15-6.35,17-4,3.75,1.5,5.29,6.62,6,11"/>
      <path class="cls-1" d="M17.43,35.81c1.58,6.98,4.4,9.56,6.58,10.66,4.25,2.15,8.22-.26,12.14,2.35,2.92,1.94,3.97,5.42,4.42,7.77"/>
      <path class="cls-1" d="M62.48,37.56c1.58,6.98,4.4,9.56,6.58,10.66,4.25,2.15,8.22-.26,12.14,2.35,2.92,1.94,3.97,5.42,4.42,7.77"/>
      <path class="cls-2" d="M31.5,83.5c6.28,9.28,13.25,11.18,18.24,11.32,9.76.28,16.96-6.02,26.24-4.84,6.89.88,10.58,5.33,12.52,8.51"/>
      <circle class="cls-5" cx="68.68" cy="54.83" r="6.5"/>
      <circle class="cls-5" cx="21.68" cy="52.83" r="6.5"/>
    </g>
  </g>
</svg>