<?xml version="1.0" encoding="UTF-8"?>
<svg id="Layer_2" xmlns="http://www.w3.org/2000/svg" viewBox="0 0 115 115">
  <defs>
    <style>
      .cls-1 {
        fill: none;
        stroke: #d0bdff;
        stroke-miterlimit: 10;
        stroke-width: 3px;
      }

      .cls-2 {
        fill: #2d25a7;
      }

      .cls-3 {
        fill: #5d72f8;
      }

      .cls-4 {
        fill: #61d9d8;
      }

      .cls-5 {
        fill: #4420a1;
      }
    </style>
  </defs>
  <g id="stylo_emojis">
    <g>
      <circle class="cls-4" cx="57.5" cy="57.5" r="57.5"/>
      <path class="cls-1" d="M76,39s-22-22-14-26,14,26,14,26Z"/>
      <path class="cls-1" d="M51.78,13.11c-8-4-14,26-14,26,0,0,22-22,14-26"/>
      <path class="cls-1" d="M86.64,41.59s6.09-20.42,12.72-14.33-12.72,14.33-12.72,14.33Z"/>
      <path class="cls-1" d="M28.02,39.31s-6.09-20.42-12.72-14.33c-6.63,6.09,12.72,14.33,12.72,14.33Z"/>
      <path class="cls-1" d="M22.92,48.6s-21.28-1.2-17.8,7.1c3.48,8.3,17.8-7.1,17.8-7.1Z"/>
      <path class="cls-1" d="M93.56,52.5s21.28-1.2,17.8,7.1-17.8-7.1-17.8-7.1Z"/>
      <path class="cls-1" d="M74.74,57.5s-18.99,9.68-11.8,15.09c7.19,5.42,11.8-15.09,11.8-15.09Z"/>
      <path class="cls-1" d="M34.72,57.55s18.99,9.68,11.8,15.09-11.8-15.09-11.8-15.09Z"/>
      <circle class="cls-5" cx="32.75" cy="48.75" r="6.25"/>
      <circle class="cls-5" cx="82.73" cy="50.41" r="6.25"/>
      <ellipse class="cls-2" cx="55.5" cy="100" rx="7" ry="4.5"/>
      <path class="cls-3" d="M80.5,58.5c-2.53,1.12-3.49,4.18-5,9-1.63,5.19-3,9.57-1,14,2.3,5.09,8.77,9.59,15,8,7.18-1.84,10-10.76,9-17-1.54-9.58-12.65-16.38-18-14Z"/>
      <path class="cls-3" d="M24.5,57.5c2.8-1.41,4.08-1.47,5-1,1.75.9,2.08,3.7,2,9-.16,11.11-.24,16.67-3,19-3.77,3.19-10.91,3.77-15,0-4.78-4.4-2.54-12.13-2-14,2.18-7.53,8.66-10.81,13-13Z"/>
    </g>
  </g>
</svg>