<?xml version="1.0" encoding="UTF-8"?>
<svg id="Layer_2" xmlns="http://www.w3.org/2000/svg" viewBox="0 0 119 119">
  <defs>
    <style>
      .cls-1 {
        fill: #36ce3e;
      }

      .cls-2 {
        fill: #0fbcf5;
      }

      .cls-3 {
        fill: none;
        stroke: #f3e54e;
        stroke-miterlimit: 10;
        stroke-width: 4px;
      }
    </style>
  </defs>
  <g id="feutre_emojis">
    <circle class="cls-3" cx="59.5" cy="59.5" r="57.5"/>
    <path class="cls-2" d="M17.5,48.5h25.7s6.3-7,.3-12-11-2-11-2c0,0,2-9-5-9s-6,8-6,8c0,0-9,1-8,8s4,7,4,7Z"/>
    <path class="cls-2" d="M63.5,49.5h39s4-7,1-11-11-4-11-4c0,0-2.64-10-10.32-11s-11.68,7-11.68,10c-3,0-10,1-10,7s3,9,3,9Z"/>
    <polygon class="cls-1" points="24.04 78.58 41.81 104.5 91.22 57.5 43.73 90.58 24.04 78.58"/>
  </g>
</svg>