<?xml version="1.0" encoding="UTF-8"?>
<svg id="Layer_2" xmlns="http://www.w3.org/2000/svg" viewBox="0 0 116 116">
  <defs>
    <style>
      .cls-1 {
        fill: #079e8b;
      }

      .cls-1, .cls-2 {
        stroke: #079e8b;
        stroke-miterlimit: 10;
      }

      .cls-3 {
        fill: #7c7b7f;
      }

      .cls-4 {
        fill: #38f2a9;
      }

      .cls-2 {
        fill: none;
        stroke-width: 4px;
      }
    </style>
  </defs>
  <g id="feutre_emojis">
    <g>
      <circle class="cls-1" cx="58" cy="58" r="57.5"/>
      <ellipse class="cls-4" cx="33.92" cy="44.73" rx="15.34" ry="30.16" transform="translate(-21.69 37.09) rotate(-45)"/>
      <ellipse class="cls-4" cx="82.15" cy="44.23" rx="30.16" ry="15.34" transform="translate(-7.22 71.04) rotate(-45)"/>
      <line class="cls-2" x1="13" y1="23" x2="56" y2="67"/>
      <line class="cls-2" x1="44" y1="54" x2="21" y2="55"/>
      <line class="cls-2" x1="49" y1="31" x2="44" y2="54"/>
      <line class="cls-2" x1="35" y1="21" x2="34" y2="44"/>
      <line class="cls-2" x1="5" y1="42" x2="34" y2="44"/>
      <line class="cls-2" x1="104" y1="23" x2="55" y2="72"/>
      <line class="cls-2" x1="60" y1="31" x2="68" y2="58"/>
      <line class="cls-2" x1="74" y1="24" x2="80" y2="46"/>
      <line class="cls-2" x1="99" y1="66" x2="68" y2="58"/>
      <line class="cls-2" x1="107" y1="54" x2="80" y2="46"/>
      <line class="cls-2" x1="87" y1="17" x2="90" y2="38"/>
      <line class="cls-2" x1="109" y1="46" x2="88" y2="37"/>
      <line class="cls-2" x1="25" y1="17" x2="25" y2="35"/>
      <line class="cls-2" x1="6" y1="34" x2="25" y2="35"/>
      <rect class="cls-3" x="36" y="89" width="42" height="12"/>
    </g>
  </g>
</svg>