<?xml version="1.0" encoding="UTF-8"?>
<svg id="Layer_2" xmlns="http://www.w3.org/2000/svg" viewBox="0 0 115 115">
  <defs>
    <style>
      .cls-1 {
        fill: #ffbd6e;
      }

      .cls-2 {
        fill: none;
        stroke: #61d9d8;
        stroke-width: 6px;
      }

      .cls-2, .cls-3 {
        stroke-miterlimit: 10;
      }

      .cls-3 {
        fill: #e3fffe;
        stroke: #f45b49;
        stroke-width: 4px;
      }
    </style>
  </defs>
  <g id="aquarelle_emojis">
    <g>
      <circle class="cls-1" cx="57.5" cy="57.5" r="57.5"/>
      <ellipse class="cls-3" cx="47" cy="32" rx="10.5" ry="6.5"/>
      <ellipse class="cls-3" cx="26.5" cy="30" rx="9" ry="6.5"/>
      <ellipse class="cls-3" cx="32.5" cy="21" rx="6.5" ry="9" transform="translate(-4.51 9.7) rotate(-15.89)"/>
      <ellipse class="cls-3" cx="38.38" cy="41.44" rx="6.5" ry="10.8" transform="translate(-9.88 12.09) rotate(-15.89)"/>
      <ellipse class="cls-3" cx="42.88" cy="19.71" rx="10.8" ry="6.5" transform="translate(5.35 48.32) rotate(-62)"/>
      <ellipse class="cls-3" cx="81.5" cy="40.5" rx="6.5" ry="7.5" transform="translate(-4.77 69.49) rotate(-45)"/>
      <ellipse class="cls-3" cx="69.79" cy="22.94" rx="5.87" ry="7.85" transform="translate(-3.61 19.98) rotate(-15.89)"/>
      <ellipse class="cls-3" cx="79.32" cy="26.57" rx="8.56" ry="6.76" transform="translate(.2 53.73) rotate(-37.47)"/>
      <ellipse class="cls-3" cx="66.25" cy="34.06" rx="6.99" ry="4.62" transform="translate(-7.05 47.32) rotate(-37.47)"/>
      <ellipse class="cls-3" cx="67.91" cy="44.1" rx="10.65" ry="4.62" transform="translate(1.25 90.06) rotate(-67.58)"/>
      <path class="cls-2" d="M22,43s-5,45.47,35.5,50.73c40.5,5.27,44.68-49.64,44.68-49.64"/>
    </g>
  </g>
</svg>