<?xml version="1.0" encoding="UTF-8"?>
<svg id="Layer_2" xmlns="http://www.w3.org/2000/svg" viewBox="0 0 120.99 120.87">
  <defs>
    <style>
      .cls-1 {
        fill: #18d4e8;
      }

      .cls-2 {
        stroke: #ff7dd7;
        stroke-width: 6px;
      }

      .cls-2, .cls-3 {
        fill: none;
        stroke-miterlimit: 10;
      }

      .cls-4 {
        fill: #e3fffe;
      }

      .cls-3 {
        stroke: #e92047;
        stroke-width: 5px;
      }

      .cls-5 {
        fill: #e92047;
      }
    </style>
  </defs>
  <g id="feutre_emojis">
    <g>
      <circle class="cls-1" cx="61.11" cy="59.88" r="59.88"/>
      <path class="cls-4" d="M82.9,79.22l-35.97-6.16L8.04,46.89l-2.47-.5s-2.55,4.48-2.61,17.48c-.06,13,10.86,31.05,16.92,37.48,6.06,6.43,5.89,6.62,22.92,14.14,17.03,7.52,25.92,3.67,46.96-5.24,19.68-8.33,23.66-28.98,24.1-31.62.03-.18.04-.28.04-.28l-31,.86Z"/>
      <path class="cls-5" d="M40.11,27.05s-5.28-4.02-11.15-.05-9.89,9.96-4.92,14.98,18.95,12.08,18.95,12.08c0,0,14.07-16.94,15.1-22.93s-2.95-11.01-7.95-11.03-10.01,2.96-10.03,6.96Z"/>
      <path class="cls-5" d="M88.94,33.22s6.24-2.27,10.66,3.27c4.42,5.54,6.48,12.45.23,15.76s-21.69,5.89-21.69,5.89c0,0-8.39-20.36-7.59-26.39s6.1-9.63,10.88-8.17,8.68,5.8,7.5,9.63Z"/>
      <path class="cls-2" d="M2.23,62.57c6.62,7.39,24.34,25.17,53.2,32.23,22.9,5.61,41.94,1.82,51.4-.78"/>
      <path class="cls-2" d="M18.33,96.44c3.23-2.37,9.03-7.32,13.19-15.69,3.11-6.26,4.1-12.02,4.44-15.73"/>
      <path class="cls-2" d="M43.74,116.05c.32-5.17,1.44-13.08,5.33-21.91,3.67-8.33,8.4-14.29,11.85-18.01"/>
      <path class="cls-2" d="M74.91,78.19c-1.2,2.75-3.79,9.53-4.09,19.12-.26,8.46,1.4,14.88,2.32,17.87"/>
      <path class="cls-2" d="M92.9,80.26c-.66,2.26-2,7.75-1.06,14.66.95,7.02,3.72,11.57,4.94,13.36"/>
      <path class="cls-3" d="M61.31,76.07c-26.11-6.89-44.56-21.69-55.41-32.6-1.72,5.41-2.66,11.17-2.68,17.15-.14,31.76,25.49,57.61,57.25,57.75,26.31.12,48.55-17.47,55.49-41.56-12.43,2.88-31.96,5.24-54.65-.74Z"/>
    </g>
  </g>
</svg>