<?xml version="1.0" encoding="UTF-8"?>
<svg id="Layer_2" xmlns="http://www.w3.org/2000/svg" viewBox="0 0 115.5 115.5">
  <defs>
    <style>
      .cls-1 {
        fill: #ffbd6e;
      }

      .cls-2 {
        fill: #ff7dd7;
      }

      .cls-3 {
        fill: #e3fffe;
      }
    </style>
  </defs>
  <g id="feutre_emojis">
    <g>
      <circle class="cls-1" cx="58" cy="58" r="57.5"/>
      <path class="cls-2" d="M103,31c-3.57,2.44-1.64,6.97-5,12-3.26,4.88-10.78,9.13-18,7-7.56-2.23-12.82-10.86-11-18,1.56-6.14,8.06-10.02,13-11,4.13-.82,6.09.59,8-1,2.32-1.94,1.63-5.86.97-9.24C81.54,4,69.99,0,57.5,0s-23.3,3.74-32.56,10.11c-.44,3.66-2.6,9.66.45,12.22,1.91,1.59,3.87.18,8,1,4.94.98,11.44,4.86,13,11,1.82,7.14-3.44,15.77-11,18-7.22,2.13-14.74-2.12-18-7-3.36-5.03-1.43-9.56-5-12-2.12-1.45-4.62-1.1-6.82-.54-3.57,7.49-5.57,15.86-5.57,24.71,0,31.76,25.74,57.5,57.5,57.5s57.5-25.74,57.5-57.5c0-9.92-2.51-19.25-6.94-27.4-1.71-.25-3.49-.17-5.06.9Z"/>
      <path class="cls-3" d="M95,74.38c4.74,5-9.11,22.85-34,22.92-24.9-.07-38.74-17.92-34-22.92,4.37-5.36,18.8-1.58,34-2,15.2.42,29.63-3.36,34,2Z"/>
    </g>
  </g>
</svg>