<?xml version="1.0" encoding="UTF-8"?>
<svg id="Layer_2" xmlns="http://www.w3.org/2000/svg" viewBox="0 0 115 115">
  <defs>
    <style>
      .cls-1 {
        fill: #305fb9;
      }

      .cls-2 {
        fill: #63be7e;
      }

      .cls-3 {
        fill: #f6f1b3;
      }

      .cls-4 {
        fill: #faf471;
      }
    </style>
  </defs>
  <g id="aquarelle_emojis">
    <circle class="cls-4" cx="57.5" cy="57.5" r="57.5"/>
    <circle class="cls-3" cx="57.5" cy="58.5" r="55"/>
    <polygon class="cls-2" points="49.5 38.5 39.5 38.5 39.5 29.5 29.5 29.5 29.5 38.5 20.5 38.5 20.5 48.5 29.5 48.5 29.5 58.5 39.5 58.5 39.5 48.5 49.5 48.5 49.5 38.5"/>
    <polygon class="cls-2" points="93.5 38.5 83.5 38.5 83.5 29.5 73.5 29.5 73.5 38.5 64.5 38.5 64.5 48.5 73.5 48.5 73.5 58.5 83.5 58.5 83.5 48.5 93.5 48.5 93.5 38.5"/>
    <rect class="cls-1" x="51.5" y="75.5" width="29" height="10"/>
  </g>
</svg>