<?xml version="1.0" encoding="UTF-8"?>
<svg id="Layer_2" xmlns="http://www.w3.org/2000/svg" viewBox="0 0 119 119">
  <defs>
    <style>
      .cls-1 {
        fill: #242acb;
      }

      .cls-2 {
        fill: #0b9de6;
      }

      .cls-3 {
        stroke: #6719c4;
        stroke-width: 5px;
      }

      .cls-3, .cls-4 {
        fill: none;
        stroke-miterlimit: 10;
      }

      .cls-4 {
        stroke: #89ec6b;
        stroke-width: 4px;
      }
    </style>
  </defs>
  <g id="feutre_emojis">
    <circle class="cls-4" cx="59.5" cy="59.5" r="57.5"/>
    <circle class="cls-1" cx="86.5" cy="41.5" r="9"/>
    <circle class="cls-1" cx="20.5" cy="66.5" r="9"/>
    <path class="cls-3" d="M66.5,31.5c-.02-.77-.04-6.88,5-11,4.21-3.44,9.02-3.09,10-3"/>
    <path class="cls-3" d="M11,46c.16-.32,2.26-4.39,7-5,4.7-.61,7.75,2.72,8,3"/>
    <line class="cls-3" x1="40" y1="86" x2="96" y2="97"/>
    <circle class="cls-2" cx="40.25" cy="26.25" r="2.25"/>
    <circle class="cls-2" cx="33.63" cy="30.14" r="2.25"/>
    <circle class="cls-2" cx="22.63" cy="31.14" r="2.25"/>
    <circle class="cls-2" cx="56.63" cy="13.14" r="2.25"/>
    <circle class="cls-2" cx="43.63" cy="39.14" r="2.25"/>
    <circle class="cls-2" cx="60.63" cy="31.14" r="2.25"/>
    <circle class="cls-2" cx="58.63" cy="49.14" r="2.25"/>
    <circle class="cls-2" cx="70.63" cy="41.14" r="2.25"/>
    <circle class="cls-2" cx="14.63" cy="53.56" r="2.25"/>
    <circle class="cls-2" cx="41.63" cy="56.56" r="2.25"/>
    <circle class="cls-2" cx="38.63" cy="68.56" r="2.25"/>
    <circle class="cls-2" cx="22.63" cy="83.56" r="2.25"/>
    <circle class="cls-2" cx="29.63" cy="86.9" r="2.25"/>
    <circle class="cls-2" cx="61.63" cy="66.9" r="2.25"/>
    <circle class="cls-2" cx="69.63" cy="62.9" r="2.25"/>
    <circle class="cls-2" cx="72.63" cy="58.9" r="2.25"/>
    <circle class="cls-2" cx="68.63" cy="77.9" r="2.25"/>
    <circle class="cls-2" cx="91.63" cy="78.9" r="2.25"/>
    <circle class="cls-2" cx="93.84" cy="68.9" r="2.25"/>
    <circle class="cls-2" cx="96.84" cy="57.9" r="2.25"/>
    <circle class="cls-2" cx="105.84" cy="50.9" r="2.25"/>
    <circle class="cls-2" cx="103.84" cy="35.9" r="2.25"/>
    <circle class="cls-2" cx="92.84" cy="25.9" r="2.25"/>
  </g>
</svg>