<?xml version="1.0" encoding="UTF-8"?>
<svg id="Layer_2" xmlns="http://www.w3.org/2000/svg" viewBox="0 0 115 115">
  <defs>
    <style>
      .cls-1 {
        fill: none;
        stroke: #2d25a7;
        stroke-miterlimit: 10;
        stroke-width: 3px;
      }

      .cls-2 {
        fill: #18d4e8;
      }

      .cls-3 {
        fill: #2d25a7;
      }

      .cls-4 {
        fill: #e3fffe;
      }
    </style>
  </defs>
  <g id="all">
    <g>
      <circle class="cls-4" cx="57.5" cy="57.5" r="57.5"/>
      <path class="cls-2" d="M57,114.99c.17,0,.33.01.5.01,31.76,0,57.5-25.74,57.5-57.5S89.26,0,57.5,0c-.17,0-.33.01-.5.01v114.97Z"/>
      <path class="cls-2" d="M18.72,50.51c2.63-1.16,3.79-1.13,4.58-.61,1.51.99,1.59,3.71,1.12,8.8-.98,10.68-1.47,16.01-4.14,18.06-3.64,2.8-10.13,2.85-13.53-1.06-3.97-4.57-1.38-11.84-.75-13.61,2.53-7.09,8.63-9.78,12.7-11.58Z"/>
      <path class="cls-1" d="M34,72c1.99,3.55,5.45,8.32,11,10,7.65,2.32,12.94-3.14,20-1,3.47,1.05,8.12,4.16,12,14"/>
      <circle class="cls-3" cx="39.18" cy="41.33" r="6.5"/>
      <circle class="cls-3" cx="79.18" cy="44.33" r="6.5"/>
    </g>
  </g>
</svg>