<?xml version="1.0" encoding="UTF-8"?>
<svg id="Layer_2" xmlns="http://www.w3.org/2000/svg" viewBox="0 0 118 118">
  <defs>
    <style>
      .cls-1 {
        stroke: #0e0e0e;
        stroke-width: 4px;
      }

      .cls-1, .cls-2 {
        fill: none;
        stroke-miterlimit: 10;
      }

      .cls-3 {
        fill: #fff;
      }

      .cls-4 {
        fill: #df2464;
      }

      .cls-2 {
        stroke: #0c0a0b;
        stroke-width: 3px;
      }
    </style>
  </defs>
  <g id="stylo_emojis">
    <circle class="cls-2" cx="59" cy="59" r="57.5"/>
    <path d="M32.28,6.81c-10.3,14.52-10.85,32.76-1.95,44.78,5.28,7.13,15.11,13.74,25.31,13.63,7.04-.07,8.99-3.29,20.44-3.89,5.67-.3,10.74-.51,16.55,1.95,1.8.76,10.43,4.41,13.63,12.66,3.01,7.75-.36,15.48,0,15.58.98.26,9.89-13.91,9.74-32.13-.19-22-13.5-36.71-15.58-38.94C83.86,2.67,61.97,1.88,55.64,1.94c-10.2.09-18.33,2.76-23.36,4.87Z"/>
    <circle class="cls-2" cx="81.5" cy="84.5" r="7"/>
    <circle class="cls-3" cx="61" cy="28" r="7"/>
    <circle class="cls-4" cx="74" cy="102" r="8"/>
    <circle class="cls-4" cx="40" cy="28" r="8"/>
    <path class="cls-1" d="M19,64c.72,2.73,2.85,9.31,9,15,6.75,6.23,14.26,7.63,17,8"/>
  </g>
</svg>