<?xml version="1.0" encoding="UTF-8"?>
<svg id="Layer_2" xmlns="http://www.w3.org/2000/svg" viewBox="0 0 119 130.6">
  <defs>
    <style>
      .cls-1 {
        stroke: #039d6d;
      }

      .cls-1, .cls-2, .cls-3, .cls-4, .cls-5 {
        fill: none;
      }

      .cls-1, .cls-3 {
        stroke-width: 5px;
      }

      .cls-1, .cls-3, .cls-4, .cls-5 {
        stroke-miterlimit: 10;
      }

      .cls-3 {
        stroke: #f38745;
      }

      .cls-4 {
        stroke: #b77d81;
        stroke-width: 4px;
      }

      .cls-6 {
        fill: #7ef052;
      }

      .cls-5 {
        stroke: #7ef052;
        stroke-width: 7px;
      }
    </style>
  </defs>
  <g id="feutre_emojis">
    <rect class="cls-2" x="-.11" y="89.7" width="50.92" height="25.9" transform="translate(-80.36 100.38) rotate(-74.9)"/>
    <line class="cls-3" x1="9.5" y1="35.5" x2="54.5" y2="29.5"/>
    <polyline class="cls-3" points="40.8 20 54.5 29.5 43 42"/>
    <line class="cls-3" x1="101.95" y1="20.7" x2="67.01" y2="27.37"/>
    <polyline class="cls-3" points="73.68 14.74 67.01 27.37 79.78 35.94"/>
    <line class="cls-5" x1="41" y1="90" x2="86" y2="90"/>
    <polygon class="cls-6" points="44.49 76.54 44.49 104 23 89.24 44.49 76.54"/>
    <polygon class="cls-6" points="80.5 103.44 80.5 75.98 101.99 90.75 80.5 103.44"/>
    <circle class="cls-4" cx="59.5" cy="59.5" r="57.5"/>
    <line class="cls-1" x1="20.5" y1="44.5" x2="52" y2="69"/>
    <line class="cls-1" x1="77.47" y1="42.57" x2="107" y2="65"/>
    <line class="cls-1" x1="99.32" y1="39.57" x2="77" y2="68"/>
    <line class="cls-1" x1="42.32" y1="41.57" x2="18" y2="73"/>
    <line class="cls-1" x1="17.67" y1="55.69" x2="48.78" y2="51.44"/>
    <line class="cls-1" x1="73.67" y1="53.69" x2="104.78" y2="49.44"/>
    <polyline class="cls-1" points="73.39 59.5 74.33 71.12 86 67.01"/>
    <polyline class="cls-1" points="112.12 58.5 109 67 95.61 67"/>
    <polyline class="cls-1" points="56.8 59.5 54.5 70.24 40 68"/>
    <polyline class="cls-1" points="15.27 63.5 17.82 74.7 28.88 71.12"/>
    <line class="cls-1" x1="30.57" y1="37.99" x2="34.81" y2="69.1"/>
    <line class="cls-1" x1="87.57" y1="35.99" x2="91.81" y2="67.1"/>
  </g>
</svg>