<?xml version="1.0" encoding="UTF-8"?>
<svg id="Layer_2" xmlns="http://www.w3.org/2000/svg" viewBox="0 0 118 118">
  <defs>
    <style>
      .cls-1 {
        fill: none;
        stroke: #ff5793;
      }

      .cls-1, .cls-2 {
        stroke-miterlimit: 10;
        stroke-width: 3px;
      }

      .cls-3 {
        fill: #c60248;
      }

      .cls-4 {
        fill: #e4564b;
      }

      .cls-5 {
        fill: #fb87ff;
      }

      .cls-2 {
        fill: #f78365;
        stroke: #e4564b;
      }
    </style>
  </defs>
  <g id="stylo_emojis">
    <circle class="cls-1" cx="59" cy="59" r="57.5"/>
    <path class="cls-5" d="M85.68,30.8c-11.56,0-21.58,5.27-26.5,12.96-4.92-7.69-14.94-12.96-26.5-12.96-16.43,0-29.75,10.63-29.75,23.75s13.32,23.75,29.75,23.75c11.56,0,21.58-5.27,26.5-12.96,4.92,7.69,14.94,12.96,26.5,12.96,16.43,0,29.75-10.63,29.75-23.75s-13.32-23.75-29.75-23.75Z"/>
    <ellipse class="cls-2" cx="32.42" cy="55" rx="24.92" ry="8.5"/>
    <ellipse class="cls-2" cx="89.08" cy="55" rx="24.92" ry="8.5"/>
    <path class="cls-4" d="M91.75,55c-4.28,0-7.75,3.47-7.75,7.75,0,.11.01.21.02.32,2.51.28,5.19.43,7.98.43,2.6,0,5.11-.13,7.48-.37,0-.13.02-.25.02-.38,0-4.28-3.47-7.75-7.75-7.75Z"/>
    <path class="cls-4" d="M28.55,54.3c-4.28,0-7.75,3.47-7.75,7.75,0,.11.01.21.02.32,2.51.28,5.19.43,7.98.43,2.6,0,5.11-.13,7.48-.37,0-.13.02-.25.02-.38,0-4.28-3.47-7.75-7.75-7.75Z"/>
    <rect class="cls-3" x="53.5" y="90.5" width="16.5" height="9.5" rx="4.75" ry="4.75"/>
  </g>
</svg>