<?xml version="1.0" encoding="UTF-8"?>
<svg id="Layer_2" xmlns="http://www.w3.org/2000/svg" viewBox="0 0 118 118">
  <defs>
    <style>
      .cls-1 {
        stroke: #131315;
        stroke-width: 4px;
      }

      .cls-1, .cls-2, .cls-3 {
        fill: none;
        stroke-miterlimit: 10;
      }

      .cls-2 {
        stroke: #5fe9f9;
        stroke-width: 10px;
      }

      .cls-3 {
        stroke: #2d25a7;
        stroke-width: 3px;
      }

      .cls-4 {
        fill: #4ef0fc;
      }

      .cls-5 {
        fill: #131315;
      }

      .cls-6 {
        fill: #ef8cee;
      }
    </style>
  </defs>
  <g id="stylo_emojis">
    <circle class="cls-3" cx="59" cy="59" r="57.5"/>
    <circle class="cls-2" cx="33" cy="44" r="15"/>
    <circle class="cls-5" cx="33" cy="44" r="5"/>
    <circle class="cls-2" cx="85" cy="44" r="15"/>
    <circle class="cls-5" cx="85" cy="44" r="5"/>
    <circle class="cls-1" cx="59" cy="71" r="8"/>
    <path class="cls-6" d="M28.05,76.19c3.86,3.92,9.66,6.93,16.72,7.69,4.37.36,6.82,3.34,3.57,7.62h0c-3.21,4.3-11.48,6.37-16.22,4.12-7.52-3.25-13.24-8.4-16.74-14.12-2.2-3.74.25-6.72,3.57-7.62h0c3.4-.92,6.62-.11,9.1,2.31Z"/>
    <path class="cls-6" d="M44.63,8.99c8.23,1.77,15.13,5.78,20.08,10.9,3.17,3.36,1.83,7.04-1.28,8.46t0,0c-3.17,1.46-6.6,1.07-9.27-1.03-4.26-3.42-10.18-5.82-17.07-6.04-4.24-.1-7.53-2.33-5.98-6.31t0,0c1.5-3.99,8.27-7.23,13.53-5.97Z"/>
    <path class="cls-4" d="M63.18,86.09c7.14.76,13.51-1.19,18.15-4.42,2.95-1.98,6.61-2.43,9.92-1.28,2.35.88,4.96,1.41,7.75,1.47,3.82-.04,6.15,2.72,3.51,7.21-4.22,6.83-10.86,12.77-19.33,16.41-5.35,2.53-14.43.67-18.11-3.58-2.7-2.88-4.95-6.04-6.73-9.34-2.41-4.78.46-7.06,4.85-6.47Z"/>
  </g>
</svg>