<?xml version="1.0" encoding="UTF-8"?>
<svg id="Layer_2" xmlns="http://www.w3.org/2000/svg" viewBox="0 0 115 115">
  <defs>
    <style>
      .cls-1 {
        fill: #ffbd6e;
      }

      .cls-2 {
        fill: #ff7dd7;
      }

      .cls-3 {
        fill: #2d25a7;
      }

      .cls-4 {
        fill: #f45b49;
      }
    </style>
  </defs>
  <g id="all">
    <g>
      <circle class="cls-1" cx="57.5" cy="57.5" r="57.5"/>
      <path class="cls-2" d="M34.25,79.35c2.55-.44,5.31-2.86,6.43-4.57,1.59-2.43,1.78-5.51,3.73-7.71,1.43-1.61,3.94-2.48,5.79-1.37,1.83,1.1,2.45,3.72,4.43,4.53,1.1.45,2.39.2,3.42-.4,1.03-.6,1.83-1.51,2.56-2.45.76-.97,1.83-2.1,3-1.72.47.16.83.54,1.16.91,3.8,4.25,6.21,7.67,12.23,8.38,8.91,1.05,20.39-3.11,24.26-11.77,1.84-4.12,1.67-8.72,1.31-13.12-.35-4.34-.25-8.82-1-13.11-.52-2.98-1.67-7.76-5.23-8.41-1.53-.28-3.08.41-4.33,1.34-1.25.92-2.32,2.09-3.6,2.96-2.04,1.38-4.9,1.91-6.93.52-1.42-.97-2.22-2.72-3.75-3.52-2.99-1.56-6.07,1.24-9.16.66-4.24-.8-6.74-7.61-11.13-3.06-2.66,2.75-4.44,6.73-8.07,7.94-4.59,1.54-9.32-1.87-11.69-5.56-.33-.52-.67-1.08-1.22-1.34-1.74-.82-3.12,1.58-4.71,1.8-2.26.3-2.92-2.45-4.95-2.93-.85-.2-1.76.06-2.51.52s-1.36,1.1-1.96,1.74c-8.15,8.62-17.69,18.48-13.63,31.42.99,3.16,3.02,6.32,6.2,7.25,4.42,1.28,12.17-3.79,13.93,2.5.36,1.3.41,2.66.62,4s.63,2.7,1.57,3.66c.91.92,2.05,1.14,3.24.94Z"/>
      <ellipse class="cls-4" cx="60" cy="97" rx="12.5" ry="4.5"/>
      <circle class="cls-3" cx="84.28" cy="24.23" r="6.5"/>
      <circle class="cls-3" cx="46.28" cy="25.23" r="6.5"/>
    </g>
  </g>
</svg>