<?xml version="1.0" encoding="UTF-8"?>
<svg id="Layer_2" xmlns="http://www.w3.org/2000/svg" viewBox="0 0 118 118.01">
  <defs>
    <style>
      .cls-1 {
        stroke: #fcd5c2;
        stroke-width: 3px;
      }

      .cls-1, .cls-2, .cls-3 {
        fill: none;
        stroke-miterlimit: 10;
      }

      .cls-2 {
        stroke: #110f10;
      }

      .cls-2, .cls-3 {
        stroke-width: 4px;
      }

      .cls-4 {
        fill: #fae3d6;
      }

      .cls-5 {
        fill: #f87650;
      }

      .cls-3 {
        stroke: #f87650;
      }
    </style>
  </defs>
  <g id="stylo_emojis">
    <path class="cls-1" d="M116.5,59.01c0,31.76-25.74,57.5-57.5,57.5S1.5,90.76,1.5,59.01c0-14.04,5.45-25.08,8.78-30.5.78-1.27,1.44-2.24,1.89-2.86C22.82,10.81,40.65,1.21,59,1.51c27.91.46,57.5,23.82,57.5,57.5Z"/>
    <path class="cls-4" d="M92.15,13.51s.79,12.91-15.37,32.42c0,0,0,0,0,0-2.54,2.66-4.11,6.26-4.11,10.23,0,8.2,6.64,14.84,14.84,14.84,7.69,0,14.01-5.85,14.76-13.33h0s3.79-4.29-10.13-44.17Z"/>
    <path class="cls-4" d="M12.1,25.93s2.68,12.65,23.46,27.15c0,0,0,0,0,0,3.16,1.89,5.63,4.94,6.68,8.77,2.18,7.9-2.45,16.07-10.35,18.26-7.41,2.05-15.06-1.9-17.78-8.92h0s-4.79-3.12-2.01-45.27Z"/>
    <ellipse class="cls-5" cx="83.5" cy="50.51" rx="4.5" ry="10.5"/>
    <ellipse class="cls-5" cx="32.5" cy="61.51" rx="4.5" ry="10.5"/>
    <path class="cls-2" d="M41,100.01s15-7,34-1"/>
    <path class="cls-3" d="M24.91,14.31c-1.48,5.55-2.26,11.8-.83,17.44,1.3,5.15,6.09,8.99,11.32,9.49,1.88.18,3.83-.06,5.52-.92s3.07-2.38,3.56-4.2c.51-1.92-.01-4.05-1.24-5.61-1.49-1.89-4.03-3.09-6.45-2.9"/>
    <path class="cls-3" d="M83.79,8.05c-.38,5.73-1.65,11.9-4.82,16.78-2.89,4.46-8.65,6.56-13.77,5.35-1.84-.43-3.61-1.29-4.93-2.65s-2.14-3.24-2.02-5.12c.13-1.98,1.31-3.83,2.98-4.91,2.02-1.31,4.81-1.63,7.03-.67"/>
  </g>
</svg>