<?xml version="1.0" encoding="UTF-8"?>
<svg id="Layer_2" xmlns="http://www.w3.org/2000/svg" viewBox="0 0 115 115.5">
  <defs>
    <style>
      .cls-1 {
        stroke: #ff7dd7;
      }

      .cls-1, .cls-2 {
        stroke-width: 3px;
      }

      .cls-1, .cls-2, .cls-3 {
        fill: none;
      }

      .cls-1, .cls-2, .cls-3, .cls-4 {
        stroke-miterlimit: 10;
      }

      .cls-2 {
        stroke: #ff8e50;
      }

      .cls-5 {
        fill: #2d25a7;
      }

      .cls-3, .cls-4 {
        stroke: #18d4e8;
        stroke-width: 10px;
      }

      .cls-4 {
        fill: #8d9efc;
      }

      .cls-6 {
        fill: #c2f4d1;
      }
    </style>
  </defs>
  <g id="stylo_emojis">
    <g>
      <circle class="cls-6" cx="57.5" cy="58" r="57.5"/>
      <line class="cls-3" x1="43.5" y1="51" x2="67.5" y2="51"/>
      <path class="cls-1" d="M47.5,90c1.1-3.07,3.97-5.08,7-5,3.57.1,6.71,3.09,7,7"/>
      <line class="cls-2" x1="28" y1="73.5" x2="12" y2="93.5"/>
      <line class="cls-2" x1="17" y1="71.5" x2="7" y2="81.5"/>
      <line class="cls-2" x1="9" y1="65.5" x2="1" y2="70.5"/>
      <line class="cls-2" x1="89" y1="74.5" x2="103" y2="90.5"/>
      <line class="cls-2" x1="97" y1="71.5" x2="108" y2="82.5"/>
      <line class="cls-2" x1="102" y1="64.5" x2="112" y2="73.5"/>
      <path class="cls-5" d="M59,28c20.35,0,39.27,6.11,55.03,16.6C108.17,19.06,85.32,0,58,0S6.86,19.86,1.62,46.21c16.22-11.47,36.01-18.21,57.38-18.21Z"/>
      <ellipse class="cls-4" cx="27.5" cy="52.78" rx="16.5" ry="14.78"/>
      <ellipse class="cls-4" cx="83" cy="53.22" rx="16.5" ry="14.78"/>
    </g>
  </g>
</svg>