<?xml version="1.0" encoding="UTF-8"?>
<svg id="Layer_2" xmlns="http://www.w3.org/2000/svg" viewBox="0 0 115 115">
  <defs>
    <style>
      .cls-1 {
        fill: none;
        stroke: #4420a1;
        stroke-miterlimit: 10;
        stroke-width: 7px;
      }

      .cls-2 {
        fill: #232321;
      }

      .cls-3 {
        fill: #e3fffe;
      }

      .cls-4 {
        fill: #4420a1;
      }
    </style>
  </defs>
  <g id="all">
    <g>
      <circle class="cls-2" cx="57.5" cy="57.5" r="57.5"/>
      <path class="cls-4" d="M21.81,41l-10.36-18,14.96,7,10.36-16v16.9l15.54-13.62-8.4,23.71s-12.89-8-22.1,0Z"/>
      <path class="cls-4" d="M68.81,41.7l-10.36-18,14.96,7,10.36-16v16.9l15.54-13.62-8.4,23.71s-12.89-8-22.1,0Z"/>
      <line class="cls-1" x1="21.5" y1="63.5" x2="10.5" y2="69.5"/>
      <line class="cls-1" x1="30.57" y1="68.55" x2="27.03" y2="80.57"/>
      <line class="cls-1" x1="46.8" y1="76.06" x2="40.8" y2="65.06"/>
      <line class="cls-1" x1="69.96" y1="65.88" x2="61.64" y2="75.25"/>
      <line class="cls-1" x1="82.57" y1="69.55" x2="79.03" y2="81.57"/>
      <line class="cls-1" x1="95.8" y1="77.06" x2="89.8" y2="66.06"/>
      <circle class="cls-2" cx="37.75" cy="53.75" r="10.75"/>
      <circle class="cls-2" cx="79.5" cy="53.56" r="10.75"/>
      <circle class="cls-3" cx="88.54" cy="60.93" r="2.43"/>
      <circle class="cls-3" cx="34.9" cy="59.07" r="2.43"/>
      <circle class="cls-3" cx="32.28" cy="48.23" r="6.5"/>
      <circle class="cls-3" cx="84.28" cy="50.23" r="6.5"/>
    </g>
  </g>
</svg>