<?xml version="1.0" encoding="UTF-8"?>
<svg id="Layer_2" xmlns="http://www.w3.org/2000/svg" viewBox="0 0 115 115">
  <defs>
    <style>
      .cls-1 {
        fill: #18d4e8;
      }

      .cls-2 {
        fill: #d0bdff;
      }

      .cls-3 {
        fill: none;
        stroke: #ff8e50;
        stroke-miterlimit: 10;
        stroke-width: 4px;
      }

      .cls-4 {
        fill: #ff5793;
      }
    </style>
  </defs>
  <g id="all">
    <g>
      <circle class="cls-2" cx="57.5" cy="57.5" r="57.5"/>
      <path class="cls-3" d="M12,32c2.66-7.57,5.67-14.34,8-14,3.5.51,3.12,16.75,6,17,3.39.29,6.31-22.02,11-22,4.55.02,6.56,21.02,11,21,4.54-.02,6.55-22,11-22,4.45,0,6.57,22.02,11,22,4.23-.02,6.28-20.1,10-20,3.87.11,5.19,21.93,9,22,3.28.06,5.03-16.07,8-16,2.05.05,3.69,7.76,5,18"/>
      <circle class="cls-1" cx="55.5" cy="78.5" r="19"/>
      <circle class="cls-4" cx="27.68" cy="46.83" r="6.5"/>
      <circle class="cls-4" cx="84.68" cy="46.83" r="6.5"/>
    </g>
  </g>
</svg>