<?xml version="1.0" encoding="UTF-8"?>
<svg id="Layer_2" xmlns="http://www.w3.org/2000/svg" viewBox="0 0 115 115">
  <defs>
    <style>
      .cls-1 {
        fill: none;
        stroke: #4420a1;
        stroke-miterlimit: 10;
        stroke-width: 5px;
      }

      .cls-2 {
        fill: #ff8e50;
      }

      .cls-3 {
        fill: #ffbd6e;
      }

      .cls-4 {
        fill: #18d4e8;
      }

      .cls-5 {
        fill: #61d9d8;
      }
    </style>
  </defs>
  <g id="aquarelle_emojis">
    <g>
      <circle class="cls-5" cx="57.5" cy="57.5" r="57.5"/>
      <circle class="cls-4" cx="51.5" cy="47.5" r="46"/>
      <polygon class="cls-3" points="100.5 49.5 114.5 65.09 114.5 60.44 99 43.12 100.5 49.5"/>
      <path class="cls-2" d="M107.5,82.76l-6-10.42s3-10.6,3-14.85l7,13.11-3,13.89-1-1.74h0Z"/>
      <polygon class="cls-3" points="93.5 81.5 102.5 93.5 100.5 95.5 92.5 84.5 93.5 81.5"/>
      <path class="cls-2" d="M81.78,107.5l-12.28-13.21s10.24-5.66,12.28-7.55l2.05-1.89,13.03,14.23-14.43,8.41"/>
      <polygon class="cls-3" points="66.5 103.5 73.5 112.5 77.5 111.5 70.5 102.5 66.5 103.5"/>
      <path class="cls-2" d="M38.44,108.11l-3.8-9.42h19.3l6.06,12.92-21.02-1.89-.55-1.61Z"/>
      <path class="cls-1" d="M37.12,13.81s-.19,11.98,12.6,9.34"/>
      <path class="cls-1" d="M66.93,33.93s-.19,11.8,12.6,9.19"/>
    </g>
  </g>
</svg>