<?xml version="1.0" encoding="UTF-8"?>
<svg id="Layer_2" xmlns="http://www.w3.org/2000/svg" viewBox="0 0 119 119">
  <defs>
    <style>
      .cls-1 {
        stroke: #1d32d4;
      }

      .cls-1, .cls-2, .cls-3 {
        fill: none;
        stroke-miterlimit: 10;
        stroke-width: 4px;
      }

      .cls-2 {
        stroke: #111517;
      }

      .cls-4 {
        fill: #1d32d4;
      }

      .cls-5 {
        fill: #f752f1;
      }

      .cls-3 {
        stroke: #895a5d;
      }
    </style>
  </defs>
  <g id="feutre_emojis">
    <circle class="cls-3" cx="59.5" cy="59.5" r="57.5"/>
    <path class="cls-2" d="M108.24,28.98c-27.26,8.48-38.29,7.52-38.29,7.52,23.45-5,25.72-21.7,25.72-21.7"/>
    <path class="cls-2" d="M56.5,37.5c-24-1-25.25-28.09-25.25-28.09-.25,18.91,22.25,44.09,22.25,44.09C21.5,46.5,14.7,23.46,14.7,23.46c0,0,6.05,30.03,27.93,36.54,0,0-7.13.51-14.13-.49"/>
    <path class="cls-2" d="M115.5,46.41c-13,7.91-44,6.09-44,6.09,0,0,30.48-3.3,36.74-22.15"/>
    <path class="cls-2" d="M76.07,64.5s30.91,6,39.67-17"/>
    <path class="cls-1" d="M103.46,43.06c4.56,8.68,4.76,17.94.46,20.68-4.3,2.73-11.49-2.09-16.04-10.77-4.56-8.68-4.76-17.94-.46-20.68,4.3-2.73,11.49,2.09,16.04,10.77Z"/>
    <circle class="cls-4" cx="95.5" cy="47.5" r="7"/>
    <path class="cls-1" d="M20.71,38.55c-4.56,8.68-4.76,17.94-.46,20.68,4.3,2.73,11.49-2.09,16.04-10.77,4.56-8.68,4.76-17.94.46-20.68-4.3-2.73-11.49,2.09-16.04,10.77Z"/>
    <circle class="cls-4" cx="28.5" cy="43.5" r="7"/>
    <path class="cls-5" d="M63,77.43c-8.66,0-16.49,1.35-22.17,3.54-6.51,2.51-8.44,5.03-8.99,7.19-.14.55-.18,1.03-.19,1.35h62.7c0-6.67-14.03-12.07-31.35-12.07Z"/>
    <path class="cls-5" d="M31.5,90.43c5.8,2.76,17.14,7.21,32,7,13.77-.19,24.3-4.29,30-7"/>
    <path class="cls-2" d="M14.7,52.68s-7.29-5.18-8.24-9.18"/>
  </g>
</svg>