<?xml version="1.0" encoding="UTF-8"?>
<svg id="Layer_2" xmlns="http://www.w3.org/2000/svg" viewBox="0 0 118 118">
  <defs>
    <style>
      .cls-1 {
        stroke: #009a7a;
      }

      .cls-1, .cls-2 {
        stroke-width: 3px;
      }

      .cls-1, .cls-2, .cls-3 {
        fill: none;
        stroke-miterlimit: 10;
      }

      .cls-4 {
        fill: #c60652;
      }

      .cls-5 {
        fill: #131313;
      }

      .cls-2 {
        stroke: #131313;
      }

      .cls-3 {
        stroke: #441c94;
        stroke-width: 2px;
      }
    </style>
  </defs>
  <g id="stylo_emojis">
    <circle class="cls-1" cx="59" cy="59" r="57.5"/>
    <polyline class="cls-3" points="19.5 39.5 16.5 31.5 32.5 43.5 26.5 23.5 37.5 40.5 37.5 20.87 42.5 44.5 43.5 26.5 48.06 44.5"/>
    <polyline class="cls-3" points="67 40 73 27 78 38 76.91 20.87 80.74 32.69 89 23 83 38 100 27 91 39 107.3 32.69"/>
    <path class="cls-5" d="M29.67,52.49c-.01.19-.03.38-.03.58,0,4.14,3.36,7.5,7.5,7.5s7.5-3.36,7.5-7.5c0-.19-.01-.39-.03-.58h-14.94Z"/>
    <line class="cls-2" x1="44.64" y1="51.57" x2="10.64" y2="51.57"/>
    <path class="cls-5" d="M85.73,46.49c-.01.19-.03.38-.03.58,0,4.14,3.36,7.5,7.5,7.5s7.5-3.36,7.5-7.5c0-.19-.01-.39-.03-.58h-14.94Z"/>
    <line class="cls-2" x1="100.7" y1="45.57" x2="66.7" y2="45.57"/>
    <path class="cls-4" d="M74.12,85.59c0-7.26-4.7-13.15-10.5-13.15-4.79,0-8.83,4.03-10.09,9.52-1.25-5.49-5.29-9.52-10.09-9.52-5.8,0-10.5,5.86-10.5,13.09,0,4.28,1.66,8.07,4.21,10.46.02.02.04.04.06.05.23.21.46.41.7.6.14.11.28.22.43.32.06.04.11.08.17.12,3.36,2.37,8.79,3.91,14.93,3.91,5.09,0,9.69-1.06,13.04-2.77,4.41-1.56,7.65-6.62,7.65-12.64Z"/>
  </g>
</svg>