<?xml version="1.0" encoding="UTF-8"?>
<svg id="Layer_2" xmlns="http://www.w3.org/2000/svg" viewBox="0 0 115 115">
  <defs>
    <style>
      .cls-1 {
        stroke: #2d25a7;
        stroke-width: 6px;
      }

      .cls-1, .cls-2 {
        fill: none;
        stroke-miterlimit: 10;
      }

      .cls-3 {
        fill: #18d4e8;
      }

      .cls-4 {
        fill: #ff7dd7;
      }

      .cls-5 {
        fill: #2d25a7;
      }

      .cls-2 {
        stroke: #5d72f8;
        stroke-width: 4px;
      }
    </style>
  </defs>
  <g id="feutre_emojis">
    <g>
      <circle class="cls-4" cx="57.5" cy="57.5" r="57.5"/>
      <line class="cls-2" x1="16.5" y1="36.5" x2="46.5" y2="37.5"/>
      <line class="cls-2" x1="67.5" y1="41.5" x2="100.5" y2="41.5"/>
      <circle class="cls-5" cx="28.5" cy="41.5" r="6"/>
      <circle class="cls-5" cx="82.5" cy="45.5" r="6"/>
      <path class="cls-2" d="M11.5,50.5c3.78-1.64,10.03-3.8,18-4,6.28-.16,11.46.94,15,2"/>
      <path class="cls-2" d="M68.09,54.42c3.78-1.64,10.03-3.8,18-4,6.28-.16,11.46.94,15,2"/>
      <line class="cls-1" x1="3.5" y1="76.5" x2="111.5" y2="77.5"/>
      <path class="cls-3" d="M57.5,0C40.22,0,24.72,7.64,14.18,19.71l-.34,1.23,10.6,12.34,14-18.66,17.7,18.66,16.3-17.19,12,23.32,11.36-15.67,3.57-5.62C88.9,6.97,74.02,0,57.5,0Z"/>
    </g>
  </g>
</svg>