<?xml version="1.0" encoding="UTF-8"?>
<svg id="Layer_2" xmlns="http://www.w3.org/2000/svg" viewBox="0 0 115 115.23">
  <defs>
    <style>
      .cls-1 {
        stroke: #f45b49;
      }

      .cls-1, .cls-2 {
        fill: none;
        stroke-miterlimit: 10;
        stroke-width: 5px;
      }

      .cls-2 {
        stroke: #079e8b;
      }

      .cls-3 {
        fill: #61d9d8;
      }

      .cls-4 {
        fill: #e92047;
      }
    </style>
  </defs>
  <g id="feutre_emojis">
    <circle class="cls-3" cx="57.5" cy="57.73" r="57.5"/>
    <circle class="cls-4" cx="77.25" cy="43.48" r="6.75"/>
    <circle class="cls-4" cx="33.46" cy="45.88" r="6.75"/>
    <path class="cls-1" d="M36.5,4.73c-5.24,2.43-8.52,7.02-8,11,.89,6.81,12.73,10.5,17,7,2.38-1.96,3.04-6.69,1-9-2.43-2.75-8.34-1.68-11,1-3.63,3.66-2.93,12.03,3,20"/>
    <path class="cls-1" d="M71.64,2.27c5.24,2.43,8.52,7.02,8,11-.89,6.81-12.73,10.5-17,7-2.38-1.96-3.04-6.69-1-9,2.43-2.75,8.34-1.68,11,1,3.63,3.66,2.93,12.03-3,20"/>
    <line class="cls-2" x1="65" y1="39.23" x2="90" y2="31.23"/>
    <line class="cls-2" x1="20.98" y1="37.72" x2="47.13" y2="40.04"/>
    <path class="cls-2" d="M17,54.23c2.08-.94,7.3-2.98,14-2,7.64,1.12,12.43,5.45,14,7"/>
    <path class="cls-2" d="M69,54.23c1.62-1.31,5.8-4.34,12-5,7.02-.75,12.25,1.99,14,3"/>
    <path class="cls-2" d="M27.5,64.73c1.05,1.05,5.79,6.05,6,14,.2,7.7-3.99,12.83-5,14"/>
    <path class="cls-2" d="M75,65.23c-.66,1.13-4.12,7.32-2,15,1.84,6.68,6.7,10.13,8,11"/>
    <path class="cls-2" d="M36,78.23c4.82-.68,10.55-1.15,17-1,6.91.16,12.98.99,18,2"/>
  </g>
</svg>