<?xml version="1.0" encoding="UTF-8"?>
<svg id="Layer_2" xmlns="http://www.w3.org/2000/svg" viewBox="0 0 118 118">
  <defs>
    <style>
      .cls-1 {
        stroke: #ff7d5a;
      }

      .cls-1, .cls-2, .cls-3 {
        stroke-width: 3px;
      }

      .cls-1, .cls-2, .cls-3, .cls-4 {
        fill: none;
        stroke-miterlimit: 10;
      }

      .cls-2 {
        stroke: #2e2499;
      }

      .cls-5 {
        fill: #4f24c2;
      }

      .cls-3 {
        stroke: #009a75;
      }

      .cls-4 {
        stroke: #fa7cf7;
        stroke-width: 6px;
      }
    </style>
  </defs>
  <g id="stylo_emojis">
    <circle class="cls-3" cx="59" cy="59" r="57.5"/>
    <path class="cls-1" d="M14,55s-6-29,15-43c1,30,26,50,26,50,0,0-15-32-8-51,12,48,25.32,48,25.32,48,0,0-10.32-20-3.32-44,2,16,5.11,18,5.11,18,0,0,1.89-12,3.89-17,6,23,26,34,26,34,0,0-7-16-7-23,9,15,12,17,12,17l-4-16"/>
    <circle class="cls-5" cx="84.25" cy="45.25" r="5.25"/>
    <circle class="cls-5" cx="28.94" cy="43.98" r="5.25"/>
    <path class="cls-4" d="M39.5,89.5s10-42,40-1"/>
    <line class="cls-4" x1="44" y1="95" x2="76" y2="95"/>
    <path class="cls-2" d="M45.5,90.5l31,1s-25-37-31-1Z"/>
  </g>
</svg>