<?xml version="1.0" encoding="UTF-8"?>
<svg id="Layer_2" xmlns="http://www.w3.org/2000/svg" viewBox="0 0 115 115">
  <defs>
    <style>
      .cls-1 {
        fill: none;
        stroke: #ff5793;
        stroke-miterlimit: 10;
        stroke-width: 3px;
      }

      .cls-2 {
        fill: #ff8e50;
      }

      .cls-3 {
        fill: #d0bdff;
      }

      .cls-4 {
        fill: #61d9d8;
      }

      .cls-5 {
        fill: #f45b49;
      }
    </style>
  </defs>
  <g id="stylo_emojis">
    <g>
      <circle class="cls-2" cx="57.5" cy="57.5" r="57.5"/>
      <circle class="cls-3" cx="87" cy="33" r="11.5"/>
      <circle class="cls-5" cx="88.73" cy="32.29" r="6.79"/>
      <circle class="cls-3" cx="28.73" cy="27.59" r="11.5"/>
      <circle class="cls-5" cx="30.47" cy="26.88" r="6.79"/>
      <path class="cls-4" d="M71.49,101.42c-10.22,2.08-20.77,2.08-30.99,0-13.72-2.81-20.19-14.64-15.75-21.34t0,0c4.41-6.8,13.75-8.75,21.58-7.31,6.37,1.3,12.95,1.3,19.33,0,7.83-1.45,17.17.5,21.58,7.31t0,0c4.45,6.7-2.03,18.53-15.75,21.34Z"/>
      <path class="cls-1" d="M35.5,43.5c3.87,8.84-.16,19.13-9,23-7.07,3.09-15.31-.13-18.4-7.2-2.47-5.66.1-12.25,5.76-14.72,4.52-1.98,9.8.08,11.78,4.61,1.58,3.62-.07,7.84-3.69,9.42-2.9,1.27-6.27-.05-7.54-2.95-1.01-2.32.04-5.02,2.36-6.03,1.85-.81,4.01.03,4.82,1.89.65,1.48-.03,3.21-1.51,3.86-1.19.52-2.57-.02-3.09-1.21"/>
      <path class="cls-1" d="M108.48,48.32c3.87,8.84-.16,19.13-9,23-7.07,3.09-15.31-.13-18.4-7.2-2.47-5.66.1-12.25,5.76-14.72,4.52-1.98,9.8.08,11.78,4.61,1.58,3.62-.07,7.84-3.69,9.42-2.9,1.27-6.27-.05-7.54-2.95-1.01-2.32.04-5.02,2.36-6.03,1.85-.81,4.01.03,4.82,1.89.65,1.48-.03,3.21-1.51,3.86-1.19.52-2.57-.02-3.09-1.21"/>
    </g>
  </g>
</svg>