<?xml version="1.0" encoding="UTF-8"?>
<svg id="Layer_2" xmlns="http://www.w3.org/2000/svg" viewBox="0 0 115 115">
  <defs>
    <style>
      .cls-1 {
        fill: #ff7dd7;
      }

      .cls-2 {
        fill: none;
        stroke: #38f2a9;
        stroke-miterlimit: 10;
        stroke-width: 3px;
      }

      .cls-3 {
        fill: #232321;
      }

      .cls-4 {
        fill: #8d9efc;
      }

      .cls-5 {
        fill: #e92047;
      }
    </style>
  </defs>
  <g id="stylo_emojis">
    <g>
      <circle class="cls-4" cx="57.5" cy="57.5" r="57.5"/>
      <path class="cls-1" d="M29.51,56.55c4.31-.85,8.45-2.48,12.69-3.64,5.16-1.42,10.53-2.49,15.9-1.84,3.38.41,6.6,1.56,9.93,2.27,4.07.86,8.23,1.45,12.4,1.36,6.72-.15,16.29-2.24,19.08-9.21,2.03-5.08.67-10.51-3.04-14.41-4.05-4.26-9.19-5.38-14.87-4.21-1.52.31-3.02.75-4.49,1.25-5.66,1.93-11.25,4.06-17.28,4.42s-11.69-2.09-17.47-3.49c-4.28-1.04-8.75-1.49-13.09-.78-2.83.47-5.61,1.44-7.97,3.09-4.59,3.2-6.39,8.62-6.76,14-.2,3.01.08,6.28,2.01,8.6,1.19,1.42,2.91,2.33,4.72,2.77s3.69.43,5.53.23c.91-.1,1.82-.24,2.71-.42Z"/>
      <circle class="cls-3" cx="36.25" cy="39.25" r="4.75"/>
      <circle class="cls-3" cx="84.76" cy="38.12" r="4.75"/>
      <ellipse class="cls-5" cx="52.5" cy="84.5" rx="9" ry="7"/>
      <line class="cls-2" x1="107.5" y1="54.5" x2="80.01" y2="78.48"/>
      <line class="cls-2" x1="82.95" y1="66.49" x2="91" y2="81"/>
      <line class="cls-2" x1="89.73" y1="59.86" x2="97.78" y2="74.37"/>
      <line class="cls-2" x1="96.73" y1="54.86" x2="104.78" y2="69.37"/>
    </g>
  </g>
</svg>