<?xml version="1.0" encoding="UTF-8"?>
<svg id="Layer_2" xmlns="http://www.w3.org/2000/svg" viewBox="0 0 115 115">
  <defs>
    <style>
      .cls-1 {
        fill: #ff8e50;
      }

      .cls-2 {
        fill: #ffbd6e;
      }

      .cls-3 {
        fill: #f45b49;
      }

      .cls-4 {
        fill: #ff5793;
      }
    </style>
  </defs>
  <g id="stylo_emojis">
    <g>
      <circle class="cls-2" cx="57.5" cy="57.5" r="57.5"/>
      <path class="cls-3" d="M28.29,42.05c6.32,0,11.45,5.13,11.45,11.45h3.34c0-8.17-6.62-14.79-14.79-14.79s-14.79,6.62-14.79,14.79h3.34c0-6.32,5.13-11.45,11.45-11.45Z"/>
      <path class="cls-3" d="M85.03,44.23c6.32,0,11.45,5.13,11.45,11.45h3.34c0-8.17-6.62-14.79-14.79-14.79s-14.79,6.62-14.79,14.79h3.34c0-6.32,5.13-11.45,11.45-11.45Z"/>
      <path class="cls-3" d="M57.84,93.95c-6.32,0-11.45-5.13-11.45-11.45h-3.34c0,8.17,6.62,14.79,14.79,14.79s14.79-6.62,14.79-14.79h-3.34c0,6.32-5.13,11.45-11.45,11.45Z"/>
      <circle class="cls-1" cx="31" cy="17" r="6.5"/>
      <circle class="cls-1" cx="87" cy="18" r="6.5"/>
      <circle class="cls-4" cx="87" cy="67" r="6.5"/>
      <circle class="cls-4" cx="26" cy="67" r="6.5"/>
    </g>
  </g>
</svg>