<?xml version="1.0" encoding="UTF-8"?>
<svg id="Layer_2" xmlns="http://www.w3.org/2000/svg" viewBox="0 0 115 115">
  <defs>
    <style>
      .cls-1, .cls-2 {
        fill: none;
      }

      .cls-1, .cls-2, .cls-3 {
        stroke-miterlimit: 10;
        stroke-width: 3px;
      }

      .cls-1, .cls-3 {
        stroke: #2d25a7;
      }

      .cls-4 {
        fill: #ff8e50;
      }

      .cls-5 {
        fill: #ff7dd7;
      }

      .cls-2 {
        stroke: #3d2194;
      }

      .cls-3 {
        fill: #e3fffe;
      }

      .cls-6 {
        fill: #38f2a9;
      }
    </style>
  </defs>
  <g id="stylo_emojis">
    <g>
      <circle class="cls-6" cx="57.5" cy="57.5" r="57.5"/>
      <ellipse class="cls-4" cx="30.77" cy="43.22" rx="9.82" ry="17.5" transform="translate(-22.25 45.07) rotate(-56.56)"/>
      <ellipse class="cls-4" cx="84.52" cy="43.27" rx="17.5" ry="9.82" transform="translate(-9.85 53.74) rotate(-33.44)"/>
      <circle class="cls-5" cx="96.5" cy="61.5" r="6"/>
      <circle class="cls-5" cx="12.5" cy="60.5" r="6"/>
      <path class="cls-3" d="M55,103c13.25,0,24-10.75,24-24H31c0,13.25,10.75,24,24,24Z"/>
      <line class="cls-2" x1="34" y1="91" x2="35" y2="91"/>
      <line class="cls-2" x1="76" y1="91" x2="77" y2="91"/>
      <line class="cls-1" x1="34" y1="89" x2="76" y2="89"/>
      <line class="cls-1" x1="63" y1="79" x2="63" y2="102"/>
      <line class="cls-1" x1="52" y1="79" x2="52" y2="102"/>
      <line class="cls-1" x1="44" y1="79" x2="44" y2="100"/>
    </g>
  </g>
</svg>