<?xml version="1.0" encoding="UTF-8"?>
<svg id="Layer_2" xmlns="http://www.w3.org/2000/svg" viewBox="0 0 115 115">
  <defs>
    <style>
      .cls-1 {
        fill: #ffbd6e;
      }

      .cls-2 {
        fill: #fff;
      }

      .cls-3 {
        fill: #18d4e8;
      }

      .cls-4 {
        fill: none;
        stroke: #ff8e50;
        stroke-miterlimit: 10;
        stroke-width: 4px;
      }

      .cls-5 {
        fill: #ff5793;
      }
    </style>
  </defs>
  <g id="all">
    <g>
      <circle class="cls-1" cx="57.5" cy="57.5" r="57.5"/>
      <path class="cls-2" d="M25.63,23.5s-16.34,23.58-3.32,22.29c13.02-1.29,27.47-2.74,35.38-1.02,7.92,1.72,21.24,6.72,29.72,4.72s20.72-7.72,2.49-6.36c-18.23,1.36-10.97-15.64-6.12-17.64s6.06-9-2.42-6c-8.48,3-9.82,6.78-25.81,6.64-3.54,2.09-29.92-2.64-29.92-2.64Z"/>
      <path class="cls-4" d="M28.5,72.5s17.53,15,43.77,15"/>
      <path class="cls-3" d="M28.66,24s13.51,2,12.2,5c-1.3,3-10.99,11-14.63,12s-2.42,4,6.06,2c8.48-2,16.65-5.26,28.31-1.63,11.66,3.63,21.35,5.63,27.41,3.63,6.06-2,2.42-2-4.85-2s-20.7-5-10.35-14c10.35-9,2.46-6-2.68-5-5.14,1-17.54,3.43-25.27,1.71-7.73-1.71-16.21-1.71-16.21-1.71Z"/>
      <circle class="cls-5" cx="34.78" cy="29.73" r="6.5"/>
      <circle class="cls-5" cx="79.78" cy="32.73" r="6.5"/>
    </g>
  </g>
</svg>