<?xml version="1.0" encoding="UTF-8"?>
<svg id="Layer_2" xmlns="http://www.w3.org/2000/svg" viewBox="0 0 115.61 115">
  <defs>
    <style>
      .cls-1 {
        fill: #ff7dd7;
      }

      .cls-2 {
        fill: #2d25a7;
      }

      .cls-3 {
        fill: #5d72f8;
      }

      .cls-4 {
        fill: none;
        stroke: #232321;
        stroke-miterlimit: 10;
        stroke-width: 4px;
      }

      .cls-5 {
        fill: #ff5793;
      }
    </style>
  </defs>
  <g id="feutre_emojis">
    <g>
      <circle class="cls-3" cx="57.5" cy="57.5" r="57.5"/>
      <path class="cls-4" d="M106.24,26.98c-27.26,8.48-38.29,7.52-38.29,7.52,23.45-5,25.72-21.7,25.72-21.7"/>
      <path class="cls-4" d="M54.5,35.5c-24-1-25.25-28.09-25.25-28.09-.25,18.91,22.25,44.09,22.25,44.09C19.5,44.5,12.7,21.46,12.7,21.46c0,0,6.05,30.03,27.93,36.54,0,0-7.13.51-14.13-.49"/>
      <path class="cls-4" d="M113.5,44.41c-13,7.91-44,6.09-44,6.09,0,0,30.48-3.3,36.74-22.15"/>
      <path class="cls-4" d="M74.07,62.5s30.91,6,39.67-17"/>
      <path class="cls-2" d="M101.46,41.06c4.56,8.68,4.76,17.94.46,20.68-4.3,2.73-11.49-2.09-16.04-10.77-4.56-8.68-4.76-17.94-.46-20.68,4.3-2.73,11.49,2.09,16.04,10.77Z"/>
      <circle class="cls-2" cx="93.5" cy="45.5" r="7"/>
      <path class="cls-2" d="M18.71,36.55c-4.56,8.68-4.76,17.94-.46,20.68,4.3,2.73,11.49-2.09,16.04-10.77,4.56-8.68,4.76-17.94.46-20.68-4.3-2.73-11.49,2.09-16.04,10.77Z"/>
      <circle class="cls-2" cx="26.5" cy="41.5" r="7"/>
      <path class="cls-5" d="M61,75.43c-8.66,0-16.49,1.35-22.17,3.54-6.51,2.51-8.44,5.03-8.99,7.19-.14.55-.18,1.03-.19,1.35h62.7c0-6.67-14.03-12.07-31.35-12.07Z"/>
      <path class="cls-1" d="M29.5,87.43c5.8,2.76,17.14,7.21,32,7,13.77-.19,24.3-4.29,30-7"/>
      <path class="cls-4" d="M12.7,50.68s-7.29-5.18-8.24-9.18"/>
    </g>
  </g>
</svg>