<?xml version="1.0" encoding="UTF-8"?>
<svg id="Layer_2" xmlns="http://www.w3.org/2000/svg" viewBox="0 0 118 118">
  <defs>
    <style>
      .cls-1 {
        stroke: #f7a074;
      }

      .cls-1, .cls-2, .cls-3, .cls-4 {
        fill: none;
        stroke-miterlimit: 10;
      }

      .cls-1, .cls-3, .cls-4 {
        stroke-width: 3px;
      }

      .cls-2 {
        stroke: #14cfe6;
        stroke-width: 10px;
      }

      .cls-3 {
        stroke: #f99c78;
      }

      .cls-5 {
        fill: #4420a1;
      }

      .cls-4 {
        stroke: #ff92be;
      }
    </style>
  </defs>
  <g id="stylo_emojis">
    <line class="cls-2" x1="45" y1="52" x2="69" y2="52"/>
    <path class="cls-4" d="M49,91c1.1-3.07,3.97-5.08,7-5,3.57.1,6.71,3.09,7,7"/>
    <line class="cls-1" x1="29.5" y1="74.5" x2="13.5" y2="94.5"/>
    <line class="cls-1" x1="18.5" y1="72.5" x2="8.5" y2="82.5"/>
    <line class="cls-1" x1="10.5" y1="66.5" x2="2.5" y2="71.5"/>
    <line class="cls-1" x1="90.5" y1="75.5" x2="104.5" y2="91.5"/>
    <line class="cls-1" x1="98.5" y1="72.5" x2="109.5" y2="83.5"/>
    <line class="cls-1" x1="103.5" y1="65.5" x2="113.5" y2="74.5"/>
    <path class="cls-5" d="M60.5,29c20.35,0,39.27,6.11,55.03,16.6C109.67,20.06,86.82,1,59.5,1S8.36,20.86,3.12,47.21c16.22-11.47,36.01-18.21,57.38-18.21Z"/>
    <ellipse class="cls-2" cx="29" cy="53.78" rx="16.5" ry="14.78"/>
    <ellipse class="cls-2" cx="84.5" cy="54.22" rx="16.5" ry="14.78"/>
    <circle class="cls-3" cx="59" cy="59" r="57.5"/>
  </g>
</svg>