<?xml version="1.0" encoding="UTF-8"?>
<svg id="Layer_2" xmlns="http://www.w3.org/2000/svg" viewBox="0 0 115 115">
  <defs>
    <style>
      .cls-1 {
        fill: #e3fffe;
        stroke: #8d9efc;
      }

      .cls-1, .cls-2 {
        stroke-width: 3px;
      }

      .cls-1, .cls-2, .cls-3 {
        stroke-miterlimit: 10;
      }

      .cls-2 {
        stroke: #232321;
      }

      .cls-2, .cls-3 {
        fill: none;
      }

      .cls-4 {
        fill: #232321;
      }

      .cls-3 {
        stroke: #f45b49;
        stroke-width: 4px;
      }

      .cls-5 {
        fill: #7c7b7f;
      }
    </style>
  </defs>
  <g id="stylo_emojis">
    <g>
      <circle class="cls-5" cx="57.5" cy="57.5" r="57.5"/>
      <line class="cls-2" x1="1.5" y1="47.24" x2="19.5" y2="47.24"/>
      <path class="cls-1" d="M31,92c-3.52-3.46-5.62-9.04-4-11,1.25-1.51,4.4-.48,10,1,20.25,5.35,30.37,8.02,37,5,1.24-.57,3.63-1.86,6-1,2.82,1.03,4.93,4.86,4,7-1.14,2.62-6.6,2.17-15,2-26.07-.53-32.29,2.6-38-3Z"/>
      <line class="cls-3" x1="96" y1="51" x2="96" y2="75.29"/>
      <line class="cls-3" x1="107.1" y1="44.5" x2="107.1" y2="74.92"/>
      <line class="cls-3" x1="82.1" y1="50.63" x2="82.1" y2="74.92"/>
      <line class="cls-3" x1="68.1" y1="50.63" x2="68.1" y2="74.92"/>
      <line class="cls-3" x1="59.1" y1="49.63" x2="59.1" y2="73.92"/>
      <line class="cls-3" x1="46.1" y1="50.63" x2="46.1" y2="74.92"/>
      <line class="cls-3" x1="32.1" y1="50.63" x2="32.1" y2="74.92"/>
      <line class="cls-3" x1="23.1" y1="50.63" x2="23.1" y2="74.92"/>
      <line class="cls-3" x1="14.1" y1="50.63" x2="14.1" y2="74.92"/>
      <line class="cls-3" x1="6.1" y1="49.63" x2="6.1" y2="73.92"/>
      <rect class="cls-4" x="17" y="41" width="33" height="19" rx="7" ry="7"/>
      <rect class="cls-4" x="70" y="39" width="33" height="19" rx="7" ry="7"/>
      <line class="cls-2" x1="45.5" y1="47.2" x2="75.5" y2="47.2"/>
      <line class="cls-2" x1="100.5" y1="45.24" x2="113.5" y2="45.24"/>
      <line class="cls-3" x1="72.9" y1="7.54" x2="42.48" y2="7.54"/>
      <line class="cls-3" x1="49.9" y1="24.54" x2="19.48" y2="24.54"/>
      <line class="cls-3" x1="99.9" y1="19.54" x2="69.48" y2="19.54"/>
      <line class="cls-3" x1="95.9" y1="29.54" x2="65.48" y2="29.54"/>
      <line class="cls-3" x1="41.9" y1="33.54" x2="11.48" y2="33.54"/>
    </g>
  </g>
</svg>