<?xml version="1.0" encoding="UTF-8"?>
<svg id="Layer_2" xmlns="http://www.w3.org/2000/svg" viewBox="0 0 115 115">
  <defs>
    <style>
      .cls-1 {
        stroke: #ff5793;
      }

      .cls-1, .cls-2, .cls-3 {
        fill: none;
      }

      .cls-1, .cls-2, .cls-3, .cls-4 {
        stroke-miterlimit: 10;
      }

      .cls-1, .cls-3 {
        stroke-width: 5px;
      }

      .cls-5 {
        fill: #d0bdff;
      }

      .cls-2, .cls-3, .cls-4 {
        stroke: #ff8e50;
      }

      .cls-2, .cls-4 {
        stroke-width: 6px;
      }

      .cls-6 {
        fill: #5d72f8;
      }

      .cls-4 {
        fill: #e3fffe;
      }
    </style>
  </defs>
  <g id="feutre_emojis">
    <circle class="cls-5" cx="57.5" cy="57.5" r="57.5"/>
    <polyline class="cls-4" points="40.95 76 40.95 93.27 75 94 75 76"/>
    <ellipse class="cls-6" cx="74" cy="44" rx="8.5" ry="9.5"/>
    <ellipse class="cls-6" cx="39" cy="41" rx="8.5" ry="9.5"/>
    <line class="cls-1" x1="70.5" y1="29.5" x2="70.5" y2="21.5"/>
    <line class="cls-1" x1="77" y1="31" x2="82" y2="24"/>
    <line class="cls-1" x1="87" y1="34" x2="99" y2="27"/>
    <line class="cls-1" x1="86" y1="49" x2="100" y2="57"/>
    <line class="cls-1" x1="81" y1="53" x2="82" y2="63"/>
    <line class="cls-1" x1="30" y1="54" x2="22" y2="60"/>
    <line class="cls-1" x1="26" y1="49" x2="11" y2="49"/>
    <line class="cls-1" x1="49" y1="27" x2="57" y2="19"/>
    <path class="cls-1" d="M40,26c-.59-.4-4.35-3.02-5-8-.54-4.2,1.49-7.28,2-8"/>
    <path class="cls-1" d="M29,31c-3.63.16-6.87-1.91-8-5-1.29-3.52.77-6.67,1-7"/>
    <line class="cls-2" x1="19" y1="75" x2="96" y2="77"/>
    <line class="cls-2" x1="57" y1="76" x2="58" y2="94"/>
    <line class="cls-2" x1="22" y1="69" x2="17" y2="84"/>
    <line class="cls-3" x1="96" y1="68" x2="98" y2="84"/>
  </g>
</svg>