<?xml version="1.0" encoding="UTF-8"?>
<svg id="Layer_2" xmlns="http://www.w3.org/2000/svg" viewBox="0 0 115 115">
  <defs>
    <style>
      .cls-1 {
        stroke: #5d72f8;
      }

      .cls-1, .cls-2 {
        fill: none;
        stroke-miterlimit: 10;
        stroke-width: 6px;
      }

      .cls-3 {
        fill: #18d4e8;
      }

      .cls-2 {
        stroke: #ffbd6e;
      }

      .cls-4 {
        fill: #5d72f8;
      }

      .cls-5 {
        fill: #ff5793;
      }
    </style>
  </defs>
  <g id="all">
    <g>
      <circle class="cls-3" cx="57.5" cy="57.5" r="57.5"/>
      <line class="cls-1" x1="19.73" y1="30.42" x2="46.73" y2="55.42"/>
      <line class="cls-1" x1="20.73" y1="56.42" x2="45.73" y2="29.42"/>
      <line class="cls-1" x1="70.66" y1="27.28" x2="97.66" y2="52.28"/>
      <line class="cls-1" x1="71.66" y1="53.28" x2="96.66" y2="26.28"/>
      <line class="cls-2" x1="31" y1="26" x2="28" y2="12"/>
      <line class="cls-2" x1="42.5" y1="21.5" x2="44.5" y2="10.5"/>
      <line class="cls-2" x1="18.5" y1="43.5" x2="6.5" y2="43.5"/>
      <line class="cls-2" x1="14.5" y1="56.5" x2="5.5" y2="59.5"/>
      <line class="cls-2" x1="84.5" y1="52.5" x2="84.5" y2="64.5"/>
      <line class="cls-2" x1="97.5" y1="40.5" x2="106.5" y2="45.5"/>
      <line class="cls-2" x1="84.5" y1="24.5" x2="87.5" y2="14.5"/>
      <line class="cls-2" x1="77.5" y1="23.5" x2="76.5" y2="11.5"/>
      <path class="cls-5" d="M84.5,88.5v-8h-10.05c-.45-5.05-4.29-9-8.95-9s-8.5,3.95-8.95,9h-.09c-.45-5.05-4.29-9-8.95-9s-8.5,3.95-8.95,9h-8.05v8h9.48c-.3.8-.48,1.64-.48,2.5,0,5.8,7.16,10.5,16,10.5s16-4.7,16-10.5c0-.62-.1-1.22-.25-1.81.24-.22.46-.45.68-.69h12.58Z"/>
      <circle class="cls-4" cx="83.53" cy="40.73" r="6.5"/>
      <circle class="cls-4" cx="33.53" cy="43.73" r="6.5"/>
    </g>
  </g>
</svg>