<?xml version="1.0" encoding="UTF-8"?>
<svg id="Layer_2" xmlns="http://www.w3.org/2000/svg" viewBox="0 0 119 119">
  <defs>
    <style>
      .cls-1 {
        stroke: #05b8df;
        stroke-width: 4px;
      }

      .cls-1, .cls-2 {
        fill: none;
        stroke-miterlimit: 10;
      }

      .cls-2 {
        stroke: #182ece;
        stroke-width: 5px;
      }

      .cls-3 {
        fill: #0f0f0f;
      }

      .cls-4 {
        fill: #0ea9ef;
      }
    </style>
  </defs>
  <g id="feutre_emojis">
    <path class="cls-4" d="M84.5,66.5c0-16.76,7.79-31.69,19.93-41.4C93.97,10.8,77.08,1.5,58,1.5S22.03,10.8,11.57,25.1c12.14,9.71,19.93,24.64,19.93,41.4,0,13.17-4.82,25.21-12.77,34.48,10.28,9.62,24.08,15.52,39.27,15.52s28.99-5.9,39.27-15.52c-7.95-9.27-12.77-21.31-12.77-34.48Z"/>
    <circle class="cls-1" cx="59.5" cy="59.5" r="57.5"/>
    <circle class="cls-3" cx="104" cy="57" r="7"/>
    <circle class="cls-3" cx="13" cy="59" r="7"/>
    <line class="cls-2" x1="13" y1="40" x2="31" y2="35"/>
    <line class="cls-2" x1="21.5" y1="53.5" x2="37.5" y2="49.5"/>
    <line class="cls-2" x1="23.5" y1="71.5" x2="39.5" y2="74.5"/>
    <line class="cls-2" x1="21.5" y1="86.5" x2="38.5" y2="90.5"/>
    <line class="cls-2" x1="84.5" y1="32.5" x2="100.5" y2="42.5"/>
    <line class="cls-2" x1="75.5" y1="47.5" x2="94.5" y2="51.5"/>
    <line class="cls-2" x1="75.5" y1="71.5" x2="92.5" y2="67.5"/>
    <line class="cls-2" x1="77.5" y1="90.5" x2="95.5" y2="84.5"/>
  </g>
</svg>