<?xml version="1.0" encoding="UTF-8"?>
<svg id="Layer_2" xmlns="http://www.w3.org/2000/svg" viewBox="0 0 119 119">
  <defs>
    <style>
      .cls-1 {
        stroke: #00ac8a;
        stroke-width: 4px;
      }

      .cls-1, .cls-2 {
        fill: none;
        stroke-miterlimit: 10;
      }

      .cls-2 {
        stroke: #691fcc;
        stroke-width: 5px;
      }

      .cls-3 {
        fill: #83f96e;
      }

      .cls-4 {
        fill: #0b8953;
      }
    </style>
  </defs>
  <g id="feutre_emojis">
    <circle class="cls-1" cx="59.5" cy="59.5" r="57.5"/>
    <path class="cls-4" d="M37.59,51.97c-.03-.33-.07-.66-.14-.99-.93-4.32-5.18-7.07-9.5-6.14s-7.07,5.18-6.14,9.5c.86,3.99,4.55,6.63,8.51,6.28v.07s19.57-4.21,19.57-4.21l-1.47-6.84-10.82,2.33Z"/>
    <path class="cls-4" d="M80.81,41.96c-.1-.31-.2-.63-.26-.97-.87-4.33,1.94-8.55,6.28-9.41s8.55,1.94,9.41,6.28c.8,4-1.54,7.89-5.31,9.15v.07s-19.6,3.92-19.6,3.92l-1.37-6.86,10.85-2.17Z"/>
    <rect class="cls-3" x="21.44" y="20.72" width="61.9" height="15" transform="translate(-3.79 8.59) rotate(-9.05)"/>
    <polygon class="cls-2" points="45.5 72.5 83.5 66.5 91.5 92.5 33.5 97.5 45.5 72.5"/>
    <line class="cls-2" x1="56" y1="71" x2="52" y2="96"/>
    <line class="cls-2" x1="72" y1="68" x2="70" y2="95"/>
    <line class="cls-2" x1="40" y1="85" x2="88" y2="80"/>
  </g>
</svg>