<?xml version="1.0" encoding="UTF-8"?>
<svg id="Layer_2" xmlns="http://www.w3.org/2000/svg" viewBox="0 0 119 119">
  <defs>
    <style>
      .cls-1 {
        stroke: #00a77c;
      }

      .cls-1, .cls-2, .cls-3, .cls-4 {
        fill: none;
        stroke-miterlimit: 10;
      }

      .cls-1, .cls-3, .cls-4 {
        stroke-width: 6px;
      }

      .cls-2 {
        stroke: #a5e686;
        stroke-width: 4px;
      }

      .cls-3 {
        stroke: #fdf342;
      }

      .cls-4 {
        stroke: #db0f6b;
      }
    </style>
  </defs>
  <g id="feutre_emojis">
    <circle class="cls-2" cx="59.5" cy="59.5" r="57.5"/>
    <line class="cls-2" x1="38.5" y1="6.5" x2="35.5" y2="28.5"/>
    <line class="cls-2" x1="53.5" y1="3.5" x2="50.5" y2="31.5"/>
    <line class="cls-2" x1="68.5" y1="3.5" x2="65.5" y2="34.5"/>
    <line class="cls-2" x1="83.5" y1="8.5" x2="82.5" y2="38.5"/>
    <line class="cls-2" x1="101.5" y1="21.5" x2="101.5" y2="36.5"/>
    <line class="cls-2" x1="108.5" y1="32.5" x2="100.5" y2="99.5"/>
    <line class="cls-2" x1="18.5" y1="19.5" x2="9.5" y2="72.5"/>
    <line class="cls-3" x1="23.5" y1="45.5" x2="20.5" y2="72.5"/>
    <line class="cls-3" x1="34.5" y1="51.5" x2="32.5" y2="72.5"/>
    <line class="cls-3" x1="47.5" y1="52.5" x2="45.5" y2="74.5"/>
    <line class="cls-3" x1="69.5" y1="56.5" x2="67.5" y2="83.5"/>
    <line class="cls-3" x1="80.5" y1="57.5" x2="79.5" y2="81.5"/>
    <line class="cls-3" x1="90.5" y1="57.5" x2="90.5" y2="79.5"/>
    <path class="cls-4" d="M24.5,32.5c2.95,2.16,7.65,5.06,14,7,6.58,2.01,12.29,2.18,16,2"/>
    <path class="cls-4" d="M71.5,44.5c3.99.91,8.7,1.69,14,2,3.63.21,6.98.18,10,0"/>
    <path class="cls-1" d="M20.5,81.5c8.67,3.6,19.42,7.29,32,10,12.04,2.59,22.91,3.66,32,4"/>
  </g>
</svg>