<?xml version="1.0" encoding="UTF-8"?>
<svg id="Layer_2" xmlns="http://www.w3.org/2000/svg" viewBox="0 0 120.47 119">
  <defs>
    <style>
      .cls-1 {
        stroke: #fd6542;
        stroke-width: 6px;
      }

      .cls-1, .cls-2, .cls-3 {
        fill: none;
        stroke-miterlimit: 10;
      }

      .cls-2 {
        stroke: #15c2f6;
        stroke-width: 4px;
      }

      .cls-4 {
        fill: #e90958;
      }

      .cls-3 {
        stroke: #e90958;
        stroke-width: 5px;
      }
    </style>
  </defs>
  <g id="feutre_emojis">
    <path class="cls-4" d="M43.97,30.5s-5.3-4-11.15,0-9.85,10-4.85,15,19,12,19,12c0,0,14-17,15-23s-3-11-8-11-10,3-10,7Z"/>
    <path class="cls-4" d="M83.91,34.07s5.3-4,11.15,0c5.85,4,9.85,10,4.85,15s-19,12-19,12c0,0-14-17-15-23s3-11,8-11,10,3,10,7Z"/>
    <path class="cls-3" d="M6.97,43.5c6.86,7.36,25.21,25.06,55,32,23.63,5.51,43.26,1.63,53-1"/>
    <path class="cls-1" d="M6.11,49.17c6.86,7.36,25.21,25.06,55,32,23.63,5.51,43.26,1.63,53-1"/>
    <path class="cls-1" d="M2.23,61.2c6.65,7.36,24.45,25.06,53.34,32,22.92,5.51,41.95,1.63,51.4-1"/>
    <path class="cls-1" d="M18.47,95c2.85-2.01,7.97-6.19,11.62-13.25,2.73-5.28,3.59-10.13,3.88-13.25"/>
    <path class="cls-1" d="M43.97,112.5c.23-4.01,1.06-10.14,4-17,2.78-6.47,6.37-11.11,9-14"/>
    <path class="cls-1" d="M75.97,84.5c-1.48,2.16-4.68,7.48-5,15-.28,6.63,1.83,11.66,3,14"/>
    <path class="cls-1" d="M92.97,85.5c-.65,1.69-1.97,5.82-1,11,.98,5.26,3.77,8.66,5,10"/>
    <circle class="cls-2" cx="60.97" cy="59.5" r="57.5"/>
  </g>
</svg>