<?xml version="1.0" encoding="UTF-8"?>
<svg id="Layer_2" xmlns="http://www.w3.org/2000/svg" viewBox="0 0 115 115">
  <defs>
    <style>
      .cls-1 {
        fill: #18d4e8;
      }

      .cls-2 {
        stroke: #ff7dd7;
      }

      .cls-2, .cls-3 {
        fill: none;
        stroke-miterlimit: 10;
        stroke-width: 6px;
      }

      .cls-4 {
        fill: #2d25a7;
      }

      .cls-5 {
        fill: #e3fffe;
      }

      .cls-3 {
        stroke: #f45b49;
      }
    </style>
  </defs>
  <g id="all">
    <g>
      <circle class="cls-1" cx="57.5" cy="57.5" r="57.5"/>
      <ellipse class="cls-5" cx="41.65" cy="33.03" rx="21" ry="8.23" transform="translate(-2.52 62.6) rotate(-72.22)"/>
      <ellipse class="cls-5" cx="79.69" cy="39.06" rx="17.26" ry="6.77" transform="translate(18.16 103.02) rotate(-72.22)"/>
      <ellipse class="cls-2" cx="15.28" cy="55.84" rx="7.39" ry="11.97" transform="translate(-13.87 5.82) rotate(-14.93)"/>
      <ellipse class="cls-2" cx="95.65" cy="70.16" rx="11.97" ry="7.39" transform="translate(-12.99 117.78) rotate(-59.93)"/>
      <g>
        <path class="cls-5" d="M64.69,79.47c4.79,4.25-2.21,17.71-18.19,17.89-15.98-.18-22.99-13.64-18.19-17.89,4.54-4.47,12.32-4.72,18.19-5.11,5.87.4,13.65.64,18.19,5.11Z"/>
        <path class="cls-3" d="M64.69,79.47c4.79,4.25-2.21,17.71-18.19,17.89-15.98-.18-22.99-13.64-18.19-17.89,4.54-4.47,12.32-4.72,18.19-5.11,5.87.4,13.65.64,18.19,5.11Z"/>
      </g>
      <circle class="cls-4" cx="76.54" cy="49.19" r="6.5"/>
      <circle class="cls-4" cx="45.54" cy="19.19" r="6.5"/>
    </g>
  </g>
</svg>