<?xml version="1.0" encoding="UTF-8"?>
<svg id="Layer_2" xmlns="http://www.w3.org/2000/svg" viewBox="0 0 119 119">
  <defs>
    <style>
      .cls-1 {
        stroke: #e356e1;
        stroke-width: 4px;
      }

      .cls-1, .cls-2, .cls-3 {
        fill: none;
        stroke-miterlimit: 10;
      }

      .cls-2 {
        stroke: #0d0d0d;
      }

      .cls-2, .cls-3 {
        stroke-width: 5px;
      }

      .cls-4 {
        fill: #f03293;
      }

      .cls-3 {
        stroke: #ff64f7;
      }

      .cls-5 {
        fill: #db28c4;
      }
    </style>
  </defs>
  <g id="feutre_emojis">
    <circle class="cls-5" cx="84.72" cy="42.5" r="5"/>
    <circle class="cls-5" cx="30.28" cy="42.5" r="5"/>
    <circle class="cls-1" cx="59.5" cy="59.5" r="57.5"/>
    <path class="cls-3" d="M74,27c.81,1.16,3.98,5.39,10,7,5.91,1.58,10.69-.4,12-1"/>
    <path class="cls-3" d="M72,55c.67-1.07,4.74-7.35,13-9,7.92-1.58,13.89,2.25,15,3"/>
    <path class="cls-3" d="M21,55c1.62-1.72,6.72-6.68,15-8,10.65-1.7,18.51,3.89,20,5"/>
    <line class="cls-3" x1="21" y1="39" x2="46" y2="28"/>
    <path class="cls-2" d="M26,83c3.09-2.39,7.47-4.91,12-4,5.99,1.2,6.6,7.23,14,10,4.23,1.58,10.52,2.03,15-1,5.33-3.61,3.36-8.94,8-12,5.81-3.83,12.21,2.35,20,1,5.35-.93,12.41-5.59,19-23"/>
    <path class="cls-2" d="M15,76c4.35.38,8.17,3.05,10,7,2.85,6.15-.82,11.73-1,12"/>
    <ellipse class="cls-4" cx="89" cy="58.5" rx="9.5" ry="6"/>
    <ellipse class="cls-4" cx="39.5" cy="61.5" rx="13" ry="7"/>
  </g>
</svg>