<?xml version="1.0" encoding="UTF-8"?>
<svg id="Layer_2" xmlns="http://www.w3.org/2000/svg" viewBox="0 0 116 116">
  <defs>
    <style>
      .cls-1 {
        fill: #079e8b;
      }

      .cls-2 {
        fill: #ffbd6e;
      }

      .cls-3 {
        fill: #5d72f8;
      }

      .cls-4 {
        fill: #38f2a9;
      }

      .cls-5 {
        fill: #c2f4d1;
      }
    </style>
  </defs>
  <g id="all">
    <g>
      <circle class="cls-5" cx="58" cy="57.77" r="57.5"/>
      <circle class="cls-2" cx="58" cy="58" r="58"/>
      <polygon class="cls-1" points="50 38.77 40 38.77 40 29.77 30 29.77 30 38.77 21 38.77 21 48.77 30 48.77 30 58.77 40 58.77 40 48.77 50 48.77 50 38.77"/>
      <polygon class="cls-1" points="94 38.77 84 38.77 84 29.77 74 29.77 74 38.77 65 38.77 65 48.77 74 48.77 74 58.77 84 58.77 84 48.77 94 48.77 94 38.77"/>
      <rect class="cls-3" x="52" y="75.77" width="29" height="10"/>
      <circle class="cls-4" cx="77.78" cy="42.5" r="6.5"/>
      <circle class="cls-4" cx="34.78" cy="43.5" r="6.5"/>
    </g>
  </g>
</svg>