<?xml version="1.0" encoding="UTF-8"?>
<svg id="Layer_2" xmlns="http://www.w3.org/2000/svg" viewBox="0 0 118 118">
  <defs>
    <style>
      .cls-1 {
        stroke: #f32c56;
        stroke-width: 3px;
      }

      .cls-1, .cls-2 {
        fill: none;
        stroke-miterlimit: 10;
      }

      .cls-3 {
        fill: #56efb1;
      }

      .cls-4 {
        fill: #f374f4;
      }

      .cls-2 {
        stroke: #0b0b0b;
        stroke-width: 4px;
      }
    </style>
  </defs>
  <g id="stylo_emojis">
    <circle class="cls-1" cx="59" cy="59" r="57.5"/>
    <path class="cls-4" d="M40,33.6v-7.6c-20.48.19-37,11.75-37,26s16.52,25.8,37,26v-7.42c-16.05-.14-29-8.36-29-18.48s12.95-18.35,29-18.48Z"/>
    <path class="cls-4" d="M76,29.63v-7.6c20.48.19,37,11.75,37,26,0,14.24-16.52,25.8-37,26v-7.42c16.05-.14,29-8.36,29-18.48s-12.95-18.35-29-18.48Z"/>
    <ellipse class="cls-3" cx="89" cy="46.5" rx="15" ry="7.5"/>
    <ellipse class="cls-3" cx="32" cy="53.5" rx="15" ry="7.5"/>
    <line class="cls-2" x1="37.47" y1="94.36" x2="59" y2="94.36"/>
  </g>
</svg>