<?xml version="1.0" encoding="UTF-8"?>
<svg id="Layer_2" xmlns="http://www.w3.org/2000/svg" viewBox="0 0 115 115">
  <defs>
    <style>
      .cls-1 {
        stroke: #2d25a7;
      }

      .cls-1, .cls-2 {
        fill: none;
        stroke-miterlimit: 10;
        stroke-width: 3px;
      }

      .cls-2 {
        stroke: #61d9d8;
      }

      .cls-3 {
        fill: #8d9efc;
      }

      .cls-4 {
        fill: #e3fffe;
      }

      .cls-5 {
        fill: #ff5793;
      }
    </style>
  </defs>
  <g id="stylo_emojis">
    <g>
      <circle class="cls-5" cx="57.5" cy="57.5" r="57.5"/>
      <ellipse class="cls-3" cx="89.5" cy="41.25" rx="11.23" ry="4.75"/>
      <ellipse class="cls-3" cx="28.27" cy="43.99" rx="11.23" ry="4.75"/>
      <g>
        <path class="cls-4" d="M73,79.99c0,2.62-7.6,4.75-16.98,4.75s-16.77-1.36-16.52-3.03,7.86-3.8,16.98-4.75,16.52.41,16.52,3.03Z"/>
        <path class="cls-1" d="M73,79.99c0,2.62-7.6,4.75-16.98,4.75s-16.77-1.36-16.52-3.03,7.86-3.8,16.98-4.75,16.52.41,16.52,3.03Z"/>
      </g>
      <line class="cls-2" x1="32" y1="14" x2="32" y2="27.27"/>
      <line class="cls-2" x1="39.93" y1="14.1" x2="39.93" y2="27.37"/>
      <line class="cls-2" x1="47.93" y1="9.5" x2="47.93" y2="27.37"/>
      <line class="cls-2" x1="58.93" y1="7.5" x2="58.93" y2="27.37"/>
      <line class="cls-2" x1="69.93" y1="8.5" x2="69.93" y2="26.37"/>
      <line class="cls-2" x1="79.93" y1="14.1" x2="79.93" y2="27.37"/>
      <line class="cls-2" x1="91.93" y1="15.1" x2="91.93" y2="28.37"/>
      <line class="cls-2" x1="44.93" y1="93.1" x2="44.93" y2="106.37"/>
      <line class="cls-2" x1="55.93" y1="93.1" x2="55.93" y2="106.37"/>
      <line class="cls-2" x1="70.93" y1="93.1" x2="70.93" y2="106.37"/>
      <line class="cls-2" x1="19.56" y1="53.73" x2="6.29" y2="53.73"/>
      <line class="cls-2" x1="20.56" y1="63.73" x2="7.29" y2="63.73"/>
      <line class="cls-2" x1="110.56" y1="51.73" x2="97.29" y2="51.73"/>
      <line class="cls-2" x1="110.56" y1="58.73" x2="97.29" y2="58.73"/>
      <line class="cls-2" x1="107.56" y1="70.73" x2="94.29" y2="70.73"/>
      <line class="cls-2" x1="21.56" y1="75.73" x2="8.29" y2="75.73"/>
    </g>
  </g>
</svg>