<?xml version="1.0" encoding="UTF-8"?>
<svg id="Layer_2" xmlns="http://www.w3.org/2000/svg" viewBox="0 0 115 115">
  <defs>
    <style>
      .cls-1 {
        fill: #ffbd6e;
      }

      .cls-2 {
        stroke: #2d25a7;
      }

      .cls-2, .cls-3 {
        fill: none;
        stroke-miterlimit: 10;
        stroke-width: 4px;
      }

      .cls-4 {
        fill: #5d72f8;
      }

      .cls-3 {
        stroke: #8d9efc;
      }
    </style>
  </defs>
  <g id="all">
    <g>
      <circle class="cls-4" cx="57.5" cy="57.5" r="57.5"/>
      <path class="cls-2" d="M57.5,5.5c-6.25-2.24-12.29-.83-15,3-1.55,2.19-2.44,5.77-1,8,3.03,4.71,16.09-6.57,28-2,3.37,1.3,8.19,3.61,8,6-.16,2.09-4.03,3.37-6,4-10.5,3.37-17.47-.72-33-1-11.75-.21-13.47,1.99-14,3-1.43,2.72.44,6.93,3,9,3.76,3.05,8.47-1.05,18-3,10.84-2.22,10.92,1.43,25,0,12.14-1.23,15.44-4.28,22-2,5.38,1.87,8.89,5.92,11,9"/>
      <path class="cls-2" d="M40.5,83.5c17.25-7.41,32.03-7.76,37-1,2.06,2.8,3.04,7.66,1,10-4.5,5.17-20.26-5.87-26,0-2.05,2.1-2.28,5.8-1,8,2.64,4.53,14.61-3.51,19,1,2.08,2.14,2.44,6.83,0,9-1.84,1.64-5.1,1.69-8,0"/>
      <path class="cls-3" d="M33.5,57.5c1.98,4.37,6.34,7.14,11,7,5.15-.15,9.69-3.82,11-9"/>
      <path class="cls-3" d="M63.59,57.16c1.98,4.37,6.34,7.14,11,7,5.15-.15,9.69-3.82,11-9"/>
      <circle class="cls-1" cx="74.53" cy="51.73" r="6.5"/>
      <circle class="cls-1" cx="43.53" cy="52.73" r="6.5"/>
    </g>
  </g>
</svg>