<?xml version="1.0" encoding="UTF-8"?>
<svg id="Layer_2" xmlns="http://www.w3.org/2000/svg" viewBox="0 0 115 115">
  <defs>
    <style>
      .cls-1 {
        fill: #079e8b;
      }

      .cls-2 {
        fill: #8d9efc;
      }

      .cls-3 {
        fill: #5d72f8;
      }

      .cls-4 {
        fill: #61d9d8;
      }

      .cls-5 {
        fill: #38f2a9;
      }
    </style>
  </defs>
  <g id="aquarelle_emojis">
    <g>
      <circle class="cls-1" cx="57.5" cy="57.5" r="57.5"/>
      <circle class="cls-5" cx="58" cy="59" r="54.5"/>
      <rect class="cls-4" x="73" y="32" width="26" height="26"/>
      <rect class="cls-4" x="25" y="30" width="26" height="26"/>
      <circle class="cls-1" cx="37.5" cy="43.5" r="4.5"/>
      <circle class="cls-1" cx="86.5" cy="47.5" r="4.5"/>
      <rect class="cls-2" x="32" y="27" width="12" height="4"/>
      <rect class="cls-2" x="31" y="53" width="12" height="4"/>
      <rect class="cls-2" x="80" y="30" width="12" height="4"/>
      <rect class="cls-2" x="81" y="57" width="12" height="4"/>
      <rect class="cls-2" x="18" y="40" width="12" height="4" transform="translate(66 18) rotate(90)"/>
      <rect class="cls-2" x="46" y="41" width="12" height="4" transform="translate(95 -9) rotate(90)"/>
      <rect class="cls-2" x="66" y="42" width="12" height="4" transform="translate(116 -28) rotate(90)"/>
      <rect class="cls-2" x="95" y="43" width="12" height="4" transform="translate(146 -56) rotate(90)"/>
      <path class="cls-3" d="M30,85.5h55s-6-9-18-10-23-1-37,10Z"/>
    </g>
  </g>
</svg>