<?xml version="1.0" encoding="UTF-8"?>
<svg id="Layer_2" xmlns="http://www.w3.org/2000/svg" viewBox="0 0 118 118">
  <defs>
    <style>
      .cls-1 {
        stroke: #33229b;
      }

      .cls-1, .cls-2 {
        stroke-width: 4px;
      }

      .cls-1, .cls-2, .cls-3 {
        fill: none;
        stroke-miterlimit: 10;
      }

      .cls-4 {
        fill: #11bead;
      }

      .cls-2 {
        stroke: #920420;
      }

      .cls-5 {
        fill: #0cdba4;
      }

      .cls-3 {
        stroke: #83f4bb;
        stroke-width: 3px;
      }
    </style>
  </defs>
  <g id="stylo_emojis">
    <circle class="cls-3" cx="59" cy="59" r="57.5"/>
    <line class="cls-1" x1="38.5" y1="20.5" x2="39.5" y2="66.5"/>
    <line class="cls-1" x1="79.48" y1="21.36" x2="80.48" y2="67.36"/>
    <polygon class="cls-4" points="28.66 43.81 21.61 40.13 15.94 45.7 17.26 37.86 10.21 34.18 18.07 33.02 19.39 25.18 22.93 32.3 30.79 31.13 25.12 36.69 28.66 43.81"/>
    <polygon class="cls-4" points="102.13 41.73 95.09 38.06 89.42 43.62 90.73 35.78 83.69 32.11 91.55 30.94 92.87 23.1 96.41 30.22 104.27 29.05 98.6 34.62 102.13 41.73"/>
    <polygon class="cls-5" points="30.99 78.01 20.15 71.85 10.95 80.26 13.46 68.05 2.62 61.89 15.01 60.5 17.51 48.3 22.66 59.65 35.05 58.26 25.84 66.66 30.99 78.01"/>
    <polygon class="cls-5" points="113.13 75.1 102.3 68.94 93.09 77.34 95.6 65.13 84.77 58.98 97.15 57.59 99.66 45.38 104.81 56.73 117.19 55.34 107.99 63.75 113.13 75.1"/>
    <line class="cls-2" x1="39" y1="92" x2="82" y2="90"/>
  </g>
</svg>