<?xml version="1.0" encoding="UTF-8"?>
<svg id="Layer_2" xmlns="http://www.w3.org/2000/svg" viewBox="0 0 115 115">
  <defs>
    <style>
      .cls-1 {
        stroke: #4420a1;
      }

      .cls-1, .cls-2 {
        fill: none;
        stroke-miterlimit: 10;
        stroke-width: 3px;
      }

      .cls-3 {
        fill: #8d9efc;
      }

      .cls-2 {
        stroke: #e92047;
      }

      .cls-4 {
        fill: #4420a1;
      }
    </style>
  </defs>
  <g id="stylo_emojis">
    <g>
      <circle class="cls-3" cx="57.5" cy="57.5" r="57.5"/>
      <path class="cls-2" d="M51.96,17.97c.69-2.09,1.48-4.67.18-6.69-1.17-1.81-3.84-2.29-5.75-1.29-4.49,2.37-3.3,8.6-.46,11.8,3.61,4.08,10.14,5.29,14.72,2.09,4.76-3.33,6.65-11.47,12.86-12.61,2.13-.39,4.48.43,5.77,2.17,1.28,1.74,1.33,4.35-.04,6.03-2.19,2.7-6,1.43-8.25-.47"/>
      <circle class="cls-4" cx="31.5" cy="42.5" r="9"/>
      <circle class="cls-4" cx="89.5" cy="45.5" r="9"/>
      <path class="cls-1" d="M24.5,45.5c1.23,2,8.12,12.81,20,14,7.57.76,13.75-2.73,16-4,10.47-5.92,11.05-14.09,20-17,4.64-1.51,9.05-.8,12,0"/>
      <path class="cls-2" d="M29.73,81.37c1.23,2,8.12,12.81,20,14,7.57.76,13.75-2.73,16-4,10.47-5.92,11.05-14.09,20-17,4.64-1.51,9.05-.8,12,0"/>
    </g>
  </g>
</svg>