<?xml version="1.0" encoding="UTF-8"?>
<svg id="Layer_2" xmlns="http://www.w3.org/2000/svg" viewBox="0 0 118 118">
  <defs>
    <style>
      .cls-1 {
        stroke: #56dce1;
      }

      .cls-1, .cls-2, .cls-3, .cls-4 {
        fill: none;
        stroke-miterlimit: 10;
        stroke-width: 3px;
      }

      .cls-5 {
        fill: #b80a4c;
      }

      .cls-2 {
        stroke: #080808;
      }

      .cls-3 {
        stroke: #000;
      }

      .cls-4 {
        stroke: #3c2081;
      }
    </style>
  </defs>
  <g id="stylo_emojis">
    <circle class="cls-3" cx="59" cy="59" r="57.5"/>
    <polyline class="cls-2" points="11.53 59 29.5 22.5 29.5 42.32 43.5 26.5 37.5 57.5 56.5 30.5 52.5 55.5 73.5 30.5 72.5 53.5 86.5 29.5 98.5 47.5 97.5 30.5 109.57 40.75"/>
    <polyline class="cls-4" points="39.11 8.5 36.3 17.78 50.5 6.5 48.55 22.5 62.6 8.5 59 24 74.5 11.5 68.5 27 81.5 15.5 87.87 22.5 87.5 14.5"/>
    <circle class="cls-5" cx="26.75" cy="52.75" r="3.25"/>
    <circle class="cls-5" cx="88.94" cy="53.32" r="3.25"/>
    <path class="cls-1" d="M81.33,96.06l-51.08,3.13c-4.96.38-9.29-3.3-9.68-8.26h0c-.39-4.97,3.31-9.08,8.26-9.14l51.08.21c4.96.1,9.29,3.22,9.68,6.95h0c.39,3.71-3.31,6.88-8.26,7.1Z"/>
  </g>
</svg>