<?xml version="1.0" encoding="UTF-8"?>
<svg id="Layer_2" xmlns="http://www.w3.org/2000/svg" viewBox="0 0 115 115">
  <defs>
    <style>
      .cls-1 {
        fill: #fdfad0;
      }

      .cls-2 {
        fill: #afdde6;
      }

      .cls-3 {
        fill: #6291c4;
      }

      .cls-4 {
        fill: none;
        stroke: #373536;
        stroke-miterlimit: 10;
        stroke-width: 5px;
      }

      .cls-5 {
        fill: #aec5c3;
      }
    </style>
  </defs>
  <g id="Layer_1-2" data-name="Layer_1">
    <g>
      <circle class="cls-3" cx="57.5" cy="57.5" r="57.5"/>
      <path class="cls-2" d="M101.5,23.5s-6,5-12,5-6-5-6-5c0,0-9,8-13,5s1-9.79,1-9.79c0,0-11-2.21-9-7.21s9-4,9-4"/>
      <path class="cls-2" d="M14.5,22.5s26,10,34,10,7-8,4-11-10-1-10-1c0,0,4-8-1-10s-8,1-8,1"/>
      <path class="cls-2" d="M7.5,72.5c5,5,15-4,15-4,0,0,12,6,16,2s3-9-2-12-17,2-17,2c0,0-1-8-8-8s-8,4-8,4"/>
      <path class="cls-4" d="M88.28,87.92s-19.89,2-33.5,9.69c0,0-14.46-9.29-26.48-9.68"/>
      <path class="cls-2" d="M110.82,52.5s-4.03-5.5-8.43-1-4.39,8.5-4.39,8.5c0,0-13,1-14,7s7,7,16,2c2,7,12,1,12,1"/>
      <circle class="cls-5" cx="86.5" cy="44.5" r="6.5"/>
      <circle class="cls-1" cx="32.5" cy="44.5" r="6.5"/>
    </g>
  </g>
</svg>