<?xml version="1.0" encoding="UTF-8"?>
<svg id="Layer_2" xmlns="http://www.w3.org/2000/svg" viewBox="0 0 115 115">
  <defs>
    <style>
      .cls-1 {
        fill: #fdfad0;
      }

      .cls-2 {
        fill: #6291c4;
      }

      .cls-3 {
        fill: #373536;
      }

      .cls-4 {
        fill: #aec5c3;
      }

      .cls-5 {
        fill: none;
        stroke: #373536;
        stroke-miterlimit: 10;
        stroke-width: 4px;
      }
    </style>
  </defs>
  <g id="Layer_1-2" data-name="Layer_1">
    <g>
      <circle class="cls-2" cx="57.5" cy="57.5" r="57.5"/>
      <path class="cls-1" d="M83.41,93.02c-14.33,3.95-29.48,3.95-43.82,0-9.06-2.49-13.41-10.76-10.31-16.27h0c3.1-5.57,10.27-7.54,16.42-5.9,10.34,2.85,21.26,2.85,31.6,0,6.15-1.64,13.32.33,16.42,5.9h0c3.1,5.52-1.25,13.78-10.31,16.27Z"/>
      <rect class="cls-4" x="60.5" y="73.5" width="13" height="11"/>
      <line class="cls-5" x1="17.5" y1="31.5" x2="36.5" y2="33.5"/>
      <line class="cls-5" x1="73.92" y1="32.59" x2="86.43" y2="32.12"/>
      <line class="cls-5" x1="92.44" y1="29.69" x2="101.43" y2="29.13"/>
      <path class="cls-5" d="M83.41,93.02c-14.33,3.95-29.48,3.95-43.82,0-9.06-2.49-13.41-10.76-10.31-16.27h0c3.1-5.57,10.27-7.54,16.42-5.9,10.34,2.85,21.26,2.85,31.6,0,6.15-1.64,13.32.33,16.42,5.9h0c3.1,5.52-1.25,13.78-10.31,16.27Z"/>
      <path class="cls-5" d="M27.5,82.5s27,8,68-2"/>
      <line class="cls-5" x1="50.5" y1="72.5" x2="51.5" y2="96.5"/>
      <line class="cls-5" x1="62.5" y1="72.5" x2="63.5" y2="96.5"/>
      <line class="cls-5" x1="73.5" y1="71.5" x2="75.5" y2="95.5"/>
      <line class="cls-5" x1="86.16" y1="71.33" x2="83.5" y2="93.5"/>
      <line class="cls-5" x1="37.5" y1="70.5" x2="39.5" y2="93.5"/>
      <circle class="cls-3" cx="19" cy="44" r="6.5"/>
      <circle class="cls-3" cx="95" cy="44" r="6.5"/>
    </g>
  </g>
</svg>