<?xml version="1.0" encoding="UTF-8"?>
<svg id="Layer_2" xmlns="http://www.w3.org/2000/svg" viewBox="0 0 115 115">
  <defs>
    <style>
      .cls-1 {
        fill: #d691e0;
      }

      .cls-2 {
        fill: #afdde6;
      }

      .cls-3 {
        fill: #6291c4;
      }

      .cls-4 {
        fill: none;
        stroke: #eaa7c8;
        stroke-miterlimit: 10;
        stroke-width: 4px;
      }
    </style>
  </defs>
  <g id="Layer_1-2" data-name="Layer_1">
    <g>
      <circle class="cls-3" cx="57.5" cy="57.5" r="57.5"/>
      <path class="cls-2" d="M58.64,82.92c-17.24,2.5-34.46-6.33-48.4-22.65,11.42,27.83,32.05,45.69,52.72,42.69,22.47-3.26,37.89-30.14,38.92-63.89-8.24,24.13-23.65,41.01-43.24,43.86Z"/>
      <line class="cls-4" x1="47.5" y1="4.5" x2="40.5" y2="26.5"/>
      <line class="cls-4" x1="71.58" y1="4.31" x2="82.19" y2="24.82"/>
      <line class="cls-4" x1="38.34" y1="6.63" x2="27.5" y2="37.5"/>
      <line class="cls-4" x1="2.09" y1="50.71" x2="28.5" y2="36.5"/>
      <line class="cls-4" x1="96.5" y1="32.5" x2="84.18" y2="9.33"/>
      <line class="cls-4" x1="95.5" y1="31.5" x2="111.18" y2="41.33"/>
      <line class="cls-4" x1="25.91" y1="11.83" x2="17.77" y2="33.43"/>
      <line class="cls-4" x1="4.5" y1="42.5" x2="18.5" y2="32.5"/>
      <circle class="cls-1" cx="60.68" cy="26.83" r="6.5"/>
      <circle class="cls-1" cx="36.68" cy="45.83" r="6.5"/>
    </g>
  </g>
</svg>