<?xml version="1.0" encoding="UTF-8"?>
<svg id="Layer_2" xmlns="http://www.w3.org/2000/svg" viewBox="0 0 115 115">
  <defs>
    <style>
      .cls-1 {
        fill: #fdfad0;
      }

      .cls-2, .cls-3 {
        fill: none;
      }

      .cls-4 {
        fill: #373536;
      }

      .cls-5 {
        fill: #e58091;
      }

      .cls-3 {
        stroke: #373536;
        stroke-miterlimit: 10;
        stroke-width: 4px;
      }
    </style>
  </defs>
  <g id="Layer_1-2" data-name="Layer_1">
    <g>
      <circle class="cls-1" cx="57.5" cy="57.5" r="57.5"/>
      <g>
        <path class="cls-2" d="M107.58,71.87c-3.18-8.19-11.75-11.81-13.53-12.57-5.77-2.44-10.81-2.23-16.43-1.93-11.38.6-13.31,3.79-20.3,3.87-10.13.11-19.89-6.46-25.13-13.53-8.35-11.28-8.28-28.05.37-42.03C13.29,14.97,0,34.68,0,57.5c0,31.76,25.74,57.5,57.5,57.5,21.9,0,40.93-12.24,50.64-30.25.65-2.91,1.38-7.88-.56-12.87Z"/>
        <path class="cls-4" d="M32.18,47.71c5.24,7.08,15,13.64,25.13,13.53,6.99-.07,8.92-3.27,20.3-3.87,5.63-.3,10.67-.51,16.43,1.93,1.78.75,10.35,4.38,13.53,12.57,1.94,4.99,1.21,9.96.56,12.87,4.37-8.11,6.86-17.39,6.86-27.25C115,25.74,89.26,0,57.5,0,48.56,0,40.1,2.04,32.55,5.68c-8.65,13.98-8.72,30.75-.37,42.03Z"/>
      </g>
      <circle class="cls-5" cx="74.24" cy="100" r="8"/>
      <circle class="cls-5" cx="40.24" cy="26" r="8"/>
      <path class="cls-3" d="M19.24,62c.72,2.73,2.85,9.31,9,15,6.75,6.23,14.26,7.63,17,8"/>
      <circle class="cls-1" cx="58.42" cy="26.33" r="6.5"/>
      <circle class="cls-4" cx="81.42" cy="84.33" r="6.5"/>
      <path class="cls-2" d="M106.28,87.34c-.35-.09,2.94-7.65,0-15.22-3.13-8.06-11.56-11.62-13.32-12.37-5.67-2.4-10.63-2.19-16.17-1.9-11.2.59-13.09,3.73-19.98,3.8-9.97.1-19.58-6.35-24.73-13.32-8.57-11.58-8.15-29.04,1.49-43.12C13.76,14.3,0,34.29,0,57.5,0,89.26,25.74,115,57.5,115c21.07,0,39.48-11.34,49.5-28.24-.34.41-.6.62-.72.58Z"/>
    </g>
  </g>
</svg>