<?xml version="1.0" encoding="UTF-8"?>
<svg id="Layer_2" xmlns="http://www.w3.org/2000/svg" viewBox="0 0 115 115">
  <defs>
    <style>
      .cls-1 {
        fill: #afdde6;
      }

      .cls-2 {
        stroke: #e58091;
      }

      .cls-2, .cls-3 {
        stroke-width: 4px;
      }

      .cls-2, .cls-3, .cls-4 {
        stroke-miterlimit: 10;
      }

      .cls-2, .cls-4 {
        fill: none;
      }

      .cls-3 {
        fill: #fdfad0;
        stroke: #b9a5d4;
      }

      .cls-5 {
        fill: #373536;
      }

      .cls-4 {
        stroke: #eaa7c8;
        stroke-width: 5px;
      }
    </style>
  </defs>
  <g id="Layer_1-2" data-name="Layer_1">
    <g>
      <circle class="cls-1" cx="57.5" cy="57.5" r="57.5"/>
      <path class="cls-2" d="M11.5,53.52S5.5,25.17,26.5,11.48c1,29.33,26,48.89,26,48.89,0,0-15-31.29-8-49.87,12,46.93,25.32,46.93,25.32,46.93,0,0-10.32-19.56-3.32-43.02,2,15.64,5.11,17.6,5.11,17.6,0,0,1.89-11.73,3.89-16.62,6,22.49,26,33.24,26,33.24,0,0-7-15.64-7-22.49,9,14.67,12,16.62,12,16.62l-4-15.64"/>
      <path class="cls-4" d="M78,87c-30-41-38,1-38,1"/>
      <line class="cls-4" x1="42.5" y1="93.5" x2="74.5" y2="93.5"/>
      <path class="cls-3" d="M44,89l31,1s-25-37-31-1Z"/>
      <circle class="cls-5" cx="24.18" cy="41.83" r="6.5"/>
      <circle class="cls-5" cx="78.18" cy="41.83" r="6.5"/>
    </g>
  </g>
</svg>