<?xml version="1.0" encoding="UTF-8"?>
<svg id="Layer_2" xmlns="http://www.w3.org/2000/svg" viewBox="0 0 114.77 115.16">
  <defs>
    <style>
      .cls-1 {
        fill: none;
      }

      .cls-1, .cls-2 {
        stroke: #6291c4;
      }

      .cls-1, .cls-2, .cls-3 {
        stroke-miterlimit: 10;
      }

      .cls-1, .cls-3 {
        stroke-width: 6px;
      }

      .cls-4 {
        fill: #eaa7c8;
      }

      .cls-2 {
        fill: #afdde6;
        stroke-width: 4px;
      }

      .cls-5 {
        fill: #b9a5d4;
      }

      .cls-3 {
        fill: #a7ea9d;
        stroke: #e58091;
      }
    </style>
  </defs>
  <g id="Layer_1-2" data-name="Layer_1">
    <g>
      <circle class="cls-4" cx="57.38" cy="57.38" r="57.38"/>
      <path class="cls-2" d="M106.49,84.26c-10.43-9.05-26.7-14.88-44.99-14.88-21.42,0-40.06,7.98-49.8,19.78,10.5,14.58,27.11,24,45.8,24,20.72,0,38.87-11.56,48.99-28.9Z"/>
      <line class="cls-1" x1="73.5" y1="69.38" x2="78.5" y2="108.38"/>
      <line class="cls-1" x1="52.5" y1="70.38" x2="57.77" y2="113.16"/>
      <line class="cls-1" x1="32.5" y1="74.38" x2="35.77" y2="109.16"/>
      <path class="cls-3" d="M48.93,52.75s-27.13,10.85-31.12,10.52c-3.99-.32-10.8-2.88-9.08-11.77,1.72-8.89,17.67-7.6,17.67-7.6l-7.79-2.64c-7.79-2.64-4.93-11.26-4.93-11.26,0,0,2.38-7,14.18-4.04,11.8,2.96,26.94,14.22,26.94,14.22,0,0,23.46-17.16,33.43-16.36,9.97.81,9.89,1.8,12.64,5.04,2.75,3.23-1.8,9.89-4.95,11.64-3.15,1.75-10.04,2.2-10.04,2.2,0,0,9.92.8,14.52,5.19,4.6,4.39,4.85,8.42,1.75,12.18-3.1,3.76-10.18,3.19-16.53,1.67s-20.64-7.69-20.64-7.69l-7.99-3.66-8.05,2.36Z"/>
      <circle class="cls-5" cx="95.53" cy="54.12" r="6.5"/>
      <circle class="cls-5" cx="17.53" cy="54.12" r="6.5"/>
      <circle class="cls-5" cx="92.53" cy="32.62" r="6.5"/>
      <circle class="cls-5" cx="20.53" cy="32.62" r="6.5"/>
    </g>
  </g>
</svg>