<?xml version="1.0" encoding="UTF-8"?>
<svg id="Layer_2" xmlns="http://www.w3.org/2000/svg" viewBox="0 0 115 115">
  <defs>
    <style>
      .cls-1 {
        fill: #afdde6;
      }

      .cls-2 {
        stroke: #e58091;
      }

      .cls-2, .cls-3 {
        fill: none;
        stroke-miterlimit: 10;
        stroke-width: 4px;
      }

      .cls-3 {
        stroke: #d691e0;
      }

      .cls-4 {
        fill: #373536;
      }
    </style>
  </defs>
  <g id="Layer_1-2" data-name="Layer_1">
    <g>
      <circle class="cls-1" cx="57.5" cy="57.5" r="57.5"/>
      <line class="cls-2" x1="45.5" y1="60.5" x2="45.5" y2="74.5"/>
      <line class="cls-2" x1="33.5" y1="60.5" x2="33.5" y2="74.5"/>
      <line class="cls-2" x1="22.5" y1="59.5" x2="22.5" y2="74.5"/>
      <line class="cls-2" x1="10.5" y1="62.5" x2="10.5" y2="77.5"/>
      <line class="cls-2" x1="57.5" y1="60.5" x2="57.5" y2="75.5"/>
      <line class="cls-2" x1="69.5" y1="60.5" x2="69.5" y2="76.5"/>
      <line class="cls-2" x1="80.5" y1="62.5" x2="80.5" y2="77.5"/>
      <line class="cls-2" x1="91.5" y1="63.5" x2="91.5" y2="78.5"/>
      <line class="cls-2" x1="103.5" y1="64.5" x2="102.5" y2="79.5"/>
      <line class="cls-3" x1="15.5" y1="68.5" x2="15.5" y2="86.5"/>
      <line class="cls-3" x1="27" y1="70" x2="27" y2="88"/>
      <line class="cls-3" x1="40" y1="70" x2="40" y2="87"/>
      <line class="cls-3" x1="51.5" y1="67.5" x2="51.5" y2="86.5"/>
      <line class="cls-3" x1="64.5" y1="68.5" x2="64.5" y2="84.5"/>
      <line class="cls-3" x1="74.5" y1="67.5" x2="74.5" y2="84.5"/>
      <line class="cls-3" x1="85.5" y1="68.5" x2="85.5" y2="85.5"/>
      <line class="cls-3" x1="97.5" y1="70.5" x2="97.5" y2="85.5"/>
      <line class="cls-3" x1="35.5" y1="96.5" x2="80.5" y2="96.5"/>
      <circle class="cls-4" cx="95.68" cy="42.83" r="6.5"/>
      <circle class="cls-4" cx="19.68" cy="42.83" r="6.5"/>
    </g>
  </g>
</svg>