<?xml version="1.0" encoding="UTF-8"?>
<svg id="Layer_2" xmlns="http://www.w3.org/2000/svg" viewBox="0 0 114.98 115">
  <defs>
    <style>
      .cls-1 {
        fill: #373536;
      }

      .cls-2 {
        fill: #aec5c3;
      }

      .cls-3 {
        fill: #e58091;
      }
    </style>
  </defs>
  <g id="Layer_1-2" data-name="Layer_1">
    <g>
      <circle class="cls-3" cx="57.49" cy="57.51" r="57.49"/>
      <g>
        <path class="cls-2" d="M17.9,15.81c-6.87,6.52-12.13,14.71-15.12,23.94,3.67-4.21,8.55-12.17,15.12-23.94Z"/>
        <path class="cls-2" d="M49.83,28.56c-44.7,37.77-40.38,38.62,7.95,32.23-1.35.03-2.72.07-4.14.11,57.25-7.1,56.08-9.77,9-28.11,47.08,12.61,48.25,9.68,19-15.89,28.92,20.15,27.44,17.65,8.41-3.19,5.47,4.11,9.75,6.97,12.96,8.71C92.5,8.79,76.02,0,57.47,0c-14.69,0-28.09,5.52-38.26,14.59C.89,57.85,2.49,60.43,49.83,28.56Z"/>
        <path class="cls-2" d="M93.8,102.07c3.91-3.19,7.38-6.88,10.33-10.98-2.81,2.84-6.24,6.49-10.33,10.98Z"/>
        <path class="cls-2" d="M64.48,91.13c46.48-28.39,47.59-31.74-6.52-30.35-46.39,11.38-48.68,15.58-12.51,27.81-34.09-5.35-29.64-2.66-8.67,7.79-14.19-3.19-20.81-2.89-20.26,1.46,10.43,10.59,24.92,17.16,40.96,17.16,12.77,0,24.57-4.17,34.11-11.22,24.55-34.72,21.16-36.07-27.11-12.65Z"/>
      </g>
      <circle class="cls-1" cx="78.97" cy="27.51" r="6.5"/>
      <circle class="cls-1" cx="36.97" cy="75.51" r="6.5"/>
    </g>
  </g>
</svg>