<?xml version="1.0" encoding="UTF-8"?>
<svg id="Layer_2" xmlns="http://www.w3.org/2000/svg" viewBox="0 0 115 115">
  <defs>
    <style>
      .cls-1 {
        fill: #afdde6;
      }

      .cls-2 {
        fill: #b9a5d4;
      }

      .cls-3 {
        fill: #aec5c3;
      }

      .cls-4 {
        fill: #a7ea9d;
      }

      .cls-5 {
        fill: #629e96;
      }
    </style>
  </defs>
  <g id="Layer_1-2" data-name="Layer_1">
    <g>
      <circle class="cls-1" cx="57.5" cy="57.5" r="57.5"/>
      <ellipse class="cls-4" cx="40.5" cy="51.5" rx="15" ry="3"/>
      <ellipse class="cls-4" cx="88.5" cy="51.5" rx="15" ry="3"/>
      <ellipse class="cls-2" cx="28" cy="30" rx="2.5" ry="5.5" transform="translate(-8.32 10.91) rotate(-19.25)"/>
      <ellipse class="cls-2" cx="39.26" cy="31.45" rx="2.5" ry="6.86" transform="translate(-8.17 14.7) rotate(-19.25)"/>
      <ellipse class="cls-2" cx="97.21" cy="63.53" rx="2.5" ry="8.49" transform="translate(-18.74 57.12) rotate(-30)"/>
      <ellipse class="cls-2" cx="20.71" cy="63.53" rx="8.49" ry="2.5" transform="translate(-33.35 24.26) rotate(-35.95)"/>
      <ellipse class="cls-2" cx="88.71" cy="31.73" rx="8.49" ry="2.5" transform="translate(-1.73 58.12) rotate(-35.95)"/>
      <ellipse class="cls-2" cx="95.71" cy="35.73" rx="8.49" ry="2.5" transform="translate(-2.75 62.99) rotate(-35.95)"/>
      <ellipse class="cls-3" cx="55" cy="82" rx="24.5" ry="9.5"/>
      <circle class="cls-5" cx="34.4" cy="45.86" r="6.5"/>
      <circle class="cls-5" cx="82.28" cy="45.86" r="6.5"/>
    </g>
  </g>
</svg>