<?xml version="1.0" encoding="UTF-8"?>
<svg id="Layer_2" xmlns="http://www.w3.org/2000/svg" viewBox="0 0 115 115">
  <defs>
    <style>
      .cls-1 {
        fill: #d691e0;
      }

      .cls-2 {
        fill: #eaa7c8;
      }

      .cls-3 {
        fill: #afdde6;
      }

      .cls-4 {
        fill: #b9a5d4;
      }

      .cls-5 {
        fill: #aec5c3;
      }

      .cls-6 {
        fill: none;
        stroke: #373536;
        stroke-miterlimit: 10;
        stroke-width: 4px;
      }
    </style>
  </defs>
  <g id="Layer_1-2" data-name="Layer_1">
    <g>
      <circle class="cls-3" cx="57.5" cy="57.5" r="57.5"/>
      <polygon class="cls-4" points="83.54 61.62 100.39 42.17 114.04 62.33 99.43 83.55 83.54 61.62"/>
      <polygon class="cls-4" points="1.5 65.58 17.08 44.5 30.5 65.58 17.08 88.5 1.5 65.58"/>
      <path class="cls-1" d="M82.54,103.08c-15.3,5.76-32.29,5.76-47.58,0-16.72-6.32-21.69-22.77-15.17-27.52.63-.58,1.27-1.15,1.9-1.73,6.43-4.93,16.56-3.18,24.51-.51,8.07,3.04,17.03,3.04,25.09,0,7.95-2.66,18.08-4.42,24.51.51.63.58,1.27,1.15,1.9,1.73,6.52,4.75,1.55,21.2-15.17,27.52Z"/>
      <path class="cls-6" d="M28.5,78.5c1.38,2,10.65,14.99,28,17,19.74,2.29,32.75-11.61,34-13"/>
      <polygon class="cls-5" points="38.5 7.5 61.5 40.5 85 9.63 38.5 7.5"/>
      <circle class="cls-2" cx="30.64" cy="47.38" r="6.5"/>
      <circle class="cls-2" cx="84.64" cy="47.38" r="6.5"/>
    </g>
  </g>
</svg>