<?xml version="1.0" encoding="UTF-8"?>
<svg id="Layer_2" xmlns="http://www.w3.org/2000/svg" viewBox="0 0 115 115">
  <defs>
    <style>
      .cls-1 {
        stroke: #6291c4;
        stroke-width: 6px;
      }

      .cls-1, .cls-2 {
        fill: none;
        stroke-miterlimit: 10;
      }

      .cls-3 {
        fill: #d691e0;
      }

      .cls-4 {
        fill: #373536;
      }

      .cls-2 {
        stroke: #eaa7c8;
        stroke-width: 5px;
      }
    </style>
  </defs>
  <g id="Layer_1-2" data-name="Layer_1">
    <g>
      <circle class="cls-4" cx="57.5" cy="57.5" r="57.5"/>
      <path class="cls-1" d="M2.5,49.5c1.52,1.62,9.41,9.7,22,10,15.78.38,25.12-11.81,26-13"/>
      <path class="cls-1" d="M62.73,45.73c1.52,1.62,9.41,9.7,22,10,15.78.38,25.12-11.81,26-13"/>
      <line class="cls-1" x1="10" y1="74" x2="17" y2="60"/>
      <line class="cls-1" x1="26" y1="77" x2="25" y2="61"/>
      <line class="cls-1" x1="45" y1="75" x2="36" y2="57"/>
      <line class="cls-1" x1="62" y1="65" x2="76" y2="55"/>
      <line class="cls-1" x1="81" y1="77" x2="88" y2="57"/>
      <line class="cls-1" x1="103" y1="74" x2="97" y2="54"/>
      <ellipse class="cls-3" cx="57.83" cy="98.75" rx="8.17" ry="5.25"/>
      <path class="cls-2" d="M4.5,47.15c1.39,1.19,8.63,7.12,20.17,7.34,14.47.28,23.02-8.67,23.83-9.55"/>
      <path class="cls-2" d="M64.82,43.34c1.39,1.19,8.63,7.12,20.17,7.34,14.47.28,23.02-8.67,23.83-9.55"/>
    </g>
  </g>
</svg>