<?xml version="1.0" encoding="UTF-8"?>
<svg id="Layer_2" xmlns="http://www.w3.org/2000/svg" viewBox="0 0 115 115">
  <defs>
    <style>
      .cls-1 {
        fill: #d691e0;
      }

      .cls-2 {
        fill: #fdfad0;
      }

      .cls-3 {
        fill: #afdde6;
      }

      .cls-4 {
        fill: #6291c4;
      }

      .cls-5 {
        fill: #e58091;
      }
    </style>
  </defs>
  <g id="Layer_1-2" data-name="Layer_1">
    <g>
      <circle class="cls-4" cx="57.5" cy="57.5" r="57.5"/>
      <polygon class="cls-2" points="23.5 42.5 18.5 37.5 29.31 37.5 37.5 25.5 39.5 38.5 48.5 43.5 38.5 45.5 37.5 58.5 29.5 48.5 19.5 49.5 23.5 42.5"/>
      <polygon class="cls-2" points="66.5 39.5 76.5 42.5 71.5 53.5 82.5 48.5 90 57.59 90 44.99 99.5 40.5 90 37.16 92.5 24.5 81.5 36.5 66.5 39.5"/>
      <path class="cls-1" d="M24.5,79.5s-13-8-12-14,6-1.36,6-1.36c0,0,6-8.64,7-.64s-1,16-1,16Z"/>
      <path class="cls-1" d="M83.39,85.38s-3.54-14.85,1.41-18.38c4.95-3.54,5.21,3.28,5.21,3.28,0,0,10.35-1.87,5.4,4.5-4.95,6.36-12.02,10.61-12.02,10.61Z"/>
      <polygon class="cls-5" points="43.1 79.5 53.5 59.5 63.5 80.5 56.5 102.5 43.1 79.5"/>
      <circle class="cls-3" cx="33.28" cy="42.23" r="6.5"/>
      <circle class="cls-3" cx="84.28" cy="42.23" r="6.5"/>
    </g>
  </g>
</svg>