<?xml version="1.0" encoding="UTF-8"?>
<svg id="Layer_2" xmlns="http://www.w3.org/2000/svg" viewBox="0 0 115 115">
  <defs>
    <style>
      .cls-1 {
        fill: #d691e0;
      }

      .cls-2 {
        fill: #373536;
      }

      .cls-3 {
        stroke: #b9a5d4;
      }

      .cls-3, .cls-4 {
        fill: none;
        stroke-miterlimit: 10;
        stroke-width: 4px;
      }

      .cls-5 {
        fill: #a7ea9d;
      }

      .cls-6 {
        fill: #629e96;
      }

      .cls-4 {
        stroke: #373536;
      }
    </style>
  </defs>
  <g id="Layer_1-2" data-name="Layer_1">
    <g>
      <circle class="cls-6" cx="57.5" cy="57.5" r="57.5"/>
      <line class="cls-4" x1="37" y1="19" x2="38" y2="65"/>
      <line class="cls-4" x1="76.98" y1="19.86" x2="77.98" y2="65.86"/>
      <polygon class="cls-1" points="27.16 41.27 20.11 37.59 14.44 43.16 15.76 35.32 8.71 31.65 16.57 30.48 17.89 22.64 21.43 29.76 29.29 28.59 23.62 34.15 27.16 41.27"/>
      <polygon class="cls-1" points="100.63 41.27 93.59 37.59 87.92 43.16 89.23 35.32 82.19 31.65 90.05 30.48 91.37 22.64 94.91 29.76 102.77 28.59 97.1 34.15 100.63 41.27"/>
      <polygon class="cls-5" points="29.49 75.05 18.65 68.9 9.45 77.3 11.96 65.09 1.12 58.93 13.51 57.55 16.01 45.34 21.16 56.69 33.55 55.3 24.34 63.7 29.49 75.05"/>
      <polygon class="cls-5" points="110.63 75.05 99.8 68.9 90.59 77.3 93.1 65.09 82.27 58.93 94.65 57.55 97.16 45.34 102.31 56.69 114.69 55.3 105.49 63.7 110.63 75.05"/>
      <line class="cls-3" x1="37.5" y1="90.5" x2="80.5" y2="88.5"/>
      <circle class="cls-2" cx="77.18" cy="42.33" r="6.5"/>
      <circle class="cls-2" cx="37.18" cy="42.33" r="6.5"/>
    </g>
  </g>
</svg>