<?xml version="1.0" encoding="UTF-8"?>
<svg id="Layer_2" xmlns="http://www.w3.org/2000/svg" viewBox="0 0 114 114">
  <defs>
    <style>
      .cls-1 {
        fill: #afdde6;
      }

      .cls-2 {
        fill: none;
      }

      .cls-3 {
        fill: #6291c4;
      }

      .cls-4 {
        fill: #151515;
      }

      .cls-5 {
        fill: #e58091;
      }
    </style>
  </defs>
  <g id="Layer_1-2" data-name="Layer_1">
    <g>
      <circle class="cls-1" cx="57" cy="57" r="57"/>
      <circle class="cls-4" cx="76.53" cy="23.23" r="6.5"/>
      <circle class="cls-4" cx="26.53" cy="30.23" r="6.5"/>
      <g>
        <path class="cls-2" d="M57,0c-14.57,0-27.85,5.47-37.93,14.47.57-.05,1.13.08,1.64.47,1.26.99,1.31,3.17.6,4.71-.71,1.54-1.96,2.65-3.03,3.9-2.74,3.22-4.31,8.22-2.52,12.18,1.38,3.04,4.48,4.77,7.51,4.92,3.04.14,6.01-1.09,8.66-2.75,3.66-2.3,7.2-5.39,11.63-4.41,4.09.91,7.58,4.41,9.28,8.61,2.46,6.05,2.01,13.56-.3,19.58-3.12,8.12-9.64,15.31-17.15,18.07-3.13,1.15-6.86-.17-9.78,1.64-1.71,1.06-2.73,3.17-3.09,5.32-1.19,7.1,2.36,18.48,9.19,20.85-1.39-.48-2.74-1.05-4.07-1.69,8.57,5.16,18.61,8.13,29.35,8.13,31.48,0,57-25.52,57-57S88.48,0,57,0Z"/>
        <path class="cls-3" d="M22.53,86.7c.36-2.15,1.38-4.27,3.09-5.32,2.92-1.81,6.65-.49,9.78-1.64,7.51-2.76,14.04-9.95,17.15-18.07,2.31-6.02,2.76-13.52.3-19.58-1.7-4.19-5.2-7.7-9.28-8.61-4.43-.99-7.97,2.11-11.63,4.41-2.65,1.67-5.63,2.9-8.66,2.75-3.04-.14-6.14-1.88-7.51-4.92-1.8-3.96-.22-8.96,2.52-12.18,1.07-1.25,2.32-2.36,3.03-3.9.71-1.54.67-3.71-.6-4.71-.5-.4-1.06-.52-1.64-.47C7.37,24.9,0,40.09,0,57c0,20.74,11.08,38.89,27.65,48.87,1.33.63,2.68,1.2,4.07,1.69-6.83-2.38-10.38-13.76-9.19-20.85Z"/>
      </g>
      <g>
        <path class="cls-2" d="M105.35,83.3c-2.86-3.78-2.52-13.03-7.75-14.7-1.63-.52-3.39,0-5.08.32-15.28,2.92-27.05-10.98-27.03-24.75,0-2.57.4-5.24,1.91-7.35,1.5-2.1,3.95-3.41,6.49-4.09,5.25-1.38,12.93.18,16.35-5.1,1.93-2.98.8-7.29-2.48-8.9-1.01-.5-2.16-.74-3.1-1.35-2.61-1.69-3.2-7.38-.25-9.07.48-.27,1.04-.37,1.66-.33C77.56,2.92,67.62,0,57,0,25.52,0,0,25.52,0,57s25.52,57,57,57c21.47,0,40.15-11.87,49.87-29.4-.64-.23-1.11-.76-1.52-1.3Z"/>
        <path class="cls-3" d="M84.42,8.31c-2.95,1.69-2.36,7.38.25,9.07.94.61,2.09.85,3.1,1.35,3.28,1.62,4.41,5.93,2.48,8.9-3.42,5.28-11.1,3.71-16.35,5.1-2.54.67-4.99,1.99-6.49,4.09-1.51,2.11-1.91,4.78-1.91,7.35-.02,13.76,11.75,27.67,27.03,24.75,1.68-.32,3.45-.84,5.08-.32,5.22,1.68,4.89,10.93,7.75,14.7.41.54.88,1.07,1.52,1.3,4.54-8.18,7.13-17.58,7.13-27.6,0-20.86-11.21-39.09-27.92-49.02-.62-.04-1.18.06-1.66.33Z"/>
      </g>
      <path class="cls-5" d="M89.55,89.97c.09,5.73-12.97,9.46-29,9-16.03.46-29.09-3.27-29-9,0-5.85,12.33-2.38,29-2.04,16.67-.34,29-3.81,29,2.04Z"/>
    </g>
  </g>
</svg>