<?xml version="1.0" encoding="UTF-8"?>
<svg id="Layer_2" xmlns="http://www.w3.org/2000/svg" viewBox="0 0 115 115">
  <defs>
    <style>
      .cls-1 {
        fill: #d691e0;
      }

      .cls-2 {
        fill: #fdfad0;
      }

      .cls-3 {
        fill: none;
        stroke: #6291c4;
        stroke-miterlimit: 10;
        stroke-width: 4px;
      }

      .cls-4 {
        fill: #afdde6;
      }

      .cls-5 {
        fill: #a7ea9d;
      }
    </style>
  </defs>
  <g id="Layer_1-2" data-name="Layer_1">
    <g>
      <circle class="cls-5" cx="57.5" cy="57.5" r="57.5"/>
      <path class="cls-2" d="M18.27,25.99c-14.16,7.63-5.01,20.13,9.51,21.4,7.52,1.01,15.48.75,23.09,1.27,9.93.57,19.66,2.29,29.54,3.23,6.4.66,34.98,2.12,28.37-5.22-2.77-3.3-7.62-7.33-9.34-11.68-3.36-6.21-1.07-15.4-7.59-16.37-7.4-1.01-24.03,3.26-33.83,3.33-14.08.95-27.72-1.95-39.55,3.93l-.19.1Z"/>
      <path class="cls-3" d="M28.5,72.5s17.53,15,43.77,15"/>
      <path class="cls-4" d="M28.89,29.4c-11.44,7.39-3.85,14.26,6.7,15.49,6.51.93,13.76.87,20.52.96,10,.04,20.87.42,28.09.42,5.66.05,14.86-.13,10.32-8.14-3.76-5.96-11.98-10.06-19.14-12.53-14.08-4.83-33.75-3.8-46.35,3.71l-.13.09Z"/>
      <circle class="cls-1" cx="34.78" cy="36.23" r="6.5"/>
      <circle class="cls-1" cx="79.78" cy="36.23" r="6.5"/>
    </g>
  </g>
</svg>