<?xml version="1.0" encoding="UTF-8"?>
<svg id="Layer_2" xmlns="http://www.w3.org/2000/svg" viewBox="0 0 115 115">
  <defs>
    <style>
      .cls-1 {
        fill: #d691e0;
      }

      .cls-2 {
        fill: #fdfad0;
      }

      .cls-3 {
        stroke: #d691e0;
      }

      .cls-3, .cls-4 {
        fill: none;
        stroke-miterlimit: 10;
        stroke-width: 4px;
      }

      .cls-5 {
        fill: #373536;
      }

      .cls-4 {
        stroke: #afdde6;
      }

      .cls-6 {
        fill: #aec5c3;
      }
    </style>
  </defs>
  <g id="Layer_1-2" data-name="Layer_1">
    <g>
      <circle class="cls-6" cx="57.5" cy="57.5" r="57.5"/>
      <circle class="cls-1" cx="32.5" cy="52.5" r="8"/>
      <circle class="cls-1" cx="84.5" cy="52.5" r="8"/>
      <ellipse class="cls-2" cx="57.5" cy="81.5" rx="13" ry="8"/>
      <line class="cls-3" x1="15.5" y1="24.5" x2="31.5" y2="41.5"/>
      <line class="cls-3" x1="11" y1="34" x2="24.5" y2="46.5"/>
      <line class="cls-3" x1="9.12" y1="46.5" x2="21" y2="54"/>
      <line class="cls-3" x1="96" y1="23" x2="85.46" y2="41.5"/>
      <line class="cls-3" x1="102.31" y1="34" x2="92.5" y2="43.5"/>
      <line class="cls-3" x1="105.88" y1="48.5" x2="96" y2="54"/>
      <line class="cls-4" x1="76.5" y1="76.18" x2="97.4" y2="80.01"/>
      <line class="cls-4" x1="76.5" y1="84.1" x2="92.5" y2="92.52"/>
      <line class="cls-4" x1="72.18" y1="89.5" x2="84.5" y2="99.67"/>
      <line class="cls-4" x1="41.5" y1="90.48" x2="33.5" y2="103.24"/>
      <line class="cls-4" x1="24.5" y1="97.88" x2="36" y2="87"/>
      <line class="cls-4" x1="30.25" y1="81.5" x2="15.5" y2="89.5"/>
      <circle class="cls-5" cx="75.68" cy="29.83" r="6.5"/>
      <circle class="cls-5" cx="38.68" cy="29.83" r="6.5"/>
    </g>
  </g>
</svg>