<?xml version="1.0" encoding="UTF-8"?>
<svg id="Layer_2" xmlns="http://www.w3.org/2000/svg" viewBox="0 0 115 115">
  <defs>
    <style>
      .cls-1 {
        fill: #d691e0;
      }

      .cls-2 {
        stroke: #d691e0;
      }

      .cls-2, .cls-3 {
        fill: none;
        stroke-miterlimit: 10;
        stroke-width: 4px;
      }

      .cls-3 {
        stroke: #afdde6;
      }

      .cls-4 {
        fill: #e58091;
      }

      .cls-5 {
        fill: #629e96;
      }
    </style>
  </defs>
  <g id="Layer_1-2" data-name="Layer_1">
    <g>
      <circle class="cls-5" cx="57.5" cy="57.5" r="57.5"/>
      <rect class="cls-1" x="10.5" y="47.41" width="35" height="13" rx="6.5" ry="6.5"/>
      <rect class="cls-1" x="71.5" y="47.41" width="35" height="13" rx="6.5" ry="6.5" transform="translate(178 107.83) rotate(180)"/>
      <path class="cls-2" d="M21.5,85.5c5.93,3.57,20.71,11.4,41,11,18.55-.36,32.05-7.41,38-11"/>
      <line class="cls-3" x1="14.5" y1="28.5" x2="14.5" y2="42.5"/>
      <line class="cls-3" x1="22" y1="20" x2="22" y2="44"/>
      <line class="cls-3" x1="32" y1="15" x2="32" y2="42"/>
      <line class="cls-3" x1="42" y1="15" x2="42" y2="42"/>
      <polyline class="cls-3" points="53 8 53.71 28.5 71.5 40.8"/>
      <polyline class="cls-3" points="67 12 65 25 79 38"/>
      <polyline class="cls-3" points="75 10 71.5 23.95 86.27 38"/>
      <circle class="cls-4" cx="38.68" cy="53.91" r="6.5"/>
      <circle class="cls-4" cx="77.68" cy="53.91" r="6.5"/>
      <polyline class="cls-3" points="86 15 83.59 28.5 97.42 38"/>
    </g>
  </g>
</svg>