<?xml version="1.0" encoding="UTF-8"?>
<svg id="Layer_2" xmlns="http://www.w3.org/2000/svg" viewBox="0 0 115 115">
  <defs>
    <style>
      .cls-1 {
        fill: #d691e0;
      }

      .cls-2 {
        fill: none;
        stroke: #629e96;
        stroke-miterlimit: 10;
        stroke-width: 4px;
      }

      .cls-3 {
        fill: #afdde6;
      }

      .cls-4 {
        fill: #373536;
      }

      .cls-5 {
        fill: #e58091;
      }
    </style>
  </defs>
  <g id="Layer_1-2" data-name="Layer_1">
    <g>
      <circle class="cls-3" cx="57.5" cy="57.5" r="57.5"/>
      <path class="cls-5" d="M26.67,53.5c4.75-.94,9.31-2.73,13.98-4.01,5.68-1.56,11.6-2.75,17.51-2.02,3.73.46,7.27,1.72,10.94,2.5,4.49.95,9.06,1.6,13.66,1.5,7.4-.17,17.95-2.47,21.02-10.14,2.24-5.59.74-11.58-3.35-15.88-4.46-4.69-10.13-5.92-16.39-4.63-1.68.35-3.32.83-4.95,1.38-6.23,2.13-12.4,4.47-19.04,4.87-6.67.4-12.88-2.3-19.24-3.85-4.71-1.14-9.64-1.64-14.42-.85-3.12.51-6.18,1.59-8.78,3.4-5.06,3.53-7.04,9.49-7.44,15.43-.23,3.32.08,6.92,2.22,9.47,1.31,1.57,3.21,2.57,5.2,3.05,1.99.48,4.06.47,6.09.25,1.01-.11,2-.27,2.99-.46Z"/>
      <ellipse class="cls-1" cx="52.5" cy="84.5" rx="9" ry="7"/>
      <g>
        <line class="cls-2" x1="110.18" y1="53.33" x2="76.18" y2="83.33"/>
        <line class="cls-2" x1="79.95" y1="68.16" x2="88.92" y2="84.33"/>
        <line class="cls-2" x1="89.5" y1="59.78" x2="98.48" y2="75.94"/>
        <line class="cls-2" x1="98.53" y1="51.86" x2="107.5" y2="68.03"/>
      </g>
      <circle class="cls-4" cx="80.68" cy="38.33" r="6.5"/>
      <circle class="cls-4" cx="31.68" cy="38.33" r="6.5"/>
    </g>
  </g>
</svg>