<?xml version="1.0" encoding="UTF-8"?>
<svg id="Layer_2" xmlns="http://www.w3.org/2000/svg" viewBox="0 0 115 115">
  <defs>
    <style>
      .cls-1 {
        fill: #d691e0;
      }

      .cls-2 {
        fill: #64c0cf;
      }

      .cls-2, .cls-3, .cls-4, .cls-5 {
        stroke-miterlimit: 10;
      }

      .cls-2, .cls-4 {
        stroke: #6291c4;
        stroke-width: 10px;
      }

      .cls-6 {
        fill: #afdde6;
      }

      .cls-7, .cls-3, .cls-5 {
        fill: none;
      }

      .cls-3 {
        stroke: #e58091;
      }

      .cls-3, .cls-5 {
        stroke-width: 4px;
      }

      .cls-4 {
        fill: #aec5c3;
      }

      .cls-5 {
        stroke: #b9a5d4;
      }
    </style>
  </defs>
  <g id="Layer_1-2" data-name="Layer_1">
    <g>
      <path class="cls-7" d="M91.41,8.14c.19.17.38.35.57.52-.19-.17-.38-.35-.57-.52Z"/>
      <path class="cls-7" d="M89.34,6.36c.27.22.53.44.79.67-.26-.22-.53-.45-.79-.67Z"/>
      <circle class="cls-6" cx="57.5" cy="57.5" r="57.5"/>
      <line class="cls-3" x1="10.34" y1="65.5" x2="2.34" y2="70.5"/>
      <line class="cls-2" x1="45.84" y1="52" x2="69.84" y2="52"/>
      <path class="cls-5" d="M47.84,90c1.1-3.07,3.97-5.08,7-5,3.57.1,6.71,3.09,7,7"/>
      <line class="cls-3" x1="29.34" y1="73.5" x2="13.34" y2="93.5"/>
      <line class="cls-3" x1="17.34" y1="71.5" x2="7.34" y2="81.5"/>
      <line class="cls-3" x1="89.34" y1="74.5" x2="103.34" y2="90.5"/>
      <line class="cls-3" x1="97.34" y1="71.5" x2="108.34" y2="82.5"/>
      <line class="cls-3" x1="102.34" y1="64.5" x2="111.76" y2="72.74"/>
      <ellipse class="cls-4" cx="29.84" cy="53.78" rx="16.5" ry="14.78"/>
      <ellipse class="cls-4" cx="85.34" cy="54.22" rx="16.5" ry="14.78"/>
      <circle class="cls-6" cx="28.73" cy="53.51" r="6.5"/>
      <circle class="cls-6" cx="84.73" cy="53.51" r="6.5"/>
      <path class="cls-7" d="M97.99,16.68c.09.09.19.19.28.28-.09-.09-.19-.19-.28-.28Z"/>
      <path class="cls-7" d="M95.91,14.72c.19.17.38.35.57.52-.19-.17-.38-.35-.57-.52Z"/>
      <path class="cls-7" d="M113.55,44.71c-15.81-10.47-34.76-16.58-55.14-16.58S17.35,34.81,1.12,46.18c-.73,3.66-1.12,7.44-1.12,11.32,0,31.76,25.74,57.5,57.5,57.5s57.5-25.74,57.5-57.5c0-4.4-.51-8.67-1.45-12.79Z"/>
      <path class="cls-1" d="M113.55,44.71c-2.43-10.69-7.82-20.24-15.28-27.75-.09-.09-.19-.19-.28-.28-.5-.49-1-.97-1.52-1.45-.19-.17-.38-.35-.57-.52-.42-.38-.85-.74-1.28-1.11-.26-.22-.53-.45-.79-.67-.34-.28-.69-.54-1.03-.81-1.59-1.23-3.23-2.39-4.94-3.46-.02-.01-.05-.03-.07-.04-.61-.38-1.24-.75-1.86-1.1-.09-.05-.18-.11-.27-.16-.62-.35-1.26-.69-1.89-1.02-.09-.05-.18-.09-.26-.14-.66-.33-1.32-.66-2-.97-.04-.02-.09-.04-.13-.06-3.59-1.64-7.38-2.92-11.33-3.8-.06-.01-.12-.03-.18-.04-.68-.15-1.37-.28-2.05-.41-.19-.03-.39-.07-.58-.1-.62-.11-1.25-.2-1.88-.29-.27-.04-.55-.07-.82-.1-.58-.07-1.16-.14-1.74-.19-.37-.03-.74-.06-1.11-.08-.51-.04-1.01-.08-1.52-.1-.69-.03-1.39-.05-2.1-.05-.2,0-.39-.01-.59-.01-.98,0-1.94.02-2.91.07-.02,0-.04,0-.06,0-.96.05-1.92.12-2.87.22,0,0,0,0,0,0C26.4,2.86,6,21.72,1.12,46.18c16.23-11.37,35.98-18.05,57.3-18.05s39.33,6.11,55.14,16.58Z"/>
    </g>
  </g>
</svg>