<?xml version="1.0" encoding="UTF-8"?>
<svg id="Layer_2" xmlns="http://www.w3.org/2000/svg" viewBox="0 0 115 115">
  <defs>
    <style>
      .cls-1 {
        fill: none;
        stroke: #6291c4;
        stroke-miterlimit: 10;
        stroke-width: 4px;
      }

      .cls-2 {
        fill: #6291c4;
      }

      .cls-3 {
        fill: #aec5c3;
      }

      .cls-4 {
        fill: #a7ea9d;
      }
    </style>
  </defs>
  <g id="Layer_1-2" data-name="Layer_1">
    <g>
      <circle class="cls-2" cx="57.5" cy="57.5" r="57.5"/>
      <ellipse class="cls-4" cx="33.42" cy="44.23" rx="15.34" ry="30.16" transform="translate(-21.49 36.59) rotate(-45)"/>
      <ellipse class="cls-4" cx="81.65" cy="43.73" rx="30.16" ry="15.34" transform="translate(-7.01 70.54) rotate(-45)"/>
      <line class="cls-1" x1="12.5" y1="22.5" x2="55.5" y2="66.5"/>
      <line class="cls-1" x1="43.5" y1="53.5" x2="20.5" y2="54.5"/>
      <line class="cls-1" x1="48.5" y1="30.5" x2="43.5" y2="53.5"/>
      <line class="cls-1" x1="34.5" y1="20.5" x2="33.5" y2="43.5"/>
      <line class="cls-1" x1="4.5" y1="41.5" x2="33.5" y2="43.5"/>
      <line class="cls-1" x1="103.5" y1="22.5" x2="54.5" y2="71.5"/>
      <line class="cls-1" x1="59.5" y1="30.5" x2="67.5" y2="57.5"/>
      <line class="cls-1" x1="73.5" y1="23.5" x2="79.5" y2="45.5"/>
      <line class="cls-1" x1="98.5" y1="65.5" x2="67.5" y2="57.5"/>
      <line class="cls-1" x1="106.5" y1="53.5" x2="79.5" y2="45.5"/>
      <line class="cls-1" x1="86.5" y1="16.5" x2="89.5" y2="37.5"/>
      <line class="cls-1" x1="108.5" y1="45.5" x2="87.5" y2="36.5"/>
      <line class="cls-1" x1="24.5" y1="16.5" x2="24.5" y2="34.5"/>
      <line class="cls-1" x1="5.5" y1="33.5" x2="24.5" y2="34.5"/>
      <rect class="cls-3" x="35.5" y="88.5" width="42" height="12"/>
    </g>
  </g>
</svg>