<?xml version="1.0" encoding="UTF-8"?>
<svg id="Layer_2" xmlns="http://www.w3.org/2000/svg" viewBox="0 0 115 115">
  <defs>
    <style>
      .cls-1 {
        fill: #fdfad0;
      }

      .cls-2 {
        fill: #afdde6;
      }

      .cls-3 {
        stroke: #d691e0;
      }

      .cls-3, .cls-4 {
        fill: none;
        stroke-miterlimit: 10;
        stroke-width: 4px;
      }

      .cls-5 {
        fill: #373536;
      }

      .cls-4 {
        stroke: #eaa7c8;
      }
    </style>
  </defs>
  <g id="Layer_1-2" data-name="Layer_1">
    <g>
      <circle class="cls-2" cx="57.5" cy="57.5" r="57.5"/>
      <g>
        <path class="cls-1" d="M95.5,69.5c.15,17.14-16.33,32.35-36.5,33-20.17-.66-36.65-15.86-36.5-33,0-16.96,15.28-42.5,36.5-42.99,21.22.49,36.5,26.02,36.5,42.99Z"/>
        <path class="cls-4" d="M95.5,69.5c.15,17.14-16.33,32.35-36.5,33-20.17-.66-36.65-15.86-36.5-33,0-16.96,15.28-42.5,36.5-42.99,21.22.49,36.5,26.02,36.5,42.99Z"/>
      </g>
      <line class="cls-3" x1="25.13" y1="43.84" x2="11.83" y2="41.71"/>
      <line class="cls-3" x1="20.13" y1="55.84" x2="6.83" y2="53.71"/>
      <line class="cls-3" x1="17.13" y1="69.84" x2="3.83" y2="67.71"/>
      <line class="cls-3" x1="94.78" y1="38.31" x2="106.71" y2="35.47"/>
      <line class="cls-3" x1="98.48" y1="49.41" x2="110.42" y2="46.57"/>
      <line class="cls-3" x1="100.29" y1="62.53" x2="112.22" y2="59.69"/>
      <circle class="cls-5" cx="76.71" cy="17.3" r="6.5"/>
      <circle class="cls-5" cx="36.71" cy="17.3" r="6.5"/>
    </g>
  </g>
</svg>