<?xml version="1.0" encoding="UTF-8"?>
<svg id="Layer_2" xmlns="http://www.w3.org/2000/svg" viewBox="0 0 115.02 115.02">
  <defs>
    <style>
      .cls-1 {
        stroke: #fdfad0;
      }

      .cls-1, .cls-2, .cls-3 {
        fill: none;
        stroke-miterlimit: 10;
      }

      .cls-1, .cls-3 {
        stroke-width: 6px;
      }

      .cls-2 {
        stroke: #b9a5d4;
        stroke-width: 4px;
      }

      .cls-4 {
        fill: #a7ea9d;
      }

      .cls-5 {
        fill: #629e96;
      }

      .cls-3 {
        stroke: #e58091;
      }
    </style>
  </defs>
  <g id="Layer_1-2" data-name="Layer_1">
    <g>
      <circle class="cls-5" cx="57.51" cy="57.51" r="57.5"/>
      <line class="cls-1" x1="30.55" y1="9.09" x2="30.98" y2="31.29"/>
      <line class="cls-1" x1="42.93" y1="3.11" x2="44.29" y2="31.24"/>
      <line class="cls-1" x1="57.75" y1=".79" x2="59.57" y2="31.88"/>
      <line class="cls-1" x1="72.34" y1="3.41" x2="75.99" y2="33.21"/>
      <line class="cls-1" x1="90.15" y1="13.78" x2="92.47" y2="28.6"/>
      <line class="cls-1" x1="101.78" y1="25.28" x2="103.97" y2="86.53"/>
      <line class="cls-1" x1="10.78" y1="29.28" x2="10.42" y2="80.06"/>
      <line class="cls-3" x1="19.78" y1="49.24" x2="20.99" y2="76.38"/>
      <line class="cls-3" x1="31.57" y1="53.47" x2="32.84" y2="74.52"/>
      <line class="cls-3" x1="44.57" y1="52.45" x2="45.99" y2="74.49"/>
      <line class="cls-3" x1="66.92" y1="53" x2="69.12" y2="79.98"/>
      <line class="cls-3" x1="77.95" y1="52.29" x2="80.67" y2="76.15"/>
      <line class="cls-3" x1="87.83" y1="50.74" x2="91.23" y2="72.48"/>
      <path class="cls-2" d="M22.38,85.27c9.12,2.22,20.31,4.21,33.16,4.93,12.3.7,23.2.08,32.23-.99"/>
      <circle class="cls-4" cx="86.39" cy="40.7" r="6.5"/>
      <circle class="cls-4" cx="26.56" cy="40.7" r="6.5"/>
    </g>
  </g>
</svg>