<?xml version="1.0" encoding="UTF-8"?>
<svg id="Layer_2" xmlns="http://www.w3.org/2000/svg" viewBox="0 0 115 115">
  <defs>
    <style>
      .cls-1 {
        fill: #eaa7c8;
      }

      .cls-2 {
        fill: #b9a5d4;
      }

      .cls-3 {
        fill: #373536;
      }

      .cls-4 {
        fill: none;
        stroke: #eaa7c8;
        stroke-miterlimit: 10;
        stroke-width: 4px;
      }

      .cls-5 {
        fill: #e58091;
      }
    </style>
  </defs>
  <g id="Layer_1-2" data-name="Layer_1">
    <g>
      <circle class="cls-3" cx="57.5" cy="57.5" r="57.5"/>
      <path class="cls-1" d="M51.09,53.99c0-3.66-.68-7.42-1.34-10.81-1.06-5.43-2.52-10.8-4.24-16.06v5c0,4-2.56,6.08-3.58,6.75.08-.68.02-2.27-.42-5.75-1-8-5-13-5-13l-2,4c-2,4-4,11-4,11l-1-3c-1-3,0-10,0-10l-5,11c-1.32,2.9-2.01,4.99-2.33,6.51l-2.67-8.51s.17,4.05-2,11c-1.38,4.42-2.57,9.29-2.43,13.96.3,9.48,8.94,15.54,17.93,15.54,5.23,0,10.54-1.99,14.12-5.88,3.03-3.29,3.97-7.46,3.97-11.76Z"/>
      <path class="cls-1" d="M95.09,51.99c0-3.66-.68-7.42-1.34-10.81-1.06-5.43-2.52-10.8-4.24-16.06v5c0,4-2.56,6.08-3.58,6.75.08-.68.02-2.27-.42-5.75-1-8-5-13-5-13l-2,4c-2,4-4,11-4,11l-1-3c-1-3,0-10,0-10l-5,11c-1.32,2.9-2.01,4.99-2.33,6.51l-2.67-8.51s.17,4.05-2,11c-1.38,4.42-2.57,9.29-2.43,13.96.3,9.48,8.94,15.54,17.93,15.54,5.23,0,10.54-1.99,14.12-5.88,3.03-3.29,3.97-7.46,3.97-11.76Z"/>
      <path class="cls-5" d="M51.59,57.86c0-3.66-.68-7.42-1.34-10.81-1.06-5.43-2.52-10.8-4.24-16.06v5c0,4-2.56,6.08-3.58,6.75.08-.68.02-2.27-.42-5.75-1-8-5-13-5-13l-2,4c-2,4-4,11-4,11l-1-3c-1-3,0-10,0-10l-5,11c-1.32,2.9-2.01,4.99-2.33,6.51l-2.67-8.51s.17,4.05-2,11c-1.38,4.42-2.57,9.29-2.43,13.96.3,9.48,8.94,15.54,17.93,15.54,5.23,0,10.54-1.99,14.12-5.88,3.03-3.29,3.97-7.46,3.97-11.76Z"/>
      <path class="cls-5" d="M60.06,55.74c0-3.66.68-7.42,1.34-10.81,1.06-5.43,2.52-10.8,4.24-16.06v5c0,4,2.56,6.08,3.58,6.75-.08-.68-.02-2.27.42-5.75,1-8,5-13,5-13l2,4c2,4,4,11,4,11l1-3c1-3,0-10,0-10l5,11c1.32,2.9,2.01,4.99,2.33,6.51l2.67-8.51s-.17,4.05,2,11c1.38,4.42,2.57,9.29,2.43,13.96-.3,9.48-8.94,15.54-17.93,15.54-5.23,0-10.54-1.99-14.12-5.88-3.03-3.29-3.97-7.46-3.97-11.76Z"/>
      <path class="cls-2" d="M68.4,46.46c-.63,1.63-1.23,3.26-1.56,5-.79,4.21-.81,8.92,1.15,12.83,3.67,7.32,12.94,7.27,17.77,1.13,1.44-1.83,2.39-4,2.94-6.26.27-1.12.38-2.23.53-3.36.06-.42.06-3.17.25-3.3,0,0-3,2-5,5-1.85,2.77-1.99,2.98-2,3,4.12-6.19,3.95-15.42.97-21.99-2.93,2.79-6.05,5.89-6.97,9.99l-1,5s-4-8-5-9-1-1-1-1c-.34,1-.72,1.98-1.1,2.96Z"/>
      <path class="cls-2" d="M43.62,47.82c.63,1.63,1.23,3.26,1.56,5,.79,4.21.81,8.92-1.15,12.83-3.67,7.32-12.94,7.27-17.77,1.13-1.44-1.83-2.39-4-2.94-6.26-.27-1.12-.38-2.23-.53-3.36-.06-.42-.06-3.17-.25-3.3,0,0,3,2,5,5,1.85,2.77,1.99,2.98,2,3-4.12-6.19-3.95-15.42-.97-21.99,2.93,2.79,6.05,5.89,6.97,9.99l1,5s4-8,5-9q1-1,1-1c.34,1,.72,1.98,1.1,2.96Z"/>
      <path class="cls-4" d="M46.18,87.68c1.77,3.21,5.18,5.15,8.73,4.97,4.02-.2,7.53-3.08,8.63-7.11"/>
    </g>
  </g>
</svg>