<?xml version="1.0" encoding="UTF-8"?>
<svg id="Layer_2" xmlns="http://www.w3.org/2000/svg" viewBox="0 0 115 115">
  <defs>
    <style>
      .cls-1 {
        fill: #eaa7c8;
      }

      .cls-2 {
        fill: #6291c4;
      }

      .cls-3 {
        stroke: #d691e0;
      }

      .cls-3, .cls-4 {
        fill: none;
        stroke-miterlimit: 10;
        stroke-width: 4px;
      }

      .cls-4 {
        stroke: #fdfad0;
      }
    </style>
  </defs>
  <g id="Layer_1-2" data-name="Layer_1">
    <g>
      <circle class="cls-1" cx="57.5" cy="57.5" r="57.5"/>
      <line class="cls-4" x1="46" y1="28" x2="47" y2="11"/>
      <line class="cls-4" x1="67" y1="28" x2="72" y2="12"/>
      <line class="cls-4" x1="83" y1="36" x2="94" y2="29"/>
      <line class="cls-4" x1="92" y1="53" x2="106" y2="51"/>
      <line class="cls-4" x1="87" y1="70" x2="103" y2="77"/>
      <line class="cls-4" x1="82" y1="83" x2="90" y2="96"/>
      <line class="cls-4" x1="66" y1="91" x2="68" y2="103"/>
      <line class="cls-4" x1="49" y1="93" x2="42" y2="106"/>
      <line class="cls-4" x1="38" y1="86" x2="25" y2="92"/>
      <line class="cls-4" x1="27" y1="71" x2="14" y2="73"/>
      <line class="cls-4" x1="24" y1="53" x2="11" y2="52"/>
      <line class="cls-4" x1="32" y1="36" x2="21" y2="24"/>
      <line class="cls-3" x1="51" y1="77" x2="70" y2="77"/>
      <circle class="cls-2" cx="73.53" cy="48.73" r="6.5"/>
      <circle class="cls-2" cx="41.53" cy="48.73" r="6.5"/>
    </g>
  </g>
</svg>