<?xml version="1.0" encoding="UTF-8"?>
<svg id="Layer_2" xmlns="http://www.w3.org/2000/svg" viewBox="0 0 115 115">
  <defs>
    <style>
      .cls-1 {
        fill: #d691e0;
      }

      .cls-2 {
        fill: #eaa7c8;
      }

      .cls-3 {
        stroke: #3d2194;
      }

      .cls-3, .cls-4, .cls-5 {
        stroke-miterlimit: 10;
        stroke-width: 4px;
      }

      .cls-3, .cls-5 {
        fill: none;
      }

      .cls-4 {
        fill: #fdfad0;
      }

      .cls-4, .cls-5 {
        stroke: #373536;
      }

      .cls-6 {
        fill: #629e96;
      }
    </style>
  </defs>
  <g id="Layer_1-2" data-name="Layer_1">
    <g>
      <circle class="cls-6" cx="57.5" cy="57.5" r="57.5"/>
      <ellipse class="cls-2" cx="30.77" cy="42.28" rx="9.82" ry="17.5" transform="translate(-21.47 44.66) rotate(-56.56)"/>
      <ellipse class="cls-2" cx="84.52" cy="42.28" rx="17.5" ry="9.82" transform="translate(-9.31 53.58) rotate(-33.44)"/>
      <circle class="cls-1" cx="101.18" cy="61.33" r="6"/>
      <circle class="cls-1" cx="13.18" cy="61.33" r="6"/>
      <path class="cls-4" d="M57,103c13.25,0,24-10.75,24-24h-48c0,13.25,10.75,24,24,24Z"/>
      <line class="cls-3" x1="36" y1="91" x2="37" y2="91"/>
      <line class="cls-3" x1="78" y1="91" x2="79" y2="91"/>
      <line class="cls-5" x1="36" y1="89" x2="78" y2="89"/>
      <line class="cls-5" x1="65" y1="79" x2="65" y2="102"/>
      <line class="cls-5" x1="54" y1="79" x2="54" y2="102"/>
      <line class="cls-5" x1="46" y1="79" x2="46" y2="100"/>
      <circle class="cls-1" cx="85.68" cy="42.28" r="6.5"/>
      <circle class="cls-1" cx="29.68" cy="42.28" r="6.5"/>
    </g>
  </g>
</svg>