<?xml version="1.0" encoding="UTF-8"?>
<svg id="Layer_2" xmlns="http://www.w3.org/2000/svg" viewBox="0 0 115 115">
  <defs>
    <style>
      .cls-1 {
        fill: #e26748;
      }

      .cls-2 {
        fill: #8d9efc;
      }

      .cls-3 {
        fill: #e47d9f;
      }

      .cls-4 {
        stroke: #e89f3c;
      }

      .cls-4, .cls-5 {
        fill: none;
        stroke-miterlimit: 10;
        stroke-width: 4px;
      }

      .cls-5 {
        stroke: #8d9efc;
      }
    </style>
  </defs>
  <g id="Layer_1-2" data-name="Layer_1">
    <g>
      <circle class="cls-3" cx="57.5" cy="57.5" r="57.5"/>
      <path class="cls-4" d="M28,21s-10,11-2,18,16-5,16-5l12,13"/>
      <path class="cls-4" d="M92.63,21.03s10,11,2,18c-8,7-16-5-16-5l-12,13"/>
      <path class="cls-4" d="M72,62s20.91,7.06,37.46-14.97"/>
      <path class="cls-4" d="M51.6,61.83s-20.91,7.06-37.46-14.97"/>
      <path class="cls-5" d="M41.19,91.79s-22.07-.47-30.14-26.81"/>
      <path class="cls-5" d="M75.85,90.69s22.07-.47,30.14-26.81"/>
      <circle class="cls-1" cx="56" cy="102" r="5.5"/>
      <circle class="cls-2" cx="78.68" cy="75.83" r="6.5"/>
      <circle class="cls-2" cx="34.68" cy="75.83" r="6.5"/>
    </g>
  </g>
</svg>