<?xml version="1.0" encoding="UTF-8"?>
<svg id="Layer_2" xmlns="http://www.w3.org/2000/svg" viewBox="0 0 115 115">
  <defs>
    <style>
      .cls-1 {
        fill: #b9a5d4;
      }

      .cls-2 {
        fill: #6291c4;
      }

      .cls-3 {
        fill: none;
        stroke: #eaa7c8;
        stroke-miterlimit: 10;
        stroke-width: 4px;
      }

      .cls-4 {
        fill: #e58091;
      }
    </style>
  </defs>
  <g id="Layer_1-2" data-name="Layer_1">
    <g>
      <circle class="cls-2" cx="57.5" cy="57.5" r="57.5"/>
      <path class="cls-3" d="M87.57,41.94c2.82-4.67,2.31-10.53-1.11-14.31-2.81-3.1-7.21-4.39-11.46-3.44"/>
      <path class="cls-3" d="M48.54,26.02c-4.71-2.76-10.56-2.17-14.29,1.31-3.06,2.85-4.29,7.27-3.29,11.5"/>
      <path class="cls-3" d="M46.29,93.75c2.32,4.94,7.47,7.77,12.52,7.02,4.13-.62,7.66-3.56,9.22-7.62"/>
      <path class="cls-4" d="M82,81l9-15s6-10,11-6.8c5,3.2,0,9.8,0,9.8,0,0,6-2,9,2,0,0,3,6-4,8s-25,2-25,2Z"/>
      <path class="cls-4" d="M36.32,76.25l-17.44-1.38s-11.63-.92-10.99-6.82c.64-5.9,8.77-4.36,8.77-4.36,0,0-4.46-4.48-2.22-8.95,0,0,4.04-5.36,8.94.02s12.93,21.49,12.93,21.49Z"/>
      <circle class="cls-1" cx="34.18" cy="38.33" r="6.5"/>
      <circle class="cls-1" cx="85.18" cy="38.33" r="6.5"/>
    </g>
  </g>
</svg>